M48
INCH
T01C0.0157
T02C0.1575
%
T01
X+067847Y+028520
X+067591Y+028264
X+068214Y+028776
X+067683Y+029388
X+067119Y+029900
X+067427Y+030569
X+067939Y+031063
X+068501Y+031325
X+069192Y+031325
X+069633Y+031402
X+069429Y+031757
X+068352Y+032207
X+067939Y+032207
X+068608Y+032792
X+069161Y+033731
X+069068Y+034085
X+069634Y+034083
X+069960Y+033744
X+070596Y+033674
X+071308Y+033825
X+071820Y+033825
X+072212Y+034081
X+072566Y+034081
X+072980Y+033569
X+073571Y+034081
X+073743Y+032834
X+073772Y+032455
X+073969Y+031798
X+074481Y+031572
X+074737Y+031308
X+074481Y+030475
X+073969Y+030494
X+072983Y+030314
X+072980Y+030733
X+072632Y+030989
X+072212Y+031501
X+071216Y+031501
X+071198Y+031884
X+070472Y+030477
X+070460Y+029497
X+070204Y+029123
X+070886Y+029241
X+071240Y+029340
X+071240Y+028382
X+072632Y+028067
X+073877Y+028019
X+073793Y+029035
X+074481Y+029035
X+074862Y+029664
X+075503Y+029136
X+076015Y+028299
X+076532Y+028811
X+076708Y+029136
X+076314Y+029805
X+076428Y+030317
X+076684Y+030568
X+077305Y+030834
X+077561Y+031455
X+077305Y+031867
X+077305Y+032591
X+077431Y+033200
X+078073Y+033629
X+078471Y+033451
X+078983Y+032998
X+079239Y+031711
X+080053Y+031879
X+080603Y+030834
X+079814Y+030019
X+078427Y+029648
X+078683Y+028846
X+079559Y+027473
X+079145Y+026734
X+078203Y+027217
X+077570Y+027630
X+076982Y+027928
X+076794Y+026983
X+076802Y+026340
X+076538Y+025828
X+077156Y+025201
X+077570Y+025748
X+077993Y+024950
X+076802Y+023989
X+076645Y+023579
X+076534Y+023224
X+075759Y+022963
X+076271Y+022432
X+075759Y+022214
X+075630Y+021837
X+075374Y+021582
X+074809Y+021937
X+074284Y+021937
X+073929Y+021167
X+073241Y+020765
X+073241Y+020388
X+072657Y+020585
X+072985Y+021326
X+072149Y+021948
X+071637Y+021180
X+071230Y+021180
X+070824Y+021436
X+070706Y+020924
X+070147Y+021044
X+070155Y+020004
X+070962Y+019847
X+070962Y+019335
X+071492Y+019614
X+072004Y+019490
X+071712Y+020623
X+073673Y+019490
X+073929Y+019746
X+074284Y+019746
X+073398Y+019018
X+072657Y+018022
X+072480Y+017476
X+072472Y+016954
X+072728Y+016222
X+073142Y+016222
X+072472Y+015514
X+071514Y+015514
X+070538Y+015238
X+070282Y+015762
X+069686Y+016410
X+069376Y+016018
X+069372Y+014903
X+068591Y+014903
X+068591Y+014215
X+067774Y+013161
X+068030Y+012441
X+067764Y+011956
X+068085Y+011328
X+068781Y+011444
X+069572Y+011732
X+070084Y+011890
X+069897Y+010886
X+071215Y+011065
X+071215Y+010000
X+072302Y+009843
X+072298Y+009272
X+072621Y+008984
X+072298Y+008696
X+071471Y+008578
X+070596Y+008984
X+070084Y+008283
X+069340Y+008019
X+069391Y+007665
X+069328Y+007153
X+069313Y+006526
X+068832Y+006526
X+068320Y+007269
X+068162Y+007832
X+067206Y+007582
X+067027Y+007937
X+066344Y+008193
X+065628Y+009060
X+065372Y+008804
X+065237Y+009194
X+064981Y+009768
X+065669Y+010300
X+066344Y+009768
X+067685Y+010153
X+067829Y+009581
X+067829Y+008804
X+068674Y+010288
X+069102Y+012953
X+069942Y+012981
X+070282Y+013692
X+070961Y+013645
X+070907Y+014525
X+072085Y+014157
X+072303Y+013353
X+072621Y+012564
X+072040Y+012466
X+072298Y+011851
X+072302Y+011496
X+073144Y+011521
X+073863Y+012262
X+074611Y+012129
X+074532Y+011775
X+074886Y+011705
X+074532Y+011189
X+074276Y+010939
X+074886Y+010627
X+075243Y+009881
X+076141Y+009583
X+076871Y+009321
X+077225Y+009337
X+078125Y+009656
X+078910Y+009276
X+079166Y+009911
X+079678Y+009911
X+080602Y+009276
X+080464Y+008754
X+079678Y+008760
X+079422Y+008498
X+079678Y+008243
X+078910Y+008243
X+078904Y+007620
X+078886Y+006790
X+078125Y+006009
X+077272Y+006265
X+076280Y+006269
X+076280Y+006897
X+076141Y+007926
X+076930Y+007843
X+076871Y+008281
X+075243Y+008852
X+074805Y+008027
X+074442Y+007516
X+074507Y+006897
X+075061Y+006897
X+075517Y+006101
X+075180Y+005651
X+074763Y+005139
X+073914Y+006624
X+072750Y+007153
X+071825Y+007409
X+072299Y+006013
X+072299Y+004253
X+070215Y+006526
X+068426Y+005139
X+067839Y+005591
X+067575Y+005336
X+067069Y+005080
X+066600Y+005137
X+066344Y+006269
X+066344Y+006782
X+067359Y+006526
X+067839Y+006526
X+067839Y+006013
X+065155Y+006813
X+064764Y+006767
X+064252Y+006187
X+064508Y+005932
X+063898Y+005658
X+063552Y+005355
X+063040Y+004881
X+062369Y+005560
X+061868Y+005816
X+061436Y+006825
X+060856Y+007411
X+060509Y+007843
X+060025Y+007714
X+059742Y+007155
X+060025Y+006825
X+059742Y+006387
X+060096Y+006293
X+059007Y+007155
X+058338Y+007743
X+057826Y+008016
X+057574Y+007743
X+056830Y+007790
X+056652Y+008186
X+056908Y+008853
X+056140Y+008853
X+055628Y+008598
X+055372Y+008342
X+055372Y+008898
X+055018Y+009016
X+054012Y+009016
X+053029Y+008737
X+052067Y+008565
X+051710Y+008992
X+051183Y+008132
X+051710Y+007597
X+051748Y+006896
X+051748Y+006363
X+051198Y+007085
X+050295Y+007341
X+050606Y+006353
X+050295Y+006097
X+050138Y+005587
X+049510Y+006097
X+049155Y+006353
X+048378Y+006697
X+048023Y+006887
X+047491Y+007528
X+046910Y+007191
X+046543Y+006186
X+046047Y+006224
X+045437Y+006480
X+045515Y+007545
X+045161Y+008057
X+045515Y+008216
X+044284Y+008774
X+043598Y+008774
X+043678Y+007460
X+042008Y+007661
X+041495Y+007406
X+041505Y+006992
X+040876Y+006206
X+040626Y+006480
X+039924Y+006228
X+039413Y+006483
X+039413Y+005654
X+039664Y+005398
X+039158Y+005143
X+038569Y+005654
X+038569Y+006944
X+037880Y+006944
X+038060Y+007798
X+038539Y+008003
X+038539Y+008672
X+038795Y+008923
X+039413Y+008923
X+039793Y+008881
X+040111Y+007849
X+041162Y+008587
X+041764Y+005959
X+041449Y+005753
X+043342Y+004849
X+043678Y+004534
X+044190Y+005300
X+045139Y+005356
X+045395Y+005076
X+046316Y+004987
X+047229Y+004948
X+047417Y+005580
X+048070Y+005839
X+049381Y+004888
X+050927Y+005884
X+053029Y+006754
X+053640Y+007177
X+054012Y+007433
X+054521Y+006485
X+054265Y+006131
X+053739Y+005587
X+053385Y+005075
X+053385Y+004219
X+054423Y+004219
X+054423Y+005046
X+054777Y+005046
X+055530Y+005875
X+056170Y+005875
X+056524Y+005875
X+056494Y+006485
X+055786Y+006485
X+055876Y+007693
X+057874Y+006899
X+057923Y+006387
X+058536Y+005964
X+058617Y+005304
X+057381Y+005048
X+057381Y+004475
X+056209Y+005112
X+057826Y+008685
X+058495Y+009000
X+059007Y+008488
X+060790Y+009000
X+061360Y+007940
X+062381Y+007940
X+062736Y+007940
X+063090Y+007955
X+062736Y+008728
X+062065Y+009000
X+062132Y+009512
X+062132Y+010553
X+063037Y+010750
X+063832Y+010356
X+064352Y+010750
X+065000Y+011072
X+065000Y+011741
X+064849Y+012253
X+065692Y+012785
X+066338Y+013353
X+066653Y+012872
X+066594Y+012360
X+066653Y+013951
X+065826Y+014017
X+065438Y+013865
X+064751Y+013297
X+063962Y+013416
X+062938Y+013416
X+062938Y+014100
X+063450Y+014356
X+062938Y+014870
X+063450Y+015413
X+063194Y+015685
X+062549Y+015941
X+062293Y+016250
X+062279Y+016605
X+062946Y+016751
X+063202Y+016386
X+063605Y+017265
X+063605Y+017804
X+064195Y+017949
X+063605Y+018542
X+062818Y+018542
X+062333Y+018187
X+062077Y+017802
X+061815Y+018303
X+061185Y+018754
X+060906Y+018498
X+060906Y+017827
X+061583Y+017225
X+061583Y+016250
X+061653Y+015896
X+062293Y+015413
X+060650Y+016349
X+060068Y+016655
X+060037Y+017012
X+059782Y+017524
X+059526Y+017991
X+059782Y+018242
X+060324Y+018980
X+058912Y+019064
X+059168Y+019808
X+058041Y+019929
X+057158Y+019781
X+056711Y+019514
X+056208Y+019278
X+056239Y+018830
X+056756Y+018830
X+055953Y+018033
X+055585Y+018131
X+055598Y+017777
X+056179Y+017193
X+056593Y+016748
X+056278Y+016294
X+055923Y+016038
X+055943Y+015242
X+054592Y+015274
X+054364Y+016026
X+054364Y+016546
X+054008Y+017292
X+053267Y+016878
X+053247Y+015967
X+052021Y+016506
X+051249Y+017055
X+050003Y+017583
X+049328Y+017791
X+049307Y+017250
X+048674Y+017535
X+047719Y+017494
X+047606Y+018323
X+047094Y+018835
X+047350Y+019292
X+046333Y+020085
X+045038Y+020085
X+044783Y+019573
X+044407Y+019463
X+043718Y+019125
X+043411Y+018869
X+043126Y+019730
X+043376Y+019986
X+042456Y+020242
X+041606Y+020624
X+041471Y+021239
X+040934Y+020270
X+040359Y+020624
X+040067Y+020934
X+039496Y+020934
X+038395Y+021050
X+038010Y+019886
X+038010Y+019393
X+037997Y+018673
X+038010Y+018319
X+038700Y+018625
X+038808Y+019565
X+038937Y+019929
X+040086Y+019014
X+040506Y+018979
X+041190Y+018979
X+041130Y+018625
X+040860Y+017955
X+041130Y+017438
X+041391Y+017699
X+042323Y+017649
X+042319Y+017295
X+042319Y+016183
X+042783Y+015231
X+043735Y+015963
X+044247Y+015652
X+044731Y+016608
X+045029Y+017022
X+045541Y+016608
X+046336Y+016315
X+046690Y+016571
X+046394Y+016864
X+046696Y+017238
X+046856Y+015803
X+047410Y+015714
X+048419Y+016031
X+049235Y+016132
X+049596Y+015418
X+050003Y+015707
X+049091Y+015152
X+046336Y+015466
X+045780Y+014954
X+045780Y+012208
X+046351Y+011892
X+047720Y+012366
X+048070Y+011947
X+048586Y+011815
X+049806Y+011574
X+050021Y+012188
X+050927Y+011932
X+051467Y+011649
X+051820Y+012091
X+052588Y+011556
X+052891Y+011972
X+054580Y+011972
X+057865Y+011708
X+058318Y+011708
X+061558Y+011736
X+062452Y+011640
X+063576Y+011640
X+062254Y+013175
X+060274Y+015127
X+060215Y+015837
X+059860Y+015754
X+059526Y+016655
X+058612Y+016605
X+058045Y+016349
X+058045Y+015688
X+057376Y+016093
X+057942Y+017272
X+058100Y+018948
X+056711Y+020855
X+055681Y+020343
X+054848Y+020243
X+054145Y+020105
X+054008Y+019357
X+053752Y+018963
X+053468Y+019475
X+053374Y+020333
X+052532Y+019763
X+052017Y+019763
X+052276Y+018835
X+052787Y+018896
X+052833Y+018542
X+051761Y+018815
X+050927Y+019238
X+050671Y+020243
X+051249Y+020400
X+051033Y+021001
X+050364Y+020824
X+050003Y+020272
X+049425Y+019987
X+048683Y+020612
X+049147Y+020948
X+049816Y+021538
X+048118Y+021184
X+045246Y+021549
X+045084Y+018956
X+044414Y+018564
X+045084Y+017885
X+045503Y+018153
X+045759Y+018449
X+046018Y+018803
X+044219Y+017268
X+043420Y+016573
X+041259Y+016151
X+041492Y+015501
X+040324Y+015924
X+040095Y+016436
X+039835Y+017345
X+039835Y+017699
X+039835Y+018319
X+039001Y+017650
X+039324Y+017276
X+038556Y+017020
X+038598Y+016665
X+039001Y+016180
X+039655Y+015306
X+040173Y+015245
X+038143Y+015306
X+036687Y+015275
X+036077Y+015787
X+035606Y+016042
X+034839Y+015980
X+034718Y+016470
X+035095Y+016844
X+035059Y+017198
X+035686Y+018004
X+035366Y+018508
X+035116Y+018235
X+036041Y+018508
X+036297Y+018793
X+036422Y+018439
X+036956Y+018004
X+037838Y+017020
X+036422Y+016542
X+036009Y+016798
X+034363Y+015724
X+033453Y+015388
X+032191Y+015929
X+031451Y+015850
X+030570Y+015722
X+029836Y+015466
X+029678Y+015112
X+029109Y+016387
X+029091Y+016899
X+029091Y+017434
X+029836Y+017704
X+030826Y+018269
X+030081Y+019162
X+030480Y+019841
X+030983Y+020363
X+031112Y+020718
X+030727Y+020644
X+031192Y+021372
X+031820Y+020619
X+032174Y+020719
X+032848Y+021441
X+033230Y+021491
X+033463Y+021089
X+034132Y+020812
X+034119Y+020109
X+033463Y+020331
X+032843Y+019758
X+032488Y+019756
X+033209Y+019439
X+032854Y+018927
X+033110Y+018338
X+032854Y+017802
X+032151Y+018338
X+032151Y+018935
X+034032Y+018180
X+034032Y+017544
X+033525Y+016854
X+034663Y+019439
X+035750Y+019842
X+036297Y+019999
X+036522Y+020813
X+035750Y+020812
X+036041Y+021482
X+029595Y+021365
X+028737Y+021365
X+028230Y+020853
X+027281Y+021522
X+026299Y+020327
X+025266Y+020583
X+024726Y+019808
X+024311Y+020324
X+024076Y+020938
X+024332Y+021238
X+025523Y+022088
X+022915Y+020403
X+022088Y+020659
X+021931Y+020068
X+021634Y+019329
X+021675Y+018975
X+022285Y+019191
X+022563Y+018935
X+022839Y+019330
X+023423Y+018796
X+023700Y+019074
X+023956Y+018540
X+024311Y+018480
X+024466Y+017672
X+024466Y+017318
X+025395Y+017229
X+025750Y+017152
X+026598Y+017485
X+027166Y+016965
X+026899Y+016453
X+027422Y+015941
X+026598Y+015692
X+028111Y+015331
X+028268Y+015685
X+028579Y+018680
X+029339Y+018784
X+029620Y+020327
X+027425Y+018942
X+023700Y+017870
X+023329Y+017614
X+023514Y+017015
X+023206Y+016346
X+023700Y+016221
X+023461Y+015551
X+022839Y+015551
X+022098Y+014817
X+021569Y+014976
X+021106Y+014112
X+020552Y+013547
X+019492Y+013599
X+019241Y+013343
X+019279Y+012686
X+019148Y+012331
X+018828Y+011718
X+018599Y+011084
X+018343Y+010572
X+018599Y+010316
X+019148Y+010562
X+019140Y+009779
X+019404Y+009521
X+020055Y+009963
X+020218Y+010478
X+020114Y+011094
X+020938Y+010838
X+020808Y+012073
X+021962Y+012427
X+022277Y+012073
X+023185Y+011678
X+023444Y+011934
X+024114Y+012157
X+024724Y+011545
X+025961Y+011836
X+026279Y+011508
X+027422Y+012286
X+027855Y+011872
X+030927Y+012139
X+031195Y+011883
X+032191Y+011726
X+032447Y+011476
X+032469Y+012178
X+033453Y+011923
X+034032Y+011765
X+035016Y+011731
X+035613Y+011823
X+035869Y+011530
X+036701Y+011535
X+039051Y+011535
X+039819Y+011791
X+040728Y+011818
X+042830Y+011847
X+037513Y+008602
X+036753Y+007993
X+036168Y+007993
X+035810Y+008221
X+035160Y+008440
X+035363Y+008952
X+034329Y+008200
X+033679Y+008200
X+033167Y+007822
X+033078Y+008761
X+032704Y+008883
X+031459Y+008063
X+031448Y+007551
X+031085Y+008440
X+031202Y+008883
X+030416Y+008883
X+030031Y+008627
X+030416Y+008109
X+030573Y+006800
X+030430Y+006346
X+030179Y+006060
X+031085Y+006346
X+031557Y+006537
X+032051Y+005895
X+032655Y+006215
X+031093Y+005490
X+030435Y+004574
X+031762Y+004377
X+028758Y+004318
X+028854Y+005391
X+028603Y+005646
X+028000Y+006262
X+028000Y+006774
X+027489Y+006518
X+027489Y+006129
X+027149Y+005540
X+026795Y+005862
X+026558Y+005350
X+025988Y+005656
X+025759Y+005144
X+024881Y+005499
X+024370Y+005302
X+023326Y+005558
X+023008Y+006215
X+023326Y+006470
X+023582Y+007089
X+022974Y+007435
X+022939Y+007887
X+022939Y+008475
X+022337Y+007790
X+021962Y+008593
X+021450Y+007435
X+021194Y+007168
X+021863Y+006664
X+022408Y+006364
X+022558Y+005639
X+022119Y+005302
X+021342Y+005203
X+020552Y+005800
X+020003Y+006608
X+019140Y+006459
X+018790Y+006824
X+018343Y+007168
X+017915Y+006141
X+017852Y+005787
X+017110Y+005892
X+016756Y+006147
X+016174Y+006344
X+015663Y+005544
X+015151Y+005294
X+015407Y+005032
X+014617Y+005302
X+014802Y+006088
X+014040Y+006967
X+013728Y+006602
X+013440Y+005932
X+013020Y+006263
X+013050Y+007129
X+012539Y+007290
X+012539Y+007802
X+012539Y+008642
X+011802Y+008911
X+011271Y+008657
X+010778Y+009461
X+011290Y+009740
X+011802Y+010356
X+011810Y+011355
X+011554Y+011868
X+011034Y+011868
X+010424Y+011863
X+010424Y+012379
X+011294Y+012691
X+010778Y+013865
X+010424Y+014234
X+010674Y+014566
X+009633Y+014566
X+008936Y+014056
X+009796Y+013634
X+009307Y+011863
X+008895Y+011306
X+008638Y+011562
X+008150Y+012596
X+006490Y+012862
X+006332Y+012094
X+004908Y+012350
X+005420Y+010562
X+005697Y+010306
X+005164Y+008576
X+005368Y+007416
X+006038Y+007166
X+007172Y+007738
X+007833Y+007738
X+008126Y+008742
X+008895Y+008572
X+009034Y+008058
X+008638Y+006701
X+009034Y+006445
X+009638Y+005352
X+010037Y+004948
X+010636Y+005609
X+011224Y+006030
X+010968Y+006442
X+011271Y+006719
X+011546Y+007234
X+010605Y+006752
X+012445Y+004948
X+012700Y+005203
X+013567Y+007659
X+014280Y+008053
X+014207Y+008701
X+015326Y+008691
X+015840Y+009167
X+016736Y+009198
X+016835Y+008686
X+016480Y+008435
X+016480Y+007479
X+016452Y+010192
X+016755Y+010546
X+017169Y+010572
X+017521Y+010316
X+017503Y+011443
X+016856Y+011430
X+016789Y+012131
X+016539Y+012688
X+016799Y+013526
X+016828Y+014302
X+016539Y+014561
X+016253Y+014302
X+015370Y+013782
X+015370Y+012851
X+015103Y+012132
X+014749Y+012022
X+015170Y+011764
X+015542Y+011017
X+015058Y+010662
X+014207Y+010988
X+013936Y+010662
X+013258Y+010710
X+013050Y+009521
X+014207Y+009936
X+013936Y+012596
X+013936Y+012950
X+013680Y+013285
X+013258Y+013733
X+012871Y+013510
X+012283Y+013912
X+012539Y+015241
X+012598Y+015812
X+012579Y+016472
X+013478Y+016275
X+013832Y+016113
X+013876Y+015655
X+013680Y+014985
X+014879Y+016206
X+015489Y+015847
X+016316Y+016247
X+016473Y+016777
X+016828Y+016867
X+017182Y+016051
X+017454Y+015024
X+017777Y+014038
X+018415Y+014575
X+019203Y+015920
X+019748Y+016589
X+020474Y+016431
X+020560Y+016797
X+021106Y+016760
X+021569Y+017614
X+021842Y+018224
X+022307Y+017870
X+021106Y+019487
X+020794Y+019231
X+020174Y+018277
X+019394Y+018381
X+018882Y+018381
X+018882Y+018026
X+019203Y+017370
X+018330Y+016163
X+019858Y+015308
X+020109Y+015564
X+021842Y+013286
X+022532Y+013236
X+025000Y+015278
X+025790Y+009316
X+025870Y+007850
X+025230Y+007611
X+024625Y+007539
X+024251Y+008140
X+025409Y+006704
X+026378Y+007154
X+026628Y+006807
X+027744Y+007551
X+027744Y+008483
X+029084Y+008220
X+029084Y+007286
X+028603Y+006780
X+034694Y+007140
X+034995Y+007396
X+035420Y+007205
X+035676Y+006339
X+035420Y+005847
X+035676Y+005332
X+035164Y+005203
X+035844Y+004377
X+048277Y+008500
X+048992Y+008756
X+049569Y+008855
X+052421Y+007681
X+052021Y+015151
X+052554Y+017451
X+054690Y+018710
X+054848Y+019264
X+055202Y+019514
X+055535Y+018710
X+054366Y+021368
X+053696Y+021456
X+052279Y+021481
X+052391Y+020656
X+058590Y+021833
X+060037Y+021577
X+060314Y+020699
X+061185Y+020434
X+061788Y+020699
X+062333Y+020126
X+063115Y+020323
X+063370Y+020067
X+063115Y+019349
X+064293Y+019349
X+064299Y+019907
X+064867Y+019722
X+065464Y+019148
X+065846Y+019404
X+066911Y+019236
X+066908Y+018722
X+067046Y+018211
X+067065Y+017535
X+067325Y+017242
X+067994Y+016738
X+068067Y+016014
X+067065Y+016368
X+067224Y+015183
X+066004Y+015183
X+065420Y+015367
X+065292Y+016014
X+064730Y+016368
X+064265Y+015623
X+064751Y+014549
X+065155Y+017437
X+062855Y+017546
X+063380Y+021002
X+062943Y+021258
X+062688Y+021526
X+062333Y+021554
X+064245Y+021454
X+065503Y+021044
X+066337Y+021285
X+066660Y+021543
X+066691Y+020728
X+066337Y+020773
X+066337Y+020419
X+067319Y+020111
X+067659Y+020367
X+067403Y+020924
X+068461Y+020111
X+069073Y+020102
X+069106Y+019748
X+068369Y+019335
X+068791Y+018484
X+069106Y+018211
X+069486Y+017488
X+070194Y+017443
X+070155Y+017797
X+071160Y+017827
X+071362Y+017472
X+071933Y+018237
X+073595Y+017220
X+074106Y+017210
X+074362Y+017516
X+074106Y+017767
X+074618Y+017767
X+075162Y+018387
X+074906Y+018677
X+075576Y+018790
X+076029Y+018278
X+076550Y+018278
X+076806Y+019046
X+077160Y+019046
X+077160Y+019471
X+077318Y+020291
X+077574Y+020547
X+078105Y+020589
X+078026Y+019411
X+078026Y+018873
X+078333Y+018617
X+078989Y+018331
X+079292Y+017977
X+079343Y+018745
X+078831Y+019211
X+080147Y+019123
X+080499Y+019829
X+080162Y+020490
X+080091Y+020845
X+080544Y+020753
X+080544Y+021428
X+080826Y+021684
X+080347Y+022792
X+080603Y+023048
X+080964Y+023304
X+079343Y+022792
X+078831Y+022537
X+078058Y+023244
X+077400Y+023244
X+076987Y+022443
X+076987Y+021684
X+076534Y+020553
X+076015Y+020911
X+075636Y+020612
X+075924Y+019903
X+076180Y+019521
X+077383Y+018534
X+076973Y+017222
X+076770Y+016636
X+076698Y+015930
X+077544Y+016230
X+078210Y+016486
X+077947Y+016864
X+078271Y+017120
X+079036Y+015955
X+078210Y+015679
X+078367Y+014729
X+077954Y+014750
X+077698Y+014271
X+077280Y+014750
X+077024Y+015015
X+076698Y+014739
X+076698Y+014188
X+076092Y+013834
X+075558Y+014144
X+074552Y+013901
X+074552Y+014508
X+074106Y+015436
X+074618Y+015553
X+075320Y+015682
X+075675Y+015603
X+075961Y+015257
X+075675Y+016380
X+075832Y+017550
X+074362Y+016380
X+073883Y+013487
X+074502Y+013132
X+075581Y+012497
X+076092Y+011350
X+076280Y+010746
X+076536Y+010490
X+077450Y+011231
X+077607Y+011764
X+077127Y+012241
X+077549Y+013354
X+077954Y+013186
X+078367Y+012918
X+078910Y+013114
X+079400Y+013370
X+079750Y+012730
X+079678Y+012218
X+079422Y+011927
X+079166Y+012281
X+080001Y+011962
X+079422Y+011350
X+079678Y+011095
X+080669Y+011295
X+080858Y+010184
X+080448Y+012986
X+080499Y+014007
X+079750Y+015099
X+079632Y+016605
X+079891Y+017274
X+080147Y+017623
X+079000Y+023598
X+079699Y+024711
X+079814Y+025189
X+079559Y+025701
X+080603Y+025290
X+080859Y+026242
X+076015Y+027417
X+075473Y+027417
X+075118Y+027259
X+074862Y+025622
X+075119Y+025268
X+075119Y+024324
X+075119Y+023731
X+074297Y+023219
X+069073Y+021179
X+069136Y+028264
X+069131Y+029191
X+069126Y+029962
X+068293Y+029900
X+066434Y+030569
X+065503Y+030723
X+065503Y+030057
X+064504Y+030979
X+063943Y+031689
X+063918Y+032043
X+063918Y+032629
X+063918Y+033713
X+063347Y+033800
X+062032Y+033713
X+062074Y+032854
X+060870Y+033044
X+060615Y+033457
X+059902Y+033457
X+059028Y+033953
X+058772Y+033497
X+058313Y+033953
X+057639Y+033953
X+057994Y+034622
X+056935Y+034464
X+055437Y+034630
X+054926Y+034509
X+053713Y+033917
X+053851Y+033129
X+054158Y+032823
X+054670Y+032568
X+054855Y+031641
X+055597Y+032331
X+056163Y+032331
X+056414Y+032067
X+056414Y+032617
X+055792Y+032873
X+055437Y+033241
X+056163Y+031465
X+055853Y+031148
X+056533Y+031107
X+057516Y+031019
X+057793Y+030340
X+058324Y+031248
X+059000Y+031110
X+059647Y+031110
X+060514Y+031388
X+060770Y+030704
X+061386Y+030606
X+061307Y+031388
X+062445Y+030637
X+062799Y+030381
X+063055Y+031170
X+063603Y+031433
X+064090Y+030151
X+063603Y+029961
X+063700Y+029546
X+064504Y+028780
X+062591Y+029080
X+062074Y+029040
X+062330Y+028371
X+061386Y+028641
X+060770Y+029296
X+061026Y+029552
X+060258Y+030192
X+060002Y+029841
X+058786Y+028867
X+059037Y+028572
X+059293Y+028118
X+060258Y+028227
X+060770Y+027971
X+058324Y+029292
X+057777Y+028572
X+056846Y+028568
X+055874Y+029250
X+055618Y+028994
X+055532Y+028269
X+054514Y+028059
X+054414Y+029459
X+054158Y+030200
X+054414Y+030456
X+055205Y+030596
X+056171Y+030104
X+056533Y+029848
X+057639Y+031953
X+057639Y+032481
X+058313Y+032481
X+059855Y+032430
X+064926Y+033457
X+065503Y+032803
X+065759Y+032547
X+065173Y+032291
X+065503Y+031758
X+066552Y+031772
X+066809Y+033326
X+066811Y+033722
X+066454Y+033517
X+067375Y+033722
X+067375Y+034085
X+065602Y+034044
X+066479Y+028664
X+071472Y+030302
X+075602Y+030992
X+076015Y+030829
X+076212Y+032241
X+075375Y+032753
X+076041Y+033818
X+075367Y+034074
X+075759Y+034688
X+076855Y+033941
X+078983Y+034945
X+078206Y+030834
X+070990Y+012467
X+073144Y+010371
X+073394Y+010039
X+073394Y+009272
X+074199Y+009173
X+074293Y+008440
X+073305Y+008440
X+077725Y+010613
X+080208Y+006521
X+079678Y+006009
X+079952Y+005683
X+079422Y+005021
X+080208Y+004765
X+077469Y+005097
X+065372Y+007417
X+064508Y+007756
X+064252Y+007445
X+064293Y+008292
X+065002Y+008449
X+063358Y+009256
X+062585Y+006825
X+064998Y+005137
X+054823Y+026550
X+052329Y+028790
X+051204Y+029060
X+050948Y+028721
X+050835Y+027998
X+049710Y+028977
X+049681Y+029375
X+049681Y+029887
X+050267Y+030523
X+049965Y+031239
X+051640Y+030877
X+051896Y+031183
X+052678Y+031896
X+053537Y+031226
X+053537Y+030871
X+051802Y+030003
X+050948Y+029747
X+048498Y+029512
X+048498Y+028862
X+048498Y+028406
X+047800Y+028025
X+047544Y+028414
X+047239Y+028163
X+046813Y+028675
X+047289Y+029945
X+046813Y+030299
X+046875Y+031074
X+047289Y+031200
X+047800Y+030945
X+048194Y+030945
X+048056Y+029998
X+047475Y+031968
X+046875Y+032751
X+046363Y+032496
X+045718Y+031712
X+045344Y+031456
X+044783Y+032757
X+044417Y+032757
X+044161Y+033035
X+043817Y+032403
X+043040Y+031209
X+043040Y+030855
X+043817Y+030201
X+043817Y+029632
X+043978Y+028865
X+044494Y+028194
X+045061Y+028231
X+042793Y+028865
X+042528Y+029178
X+042296Y+028272
X+041714Y+028429
X+041251Y+029022
X+040883Y+028834
X+040530Y+028276
X+040176Y+028596
X+039447Y+027986
X+038861Y+028655
X+039350Y+029299
X+039038Y+030596
X+039806Y+030738
X+040583Y+030934
X+040839Y+030624
X+040615Y+029806
X+041251Y+029547
X+042159Y+030112
X+041910Y+031465
X+041074Y+032910
X+040818Y+033769
X+040061Y+032495
X+039038Y+032237
X+038782Y+032495
X+038245Y+031653
X+037891Y+031653
X+037743Y+031142
X+038156Y+030886
X+038242Y+030139
X+036890Y+030395
X+036890Y+031240
X+036362Y+031784
X+037009Y+032474
X+036753Y+032779
X+035592Y+032793
X+035495Y+033150
X+034567Y+033894
X+033989Y+034150
X+034245Y+033198
X+033376Y+032345
X+032700Y+033115
X+032038Y+033141
X+031475Y+032885
X+031116Y+031744
X+030105Y+031317
X+030491Y+030738
X+030525Y+030128
X+029773Y+030128
X+028659Y+030321
X+027708Y+031694
X+027966Y+031978
X+027275Y+032553
X+026489Y+032485
X+025646Y+031918
X+025218Y+032739
X+024853Y+033447
X+023840Y+032924
X+023289Y+032836
X+023289Y+033369
X+023584Y+032286
X+024096Y+031809
X+023840Y+031244
X+023561Y+030561
X+023033Y+031127
X+022679Y+030871
X+022935Y+029878
X+023604Y+029294
X+023700Y+028775
X+023329Y+028215
X+021518Y+028019
X+019682Y+028877
X+019520Y+029389
X+019894Y+029622
X+020685Y+029878
X+020682Y+030444
X+021434Y+030686
X+021815Y+031974
X+020913Y+032486
X+020068Y+032230
X+019520Y+031653
X+019265Y+031360
X+019107Y+031714
X+018748Y+032230
X+018023Y+031974
X+017502Y+032378
X+016888Y+032763
X+017117Y+033874
X+017601Y+034343
X+018535Y+034343
X+018535Y+033874
X+019520Y+034064
X+019776Y+033384
X+020032Y+033030
X+020913Y+033384
X+020836Y+034320
X+019520Y+031061
X+018970Y+029736
X+018535Y+029133
X+018458Y+028026
X+019265Y+028282
X+018014Y+030118
X+018023Y+030491
X+016888Y+030114
X+016421Y+030428
X+015378Y+030131
X+015378Y+029389
X+015765Y+028877
X+016021Y+029133
X+013819Y+030172
X+013490Y+030809
X+013490Y+031167
X+012979Y+031510
X+013746Y+031766
X+014386Y+032022
X+015509Y+032278
X+015141Y+033047
X+015312Y+033815
X+016179Y+034322
X+013818Y+034006
X+012656Y+033897
X+012649Y+033542
X+011786Y+033361
X+011436Y+033099
X+011278Y+032745
X+011790Y+032489
X+011534Y+031454
X+010924Y+031454
X+010668Y+032066
X+010156Y+032464
X+010102Y+032975
X+010510Y+033361
X+011180Y+033971
X+011752Y+033889
X+009846Y+034261
X+008086Y+033995
X+007475Y+033172
X+007731Y+032398
X+008277Y+031598
X+007829Y+030567
X+007318Y+030429
X+006591Y+030947
X+006664Y+031953
X+006320Y+032503
X+004855Y+032759
X+005697Y+034658
X+006301Y+034409
X+009371Y+032208
X+009644Y+031454
X+010558Y+030865
X+011534Y+030543
X+011888Y+029873
X+011081Y+029054
X+010156Y+028132
X+010863Y+027610
X+011750Y+027354
X+011721Y+026425
X+010723Y+026458
X+011137Y+025402
X+011971Y+025426
X+012194Y+024764
X+011904Y+024409
X+011392Y+024094
X+012283Y+023739
X+012695Y+023339
X+012301Y+022246
X+012954Y+021820
X+013300Y+021010
X+012281Y+020930
X+011747Y+019947
X+011097Y+019692
X+011353Y+019133
X+010979Y+018444
X+010467Y+019133
X+009932Y+018645
X+009339Y+018963
X+008705Y+019948
X+007760Y+019275
X+007791Y+018451
X+006998Y+018319
X+006916Y+017444
X+006362Y+016878
X+006660Y+016168
X+007290Y+015733
X+007547Y+016050
X+008089Y+016149
X+008154Y+015393
X+007833Y+014818
X+008857Y+015499
X+008925Y+016861
X+009906Y+016938
X+010594Y+016824
X+010468Y+016420
X+010674Y+015812
X+011626Y+016118
X+011626Y+016472
X+011987Y+017336
X+013605Y+018243
X+013959Y+018499
X+014100Y+018853
X+014611Y+019109
X+015067Y+018839
X+014611Y+018566
X+014750Y+019745
X+015067Y+020347
X+015421Y+020603
X+014539Y+020674
X+014539Y+021551
X+013697Y+019485
X+013267Y+018973
X+013012Y+019330
X+010723Y+020556
X+010088Y+020459
X+009955Y+021047
X+011097Y+021304
X+011137Y+023015
X+010211Y+024350
X+009644Y+024702
X+008978Y+023339
X+008016Y+023631
X+007504Y+023471
X+007760Y+024300
X+007760Y+024655
X+007504Y+026202
X+006966Y+026579
X+007464Y+027163
X+008564Y+027971
X+009017Y+028132
X+008608Y+028498
X+007849Y+028718
X+007318Y+029018
X+005953Y+027393
X+005697Y+027101
X+005164Y+026846
X+005420Y+025431
X+005953Y+025073
X+006150Y+024655
X+005164Y+022650
X+005697Y+021410
X+006150Y+021528
X+006504Y+022259
X+006966Y+020800
X+006998Y+020085
X+006347Y+020058
X+004908Y+019546
X+005164Y+018691
X+005164Y+017807
X+006076Y+015496
X+006332Y+014371
X+006660Y+014115
X+007675Y+017188
X+008350Y+021375
X+005164Y+021056
X+005164Y+029018
X+005111Y+029529
X+004514Y+030020
X+004219Y+029529
X+013542Y+029115
X+013542Y+027070
X+017164Y+031597
X+025845Y+029318
X+026635Y+028877
X+026920Y+028339
X+027445Y+028977
X+026920Y+029549
X+026489Y+030118
X+026220Y+030726
X+027078Y+033447
X+028789Y+033456
X+029238Y+033298
X+029239Y+032531
X+030682Y+029199
X+030735Y+028684
X+031189Y+028491
X+031384Y+029225
X+031750Y+029616
X+032750Y+030226
X+033415Y+030994
X+034439Y+029872
X+035239Y+029555
X+035848Y+030139
X+036618Y+029211
X+036634Y+028449
X+037359Y+028646
X+035848Y+028449
X+035903Y+028095
X+035092Y+028607
X+034183Y+029005
X+033671Y+028051
X+032250Y+028399
X+029665Y+028075
X+029238Y+028257
X+028982Y+028595
X+035805Y+034837
X+037627Y+034581
X+038490Y+035071
X+038782Y+034157
X+039038Y+033611
X+039350Y+034415
X+039038Y+031398
X+041082Y+027986
X+042409Y+018724
X+042456Y+018724
X+049132Y+033007
X+049132Y+033759
X+049998Y+033759
X+050185Y+033090
X+050856Y+033997
X+050856Y+034666
X+050600Y+035044
X+052641Y+034760
X+052996Y+034509
X+051617Y+033243
X+051361Y+032823
X+020794Y+020595
X+019717Y+019597
X+018858Y+019852
X+018740Y+019341
X+018290Y+020266
X+018290Y+020716
X+017355Y+020266
X+017454Y+019597
X+016638Y+018755
X+016985Y+018499
X+016638Y+018243
X+015771Y+017474
X+014254Y+016717
X+013828Y+016728
X+018088Y+012949
X+020003Y+008816
X+020259Y+007680
X+019712Y+005288
X+019968Y+004790
X+018526Y+004790
X+022277Y+009908
X+008382Y+009988
X+007290Y+008867
X+007172Y+005608
T02
X+010159Y+012495
X+075907Y+012495
T00
M30
