G04 DipTrace 3.0.0.1*
G04 Top.gbr*
%MOMM*%
G04 #@! TF.FileFunction,Copper,L1,Top*
G04 #@! TF.Part,Single*
%AMOUTLINE0*5,1,6,0,0,0.7,-1E-5.0*%
G04 #@! TA.AperFunction,Conductor*
%ADD13C,0.2*%
G04 #@! TA.AperFunction,ViaPad*
%ADD14C,0.7*%
%ADD20OUTLINE0*%
%FSLAX35Y35*%
G04*
G71*
G90*
G75*
G01*
G04 Top*
%LPD*%
X5915440Y8340370D2*
D13*
X5242350D1*
X5202350Y8380370D1*
Y8828120D1*
X5162350Y8868120D1*
X1382080D1*
Y8533530D1*
X1422080Y8493530D1*
X1793030D1*
Y8465700D1*
X1833040Y8425690D1*
X1898680D1*
X4433360Y3816030D2*
X4328600D1*
X4294380Y3781810D1*
X4214373D1*
Y3785933D1*
X7793110Y7416470D2*
X7229280D1*
X7035370Y7610380D1*
X6833330D1*
X6793330Y7650380D1*
Y7679150D1*
X6753327Y7719153D1*
X6594793D1*
X1793030Y8493530D2*
Y8553850D1*
X7806630Y7285650D2*
Y7200340D1*
X7784657D1*
X4433360Y4977520D2*
X4092663D1*
X4052653Y5017530D1*
Y5294503D1*
X1978960Y4686660D2*
X1880370Y4588070D1*
X1246680D1*
Y3492180D1*
X1286680Y3452180D1*
X1622187D1*
X4445820Y2906430D2*
X4913953Y2906827D1*
X2175370Y7104610D2*
X2086393D1*
Y7074297D1*
X2457013Y3904297D2*
Y4101800D1*
X2054510D1*
X4214373Y3785933D2*
Y3871250D1*
X4174373Y3911250D1*
X3329470D1*
X3304470Y3936250D1*
X2667900D1*
X2627900Y3976250D1*
Y4068640D1*
X2507017D1*
X2467013Y4028637D1*
Y3904297D1*
X2457013D1*
X6128243Y8445353D2*
Y8475670D1*
X5915440D1*
X6594793Y7719153D2*
Y7791020D1*
X6369900D1*
X6329900Y7831020D1*
Y8328780D1*
X6289900Y8368780D1*
X6128243D1*
Y8445353D1*
X4887320Y3389180D2*
X4862320Y3364180D1*
X4776240D1*
X4736240Y3324180D1*
Y3197860D1*
X4696240Y3157860D1*
X4073730D1*
X4033730Y3117860D1*
Y2976340D1*
X3942667D1*
Y3021260D1*
X9906230Y4482990D2*
X10047680Y4624440D1*
Y4924740D1*
X10148027Y5025087D1*
Y5193237D1*
X6084880Y4709230D2*
X5763450D1*
X5743090Y4729590D1*
X5111250D1*
X4941130Y4559470D1*
Y4475500D1*
X4877560Y4411930D1*
X6115310Y5318140D2*
X6180310D1*
X6228490Y5269960D1*
X6344950D1*
Y5330277D1*
X7304470Y1096850D2*
X7204463Y1196857D1*
Y1323827D1*
X10107360Y2255880D2*
X10333290D1*
X10373290Y2215880D1*
Y2155587D1*
X10413293Y2115583D1*
X10853013D1*
X5954860Y3031310D2*
X5979860Y3006310D1*
X6206070D1*
X6279870Y2932510D1*
X4877557Y3958283D2*
X4877560Y4043600D1*
X15470020Y4527980D2*
X15381037D1*
Y4497663D1*
X9348043Y4111677D2*
X9906230Y4109780D1*
X5420930Y1321670D2*
X5416423Y1326177D1*
Y1499273D1*
X4314230Y4698650D2*
X4441580D1*
X4561510Y4578720D1*
X4796130D1*
X3869283Y4699837D2*
Y4695717D1*
X4119547D1*
X4122480Y4698650D1*
X4314230D1*
X10853013Y2115583D2*
Y2111463D1*
X11300790D1*
X11430843Y1981410D1*
X12101850D1*
X12153650Y1929610D1*
X13134370D1*
X1533530Y1820070D2*
X1553540Y1840080D1*
X2312190D1*
X12626220Y7360110D2*
X12792400D1*
X12878470Y7446180D1*
X13077770D1*
X13146330Y7377620D1*
X13893050D1*
X13933050Y7417620D1*
Y7749030D1*
X17574680Y7956450D2*
X17619920Y7911210D1*
X18214650D1*
X18239650Y7936210D1*
X18406810D1*
Y8062210D1*
X18446810Y8102210D1*
X18661600D1*
X18701600Y8062210D1*
Y7992310D1*
X18741600Y7952310D1*
X18983190D1*
X19080030Y6923820D2*
X19105030Y6898820D1*
X19353390D1*
X19393390Y6858820D1*
Y6819900D1*
X19433397Y6779893D1*
X19911460D1*
X15060320Y7141960D2*
X15165307Y7142350D1*
X16637780Y8066650D2*
X16702780D1*
X16707460Y8071330D1*
X16785957D1*
X18446810Y8102210D2*
X18405210D1*
X18365210Y8142210D1*
Y8195377D1*
X18412707D1*
X14461430Y8609990D2*
X14461440Y8753960D1*
X15461100Y8393150D2*
X15574220Y8280030D1*
X15801430D1*
X15914080Y8392680D1*
X16485990D1*
X16546760Y8331910D1*
X16637780D1*
Y7803560D2*
X16100990D1*
X16060987Y7763557D1*
Y7698977D1*
X14265460Y8211970D2*
X14121700D1*
X13933050Y7749030D2*
Y7744910D1*
X13987030D1*
X14013540Y7771420D1*
X14022030D1*
X19145120Y5481900D2*
X19133923Y5470703D1*
X18995167D1*
Y5474823D1*
X16785957Y8071330D2*
Y7996450D1*
X16825957Y7956450D1*
X17399190D1*
X14276940Y4896570D2*
X14179183D1*
Y4911473D1*
X8931780Y1321670D2*
X8899510Y1289400D1*
X7583930D1*
X7543923Y1329407D1*
Y1419053D1*
X3019433Y7673087D2*
X3019440Y7587770D1*
X11108780Y4054520D2*
X11021443D1*
Y4116583D1*
X10176970Y5317180D2*
X10031970D1*
X14454520Y2248770D2*
X14259520D1*
X6659800Y7804470D2*
X6829810D1*
Y7874423D1*
X6574347D1*
X7265250Y1722140D2*
X7177080D1*
Y1754080D1*
X7137080Y1794080D1*
X6844960D1*
X6804960Y1834080D1*
Y2240923D1*
X6764960Y2280923D1*
X6578233D1*
X18774080Y1682570D2*
X19693917D1*
X19733917Y1722570D1*
Y1789817D1*
X14349520Y1647290D2*
X14465090D1*
X14505093Y1687293D1*
Y1750997D1*
X11020283Y4926170D2*
Y4976490D1*
X10985283Y5011490D1*
X10953880D1*
X11008950Y1231680D2*
X9731590D1*
X9691590Y1271680D1*
Y1485260D1*
X8996780D1*
X7265250Y1434200D2*
X7106600D1*
X7066600Y1394200D1*
Y1111670D1*
X7026600Y1071670D1*
X4957790D1*
X4917790Y1111670D1*
X4877790Y1071670D1*
X2654480D1*
X2614477Y1111673D1*
Y1367677D1*
X16012190Y1239900D2*
X16985100D1*
X17035440Y1290240D1*
X13823330Y1281670D2*
Y1071670D1*
X14169520Y1647290D2*
X13848330D1*
X6450400Y4376190D2*
X6361417D1*
Y4345877D1*
X17070440Y1925950D2*
X17159983D1*
Y1895633D1*
X14179183Y4911473D2*
Y4822917D1*
X14219190Y4782910D1*
X14284640D1*
X14032947Y4545620D2*
Y4503640D1*
X13809690D1*
Y4576717D1*
X14121930Y4515300D2*
X14032947D1*
Y4545620D1*
X4917790Y1111670D2*
Y1373000D1*
X7543923Y1419053D2*
X7401257D1*
X7386110Y1434200D1*
X7265250D1*
X3019440Y7587770D2*
X3551160D1*
X3869150Y7269780D1*
X5890440D1*
X5930440Y7309780D1*
Y7553917D1*
X6074003Y7697480D1*
Y7810543D1*
X6578233Y2280923D2*
X6550740D1*
Y2366240D1*
X10031970Y5317180D2*
X10041970Y5307180D1*
X10076970D1*
Y5097883D1*
X10029267D1*
Y5067660D1*
X6564520Y7446810D2*
X6349410Y7231700D1*
X5928520D1*
X5890440Y7269780D1*
X6600363Y7351493D2*
X6574520D1*
Y7436810D1*
X6564520Y7446810D1*
X19733917Y1789817D2*
Y1969140D1*
X19773917Y2009140D1*
X20431450D1*
X20461760Y2039450D1*
X20511143D1*
Y1979130D1*
X2828680Y6452230D2*
X2821347Y6459563D1*
X1697513D1*
Y6399253D1*
X2759160Y7013000D2*
X2750750Y7021410D1*
X2643427D1*
Y7025533D1*
X17192080Y2578960D2*
X17169243Y2601797D1*
X17103103D1*
Y2605920D1*
X9095630Y2088150D2*
X9089323Y2094457D1*
Y2264060D1*
X8996780Y1485260D2*
Y1829990D1*
X7239350Y4629083D2*
Y4689400D1*
X7259170D1*
Y4744790D1*
X2647680Y3013200D2*
X2363960D1*
X16849610Y5186450D2*
X16978770D1*
X17030460Y5238140D1*
X17310117D1*
Y5180760D1*
X2647680Y3615440D2*
X3204263D1*
Y3626223D1*
X3439690Y7395290D2*
X3439687Y7309973D1*
X3439690Y6875770D2*
X3009720D1*
X2789160Y6655210D1*
X1905960D1*
X18088530Y2540010D2*
X18178073D1*
Y2635987D1*
X16471640Y3112340D2*
X16710800D1*
X16750800Y3152340D1*
Y3229470D1*
X16790800Y3269470D1*
X16929770D1*
X4201010Y3222860D2*
X3980840D1*
X3957250Y3199270D1*
X3657510D1*
X3551880Y3093640D1*
X3172510D1*
X3132510Y3133640D1*
Y3290530D1*
X2973680D1*
X2933680Y3250530D1*
Y3184370D1*
X2893680Y3144370D1*
X2647680D1*
X11515933Y4457360D2*
Y4323540D1*
X11599310D1*
X11639310Y4283540D1*
Y3809620D1*
X11628090Y3798400D1*
X4201010Y3698380D2*
X4266010D1*
X4300680Y3733050D1*
X4481310D1*
X4515410Y3767150D1*
X4794040D1*
X4837150Y3724040D1*
X5220300D1*
X20238190Y1526250D2*
X20109630D1*
Y1465933D1*
X1917010Y4076800D2*
X1831610D1*
X1776080Y4021270D1*
X1712097D1*
X1692590Y8116130D2*
X1606107D1*
Y8055813D1*
X20238190Y2093610D2*
X20527487D1*
Y2163277D1*
X5959210Y3950070D2*
Y3864757D1*
X1905953Y6046967D2*
X1905960Y5961650D1*
X11437410Y4323540D2*
X11515933D1*
X7170193Y4714477D2*
X6803240D1*
X6729990Y4787727D1*
Y4869800D1*
X6689990Y4909800D1*
X5801110D1*
X7259170Y4744790D2*
X7170193D1*
Y4714477D1*
X2363960Y3013200D2*
X2352530Y3001770D1*
X2259070D1*
Y3032080D1*
X2249703D1*
X17310117Y5180760D2*
Y4980720D1*
X17300700Y4971303D1*
Y4846010D1*
X18184070D1*
X18224070Y4886010D1*
Y5015400D1*
X18778040D1*
X19716867Y5375220D2*
X18778040Y5376490D1*
X20481927Y5356690D2*
Y5371100D1*
X19716867D1*
Y5375220D1*
X18178073Y2635987D2*
X18026270D1*
X17986270Y2595987D1*
Y2538630D1*
X17946270Y2498630D1*
X17202590D1*
X17187260Y2513960D1*
X17096530D1*
X16998550Y2415980D1*
X15781410D1*
X4184230Y4261480D2*
X4202597Y4279847D1*
Y4428337D1*
X12460453Y2098767D2*
Y2159080D1*
X12262350D1*
X5220300Y3724040D2*
Y3910070D1*
X5260300Y3950070D1*
X5801110D1*
X19246380Y1347357D2*
Y1577570D1*
X19206380Y1617570D1*
X18709080D1*
Y1671490D1*
X18669080Y1711490D1*
X18193600D1*
X18153600Y1751490D1*
Y2178790D1*
X20109630Y1465933D2*
X20062140D1*
Y1250250D1*
X20022140Y1210250D1*
X19286380D1*
X19246380Y1250250D1*
Y1347357D1*
X11031807Y1585140D2*
Y1581020D1*
X11696060D1*
X4264410Y3081330D2*
X4252323Y3093417D1*
X4175430D1*
Y3097540D1*
X16929770Y3543530D2*
X17037343Y3543920D1*
X3225920Y1321670D2*
X3242053Y1337803D1*
Y1730140D1*
X2737670Y2403150D2*
X3045250D1*
X3160080Y2288320D1*
X3930440D1*
X3984670Y2234090D1*
X4095253D1*
X3692850Y5473890D2*
X4398530D1*
X4423620Y5448800D1*
X4503840D1*
X4514340Y5438300D1*
X4503840Y5427800D1*
Y5367310D1*
X3692857Y5165940D2*
X3692850Y5251260D1*
X1674140Y7860510D2*
Y7954120D1*
X1634140Y7994120D1*
X1572690D1*
X1532690Y8034120D1*
Y8173880D1*
X2723680Y6720210D2*
X2153693D1*
X2113693Y6760210D1*
Y6829670D1*
X2737670Y3521760D2*
Y3436443D1*
X4095253Y2234090D2*
Y2025430D1*
X4135253Y1985430D1*
X4344953D1*
X4384960Y1945423D1*
Y1839250D1*
X3692850Y5251260D2*
X3603310D1*
Y5186260D1*
X2758690D1*
X2723680Y5221270D1*
X2113693Y6829670D2*
Y6899360D1*
X1895760D1*
X17625380Y1946930D2*
X17826280D1*
X17866280Y1986930D1*
Y2145950D1*
X17826280Y2185950D1*
X17408740D1*
X17293550Y2301140D1*
X16669480D1*
X16450040Y1718900D2*
X16337033D1*
Y1723020D1*
X16330510Y2106140D2*
Y2208427D1*
X16355513D1*
X15440690Y2285980D2*
X15764420D1*
X19261350Y4457750D2*
X19328570Y4390530D1*
X19376350D1*
X19416350Y4430530D1*
Y4536880D1*
X19456357Y4576887D1*
X19591240D1*
X19375240Y1592440D2*
X19473113Y1494567D1*
Y1364620D1*
X19065530Y1751930D2*
X19375240D1*
X20065930Y5993970D2*
X20155930D1*
X20308440Y6146480D1*
Y6239970D1*
X20348440Y6279970D1*
X20481940D1*
X20521947Y6239963D1*
Y6141240D1*
X20153110Y4761130D2*
Y4752330D1*
X20188110Y4717330D1*
X20243170D1*
Y4747643D1*
X15764420Y2285980D2*
X15853970D1*
Y2289987D1*
X19294120Y3875360D2*
X19290073D1*
X19255073Y3840360D1*
Y3790050D1*
X19246620D1*
X15841600Y1412290D2*
Y1497567D1*
X15950213D1*
X17288950Y4067510D2*
X16584280D1*
X20292410Y4387630D2*
X20258523Y4421517D1*
Y4567883D1*
X19481350Y3743700D2*
X19399120Y3825930D1*
Y4055440D1*
X19359120Y4095440D1*
X18953030D1*
X18888030Y4160440D1*
X20167510Y3262847D2*
Y3395890D1*
X17353270Y1846330D2*
X17390780D1*
X17425777Y1881327D1*
Y1929107D1*
X18409970Y4438830D2*
X18877800D1*
X18888030Y4449060D1*
X20075270Y4052450D2*
X19942713D1*
Y4057353D1*
X16762363Y1663890D2*
Y1657560D1*
X17109310D1*
X15950213Y1497567D2*
Y1593760D1*
X15993073Y1636620D1*
X16511850D1*
X16581050Y1567420D1*
X16762363D1*
Y1663890D1*
X16584280Y4067510D2*
X16342620D1*
X16254200Y4155930D1*
X16163547D1*
Y4125613D1*
X18031380Y3166620D2*
X18031377Y3251937D1*
X19495140Y3518387D2*
Y3440800D1*
X19218620D1*
X19193620Y3465800D1*
X18843710D1*
X18818710Y3490800D1*
X18185290D1*
X18145290Y3450800D1*
Y3206620D1*
X18105290Y3166620D1*
X18031380D1*
X19481350Y3603700D2*
X19495140Y3589910D1*
Y3518387D1*
X18888030Y4449060D2*
Y4610100D1*
X18964977D1*
X19481350Y4046280D2*
X19475277Y4040207D1*
Y3875903D1*
X19942713Y4057353D2*
X19557423D1*
X19546350Y4046280D1*
X19481350D1*
X14712560Y1622300D2*
Y1633600D1*
X14677560Y1668600D1*
X14623583D1*
Y1672723D1*
X3491570Y8068610D2*
X3466570Y8043610D1*
X3362033D1*
Y8109850D1*
X12485480Y1613620D2*
X12553100Y1681240D1*
X13250407D1*
Y1734470D1*
X11904560Y1650147D2*
Y1571140D1*
X11821890D1*
X2579580Y8245740D2*
X2249820D1*
X1881400Y8614160D1*
X1665457D1*
Y8579913D1*
X9030403Y8671120D2*
Y8609160D1*
X8779910D1*
X6765240Y7334750D2*
Y7480560D1*
X6725240Y7520560D1*
X6271980D1*
X6231980Y7560560D1*
Y7895860D1*
X6191980Y7935860D1*
X6055440D1*
X13147240Y4779050D2*
X12755110D1*
Y4826217D1*
X12691133D1*
X8343470Y5446040D2*
X8122280D1*
X8082280Y5406040D1*
Y5237300D1*
X3362033Y8109850D2*
X2744580D1*
X2709570Y8144860D1*
X13250407Y1734470D2*
Y1715590D1*
X13469390D1*
X11821890Y1571140D2*
X11682010Y1711020D1*
X10356210D1*
X10253290Y1813940D1*
Y2057780D1*
X10213290Y2097780D1*
X9473260D1*
X9433260Y2137780D1*
Y2266300D1*
X3892810Y5082880D2*
Y4890150D1*
X3932810Y4850150D1*
X4564520D1*
X4680950Y4733720D1*
X4861130D1*
Y4516930D1*
X4821130Y4476930D1*
X4602150D1*
X4562147Y4436927D1*
Y4212573D1*
X3917010Y5233200D2*
X3892810Y5209000D1*
Y5082880D1*
X8779910Y8609160D2*
X8844910Y8674160D1*
Y8746380D1*
X8804910Y8786380D1*
X5750350D1*
X5508540Y8544570D1*
X5246980D1*
Y8445370D1*
X5286980Y8405370D1*
X6012650D1*
X6055440Y8362580D1*
X12691133Y4826217D2*
Y4759050D1*
X11986960D1*
X11961960Y4784050D1*
X17445443Y1527873D2*
Y1086673D1*
X17405440Y1046670D1*
X13953330D1*
X13913330Y1086670D1*
Y1281670D1*
X18274957Y1545043D2*
X17445443D1*
Y1527873D1*
X2592637Y7843857D2*
Y7839740D1*
X2681620D1*
X18823030Y4512700D2*
X18320987D1*
Y4434140D1*
X13808420Y4070650D2*
Y4202570D1*
X11040600Y7605297D2*
Y7526610D1*
X11129580D1*
X16359410Y2273760D2*
X16470500D1*
X16510510Y2233750D1*
Y2145950D1*
X15246460Y1959280D2*
Y2042060D1*
X15173950D1*
X14434850Y1978710D2*
X14462390Y1951170D1*
X14608250D1*
X14623880Y1966800D1*
X17819330Y5081020D2*
X17780083D1*
X17745083Y5116020D1*
Y5190493D1*
X17851630Y4003530D2*
X17556390D1*
Y4174950D1*
X17580370Y4198930D1*
Y4269430D1*
X17620370Y4309430D1*
X17714330D1*
X17754330Y4349430D1*
Y4505480D1*
X17804340D1*
X17819330Y4520470D1*
X12011300Y7924910D2*
X12060560Y7974170D1*
X12289957D1*
X12329957Y8014170D1*
Y8168473D1*
X19818690Y4793620D2*
Y4930510D1*
X17851630Y3477790D2*
X17760240D1*
Y3443357D1*
X17696263D1*
Y3447477D1*
X17754330Y4505480D2*
X17720980D1*
X17707690Y4518770D1*
X16620700D1*
Y4559223D1*
X15604850Y1733490D2*
X15246460D1*
X15896600D2*
Y1565883D1*
X15889097D1*
X19920460Y7530560D2*
X20518957D1*
X20558963Y7570567D1*
Y7709893D1*
X14265297Y8077307D2*
X14265300Y7991990D1*
X18320987Y4434140D2*
Y4437950D1*
X18125860D1*
X11129580Y7526610D2*
X11208920Y7605950D1*
X12011300D1*
X16510510Y2145950D2*
X17759130D1*
X17801280Y2103800D1*
X15173950Y2042060D2*
X14893060D1*
X14817800Y1966800D1*
X12329957Y8168473D2*
Y8429800D1*
X12369957Y8469800D1*
X12811880D1*
Y8312160D1*
X12851880Y8272160D1*
X13886250D1*
X19896680Y4728620D2*
X19934307Y4690993D1*
Y4643300D1*
X4707770Y7399780D2*
X5217130D1*
Y7459913D1*
X12464847Y5119187D2*
Y5076660D1*
X12553830D1*
X11094300Y1151680D2*
X9667613D1*
X9627613Y1191680D1*
Y1419253D1*
X17553020Y5016020D2*
X17455517D1*
Y5208800D1*
X6615097Y1671920D2*
X6679080D1*
Y1729080D1*
X6763600D1*
X1447080Y6883780D2*
X1543623D1*
Y6785843D1*
X14628357Y4910157D2*
Y4841840D1*
X14541290D1*
Y4812910D1*
X14757340D1*
X4347730Y8604000D2*
X4707770D1*
X2993670Y8473720D2*
X3110180Y8357210D1*
X3354950D1*
X3561720Y8563980D1*
X3864230D1*
X3889230Y8588980D1*
X17346380Y7594550D2*
X17048210D1*
X12298320Y4071910D2*
X11936520D1*
Y4049040D1*
X11901510Y4014030D1*
X17558070Y7610290D2*
X17623070D1*
X17648070Y7585290D1*
X17924960D1*
X17964960Y7625290D1*
Y7721740D1*
X18004960Y7761740D1*
X18339200D1*
X18524420Y7576520D1*
X18698493D1*
Y7639503D1*
X19357830Y8189190D2*
Y8396310D1*
X19263537D1*
X1867197Y2337443D2*
Y2541707D1*
X1966517D1*
X16446630Y3377330D2*
X16511630Y3312330D1*
X16620793D1*
Y3350000D1*
X5217130Y7459913D2*
Y7455790D1*
X5281100D1*
X5312860Y7487550D1*
X5425540D1*
X5505540Y7407550D1*
X5850440D1*
X5890440Y7447550D1*
Y7762480D1*
X5984460D1*
X1447080Y5438220D2*
X1496980Y5388320D1*
X1677090D1*
X1717090Y5428320D1*
Y5687893D1*
X1686273Y5718710D1*
Y5791423D1*
X11170370Y7331790D2*
X11091040Y7411120D1*
X10802140D1*
X16016020Y7917120D2*
X15769410D1*
Y7856807D1*
X9627613Y1419253D2*
X8897073D1*
X8807220Y1329400D1*
X7832650D1*
Y1419410D1*
Y1459410D1*
X8051867D1*
Y1549770D1*
X11094300Y1894830D2*
Y1809513D1*
X5505540Y7407550D2*
X5501100Y7403110D1*
X5408873D1*
Y7407230D1*
X6541527Y8021890D2*
X6514030D1*
Y8107210D1*
X8747430Y7587460D2*
X7497450D1*
Y7726630D1*
X7457450Y7766630D1*
X7042380D1*
X6874260Y7934750D1*
X6541527D1*
Y8021890D1*
X8872093Y7589130D2*
X8747430Y7587460D1*
X10316330Y7570850D2*
X10302170Y7585010D1*
X8872093D1*
Y7589130D1*
X15498320Y2974193D2*
X14812800Y2973800D1*
X15635690Y2980870D2*
X15624893Y2970073D1*
X15498320D1*
Y2974193D1*
X12553830Y5076660D2*
X13033490D1*
X13041530Y5084700D1*
X13202260D1*
X13242260Y5124700D1*
Y5311357D1*
X13282270Y5351367D1*
X13511527D1*
Y5380410D1*
X7832650Y1419410D2*
X7792650Y1459410D1*
X7620490D1*
X7580700Y1499200D1*
X7039540D1*
X6982080Y1556660D1*
X12483330Y5320680D2*
X12500187Y5337537D1*
Y5448137D1*
X12221960Y5380730D2*
X12349360D1*
X12409410Y5320680D1*
X12483330D1*
X6763600Y1729080D2*
Y2015257D1*
X6724960Y2053897D1*
X6657017D1*
X16536177Y3706130D2*
Y3695340D1*
X16446630D1*
X11231730Y4386090D2*
X11241233Y4395593D1*
Y4471407D1*
X17048210Y7594550D2*
X17018210D1*
X16983210Y7559550D1*
Y7541630D1*
X17022190Y7502650D1*
Y7234070D1*
X16982190Y7194070D1*
X16822790D1*
X16782790Y7234070D1*
Y7400420D1*
X16742783Y7440427D1*
X16656610D1*
X11901510Y4014030D2*
Y4112217D1*
X19131380Y3983300D2*
X19117503Y3969423D1*
Y3836593D1*
X17559400Y7414460D2*
X17578450Y7395410D1*
X17648947D1*
X18698493Y7639503D2*
Y7770390D1*
X18738493Y7810390D1*
X19042910D1*
X19152740Y7700560D1*
X19412820D1*
X1966517Y2541707D2*
Y2617680D1*
X1447080D1*
X2669600Y8473720D2*
Y8271500D1*
X2709203Y8231897D1*
X2903127D1*
X1447080Y8803120D2*
X2631260D1*
X2669600Y8764780D1*
Y8473720D1*
X16662790Y8647250D2*
X16666913Y8651373D1*
X16812863D1*
X20402567Y8036960D2*
Y8097280D1*
X20333370D1*
X15119520Y4569770D2*
X14855440D1*
X14808890Y4616320D1*
X14477720D1*
X14376130Y4717910D1*
X14234997D1*
X14204300Y4687213D1*
X13697333D1*
Y4691333D1*
X18010500Y3689350D2*
X16947580D1*
X16942040Y3694890D1*
X16704110D1*
X16605700Y3596480D1*
X16434670D1*
X16116340Y3914810D1*
X5124280Y4642360D2*
X5189280D1*
Y4669273D1*
X5235410D1*
X7616303Y4317277D2*
Y4227290D1*
X7246890D1*
X7214270Y4194670D1*
X6952460D1*
X6860170Y4102380D1*
X6699800D1*
X6682110Y4120070D1*
X6019870D1*
X12209830Y3034460D2*
X12211463Y2949143D1*
X14868050Y1514910D2*
X14503780D1*
X14463773Y1474903D1*
Y1329127D1*
X16053280Y4162040D2*
Y4368577D1*
X16028277D1*
X10140800Y1581790D2*
Y1732107D1*
X10148293D1*
X10203960Y3872290D2*
X10712220D1*
X10813920Y3973990D1*
Y4307627D1*
X10722027D1*
X4759883Y4827207D2*
X4759880Y4912520D1*
X1769260Y6750940D2*
X1742010Y6778190D1*
Y7270167D1*
X19598670Y4945510D2*
Y5019903D1*
X19529583Y5088990D1*
Y5155120D1*
X6860170Y4102380D2*
Y4005300D1*
X6940170Y3925300D1*
X6832780Y3817910D1*
X6628120D1*
X1777440Y4653070D2*
X1246680D1*
X1206680Y4613070D1*
Y3371920D1*
X1246680Y3331920D1*
X1713430D1*
Y3201920D1*
X1181670D1*
Y1709190D1*
X1221670Y1669190D1*
X1871880D1*
X1969640Y1766950D1*
X2254600D1*
X2294600Y1726950D1*
Y1636950D1*
X4950960Y3454180D2*
X4871060D1*
X4824380Y3500860D1*
X4783737D1*
Y3440540D1*
X15294490Y4022590D2*
X15531103D1*
X15571103Y3982590D1*
Y3918933D1*
X2294600Y2046630D2*
X3370950D1*
X3410953Y2086633D1*
Y2149720D1*
X15119520Y4230470D2*
X15257320D1*
X6940170Y3925300D2*
X7094480D1*
Y3894060D1*
X7140170D1*
X20333370Y8097280D2*
Y8705760D1*
X20293370Y8745760D1*
X18821080D1*
X18781077Y8705757D1*
Y8605810D1*
X11281230Y4715350D2*
X11326230D1*
Y4718207D1*
X11436933D1*
Y4729467D1*
X12933390Y4603823D2*
Y4679050D1*
X12893390Y4719050D1*
X11887580D1*
X11847580Y4759050D1*
Y4996500D1*
X11807580Y5036500D1*
X11249320D1*
X11209320Y4996500D1*
Y4750350D1*
X11244320Y4715350D1*
X11281230D1*
X13697333Y4691333D2*
X13649840D1*
Y4593630D1*
X13609840Y4553630D1*
X13303317D1*
X13253123Y4603823D1*
X12933390D1*
X5235410Y4669273D2*
X5335950D1*
Y4361930D1*
X5375950Y4321930D1*
X5972460D1*
X1777437Y5198010D2*
Y5275143D1*
X1769260Y5283320D1*
X1777440Y5101580D2*
X1777437Y5198010D1*
X4759880Y4912520D2*
X4022010D1*
X3982010Y4952520D1*
Y5298200D1*
X3797850D1*
X3757850Y5258200D1*
Y5103210D1*
X3384080D1*
X3355490Y5131800D1*
X2013470D1*
X1983250Y5101580D1*
X1777440D1*
X18024050Y3465800D2*
X18035717Y3454133D1*
Y3332147D1*
X11281230Y4715350D2*
X11279270Y4943520D1*
X19529583Y5155120D2*
Y5254580D1*
X19569583Y5294580D1*
X20343110D1*
X2294600Y1636950D2*
X2064857D1*
Y1576640D1*
X15571103Y3918933D2*
X15679560D1*
X15683683Y3914810D1*
X15822420D1*
X15369290Y1992150D2*
X15485277Y1992540D1*
X19311340Y4642700D2*
X19294993D1*
X19276340Y4624047D1*
X19222363D1*
Y4628167D1*
X19598670Y4837700D2*
Y4807700D1*
X19563670Y4772700D1*
X19483680D1*
X19443680Y4732700D1*
Y4642700D1*
X18363600Y2355020D2*
X18554577D1*
Y2240180D1*
X5481410Y5137327D2*
Y5350460D1*
X5441410Y5390460D1*
X4771693D1*
X4763643Y5382410D1*
Y5322097D1*
X18642140Y2355020D2*
X18554577D1*
X18243600Y1881930D2*
Y2088790D1*
X18363600Y2208790D1*
X14120627Y1399060D2*
Y1241683D1*
X14160630Y1201680D1*
X15882800D1*
X15909580Y1174900D1*
X17256090D1*
X17296090Y1214900D1*
Y1470380D1*
X17483270Y1657560D1*
X4863630Y2682690D2*
X5046373Y2683083D1*
X18642140Y2549900D2*
X18925293D1*
Y2625130D1*
X13559690Y1289010D2*
Y1071670D1*
X11465250Y1360510D2*
Y1445827D1*
X4677320Y3702150D2*
X4588343D1*
Y3671837D1*
X15909580Y1174900D2*
X15947187Y1212507D1*
Y1392533D1*
X13649690Y1419010D2*
X13669640Y1399060D1*
X14120627D1*
X8140850Y1497310D2*
X8604467D1*
Y1532543D1*
X8099573Y1597737D2*
Y1568697D1*
X8140850D1*
Y1497310D1*
X4645690Y5261780D2*
X4564157D1*
Y5340943D1*
X4763643Y5322097D2*
Y5261780D1*
X4645690D1*
X4863630Y3132200D2*
X4896907Y3098923D1*
Y3046890D1*
X6159870Y2067570D2*
X6006260D1*
X5996260Y2077570D1*
X4416953D1*
Y2170880D1*
X8015430Y1660360D2*
X8242363D1*
Y1666310D1*
X16235120Y8563150D2*
X16662780D1*
X16702780Y8523150D1*
Y8425280D1*
X16742780Y8385280D1*
X16847480D1*
X16862130Y8399930D1*
X17484220D1*
X17578800Y8305350D1*
X17914890D1*
X10670120Y1946020D2*
X10333290D1*
X10293290Y1986020D1*
Y2097780D1*
X10253290Y2137780D1*
X9640883D1*
Y2225787D1*
X16155130Y7610020D2*
X16061437D1*
Y7549703D1*
X9104310Y1111670D2*
X8067650D1*
X19210120Y5546490D2*
X19436380D1*
X19462580Y5572690D1*
X20524980D1*
X20564980Y5612690D1*
Y5919290D1*
X19712260Y2988020D2*
X19166100D1*
X19086110Y2908030D1*
X18851180D1*
X18800890Y2857740D1*
X18712130D1*
X18672130Y2897740D1*
Y3082120D1*
X19095750Y1435280D2*
X18603980D1*
X18433900Y1605360D1*
X17979210D1*
X17964140Y1590290D1*
X17809530D1*
X17769523Y1630297D1*
Y1821933D1*
X13116530Y7842850D2*
X13029197D1*
Y7906277D1*
X20307870Y1443510D2*
X20457810Y1443907D1*
X18868040Y5571890D2*
X19001540D1*
X16155130Y7983920D2*
Y7898607D1*
X10951480Y2924077D2*
Y3020480D1*
X11773240D1*
X16061437Y7549703D2*
Y7506170D1*
X15500600D1*
X8067650Y1111670D2*
X8017470Y1161850D1*
X7730590D1*
X16235120Y8287680D2*
Y8138920D1*
X16442783Y8170180D2*
Y8247677D1*
X16402780Y8287680D1*
X16235120D1*
X19670953Y2286220D2*
Y2336540D1*
X19635953Y2371540D1*
X19615270D1*
X20238190Y2224950D2*
Y2247097D1*
X20203190Y2282097D1*
X19670953D1*
Y2286220D1*
X20438990Y3049237D2*
X20330927D1*
X20320140Y3038450D1*
X18868040Y5015400D2*
X18890237Y4993203D1*
Y4930087D1*
X8554420Y2082790D2*
X8529400Y2057770D1*
Y2005290D1*
X8569400Y1965290D1*
X8878020D1*
X9432350D1*
X9514170Y2047110D1*
X9774630D1*
X9788960Y2032780D1*
X14687800Y2206060D2*
Y2036060D1*
X19742120Y2695600D2*
Y2610280D1*
X19801887D1*
X13821250Y7482620D2*
X13712067D1*
Y7577223D1*
X18918190Y7740560D2*
X18892170Y7714540D1*
Y7564137D1*
X18852170Y7524137D1*
X18232953D1*
Y7505090D1*
X16637780Y7634550D2*
X16662780Y7659550D1*
X17394250D1*
X17508510Y7545290D1*
X17772470D1*
X17785000Y7532760D1*
X17856400D1*
X17896890Y7492270D1*
X10072310Y3887740D2*
X9688200D1*
X8878020Y1965290D2*
X8878017Y2044330D1*
X19015030Y7534620D2*
X19254733D1*
X19015030Y6508100D2*
X18982937Y6476007D1*
Y6396427D1*
X10761413Y1813997D2*
Y1990277D1*
X10721410Y2030280D1*
X10373290D1*
X10333290Y2070280D1*
Y2137780D1*
X10293290Y2177780D1*
X9813960D1*
X9788960Y2202780D1*
X16627980Y4863630D2*
Y4948950D1*
X2070170Y3199320D2*
X2159720D1*
Y3169003D1*
X3511643Y1860117D2*
Y1899570D1*
X4186020D1*
X3184930Y1851630D2*
X3209180Y1875880D1*
X3511643D1*
Y1860117D1*
X13000520Y2065450D2*
X12645480D1*
X12589640Y2009610D1*
X12370740D1*
X12293600Y2086750D1*
X11560820D1*
X14357143Y1905920D2*
Y1881960D1*
X13915670D1*
X13732180Y2065450D1*
X13000520D1*
X14687800Y2036060D2*
Y1901800D1*
X14357143D1*
Y1905920D1*
X16360410Y3237267D2*
Y3233147D1*
X16671617D1*
X16685800Y3247330D1*
X2058607Y2135173D2*
Y2021630D1*
X2098607Y1981630D1*
X3184930D1*
X2064070Y2220490D2*
X2058607Y2215027D1*
Y2135173D1*
X9044010Y4074790D2*
X8963160Y3993940D1*
X8728120D1*
X9009503Y4197240D2*
X9034010D1*
Y4084790D1*
X9044010Y4074790D1*
X18232953Y7505090D2*
Y7452270D1*
X18094960D1*
X14697800Y2973800D2*
X14239720D1*
Y2961333D1*
X14699970Y1752300D2*
X14702633Y1749637D1*
X15127863D1*
Y1728050D1*
X10184143Y4744193D2*
Y4827137D1*
X10181770Y4829510D1*
X10184150Y4174770D2*
X10184143Y4744193D1*
X10761413Y1990277D2*
X10801417Y2030280D1*
X11199300D1*
X11313170Y1916410D1*
X11560820D1*
X19254733Y7534620D2*
Y7465560D1*
X20378740D1*
X20418740Y7425560D1*
Y6765490D1*
X2070990Y3909860D2*
X2048017Y3932833D1*
X1982007D1*
Y3956793D1*
X4853200Y8055380D2*
X4819763Y8021943D1*
X4764220D1*
Y8026063D1*
X5826400Y2152580D2*
X5791390Y2117570D1*
X4661200D1*
X4547570Y2231200D1*
X4377420D1*
X4352420Y2206200D1*
X4276020D1*
X10783890Y4755980D2*
X10772000D1*
Y4661240D1*
X10739140Y4628380D1*
Y4493850D1*
X10750050Y4482940D1*
X10783890Y5141490D2*
Y4755980D1*
X9386760Y4572990D2*
X9411770Y4547980D1*
Y4232273D1*
X9361700D1*
Y4236393D1*
X3746193Y3138953D2*
X3746190Y3053640D1*
X5826400Y2003200D2*
X5932273D1*
Y1972880D1*
X19021110Y2699220D2*
X18299590D1*
X18228220Y2770590D1*
Y2781747D1*
X18257063Y2810590D1*
Y2877520D1*
X19590270Y3109160D2*
X19509130Y3028020D1*
X19021110D1*
Y2973030D1*
X18088530Y2810590D2*
X18188220D1*
X18228220Y2770590D1*
X14881750Y5545577D2*
X14763753Y5427580D1*
X13808870D1*
X20570080Y3735067D2*
Y3795380D1*
X20507950D1*
Y3835383D1*
X20507960Y3835390D1*
Y4009720D1*
X17329930Y3338327D2*
X17393913D1*
X17442270Y3289970D1*
X17552010D1*
X10608110Y1513620D2*
X10782947D1*
Y1453303D1*
X19800270Y3349320D2*
X19895577D1*
Y3439287D1*
X15779627Y5186680D2*
X15544630D1*
X15541110Y5190200D1*
X17700230Y4168120D2*
X17812467D1*
Y4172243D1*
X11612290Y8054900D2*
Y8555120D1*
X11652297Y8595127D1*
X11868887D1*
X2549470Y1256670D2*
X2248453D1*
Y1332760D1*
X3670707Y1516123D2*
Y1546440D1*
X3759690D1*
X14874643Y4811833D2*
Y4842150D1*
X14963620D1*
X19798480Y4283570D2*
Y4440817D1*
X4764220Y8026063D2*
X4359740Y8025660D1*
X11492390Y5473460D2*
X11498020Y5467830D1*
Y5368453D1*
X10783890Y4755980D2*
Y4663910D1*
X10802990Y4644810D1*
Y4584497D1*
X3746190Y3053640D2*
X3108530D1*
X3068527Y3093643D1*
Y3230217D1*
X20507960Y4009720D2*
X20460460D1*
Y3810040D1*
X20420460Y3770040D1*
X20214310D1*
X20152050Y3832300D1*
X19996370D1*
X19905270Y3741200D1*
X15541110Y5190200D2*
X15456350D1*
Y5168147D1*
X15392370D1*
Y5172270D1*
X3759690Y1546440D2*
Y1481020D1*
X3777680Y1463030D1*
Y1296670D1*
X3737680Y1256670D1*
X3160920D1*
X14963620Y4842150D2*
X15097660D1*
X15141400Y4885890D1*
X15696110D1*
X15736110Y4845890D1*
Y4803410D1*
X15696110Y4763410D1*
X15541110D1*
X8137680Y8417780D2*
X8143377Y8423477D1*
Y8503090D1*
X20061730Y8876130D2*
X20011990Y8925870D1*
X14170800D1*
X14146070Y8901140D1*
Y8831130D1*
X14111070Y8796130D1*
X14081070D1*
X3214560Y8609740D2*
X3392940Y8788120D1*
X5048200D1*
X5088200Y8748120D1*
Y8389580D1*
X18325900Y5574670D2*
X18648040D1*
X18790880Y5717510D1*
X19267820D1*
X19307820Y5677510D1*
Y5612313D1*
X19388793D1*
X17120320Y5314580D2*
X17452800D1*
X17498260Y5269120D1*
X17822370D1*
X17853210Y5238280D1*
X18214910D1*
X7869760Y5172300D2*
X8248920D1*
X8305640Y5229020D1*
X8503330D1*
X8625760Y5351450D1*
X9583450D1*
X9623450Y5311450D1*
Y5242170D1*
X9724280Y5141340D1*
X9865680D1*
Y5204900D1*
X9811733D1*
Y5213623D1*
X9817250Y4443300D2*
Y4387990D1*
X9988200D1*
X10011020Y2266420D2*
X9853960D1*
X10011020Y1646790D2*
X10051027Y1606783D1*
Y1527923D1*
X16637780Y5345140D2*
X16577187D1*
Y5485140D1*
X14146070Y8901140D2*
X12852430D1*
X17074770Y3856450D2*
X16764900D1*
X17185320Y5173140D2*
X17236720Y5121740D1*
Y4995827D1*
X16849610Y5276450D2*
Y5406450D1*
X1311670Y5348320D2*
X2146000D1*
X2186000Y5388320D1*
Y5494330D1*
X1944210D1*
X1904210Y5534330D1*
Y5693837D1*
X2004067D1*
X16164780Y8665560D2*
Y8725870D1*
X15098100D1*
X15058100Y8685870D1*
Y8483270D1*
X15018100Y8443270D1*
X14081070D1*
X20061730Y8381380D2*
Y8028300D1*
X20021730Y7988300D1*
X19799350D1*
X7646590Y7954400D2*
X8530000D1*
X8574850Y7909550D1*
X9063887D1*
Y7994833D1*
X1311670Y4747550D2*
X1336670Y4722550D1*
X1691753D1*
Y4789623D1*
X11998820Y7153500D2*
Y7269543D1*
X12011417Y7282140D1*
Y7343047D1*
X19372820Y5697630D2*
X19388793Y5681657D1*
Y5612313D1*
X7426450Y8457780D2*
Y8516400D1*
X7531450D1*
X7618460Y8603410D1*
X8588450D1*
X8628450Y8563410D1*
Y8407260D1*
X8668450Y8367260D1*
X8844910D1*
X8884910Y8407260D1*
Y8527980D1*
X8924910Y8567980D1*
X9054380D1*
X9094380Y8607980D1*
Y8635900D1*
X9134380Y8675900D1*
X9850640D1*
X7204563Y8554723D2*
Y8472780D1*
X7244563Y8432780D1*
X7401450D1*
X7426450Y8457780D1*
X7224110Y8643360D2*
X7216610D1*
Y8554723D1*
X7204563D1*
X3212760Y8519740D2*
X3125573D1*
Y8576533D1*
X3250970Y8436560D2*
X3223300D1*
Y8509200D1*
X3212760Y8519740D1*
X5253200Y7732840D2*
X5277700Y7757340D1*
Y7822683D1*
X16577187Y5485140D2*
X16542640D1*
Y5395140D1*
X16502640Y5355140D1*
X16318970D1*
X16289850Y5384260D1*
X16260720D1*
X16245570Y5399410D1*
X15987630D1*
X16764900Y3856450D2*
X16716437Y3807987D1*
X16334267D1*
X3034077Y5646783D2*
X3120653D1*
X3124430Y5650560D1*
X2004067Y5693837D2*
Y5689717D1*
X2068050D1*
X2159057Y5780723D1*
X2884047D1*
X2893680Y5771090D1*
Y5686387D1*
X2933283Y5646783D1*
X3034077D1*
X14081070Y8443270D2*
Y8364830D1*
X14041070Y8324830D1*
X13992090D1*
Y8406317D1*
X19580033Y7581407D2*
X19394557D1*
X19383710Y7570560D1*
X19799350Y7988300D2*
Y7621410D1*
X19759347Y7581407D1*
X19580033D1*
X1691753Y4789623D2*
X2081863D1*
Y4719993D1*
X17470280Y2906760D2*
X17480280Y2896760D1*
Y2821443D1*
X17484687D1*
X7988530Y4025930D2*
X7985037Y4029423D1*
X7899553D1*
Y4033547D1*
X11844837Y7103663D2*
Y7165660D1*
X11781620Y7228877D1*
Y7436040D1*
X11821620Y7476040D1*
X12076300D1*
X12116300Y7516040D1*
Y7654080D1*
X12156303Y7694083D1*
X12340970D1*
X19603147Y6027890D2*
Y6093230D1*
X19507750D1*
X19143190Y8654770D2*
X18840077D1*
Y8596697D1*
X19906097Y8286387D2*
Y8128627D1*
X19866090Y8088620D1*
X19799520D1*
X19700510Y7989610D1*
X20357400Y4857350D2*
X20319903D1*
X20284900Y4822347D1*
Y4772030D1*
X19001210Y3605850D2*
X19093350Y3513710D1*
X19327450D1*
X20361087Y5119263D2*
X20361090Y5204580D1*
X20238190Y3103450D2*
Y3215150D1*
X20256490Y3233450D1*
X17671270Y2979950D2*
X17445280D1*
X17405280Y2939950D1*
Y2786300D1*
X17365280Y2746300D1*
X16484920D1*
X16444920Y2706300D1*
Y2605530D1*
X16404920Y2565530D1*
X15976410D1*
X15936410Y2605530D1*
Y3010790D1*
X15896410Y3050790D1*
X14130153D1*
X14090153Y3010790D1*
Y2935637D1*
X19583277Y2887707D2*
Y2809383D1*
X19623280Y2769380D1*
X19720440D1*
X19834080Y2883020D1*
X20173190D1*
X20102920Y6790380D2*
X20002920Y6690380D1*
X19507750D1*
X19700510Y7989610D2*
Y7804200D1*
X19660510Y7764200D1*
X19477820D1*
X19540180Y1992060D2*
X19451197D1*
Y2011360D1*
X18908330Y1909070D2*
X19605180D1*
Y1957060D1*
X19570180Y1992060D1*
X19540180D1*
X18623327Y1878760D2*
Y1874637D1*
X18783897D1*
X18818330Y1909070D1*
X18908330D1*
X19583277Y2809383D2*
X19543273Y2769380D1*
X19440230D1*
Y2664390D1*
X19327450Y2883020D2*
X19332137Y2887707D1*
X19583277D1*
X20311457Y3921033D2*
Y3870040D1*
X20276457Y3835040D1*
X20256490D1*
X20361090Y5204580D2*
X20471770D1*
X20511770Y5164580D1*
Y4270353D1*
X20311457Y4070040D1*
Y3921033D1*
X17692237Y2894637D2*
X17681270D1*
Y2969950D1*
X17671270Y2979950D1*
X20191157Y2698283D2*
Y2770987D1*
X20238190Y2818020D1*
X18024360Y5041020D2*
X17984057Y5081323D1*
Y5166687D1*
X17365700Y4911010D2*
X18024360D1*
X16724770Y4928630D2*
X16836170Y4817230D1*
Y4809750D1*
X16876170Y4769750D1*
X16980330D1*
X16994610Y4755470D1*
X20238190Y2517500D2*
X20108190D1*
X12590460Y2249090D2*
X12655460D1*
X12688567Y2215983D1*
X12811620D1*
Y2250893D1*
X15714370Y1477290D2*
X14957597D1*
Y1548233D1*
X16679910Y2616250D2*
X16590923D1*
Y2555933D1*
X16142190Y1360290D2*
X16060160D1*
X16020153Y1400297D1*
Y1471937D1*
X16549410Y1730410D2*
X16638953D1*
Y1700090D1*
X20238190Y2818020D2*
Y2912210D1*
X20278190Y2952210D1*
X20491930D1*
X20531930Y2992210D1*
Y3564787D1*
X20474057Y3622660D1*
Y3709727D1*
X12650610Y2939750D2*
X12623960Y2949700D1*
X12759743Y2950097D1*
X16399010Y3907190D2*
Y3903210D1*
X16616630D1*
X15249520Y4321140D2*
X15264750D1*
X15284520Y4340910D1*
X15346860D1*
Y4280597D1*
X12062750Y1912060D2*
X12057837Y1916973D1*
X11973767D1*
Y1921097D1*
X18164620Y3940610D2*
Y4046583D1*
X18264120D1*
X18092420Y5379670D2*
X17934370D1*
X17894370Y5419670D1*
Y5456437D1*
X17824617D1*
Y5480397D1*
X19826710Y5903980D2*
X20387190D1*
X20427193Y5943983D1*
Y6219657D1*
X19659590Y5903980D2*
X19589550Y5833940D1*
X19406530D1*
X19342760Y5897710D1*
X18871540D1*
X16361040Y2335217D2*
X16570230Y2335220D1*
X16435413Y7479620D2*
Y7565450D1*
X16368490D1*
Y7627957D1*
X16241590Y8048920D2*
X16131600D1*
X16091600Y8088920D1*
Y8227363D1*
X18743350Y7289497D2*
Y7374810D1*
X18270930Y4632080D2*
X18158823D1*
Y4601857D1*
X18264120Y4046583D2*
Y4042460D1*
X18990110D1*
X18995950Y4048300D1*
X19319120D1*
X19359120Y4008300D1*
Y3708700D1*
X19399120Y3668700D1*
X19573300D1*
X19691647Y3550353D1*
X20328767D1*
X16071240Y3060797D2*
X16140053D1*
X16213210Y2987640D1*
Y2630530D1*
X13863240Y3040950D2*
X13943320D1*
X13993390Y3091020D1*
X16071240D1*
Y3060797D1*
X13434250Y3040950D2*
X13863240D1*
X18536810Y8526540D2*
X18554177Y8509173D1*
Y8441223D1*
X16570230Y2335220D2*
Y2370220D1*
X17137980D1*
X17139570Y2368630D1*
Y2453647D1*
X16278950Y7658270D2*
X16384240Y7763560D1*
X16483410D1*
X16547420Y7699550D1*
X17741630D1*
X17848290Y7806210D1*
X18536810D1*
X16368490Y7627957D2*
Y7658270D1*
X16278950D1*
X18289070Y4950400D2*
X18295270Y4956600D1*
X18706840D1*
X18713040Y4950400D1*
X18743350Y7374810D2*
X18918190D1*
X11776290Y8253860D2*
Y8168550D1*
X13005780Y7381180D2*
X13037047D1*
X13072047Y7346180D1*
Y7295863D1*
X5459003Y4598683D2*
Y4629000D1*
X5547980D1*
X6356750D1*
X6478930Y4506820D1*
X7467637D1*
Y4496830D1*
X7578330D1*
X8930650Y2143740D2*
X8841673D1*
Y2147860D1*
X2602513Y7487013D2*
Y7419797D1*
X2642520Y7379790D1*
X2814580D1*
X2994680Y8252210D2*
X3516570D1*
X3556570Y8212210D1*
Y8083610D1*
X3596570Y8043610D1*
X3715200D1*
X3755200Y8003610D1*
Y7899907D1*
X2932670Y1837360D2*
X2782110D1*
Y1777047D1*
X3875183Y2888393D2*
Y2884270D1*
X4033730D1*
X4073730Y2924270D1*
Y3016330D1*
X4670810D1*
X4776240Y3121760D1*
Y3284180D1*
X4816240Y3324180D1*
X5340350D1*
X5390817Y3374647D1*
Y3441133D1*
X2883750Y4859680D2*
X2658680D1*
X13143990Y1616240D2*
X13263710Y1616637D1*
X3044710Y4403240D2*
X3134253D1*
Y4372920D1*
X7467637Y4506820D2*
Y4567047D1*
X5547980Y3374640D2*
X5390817Y3374647D1*
X2999730Y2884270D2*
X3003853Y2888393D1*
X3875183D1*
X10528110Y1461200D2*
X10493110Y1426200D1*
X10275940D1*
X10235937Y1466203D1*
Y1583197D1*
X13143990Y1751530D2*
X13127070Y1734610D1*
X12675450D1*
X12585820Y1824240D1*
X12037760D1*
X11997760Y1784240D1*
Y1522440D1*
X11957760Y1482440D1*
X11582870D1*
X11549280Y1516030D1*
X10958100D1*
X10895510Y1578620D1*
X10568110D1*
X10528110Y1538620D1*
Y1461200D1*
X8332097Y3928707D2*
Y4006490D1*
X8435590D1*
X8468440Y3973640D1*
X8577820D1*
X8663120Y4058940D1*
X8849010D1*
X7578330Y3928420D2*
X8332097Y3928707D1*
X8841673Y2147860D2*
X8819867Y2168190D1*
X8735930D1*
Y2099150D1*
X8719540Y2082760D1*
X2814580Y7379790D2*
X3135530D1*
X3345857Y7169463D1*
X4120540D1*
X5348203Y3154397D2*
Y3244180D1*
X5001920D1*
X4961920Y3204180D1*
Y3016330D1*
X4921920Y2976330D1*
X4782320D1*
X2997670Y2263310D2*
X2927850D1*
X2905670Y2285490D1*
X2025400D1*
X1985400Y2245490D1*
Y2070400D1*
X1945400Y2030400D1*
X1510220D1*
X1363530Y1883710D1*
X4645680Y5147650D2*
X4541020D1*
X4501020Y5187650D1*
Y5244793D1*
X4458570D1*
Y5271297D1*
X5691530Y1616430D2*
Y1536507D1*
X5626630D1*
Y1512210D1*
X4655930Y4105450D2*
X4566950D1*
Y4075133D1*
X3697757Y2646770D2*
Y2630420D1*
X2997670D1*
X4782320Y2976330D2*
X4113730D1*
Y2682650D1*
X4073727Y2642647D1*
X3697757D1*
Y2646770D1*
X1363530Y1883710D2*
X1468530D1*
Y1753307D1*
X1470287Y1755063D1*
X1856783D1*
X6570990Y1993980D2*
X6678417D1*
Y1915923D1*
X6086037Y1630747D2*
X6303520D1*
X6343520Y1670747D1*
Y1998320D1*
X6566650D1*
X6570990Y1993980D1*
X5844150Y1578490D2*
X5852203Y1570437D1*
X6086037D1*
Y1630747D1*
X12055720Y4218540D2*
X11962867D1*
Y4222660D1*
X11361730Y4218550D2*
X11567410D1*
X12043930Y1417440D2*
X11826767D1*
Y1387123D1*
X12774990Y1548620D2*
X12575480D1*
X13718930Y1888040D2*
X13536430D1*
X13511430Y1863040D1*
X13070160D1*
X13068590Y1864610D1*
X12774990D1*
X9857270Y4969520D2*
X9971277D1*
Y4978903D1*
X12913183Y4247130D2*
X12913187Y4443327D1*
X14118580Y4605300D2*
X14084980Y4638900D1*
X13976887D1*
Y4578583D1*
X14105930Y4752220D2*
X13891310D1*
X11962867Y4222660D2*
X11872940D1*
X11859310Y4209030D1*
X11026400Y4792690D2*
X11023887Y4790177D1*
Y4707377D1*
X11016383D1*
X8531923Y4517567D2*
Y4617767D1*
X8499980Y4649710D1*
Y4978560D1*
X8459980Y5018560D1*
X8342070D1*
X8644080Y4617770D2*
X8531923Y4617767D1*
X5008080Y4977520D2*
X5101010Y4884590D1*
X5281710D1*
X6965170Y3120650D2*
X6972350Y3113470D1*
Y3035337D1*
X5386793Y5235820D2*
Y5296150D1*
X5316710D1*
X5281710Y5261150D1*
Y5231150D1*
X5430127Y5100557D2*
X5359300D1*
Y5193070D1*
X5386793D1*
Y5235820D1*
X6965940Y4811160D2*
X6809990D1*
X6769990Y4851160D1*
Y4909800D1*
X6729990Y4949800D1*
X6123520D1*
X6058730Y5014590D1*
X5430127D1*
Y5100557D1*
X7551563Y4899373D2*
X7376213D1*
X7288000Y4811160D1*
X6965940D1*
X8342070Y5018560D2*
Y4988100D1*
X8307070Y4953100D1*
X8124560D1*
X7973590Y4802130D1*
X7551563D1*
Y4899373D1*
X8919390Y4631610D2*
X8952460Y4598540D1*
Y4546290D1*
X16505230Y2480980D2*
Y2642340D1*
X16545230Y2682340D1*
X17225220D1*
X17368930Y2538630D1*
X17877530D1*
X17917530Y2578630D1*
Y2986327D1*
X17952073D1*
X11751067Y8010210D2*
X11841290D1*
Y8469800D1*
X11881290Y8509800D1*
X13970260D1*
Y8489687D1*
X13719733Y4136807D2*
Y4055560D1*
X13524670D1*
X11769310Y4144030D2*
Y3928400D1*
X19111360Y3716940D2*
Y3685140D1*
X18936210D1*
X11557870Y4610760D2*
X11622870D1*
Y4600653D1*
X11657730D1*
X15997503Y1745623D2*
Y1852737D1*
X16020737Y1875970D1*
Y2016347D1*
X16024840Y2020450D1*
X9110690Y2928550D2*
Y3002913D1*
X9150553Y3042777D1*
X9262903D1*
X14811620Y8250070D2*
X14854120Y8207570D1*
Y8050983D1*
X19863540Y6913000D2*
X20127920D1*
X20167920Y6873000D1*
Y6665390D1*
X20207920Y6625390D1*
X20377070D1*
X20417077Y6585383D1*
Y6519277D1*
X8804360Y4937470D2*
Y4664090D1*
X8830710Y4637740D1*
Y4577427D1*
X17634930Y8066210D2*
X17545947Y8065470D1*
X18341810Y8001210D2*
X18088890D1*
X14811620Y8623960D2*
Y8805870D1*
X14851620Y8845870D1*
X18381810D1*
Y8810760D1*
X18341810D1*
Y8656540D1*
X19553490Y7093630D2*
Y7178950D1*
X17935073Y3443750D2*
Y3530800D1*
X18936210D1*
X17952073Y2986327D2*
X17942577D1*
Y3443750D1*
X17935073D1*
X19242830Y8810760D2*
X18416920D1*
X18381810Y8845870D1*
X13970260Y8489687D2*
Y8601210D1*
X14010270Y8641220D1*
X14310420D1*
X14403370Y8548270D1*
X14735930D1*
X14811620Y8623960D1*
X13524670Y4055560D2*
X12602880D1*
X12538720Y3991400D1*
X12042230D1*
X18936210Y3685140D2*
X18856127Y3765223D1*
Y3835453D1*
X12734990Y1419010D2*
X12731413Y1415433D1*
X12633107D1*
Y1396383D1*
X19578410Y8449260D2*
Y8432920D1*
X19667390D1*
X13624680Y1823040D2*
X14982110D1*
X14987800Y1817350D1*
X13004370Y1799610D2*
X13069370D1*
X13092800Y1823040D1*
X13624680D1*
X12915387Y1800577D2*
Y1796457D1*
X13001217D1*
X13004370Y1799610D1*
X16024840Y2020450D2*
X15959840Y2085450D1*
X15268530D1*
X15198000Y2155980D1*
X14987800D1*
X9262903Y3042777D2*
Y3013737D1*
X9322140D1*
Y2929810D1*
X13524670Y4055560D2*
X13528970Y4051260D1*
Y3953100D1*
X14854120Y8050983D2*
X14567460D1*
X14527460Y8010983D1*
Y7761370D1*
X14442147D1*
X8830710Y4577427D2*
Y4278350D1*
X8914010D1*
X13652910Y4816650D2*
X13644867Y4824693D1*
X13563927D1*
Y4828817D1*
X8223383Y8479267D2*
Y8392783D1*
X8183380Y8352780D1*
X7994580D1*
X14574770Y1282290D2*
X14574760Y1391120D1*
X3913300Y1278170D2*
Y1601353D1*
X3873300Y1641353D1*
X3684960D1*
X7328890Y1369200D2*
X7651420Y1046670D1*
X12813840D1*
X12853840Y1086670D1*
Y1613610D1*
X20372870Y1656250D2*
X19856710D1*
Y1729370D1*
X1756720Y4430690D2*
X2083490D1*
X2086427Y4427753D1*
X2265250D1*
X17164080Y1355240D2*
X16982830D1*
Y1426453D1*
X1512080Y6957930D2*
X1647170Y6958327D1*
X20537870Y2586860D2*
X20579420Y2628410D1*
Y2891890D1*
X7627890Y2191360D2*
X7540563D1*
Y2251673D1*
X14209600Y3871400D2*
X14028280D1*
X13914343Y3985337D1*
X13763850D1*
X13756250Y8337160D2*
X13045780D1*
X12700823Y4380873D2*
X12700820Y4466190D1*
X4069340Y7399780D2*
X3856940D1*
X3816933Y7439787D1*
Y7601550D1*
X1512080Y6368470D2*
X1246670Y6103060D1*
Y5134690D1*
X1286670Y5094690D1*
X1612100D1*
X18989890Y1305280D2*
X19149930Y1145240D1*
X20307870D1*
X20372870Y1210240D1*
X4958200Y8652160D2*
Y8291380D1*
X4918200Y8251380D1*
X4690583D1*
Y8224433D1*
X4672993D1*
X5995440Y7440560D2*
X6195023D1*
Y7380247D1*
X7994580Y8352780D2*
X7345790D1*
X7305787Y8312777D1*
Y8017700D1*
X7265787Y7977700D1*
X7165470D1*
Y7956110D1*
X12700820Y5149210D2*
X12694863Y5155167D1*
X12502460D1*
Y5184210D1*
X3684960Y1641353D2*
X3606350D1*
Y1546370D1*
X3545320Y1485340D1*
X3539120D1*
Y1423070D1*
X14574770Y1136680D2*
X17341920D1*
X17380140Y1174900D1*
Y1305280D1*
X13408127Y1600057D2*
X13494690D1*
Y1354010D1*
X13938330D1*
X13978330Y1314010D1*
Y1176680D1*
X14018330Y1136680D1*
X14574770D1*
X12853840Y1613610D2*
X12963590D1*
X13037460Y1539740D1*
X13408127D1*
Y1600057D1*
X16982830Y1426453D2*
X16351890D1*
Y1331180D1*
X13763850Y3985337D2*
Y3913380D1*
X13723850Y3873380D1*
X13477750D1*
X13361600Y3989530D1*
X12700820D1*
X12746880Y8404800D2*
X12741880D1*
X12706880Y8369800D1*
Y8319483D1*
X4672993Y8224433D2*
X4445570Y8224040D1*
X13756250Y7670700D2*
X13725933Y7640383D1*
X13667273D1*
X17859137Y3380933D2*
Y3297160D1*
X17801270D1*
Y3019950D1*
X17959360Y5314670D2*
X18239910D1*
X18279910Y5274670D1*
Y5120400D1*
X18319910Y5080400D1*
X18929340D1*
X18936737Y5073003D1*
X19195670D1*
X14267330Y7646430D2*
X14527460D1*
X14567460Y7686430D1*
Y7773830D1*
X14607460Y7813830D1*
X14898060D1*
X14986100Y7901870D1*
X17566920Y8567690D2*
X17653203D1*
X17680873Y8557410D1*
X14931680Y7332260D2*
X15086617D1*
Y7343053D1*
X17801270Y3297160D2*
X17765230D1*
X15934847Y1931557D2*
X15934840Y2016870D1*
X17612270Y2036930D2*
X17587270Y2011930D1*
X17560380D1*
Y1882250D1*
X17983600D1*
X18023600Y1922250D1*
Y2221677D1*
X15654683Y8042263D2*
X15331100D1*
X15291100Y8082263D1*
Y8535040D1*
X15317040D1*
X15345150Y8563150D1*
X15756030D1*
X16011410Y2730530D2*
Y2826897D1*
X16096367D1*
X15291100Y8535040D2*
X15280220D1*
Y8595353D1*
X15267117D1*
X15150320Y7901870D2*
X15290713Y8042263D1*
X15654683D1*
X14986100Y7901870D2*
X15150320D1*
X17765230Y3297160D2*
X17693030Y3224960D1*
X17186950D1*
X17146950Y3184960D1*
Y2917340D1*
X17106950Y2877340D1*
X16385410D1*
X16345410Y2837340D1*
Y2730530D1*
X18196793Y7611427D2*
X18044960D1*
X18004960Y7571427D1*
Y7427270D1*
X18153890Y7696740D2*
X18161790D1*
X18196793Y7661737D1*
Y7611427D1*
X16509910Y2982340D2*
X17013740D1*
Y3061223D1*
X10575063Y4778967D2*
Y4839280D1*
X10718880Y4983097D1*
Y5231490D1*
X10756343Y5268953D1*
X11006813D1*
X16509910Y2812340D2*
X17325280D1*
X17365280Y2852340D1*
Y2979950D1*
X17405280Y3019950D1*
X17432770D1*
X17457770Y3044950D1*
X17736270D1*
Y2964900D1*
X17781230Y2919940D1*
Y2850333D1*
X19525270Y2103330D2*
X19065070D1*
X19000530Y2038790D1*
X14130857Y8580903D2*
Y8508270D1*
X14928100D1*
X15240600Y7579500D2*
X15462147D1*
Y7670047D1*
X13931320Y4893020D2*
Y5141670D1*
X15844840Y2016870D2*
X15585460D1*
X19880870Y4348570D2*
X20009800D1*
Y4288250D1*
X19800270Y3746600D2*
X19629160D1*
X19697470Y3391940D2*
X19608487D1*
Y3361627D1*
X13752920Y5106660D2*
X13646820D1*
Y5195267D1*
X11006813Y5268953D2*
Y5180970D1*
X12017240D1*
X12246680Y4951530D1*
X13394580D1*
X13434580Y4991530D1*
Y5056653D1*
X13474587Y5096660D1*
X13742920D1*
X13752920Y5106660D1*
X10538920Y3937290D2*
X10548420Y3946790D1*
Y4113710D1*
X10622200Y4187490D1*
Y4576180D1*
X10586040Y4612340D1*
Y4688427D1*
X10575063Y4699403D1*
Y4778967D1*
X19525270Y2367500D2*
X19507227Y2385543D1*
X19407690D1*
Y2348753D1*
X17781230Y2850333D2*
X17753730D1*
Y2765020D1*
X14928100Y8508270D2*
Y8765870D1*
X14968100Y8805870D1*
X18137190D1*
X18177190Y8765870D1*
Y8279700D1*
X18039910D1*
X17999910Y8239700D1*
Y8028077D1*
X10539760Y1881020D2*
Y1877260D1*
X10574363Y1842657D1*
X10629307D1*
X8392713Y3937680D2*
Y3908640D1*
X8497060D1*
X7725570Y2256360D2*
X7925310D1*
X8497060Y3028330D2*
X8518117Y3049387D1*
X8621043D1*
Y3078427D1*
X7725570Y2059700D2*
X7839283Y2058427D1*
X19505720Y6853790D2*
X19570720Y6918790D1*
X19618490D1*
X19681820Y6855460D1*
X19777913D1*
X12917430Y8635280D2*
Y8805280D1*
X17389210Y5108140D2*
Y5218573D1*
X17411550D1*
Y5247617D1*
X9300910Y7419630D2*
X8918730D1*
Y7391693D1*
X10432700Y8359200D2*
X10348390D1*
Y8298887D1*
X18445860Y2282010D2*
X18128600D1*
X18088600Y2242010D1*
Y1796557D1*
X18048600Y1756557D1*
X17888763D1*
X19703670Y5218990D2*
Y5148090D1*
X19743280Y5108480D1*
X19846713D1*
X15955113Y3904407D2*
Y4162270D1*
X15900060Y4217323D1*
Y4526820D1*
X16020793Y4647553D1*
Y4782760D1*
X16060793Y4822760D1*
X16203077D1*
X16243077Y4862760D1*
Y4822613D1*
X16325793D1*
X10384280Y7238420D2*
Y7323740D1*
X18088600Y2242010D2*
Y2282010D1*
X17931270D1*
X20131930Y7175473D2*
X20272860D1*
X20312860Y7135473D1*
Y6705390D1*
X20352860Y6665390D1*
X20538110D1*
X19777913Y6855460D2*
Y6937997D1*
X19817917Y6978000D1*
X20091927D1*
X20131930Y7018003D1*
Y7175473D1*
X16243077Y4862760D2*
Y4988083D1*
X8918730Y7391693D2*
X8824360D1*
Y7251140D1*
X10348390Y8298887D2*
X10296580D1*
Y8325820D1*
X9335300D1*
X18445860Y3191380D2*
X18456647Y3202167D1*
X18756907D1*
X16243077Y4988083D2*
Y5081460D1*
X16283067Y5121450D1*
X16909610D1*
X16919600Y5131440D1*
X17075800D1*
X17099100Y5108140D1*
X13370880Y8828920D2*
Y8654800D1*
X13410880Y8614800D1*
X13643200D1*
X12393157Y4067253D2*
Y4097570D1*
X12505800D1*
X12912150Y7111430D2*
X12656960D1*
Y7194797D1*
X5553250Y1692630D2*
X5605900Y1639980D1*
Y1558890D1*
X19339700Y2013330D2*
X19434610D1*
Y2017453D1*
X19339700Y2434070D2*
Y2347437D1*
X19830510Y8541700D2*
X19830060Y8177740D1*
X19564160Y3813700D2*
X19622760Y3872300D1*
X20103190D1*
X20143190Y3912300D1*
Y4242630D1*
X20183190Y4282630D1*
X20394210D1*
X20434210Y4322630D1*
Y4931500D1*
X20394210Y4971500D1*
X19998110D1*
X19958110Y5011500D1*
Y5174323D1*
X3608680Y2790980D2*
X2945810D1*
X2905800Y2830990D1*
Y2929050D1*
X18215933Y5081660D2*
X18151393D1*
Y4989647D1*
X18159070Y4981970D1*
X17256380Y8180530D2*
X17146000Y8070150D1*
X16904260D1*
X12529200Y4518940D2*
X12446810D1*
Y4587963D1*
X4370937Y2827293D2*
Y2750330D1*
X4758630D1*
X4798630Y2710330D1*
Y2641190D1*
X4789240Y2631800D1*
Y2563730D1*
X4749240Y2523730D1*
X3608680D1*
X18407810Y4306240D2*
X19061140D1*
X19064330Y4309430D1*
X19415620D1*
X19499610Y4225440D1*
X3224410Y5928230D2*
X2280370D1*
X2579590Y7145530D2*
X2290380D1*
X13678200Y8414690D2*
X13418560D1*
X13389570Y8443680D1*
X13110780D1*
X5318250Y2752770D2*
X4841070D1*
X4798630Y2710330D1*
X17361510Y8180530D2*
X17400650D1*
X17435650Y8145530D1*
Y8091087D1*
X17371673D1*
Y8095210D1*
X18407810Y3940620D2*
X18316753D1*
X18276747Y3900613D1*
Y3805290D1*
X3608680Y2210040D2*
X3330037D1*
X3249930Y2129933D1*
X2652157D1*
Y2134053D1*
X2864680Y8317210D2*
X3394950D1*
X3601720Y8523980D1*
X4098750D1*
X4138753Y8563983D1*
Y8632413D1*
X3620513Y4331417D2*
X3620520Y4246100D1*
X13529910Y4287120D2*
X13889500D1*
X14213130Y3963490D1*
X14296560D1*
Y3933267D1*
X12505800Y4097570D2*
X13340360D1*
X13529910Y4287120D1*
X12365560Y5235510D2*
X12384583Y5216487D1*
X12467867D1*
Y5235367D1*
X5633610Y3860833D2*
Y3856710D1*
X5826110D1*
X5866110Y3896710D1*
Y3975070D1*
X5906110Y4015070D1*
X6148210D1*
X6282610Y3880670D1*
X6350010D1*
X17037933Y5480630D2*
X17134787D1*
X17235837Y5379580D1*
X17544500D1*
X16931550Y5471910D2*
X17037933D1*
Y5480630D1*
X18159070Y4981970D2*
X18153120Y4976020D1*
X17788020D1*
X17658020Y5106020D1*
X17544500D1*
X10382560Y1576430D2*
X10389133Y1569857D1*
Y1491110D1*
X19499610Y4225440D2*
X19507667Y4217383D1*
X19589160D1*
X2280370Y5928230D2*
X2018140D1*
X1978140Y5888230D1*
Y5777917D1*
X2290380Y7145530D2*
Y7430433D1*
X2206330D1*
X13110780Y8443680D2*
X12934690D1*
Y8383367D1*
X9235910Y8073060D2*
X9221803Y8087167D1*
Y8158580D1*
X13343030Y5019700D2*
X13361393Y5038063D1*
Y5151040D1*
X11238780Y3975530D2*
X11459430D1*
X11499440Y4015540D1*
Y4124220D1*
X11073950Y2228520D2*
X11248250D1*
X10230567Y5005710D2*
Y4934510D1*
X10270567Y4894510D1*
X10338420D1*
X10378420Y4854510D1*
Y4560670D1*
X10251280Y5238560D2*
X10230567Y5217847D1*
Y5005710D1*
X11248250Y2228520D2*
X11258107Y2218663D1*
X11389050D1*
X10613303Y7582220D2*
X10532810D1*
X10492810Y7622220D1*
Y8043573D1*
X10452810Y8083573D1*
X10260913D1*
X11372403Y4429430D2*
Y4542680D1*
X11451240D1*
X8666100Y5107750D2*
X8909360D1*
X8949360Y5067750D1*
Y4887807D1*
X8989360Y4847807D1*
X9354980D1*
X11451230Y4814780D2*
X11498020D1*
Y4772397D1*
X11599487D1*
X8434980Y4937470D2*
Y4777700D1*
X8394977Y4737697D1*
X7570487D1*
Y4741820D1*
X10260913Y8083573D2*
X9757893D1*
X9714290Y8039970D1*
X9354980Y4847807D2*
X9451770D1*
Y4297990D1*
X9491770Y4257990D1*
X9778960D1*
X9803960Y4232990D1*
X11028590Y4209520D2*
X11044713Y4225643D1*
Y4357813D1*
X12542790Y1241670D2*
X12387790Y1086670D1*
X9418690D1*
X9378690Y1126670D1*
Y1355647D1*
X6728330Y8251230D2*
Y8336547D1*
X6734493D1*
X9369990Y7934980D2*
X9230990D1*
X9110820Y8055150D1*
X8975377D1*
X8914627Y7994400D1*
X7806530D1*
X7781530Y8019400D1*
X7556590D1*
X7490570Y7953380D1*
Y7839550D1*
X7381193D1*
Y7843670D1*
X14359480Y7581430D2*
X14077080D1*
X14037080Y7541430D1*
Y7377620D1*
X13997080Y7337620D1*
X13316490D1*
X13291490Y7312620D1*
X2985040Y8607740D2*
X3102773Y8609803D1*
X11996130Y1256680D2*
X11907153D1*
Y1315030D1*
X11906320Y8318860D2*
Y7892840D1*
X12699450Y8574800D2*
Y8766460D1*
X12659450Y8806460D1*
X9580020D1*
X9557230Y8783670D1*
X15832630Y5474700D2*
X15547840D1*
Y5389083D1*
X14186700Y7911700D2*
X13618080D1*
X13598440Y7931340D1*
X14359480Y7901140D2*
Y7966140D1*
X14383473D1*
X14423480Y8006147D1*
Y8084750D1*
X8975377Y8055150D2*
X8935377Y8095150D1*
Y8166820D1*
X9369990Y7720260D2*
X9018360D1*
Y7724090D1*
X14129520Y2183770D2*
X14208223D1*
Y2110990D1*
X9151330Y1579670D2*
Y1609990D1*
X9061780D1*
X9378690Y1355647D2*
X9061780Y1354390D1*
X7922850Y5428540D2*
X7622230D1*
X7582230Y5388540D1*
Y5268160D1*
X7542230Y5228160D1*
X7383870D1*
X7343870Y5268160D1*
Y5321690D1*
X7303870Y5361690D1*
X6522770D1*
X6482770Y5401690D1*
Y5610410D1*
X7381193Y7843670D2*
X7077843D1*
X7037840Y7883673D1*
Y8050180D1*
X1970960Y6172280D2*
X1667090D1*
X1627090Y6132280D1*
Y6064887D1*
X1662880D1*
Y6034663D1*
X2893680Y6119980D2*
X2371180D1*
X2318880Y6172280D1*
X1970960D1*
X3119867Y6029733D2*
Y6097443D1*
X3097330Y6119980D1*
X2893680D1*
X16098450Y5334410D2*
X16200433Y5336473D1*
X11622860Y4685970D2*
X11533883D1*
Y4696073D1*
X1970960Y4895950D2*
X2105840D1*
X2145840Y4855950D1*
Y4668487D1*
X2185450Y4628877D1*
X2462187D1*
X2289380Y4897110D2*
X1970960Y4895950D1*
X8499550Y5164020D2*
X8475343D1*
X8464550Y5153227D1*
X8410570D1*
Y5157350D1*
X9061780Y1609990D2*
X9071780Y1619990D1*
X9147713D1*
Y1816737D1*
X12524010Y4381490D2*
X12435027D1*
Y4386400D1*
X14679350Y7706250D2*
X14706930Y7733830D1*
X15507293D1*
X15532970Y7708153D1*
X15862040D1*
Y7686560D1*
X14640410Y8623960D2*
Y8778960D1*
X14600410Y8818960D1*
X14335170D1*
X14205180Y8688970D1*
X13955850D1*
X13816680Y8549800D1*
X12827420D1*
X12787420Y8589800D1*
Y8868120D1*
X12747420Y8908120D1*
X9776450D1*
X10645050Y7992150D2*
Y7740047D1*
X10668443D1*
X17543290Y8657690D2*
X17113210D1*
X14523067Y7191087D2*
X14115947D1*
X14105160Y7180300D1*
X9304980Y7226150D2*
X9105410D1*
X18764760Y7116740D2*
Y7218710D1*
X18772257D1*
X2269620Y3570200D2*
X2362580D1*
Y3639357D1*
X5665920Y4538960D2*
X5730920D1*
X5750963Y4559003D1*
X5819107D1*
X13846523Y7237310D2*
X13846530Y7127010D1*
X9850640Y8253740D2*
X10175610D1*
X9105410Y7655260D2*
X9713400D1*
X14640410Y8115990D2*
Y8250070D1*
X15862040Y7686560D2*
Y7716880D1*
X15951020D1*
X1146660Y7625110D2*
X1882543D1*
Y7594887D1*
X5292360Y8717160D2*
Y8868120D1*
X5252360Y8908120D1*
X1326670D1*
X1073450Y8654900D1*
Y7698320D1*
X1146660Y7625110D1*
X9776450Y8908120D2*
X9487690D1*
X9363240Y8783670D1*
X9004270D1*
X8961560Y8826380D1*
X5401580D1*
X5292360Y8717160D1*
X10367700Y8577220D2*
X10385380Y8594900D1*
X11258680D1*
Y8564587D1*
X17686910Y8657160D2*
X17708820D1*
X17721910Y8670250D1*
X17743220D1*
Y8657547D1*
X17776450D1*
X1543430Y3936080D2*
X1735330Y3936470D1*
X1874627Y4286713D2*
Y4351890D1*
X1583430D1*
X1543430Y4311890D1*
Y3936080D1*
X2267030Y4282590D2*
X1874627D1*
Y4286713D1*
X2448060Y1359430D2*
X2453973D1*
X2488973Y1394430D1*
Y1444870D1*
X5053170Y7524000D2*
X5063177Y7513993D1*
X5161883D1*
X12026960Y4900170D2*
X12267007D1*
X12921880D1*
X12935520Y4886530D1*
X14608980Y7878830D2*
Y7967380D1*
X14614350D1*
X15319870Y5257580D2*
X15694240D1*
X18953030Y4512700D2*
X19116240D1*
X19156240Y4552700D1*
Y4667700D1*
X19196240Y4707700D1*
X19244650D1*
X19284650Y4747700D1*
Y5055400D1*
X19521140Y8621140D2*
X19386797D1*
Y8685450D1*
X20272860Y7624820D2*
X19879350D1*
X19839350Y7584820D1*
Y7545560D1*
X19799350Y7505560D1*
X19318710D1*
Y7599630D1*
X18972170D1*
X18932170Y7559630D1*
Y7519810D1*
X18892170Y7479810D1*
X18510750D1*
X18470750Y7439810D1*
Y7249040D1*
X18430750Y7209040D1*
X18094930D1*
X12267007Y4900170D2*
X12267003Y4839850D1*
X14887340Y4217590D2*
X14750603D1*
Y4280613D1*
X20272860Y6398030D2*
X19899730D1*
Y6337717D1*
X19931723Y8411263D2*
X19931730Y8496580D1*
X20446770Y3557660D2*
Y3537567D1*
X20411770Y3502567D1*
X20383823D1*
Y3472343D1*
X19838700Y5229580D2*
X19843757Y5234637D1*
X20139040D1*
X20337177Y5036500D1*
X20446770D1*
X19284650Y5055400D2*
Y5075283D1*
X19269533Y5090400D1*
Y5125477D1*
X19303783D1*
Y5154517D1*
X18953030Y3950440D2*
X18984907Y3918563D1*
Y3865123D1*
X18094930Y7209040D2*
X18086140Y7217830D1*
X18000073D1*
Y7221950D1*
X19899730Y6337717D2*
X19810180Y6337320D1*
X20226530Y4217630D2*
Y4132317D1*
X20254023D1*
X20023110Y4879610D2*
X20063290Y4839430D1*
Y4656130D1*
X13181530Y7920540D2*
X13457613D1*
Y7976377D1*
X18309620Y3595800D2*
X18284620Y3570800D1*
X17691360D1*
X17528580Y3408020D1*
X16866220D1*
X16849900Y3391700D1*
X13017240Y4332050D2*
Y4417367D1*
X15771300Y5246990D2*
Y5389387D1*
X15781300D1*
X12935520Y3030650D2*
X12633410D1*
X12617810Y3046250D1*
X12561627D1*
Y2985937D1*
X20023110Y5724300D2*
X19940680D1*
Y5793970D1*
X19920003D1*
X12935520Y1494640D2*
X13233573D1*
Y1434323D1*
X17100440Y4379570D2*
X17165440D1*
X17205440Y4339570D1*
Y4186797D1*
X17412570D1*
X17024770Y2015950D2*
X17208270D1*
X17248270Y1975950D1*
Y1868317D1*
X19104623Y4833240D2*
X18645880D1*
X18643090Y4830450D1*
X19196240Y4772700D2*
Y4794117D1*
X19161240Y4829117D1*
X19104623D1*
Y4833240D1*
X19714533Y7331130D2*
Y7270810D1*
X19647050D1*
Y7336503D1*
X19599543D1*
X19985460Y7327010D2*
X19714533D1*
Y7331130D1*
X18761110Y3114660D2*
X18762053Y2930477D1*
X1691720Y3585190D2*
X1543430D1*
X1503430Y3625190D1*
Y3730767D1*
X1543440Y3770777D1*
X1689713D1*
X1691720Y4106590D2*
X1755750Y4170620D1*
X2658770D1*
X2788680Y4684710D2*
X2913530D1*
X2953530Y4724710D1*
Y4959100D1*
X2993530Y4999100D1*
X3077743D1*
Y5051793D1*
X1648430Y3266920D2*
X1166690D1*
X1126690Y3306920D1*
Y6501010D1*
X1376670Y6750990D1*
Y6620990D1*
X1437360Y6560300D1*
X1523063D1*
Y6600300D1*
X2658770Y4170620D2*
X2668770Y4180620D1*
X2760723D1*
Y4187913D1*
X15405020Y4152590D2*
X14743440D1*
X15203217Y4825020D2*
Y4820890D1*
X15322320D1*
X12597270Y3916240D2*
X11959237D1*
Y3928710D1*
X12091960Y4654050D2*
X12096640Y4658730D1*
X12494527D1*
X8644083Y4370843D2*
X8644080Y4456160D1*
X6408520Y1933320D2*
X6491543D1*
Y1868157D1*
X1233070Y8320690D2*
X1858680D1*
X1898680Y8280690D1*
Y7911150D1*
X1938683Y7871147D1*
X2013487D1*
X2154633Y3402707D2*
X2079277D1*
X2020890Y3344320D1*
X1918340D1*
X1878340Y3384320D1*
Y3610190D1*
X2121020D1*
X2315500Y3804670D1*
X2563920D1*
X2603920Y3764670D1*
X3236593D1*
X3276597Y3724667D1*
Y3523180D1*
X8644080Y4456160D2*
X8029840D1*
X7951270Y4377590D1*
X7504320D1*
X7484020Y4357290D1*
X7293313D1*
X7261033Y4389570D1*
X7197170D1*
X7133190D1*
Y4418610D1*
X6019880Y4844800D2*
X6642380D1*
X6682390Y4804790D1*
Y4711817D1*
X10118200Y4405670D2*
X10035520Y4322990D1*
X9793200D1*
X4577770Y8121380D2*
X5541130D1*
X8644080Y2988350D2*
X8739090Y2988740D1*
X2516210Y4302360D2*
X2601813D1*
Y4242043D1*
X6019880Y7308940D2*
X6259000D1*
X6299000Y7348940D1*
Y7440560D1*
X6259000Y7480560D1*
X6208010D1*
X6168003Y7520567D1*
Y7768267D1*
X1878340Y3384320D2*
X1793430D1*
X1753430Y3344320D1*
Y3176920D1*
X1713430Y3136920D1*
X1246670D1*
X4577770Y7744750D2*
X4488790D1*
Y7805063D1*
X10558217Y4398990D2*
Y4312890D1*
X10486920D1*
X10446920Y4352890D1*
Y4429220D1*
X2563920Y3804670D2*
Y4008327D1*
X6214490Y4398740D2*
X6125980D1*
Y4498960D1*
X6085980Y4538960D1*
X6019880D1*
X2473343Y5250517D2*
X2315617D1*
X2276007Y5290127D1*
Y5547363D1*
X2562320Y5196510D2*
Y5211393D1*
X2527320Y5246393D1*
X2473343D1*
Y5250517D1*
X6214490Y4488740D2*
X6239490Y4463740D1*
X6581060D1*
X6670770Y4374030D1*
X7197170D1*
Y4389570D1*
X13638870Y5449820D2*
Y5297080D1*
X13678870Y5257080D1*
X14021310D1*
Y4956660D1*
X13549893Y5419597D2*
Y5449820D1*
X13638870D1*
X5541130Y8121380D2*
X5761650D1*
X5826640Y8056390D1*
X5919490D1*
Y8099307D1*
X9829720Y4730670D2*
X9740737D1*
Y4735710D1*
X14404640Y5297080D2*
X14061310D1*
X14021310Y5257080D1*
X2522610Y4735760D2*
Y4650447D1*
X1844140Y4965080D2*
Y4960960D1*
X2485540D1*
X2525543Y4920957D1*
Y4738693D1*
X2522610Y4735760D1*
X1246670Y4964690D2*
X1844140Y4965080D1*
X14404640Y4956450D2*
X14382157Y4978933D1*
X14223290D1*
Y4983057D1*
X10446920Y4429220D2*
Y4730670D1*
X19865280Y4187490D2*
X19695220D1*
X19655220Y4227490D1*
Y4707700D1*
X20041730Y1935430D2*
Y1850117D1*
X17972083Y4705690D2*
X17998747Y4715860D1*
X18825310D1*
X18870760Y4670410D1*
X19091240D1*
X17473010Y4694900D2*
X17483800Y4705690D1*
X17972083D1*
X19865280Y3982350D2*
X19990740Y3982740D1*
X8064580Y7522360D2*
X7276340D1*
X7148320Y7650380D1*
X6934350D1*
X6894343Y7690387D1*
Y7777213D1*
X17228550Y2433630D2*
X18131840D1*
X18275717Y2577507D1*
Y2638340D1*
X16604480Y1884000D2*
X16694027Y1884393D1*
X16604480Y2236140D2*
X17228550D1*
X18578500Y2926210D2*
X18489523D1*
Y2930333D1*
X18275717Y2638340D2*
Y2634220D1*
X18578500D1*
X18846560Y2330010D2*
X18861153D1*
X18896157Y2295007D1*
Y2244693D1*
X14573440Y4087590D2*
X15470020D1*
Y4187657D1*
X15510020Y4227657D1*
X15627413D1*
X16476280Y5009270D2*
X16485450Y5018440D1*
X16836170D1*
X16876170Y4978440D1*
Y4860470D1*
X16916170Y4820470D1*
X17164680D1*
X17219140Y4766010D1*
X17374653D1*
X18441260D1*
X18443250Y4764020D1*
X18738350D1*
X18758500Y4784170D1*
X18937257D1*
Y4743860D1*
X7112080Y1720480D2*
X6870150D1*
X6787040Y1637370D1*
X6724070D1*
X6632960Y1546260D1*
X6149920D1*
X6117150Y1513490D1*
X5757203D1*
Y1517613D1*
X3477187Y1808547D2*
Y1769500D1*
X3566170D1*
X7222433Y4134350D2*
X7288470D1*
X7316410Y4162290D1*
X7393590D1*
X18951270Y3080790D2*
X19039807Y3169327D1*
Y3257787D1*
X14269540Y4367110D2*
X14244530Y4392120D1*
X13717910D1*
X1617040Y1913973D2*
X1681020D1*
X1694593Y1900400D1*
X2365150D1*
X2387190Y1878360D1*
X2501103D1*
X19111770Y2248500D2*
X19411403D1*
Y2325233D1*
X19327293Y5167500D2*
Y5220400D1*
X19439650D1*
Y5898940D2*
X19517280D1*
X19557287Y5938947D1*
Y6001513D1*
X19111770Y2509900D2*
X19002060D1*
X18976510Y2484350D1*
X18380360D1*
X18364700Y2500010D1*
X12653310Y5470680D2*
Y5367040D1*
X12633793D1*
Y5336727D1*
X8983030Y4701090D2*
X9154360D1*
X13717910Y4916660D2*
X13758243Y4876327D1*
Y4815480D1*
X3474690Y3806250D2*
X2737617D1*
Y3867993D1*
X18937257Y4743860D2*
Y4739737D1*
X19021977D1*
X19026240Y4744000D1*
X17374653Y4766010D2*
Y4703663D1*
X15627413Y4227657D2*
Y4192580D1*
X15793780D1*
X15818780Y4217580D1*
X5757203Y1517613D2*
X5729710D1*
Y1432300D1*
X3566170Y1769500D2*
X4448940D1*
X4488940Y1809500D1*
Y1910760D1*
X4528940Y1950760D1*
X5145730D1*
X8515250Y4281010D2*
X8604793D1*
Y4329077D1*
X7393590Y4162290D2*
X8396530D1*
X8515250Y4281010D1*
X19039807Y3257787D2*
Y3335560D1*
X18923510D1*
X2501103Y1878360D2*
X2800530D1*
X2838800Y1916630D1*
X3342160D1*
X3370960Y1945430D1*
X3445990D1*
X19439650Y5220400D2*
Y5118010D1*
X19508670Y5048990D1*
Y4837700D1*
X8349003Y1768493D2*
Y1692970D1*
X8449400D1*
X8489400Y1732970D1*
Y2150027D1*
X8529407Y2190033D1*
X8671947D1*
X7387290Y1850580D2*
X8349003D1*
Y1768493D1*
X7266267Y1822643D2*
Y1850580D1*
X7387290D1*
X18364700Y2920040D2*
X18360767D1*
X18325767Y2885040D1*
Y2834730D1*
X3590613Y3374703D2*
Y3370583D1*
X4585470D1*
X4769383Y3554497D1*
X4929910D1*
X3474690Y3374310D2*
X3590613Y3374703D1*
X13380290Y8101690D2*
X13373380Y8094780D1*
X12985677D1*
Y8083350D1*
X20433900Y3298450D2*
Y3418753D1*
X20428510D1*
X20357410Y4476140D2*
Y4322630D1*
X20180280D1*
X20140280Y4362630D1*
Y4566130D1*
X18431810Y8656540D2*
X18687070D1*
X19635510Y7831740D2*
X19534953D1*
Y7892573D1*
X20473110Y7831740D2*
X19864350D1*
X20153110Y5789290D2*
X20408110D1*
X18730770Y8339830D2*
X18614570D1*
Y8370150D1*
X18738080Y8243580D2*
X18649103D1*
Y8273900D1*
X19191623Y3677877D2*
X19191630Y3592560D1*
X18866110Y2778380D2*
X18851183Y2793307D1*
X18629043D1*
Y2797430D1*
X20140280Y4566130D2*
X20038290D1*
X19998290Y4606130D1*
Y4754957D1*
X19920970Y4832277D1*
Y4914510D1*
X19534953Y7892573D2*
Y7979190D1*
X19494953Y8019190D1*
X18918190D1*
X9651190Y4742990D2*
X9577740Y4669540D1*
Y4593740D1*
X9610950Y4560530D1*
Y4322990D1*
X9654450Y4652990D2*
X9885437D1*
X9903997Y4671550D1*
X9983703D1*
X9889980Y5061870D2*
X9790520D1*
X9654450Y4925800D1*
X9146300Y4266710D2*
X9057320D1*
Y4339547D1*
X9318480Y3879790D2*
X9336343Y3897653D1*
X9479023D1*
Y3880183D1*
X9578330Y1986797D2*
Y1980620D1*
X9667310D1*
X1963680Y8229180D2*
X2052923D1*
Y8174180D1*
X1970960Y6262280D2*
X1562090D1*
X4550430Y1559810D2*
X4620070Y1490170D1*
Y1409497D1*
X4515430Y3565600D2*
X4440340D1*
X4400337Y3605603D1*
Y3672733D1*
X4004340Y7334780D2*
X4999180D1*
X1615920Y4286890D2*
Y4201573D1*
X1562097Y5553523D2*
X1562090Y5468210D1*
X3845880Y8308683D2*
Y8394000D1*
X5093980Y2530640D2*
X5115670D1*
X5150670Y2495640D1*
Y2445327D1*
X4999180Y7334780D2*
X5104167D1*
X5108743Y7330203D1*
X5836443D1*
X10708350Y7648450D2*
X10621027D1*
Y7711803D1*
X16969980Y8565380D2*
X17113210D1*
X17126380Y7764550D2*
X17037397D1*
Y7830430D1*
X16090130Y8585320D2*
X16022890Y8652560D1*
X15166973D1*
X16179730Y7504740D2*
X16341743Y7505137D1*
X17113210Y8565380D2*
X17179490Y8499100D1*
X17641943D1*
X9080420Y5286130D2*
X8669550D1*
X9080420Y5039860D2*
X9202160Y4918120D1*
X9490140D1*
X9530140Y4878120D1*
Y4521387D1*
X7838550Y5365910D2*
X7902530D1*
Y5262300D1*
X7144023Y4920073D2*
Y4915950D1*
X7208000D1*
X7291740Y4999690D1*
X7582230D1*
X7622230Y5039690D1*
Y5326050D1*
X7662090Y5365910D1*
X7838550D1*
X9629723Y8255643D2*
Y8163180D1*
X9669723Y8123180D1*
X10065950D1*
X10086660Y8143890D1*
X10303540D1*
X10323690Y8123740D1*
X10651740D1*
X10779863Y7995617D1*
Y7563133D1*
X6728330Y7650030D2*
X6725387Y7652973D1*
X6505493D1*
Y7657097D1*
X17313270Y1989420D2*
X17480370D1*
X17520373Y1949417D1*
Y1818843D1*
X1376680Y2682680D2*
X2154440D1*
X2194420Y2722660D1*
Y2821670D1*
X2130443D1*
X15064113Y5125297D2*
Y5185610D1*
X14865880D1*
X14742350Y5062080D1*
X3779280Y4116250D2*
X3995340D1*
X4070760Y4191670D1*
X4209230D1*
Y4041930D1*
X4249230Y4001930D1*
X4672340D1*
X4779010Y4108600D1*
X5455530D1*
X5563860Y4216930D1*
X6520530D1*
Y4231227D1*
X6568027D1*
X11768480Y5101500D2*
X11439770D1*
X3836190Y3081580D2*
X3969753D1*
Y3037840D1*
X16155550Y4385380D2*
Y4300063D1*
X16183047D1*
X17144313Y4709117D2*
Y4625470D1*
X17029790D1*
X18478600Y1816930D2*
Y1934070D1*
X18518600Y1974070D1*
X18741553D1*
X18781553Y2014070D1*
Y2124387D1*
X2129070Y2537030D2*
Y2622347D1*
X2140880D1*
X17211950Y3036760D2*
Y2958940D1*
X17293550Y2877340D1*
X15426290Y4386140D2*
X14717340Y4387050D1*
X14742350Y5062080D2*
X14675950D1*
X14635950Y5102080D1*
X14429177D1*
Y5041767D1*
X2249650Y3936850D2*
X2160083D1*
Y3998633D1*
X2711320Y4016250D2*
X3199930D1*
X2446890Y3699670D2*
X2711320D1*
X7389170Y4428210D2*
X7643330D1*
Y4472330D1*
X7688477D1*
X3423433Y4133950D2*
Y4251337D1*
X6568027Y4231227D2*
Y4291540D1*
X6796160D1*
X6843670Y4244030D1*
X7166450D1*
X7214710Y4292290D1*
X7389170D1*
X4672340Y4001930D2*
Y3941613D1*
X3513440Y4092700D2*
X3536990Y4116250D1*
X3779280D1*
X17520373Y1818843D2*
X17609350Y1816930D1*
X14742350Y5062080D2*
X14865210D1*
X14993880Y4933410D1*
X15776110D1*
X15816110Y4893410D1*
Y4849250D1*
X15955790Y4709570D1*
X12295503Y4345497D2*
Y4468410D1*
X12255503Y4508410D1*
X11990740D1*
X11860740Y4378410D1*
X13065970Y4466907D2*
Y4523640D1*
X12877720D1*
X12837720Y4483640D1*
Y4282570D1*
X12797720Y4242570D1*
X12335510D1*
X12295503Y4282577D1*
Y4345497D1*
X14721653Y3899460D2*
X14512220D1*
X14472610Y3939070D1*
Y4312130D1*
X14352620Y4432120D1*
X13795410D1*
X13770410Y4457120D1*
X13647140D1*
X13590630Y4513630D1*
X13220197D1*
X13173473Y4466907D1*
X13065970D1*
X16155550Y4709570D2*
Y4522190D1*
X17029790Y4625470D2*
X16766730D1*
X16682630Y4709570D1*
X16155550D1*
X18781553Y2124387D2*
Y2395010D1*
X19073810D1*
X19099740Y2369080D1*
X19219880D1*
X19259880Y2409080D1*
Y2546340D1*
X19299880Y2586340D1*
X19647300D1*
Y2638307D1*
X2140880Y2622347D2*
X2144520Y2642660D1*
X2154440Y2682680D1*
X2968777Y6517230D2*
X1631900D1*
X1574240Y6459570D1*
X1376680D1*
X14717340Y4387050D2*
X14590070D1*
X14515150Y4312130D1*
X14472610D1*
X8344980Y4807470D2*
X8334980Y4817470D1*
Y4892790D1*
X8319000D1*
X7688477Y4472330D2*
Y4468210D1*
X7867960D1*
X7921560Y4521810D1*
X8344980D1*
X12206290Y7619560D2*
X12312390Y7618290D1*
X18037307Y8512870D2*
Y8553190D1*
X17931330D1*
X12619090Y7591180D2*
Y7687713D1*
X12646587D1*
X13821250Y7735700D2*
X13566850D1*
X13526850Y7695700D1*
Y7605640D1*
X16762143Y7501810D2*
X16557200D1*
X16441590Y7386200D1*
X16034543D1*
Y7296760D1*
X15970570D1*
Y7300880D1*
X10110610Y7807570D2*
Y7722257D1*
X17931330Y8553190D2*
Y8432530D1*
X17891330Y8392530D1*
X17798393D1*
Y8452030D1*
X13526850Y7605640D2*
Y7526180D1*
X13486850Y7486180D1*
X12644080D1*
X12619080Y7461180D1*
X19466343Y5773627D2*
X19721710D1*
X19761710Y5813627D1*
Y6058960D1*
X19789207D1*
Y6102040D1*
X19242820Y5832710D2*
X19301903Y5773627D1*
X19466343D1*
X15970570Y7300880D2*
Y7351200D1*
X15935570Y7386200D1*
X15898070D1*
X15203110Y8237140D2*
X15197093Y8231123D1*
X15091423D1*
Y8206827D1*
X11517390Y7989910D2*
X11128510D1*
X10865770Y8252650D1*
X10513420D1*
X10479780Y8286290D1*
X10432920D1*
Y8225977D1*
X12058617Y8270570D2*
X12058620Y8119900D1*
X9654450Y5051110D2*
X9583450Y5122110D1*
Y5250827D1*
X9516933D1*
Y5176130D1*
X8631100D1*
X8591090Y5136120D1*
Y5123560D1*
X8551090Y5083560D1*
X7878880D1*
X7755010Y4959690D1*
X7348710D1*
X7248000Y4858980D1*
X7094960D1*
X7068770Y4885170D1*
X6849990D1*
X6809990Y4925170D1*
Y4975597D1*
X6850000Y5015607D1*
X6982027D1*
Y5042110D1*
X6587790D1*
X6577000Y5031320D1*
X6280400D1*
X8591090Y4713183D2*
Y5043560D1*
X8551090Y5083560D1*
X10083717Y1903360D2*
Y1993670D1*
X10188290D1*
X18478570Y4896280D2*
Y4806010D1*
X17271910D1*
X17191900Y4886020D1*
X16995450D1*
X15028620Y5031250D2*
X15864710D1*
X15930550Y5097090D1*
X16096090D1*
X16914900Y3139460D2*
X17042970D1*
Y3109147D1*
X11764280Y1266680D2*
Y1356353D1*
X11791770D1*
X11541060Y1646020D2*
X10318920D1*
X14104510Y1492300D2*
X13744240D1*
X13704240Y1532300D1*
Y1632213D1*
X15264380Y1598430D2*
X15826860D1*
Y1662410D1*
X16939610Y5264920D2*
Y5385240D1*
X17004150D1*
X12209817Y1346540D2*
X12209820Y1483170D1*
X10944553Y4335257D2*
Y4817690D1*
X10984553Y4857690D1*
X11104320D1*
X10188290Y1993670D2*
Y1853940D1*
X10148290Y1813940D1*
X10003520D1*
X9968520Y1848940D1*
X9771590D1*
X9731590Y1808940D1*
Y1654550D1*
X9691583Y1614543D1*
X9261540D1*
Y1618663D1*
X16995443Y5071120D2*
X16648950D1*
X16645800Y5074270D1*
X16349870D1*
X16332060Y5056460D1*
X16995450Y4886020D2*
X16995443Y5071120D1*
X17831890Y7397280D2*
X17778490Y7343880D1*
Y7321950D1*
X17738487Y7281947D1*
X17668417D1*
X19314300Y8589770D2*
X19121150D1*
X19081147Y8549767D1*
Y8449017D1*
X20207860Y6978020D2*
Y7063333D1*
X19353383Y6629497D2*
Y6625377D1*
X20013410D1*
X20110757Y6528030D1*
X20207860D1*
X20243440Y6276530D2*
X20219230D1*
X20208440Y6265740D1*
X20154457D1*
Y6269863D1*
X15370600Y7972610D2*
X15171820Y7773830D1*
X14647460D1*
X14607460Y7733830D1*
Y7493493D1*
X14567450Y7453483D1*
X14493250D1*
X16702780Y8266910D2*
X16531850D1*
X16446080Y8352680D1*
X15991020D1*
X15951020Y8312680D1*
Y8012610D1*
X15911020Y7972610D1*
X15571930D1*
X2850820Y1531670D2*
X2991937D1*
X3031937Y1491670D1*
Y1382717D1*
X6431903Y1373797D2*
Y1306680D1*
X6542680D1*
X11017520Y5076490D2*
X11169320Y4924690D1*
Y4636910D1*
X11209320Y4596910D1*
X11267150D1*
X11307153Y4556907D1*
Y4472003D1*
X2102470Y8025970D2*
Y8151287D1*
X2109137D1*
X7560137Y2920683D2*
Y3015430D1*
X7075170D1*
X7729230Y1611890D2*
X7895570D1*
X7655683Y7760287D2*
Y7652460D1*
X7753410D1*
X2372020Y4816670D2*
X2461563D1*
Y4846987D1*
X6699960Y1817160D2*
X6610983D1*
Y1786850D1*
X3031937Y1382717D2*
Y1191670D1*
X3071937Y1151670D1*
X4640690D1*
X4705700Y1216680D1*
X6542680Y1306680D2*
X6572680D1*
X6607680Y1271680D1*
Y1216680D1*
X5071770D1*
X8205417Y1582627D2*
Y1578510D1*
X8294400D1*
X10595380Y7221060D2*
X10678147D1*
Y7301220D1*
X10388827Y7656167D2*
Y7476543D1*
X10428830Y7436540D1*
X10555380D1*
X10595380Y7396540D1*
Y7221060D1*
X7753410Y7652460D2*
X7843390Y7742440D1*
X8721470D1*
X8764290Y7785260D1*
X9402490D1*
X9467490Y7720260D1*
X9778400D1*
X9873650Y7625010D1*
X10195757D1*
X10226913Y7656167D1*
X10388827D1*
X5444170Y7794130D2*
X5329483D1*
Y7824450D1*
X2565960Y8375740D2*
X2348200D1*
Y8337953D1*
X5311980Y8251380D2*
X5202350D1*
X5162350Y8291380D1*
Y8788120D1*
X5122350Y8828120D1*
X3039100D1*
X2839700Y8628720D1*
X7279380Y7701630D2*
X7368927D1*
Y7706313D1*
X5925520Y7166700D2*
X6500720D1*
X6597050Y7263030D1*
X7361440D1*
X7882653Y7427360D2*
Y7423240D1*
X7971630D1*
X4825990Y4818247D2*
Y4941370D1*
X4789840Y4977520D1*
Y5042520D1*
X8904970Y4368350D2*
X8976480Y4439860D1*
X9024350D1*
X9064350Y4479860D1*
Y4573000D1*
X8818270Y4183350D2*
X8907810D1*
Y4153037D1*
X9064350Y4573000D2*
X9170563D1*
Y4615773D1*
X5949623Y7968987D2*
Y7906150D1*
X5850440D1*
Y7707840D1*
X5810440Y7667840D1*
X4756143D1*
Y7620067D1*
X7903410Y8062860D2*
X7908090Y8058180D1*
X8268453D1*
X11890540Y7283500D2*
Y7415727D1*
Y7695950D2*
X11259750D1*
X11203867Y7751833D1*
X10955567D1*
X13157660Y7620640D2*
X13164760Y7627740D1*
Y7717533D1*
X11890540Y7415727D2*
X12435120D1*
X12545573Y7526180D1*
X12650120D1*
X12832740Y7708800D1*
X13012260D1*
X13052260Y7668800D1*
Y7660640D1*
X13092260Y7620640D1*
X13157660D1*
X8620873Y5469400D2*
Y5458610D1*
X8440440D1*
X5990440Y8200770D2*
X5898697D1*
Y8145540D1*
X8191620Y7213450D2*
X8206620Y7228450D1*
X8614040D1*
X8620810Y7221680D1*
X8710417D1*
Y7282000D1*
X1993740Y7294330D2*
X2077167Y7377757D1*
Y7520063D1*
X3492323Y4819510D2*
X3369930Y4819120D1*
X5458970Y7893053D2*
Y7974770D1*
X4902590D1*
X4893200Y7965380D1*
X4408080Y5147520D2*
Y5259643D1*
X4437037D1*
X4893200Y7965380D2*
X4888480Y7960660D1*
X4298680D1*
X4290813Y7968527D1*
X4107473D1*
Y7997567D1*
X16874320Y7764550D2*
X16835157D1*
X16800157Y7799550D1*
Y7851680D1*
X6600880Y1436670D2*
X6665880D1*
X6678660Y1423890D1*
X6776910D1*
X6878887Y1321913D1*
X6962620D1*
X4534460Y1469810D2*
X4458610D1*
X4431970Y1496450D1*
X4346020D1*
X3455600Y4633670D2*
X3421540Y4599610D1*
X2652760D1*
X2612750Y4639620D1*
Y4774367D1*
X3627160Y2045500D2*
X3538173D1*
Y2015187D1*
X9276500Y5286450D2*
X9187523D1*
Y5256133D1*
X5924857Y1894933D2*
Y1797637D1*
X5884850Y1757630D1*
X5488250D1*
Y1718530D1*
X5448250Y1678530D1*
X5080730D1*
X6254870Y1914960D2*
X6230720Y1890810D1*
X5924857D1*
Y1894933D1*
X5080730Y2239360D2*
X5343757D1*
Y2255797D1*
X5375920D1*
X4960060Y2250620D2*
Y2246500D1*
X5073590D1*
X5080730Y2239360D1*
X3746610Y5015160D2*
X3655890D1*
Y5017083D1*
X6900170Y4309030D2*
X7054710Y4306763D1*
X3712680Y1346680D2*
X3705173Y1354187D1*
Y1433233D1*
X10909737Y8479507D2*
Y8424200D1*
X9293920D1*
X9253920Y8472250D1*
X9206320D1*
Y8420170D1*
X6963483Y8616037D2*
Y8432787D1*
X7003490Y8392780D1*
X7588290D1*
X7647300Y8451790D1*
X7844443D1*
X9040410Y8329310D2*
X9055017Y8314703D1*
X9213920D1*
X9253920Y8354703D1*
Y8424200D1*
X9293920D1*
X8569137Y8331373D2*
Y8327250D1*
X8973350D1*
X8975410Y8329310D1*
X9040410D1*
X7844443Y8451790D2*
Y8523410D1*
X7884443Y8563410D1*
X8529130D1*
X8569137Y8523403D1*
Y8331373D1*
X3426570Y7825360D2*
X2961910D1*
X2877040Y7910230D1*
X2285483D1*
Y7849917D1*
X3557763Y7795143D2*
Y7825360D1*
X3426570D1*
X15806750Y7104760D2*
X15766750Y7144760D1*
Y7376170D1*
Y8345030D2*
Y8349707D1*
X15797073Y8380030D1*
Y8430340D1*
X16513193Y7164657D2*
Y7194970D1*
X16722320D1*
X16763220Y7154070D1*
X17022190D1*
X17062190Y7194070D1*
Y7489560D1*
X17102190Y7529560D1*
X17234077D1*
X17278663Y7484973D1*
X17726040D1*
X13933050Y8036690D2*
X13168760D1*
X13117610Y7985540D1*
X12996090D1*
X12880283Y7869733D1*
X12420527D1*
Y7873857D1*
X14192070Y7429400D2*
X14277607Y7514937D1*
X14512163D1*
Y7521120D1*
X3119930Y3533720D2*
X3181043D1*
Y3534113D1*
X3215583D1*
X2053023Y5628110D2*
Y5584990D1*
X2175807D1*
X2215807Y5624990D1*
Y5720410D1*
X1594387Y4856817D2*
Y4812550D1*
X1206690D1*
X1166690Y4852550D1*
Y4989690D1*
X1206690Y5029690D1*
X1673667D1*
X1680947Y5036970D1*
X1883153D1*
X2215807Y5720410D2*
X2365060D1*
X2405060Y5680410D1*
Y5540870D1*
X2365053Y5500863D1*
Y5341993D1*
X4878973Y1555330D2*
Y1623217D1*
X4861540Y1640650D1*
X6832410Y4179030D2*
X6755940D1*
Y4225867D1*
X6453943Y1788013D2*
X6453940Y1702700D1*
X4878973Y1555330D2*
Y1495020D1*
X5073430D1*
X5138000Y1559590D1*
X5485930D1*
Y1306690D1*
X5525930Y1266690D1*
X6279870D1*
X6319870Y1306690D1*
Y1396680D1*
X2785820Y1636300D2*
Y1151670D1*
X2825820Y1111670D1*
X4731257D1*
X4771257Y1151670D1*
Y1515327D1*
X4811260Y1555330D1*
X4878973D1*
X2696843Y1629630D2*
X2754150D1*
X2760820Y1636300D1*
X2785820D1*
X2405060Y5540870D2*
X2534670Y5411260D1*
X2818760D1*
X1883153Y5036970D2*
X2042930D1*
X2078100Y5001800D1*
X2818760D1*
X4861540Y2483740D2*
X4856297Y2488983D1*
Y2593790D1*
X4023270Y2328320D2*
X3235680D1*
X3195680Y2368320D1*
Y2523320D1*
X3155680Y2563320D1*
X2937680D1*
X2927690Y2553330D1*
X2808683D1*
Y2608843D1*
X4364230Y4076930D2*
X4500807D1*
Y4137327D1*
X4256020Y1561450D2*
Y1411143D1*
X4296023Y1371140D1*
X4381313D1*
X4255800Y2678720D2*
X4281400Y2704320D1*
Y2903300D1*
X4266970Y3435600D2*
X3600300D1*
X3560300Y3475600D1*
Y3746113D1*
X5562950Y8016610D2*
X4981360D1*
X4958200Y8039770D1*
X4170880Y7728630D2*
X4331850Y7889600D1*
X4958200D1*
X3545907Y7753857D2*
X3575060D1*
Y7728630D1*
X4170880D1*
X5023200Y8479570D2*
Y8717160D1*
X4872813D1*
X4832803Y8677150D1*
Y8459553D1*
X4792793Y8419543D1*
X4056217D1*
Y8423667D1*
X1311680Y4523070D2*
X2894110D1*
X2941060Y4476120D1*
X3614770D1*
X3655303Y4516653D1*
Y4630397D1*
X5610390Y5247440D2*
X6029680D1*
X6048970Y5228150D1*
X6417460D1*
X2259107Y8150420D2*
Y8180740D1*
X2380320D1*
X5495120Y4909590D2*
X5625420D1*
X5660400Y4874610D1*
X5505400Y4819590D2*
X4966130D1*
X4926130Y4779590D1*
Y4668720D1*
X4226010Y4763650D2*
X4495270D1*
X4590200Y4668720D1*
X4796130D1*
X1311680Y2178300D2*
X1921420D1*
Y2117987D1*
X4056217Y8423667D2*
Y8315487D1*
X3939340Y8198610D1*
X4226010Y4633650D2*
X4393353Y4466307D1*
Y4308973D1*
X3655303Y4630397D2*
Y4626277D1*
X4218637D1*
X4226010Y4633650D1*
X3426570Y7916320D2*
X3597093D1*
Y7856000D1*
X2380320Y8180740D2*
X2506680Y8054380D1*
X3003980D1*
X3145377Y7912983D1*
X3423233D1*
X3426570Y7916320D1*
X5784787Y8653193D2*
Y8519570D1*
X5744787Y8479570D1*
X5311990D1*
X8698247Y8543990D2*
Y8706373D1*
X8658240Y8746380D1*
X5784787D1*
Y8653193D1*
X8698250Y8432260D2*
X8698247Y8543990D1*
X2186510Y7238380D2*
X2175713Y7227583D1*
X2077877D1*
Y7231707D1*
X5360940Y4256930D2*
X6396860D1*
X6440740Y4300810D1*
X6520530D1*
Y4331540D1*
X6540400Y4356540D1*
X7640540Y4867130D2*
X7791873D1*
X7942040Y5017297D1*
X8163087D1*
X5360940Y4949590D2*
X5261970D1*
X5064040Y5147520D1*
X4743180D1*
X4678180Y5082520D1*
X4328037D1*
X4288037Y5122520D1*
Y5361640D1*
X4248037Y5401640D1*
X3204790D1*
X3119410Y5316260D1*
X3512420Y4248950D2*
X3603670Y4157700D1*
X3663790D1*
X3707250Y4201160D1*
X3955783D1*
X7312380Y8497780D2*
X7488760Y8674160D1*
X8633240D1*
X5064040Y5147520D2*
Y5290140D1*
X5104050Y5330150D1*
X5216710D1*
X6877730Y8495450D2*
Y8293390D1*
X6902730D1*
X6927730Y8268390D1*
X5570390Y5097340D2*
X6614240D1*
X6680050Y5163150D1*
X10477810Y7504990D2*
X10713160D1*
Y7464677D1*
X2121000Y5429330D2*
X1880237D1*
X1840230Y5469337D1*
Y5699553D1*
X8950710Y7506900D2*
X10088870D1*
X10254730Y7341040D1*
X10302430Y7388740D1*
X10460610D1*
X10477810Y7371540D1*
X5360940Y3584480D2*
X5271960D1*
Y3554160D1*
X8163087Y5017297D2*
X8252070Y5018100D1*
X8176600Y4046090D2*
X8550790Y4046480D1*
X6213873Y1829643D2*
Y1800610D1*
X5989860D1*
X5448250Y1888540D2*
X5835310D1*
X4892050Y1759877D2*
Y1755753D1*
X5448250D1*
Y1888540D1*
X10254730Y7341040D2*
X10294730Y7301040D1*
Y7182080D1*
X8422813Y7466377D2*
Y7462253D1*
X8802270D1*
X8846917Y7506900D1*
X8950710D1*
X6680050Y5163150D2*
X7383850D1*
X7383860Y5163160D1*
X7523600D1*
X2983690Y5066510D2*
X2211000Y5066800D1*
X6312650Y8495450D2*
X6305033Y8503067D1*
Y8646060D1*
X17256380Y7889910D2*
X17487733D1*
Y7900703D1*
X17326380Y7309050D2*
X17253037D1*
Y7379243D1*
X17487733Y7900703D2*
X17481407D1*
Y8205530D1*
X17441407Y8245530D1*
X16964173D1*
Y8339610D1*
X1858680Y7728920D2*
X1635047D1*
X1595043Y7768923D1*
Y7933800D1*
X1311670Y5753080D2*
X1508063D1*
Y5813393D1*
X2863907Y4165717D2*
Y4093950D1*
X2952890D1*
X1311670Y6818790D2*
X1046670Y6553790D1*
Y1529430D1*
X1086670Y1489430D1*
X2246840D1*
X2472350Y1714940D1*
X2693580D1*
X1311670Y7370490D2*
X1858680D1*
X2934730Y3014370D2*
X2802670D1*
X2825440Y7779927D2*
Y7763920D1*
X1988680D1*
X3345443Y7327893D2*
Y7420300D1*
X3305443Y7460300D1*
X2865450D1*
X2825440Y7500310D1*
Y7779927D1*
X1508063Y5813393D2*
Y6100820D1*
X1562087D1*
X2952890Y4093950D2*
X3222650D1*
X3306813Y4009787D1*
X3435523D1*
X7559427Y7305403D2*
Y7365713D1*
X6976593D1*
X6971030Y7360150D1*
X6405390Y8315590D2*
X6402193Y8318787D1*
Y8508350D1*
X6417373Y7710707D2*
X6311980D1*
X6271980Y7750707D1*
Y8039470D1*
X6231980Y8079470D1*
X6120440D1*
X6971030Y7360150D2*
Y7530380D1*
X6931030Y7570380D1*
X6417373D1*
Y7710707D1*
X5107620Y3953220D2*
X5209470Y4055070D1*
X6251200D1*
X6259630Y4046640D1*
X6366633D1*
X6755940Y4441190D2*
X6761260Y4446510D1*
X6926557D1*
X6366633Y4046640D2*
Y3985670D1*
X6755940D1*
X3450477Y7209470D2*
X3471160D1*
X3511160Y7249470D1*
X5015960Y4213600D2*
X5046343Y4243983D1*
Y4315033D1*
X2868680Y3223640D2*
X2619400D1*
X2488160Y3092400D1*
X2218617D1*
Y3047897D1*
X3522267Y4336253D2*
Y4397130D1*
X3354290D1*
X3289290Y4332130D1*
Y4278300D1*
X3194940Y4183950D1*
X3015527Y2503003D2*
Y2473970D1*
X2867670D1*
X3091697Y2500230D2*
X3015527Y2503003D1*
X3194940Y4183950D2*
X2952890D1*
X6180310Y5394390D2*
X6272647D1*
Y5364167D1*
X10962273Y7206407D2*
X10962270Y7026060D1*
X16553950Y8201910D2*
X17087733D1*
Y8169850D1*
X2194070Y1701950D2*
X1967310D1*
Y1608877D1*
X3853120Y2987930D2*
X3039730D1*
X2999730Y3027930D1*
Y3079370D1*
X2752680D1*
X2712680Y3039370D1*
Y2976770D1*
X2672680Y2936770D1*
X2194070D1*
X3207593Y7973293D2*
Y8003610D1*
X3296570D1*
X5222190Y4266340D2*
X5225100Y4531390D1*
X4761970Y8186380D2*
X5097350D1*
X5220160Y3440820D2*
X5046170Y3614810D1*
X4694610D1*
X4580400Y3500600D1*
X3904040D1*
X5253970Y7589000D2*
X5825440D1*
X3509680Y8637410D2*
X3639223Y8637807D1*
X4818450Y7553070D2*
X4964187Y7555133D1*
X3581300Y4788670D2*
X3676300D1*
X3711300Y4753670D1*
Y4715710D1*
X1600450Y8739780D2*
X2463590D1*
X2500960Y8702410D1*
X1605290Y8255690D2*
X1769483D1*
Y8195373D1*
X3201230Y5572697D2*
Y5542380D1*
X3290207D1*
X3296570Y8003610D2*
X3621070D1*
X3661070Y7963610D1*
Y7808297D1*
X3600330D1*
Y7789247D1*
X7769447Y5158343D2*
X7741950D1*
Y5039690D1*
X7804750Y5243660D2*
X7769447Y5208357D1*
Y5158343D1*
X3934280Y4025020D2*
X3956573D1*
X3969277Y4012317D1*
X4080547D1*
Y4041357D1*
X5097350Y8186380D2*
X5377270D1*
X5456680Y8265790D1*
X6233480D1*
Y8308463D1*
X5220160Y1473160D2*
X5235713Y1457607D1*
Y1321493D1*
X3043517Y4938783D2*
Y4909750D1*
X3304930D1*
X3639223Y8637807D2*
Y8717730D1*
X4109340D1*
X4964187Y7555133D2*
Y7607523D1*
X5164990D1*
X3904040Y3264270D2*
X3815063D1*
Y3259963D1*
X3289190Y5340753D2*
Y5336640D1*
X3378170D1*
X11216800Y8390880D2*
Y8516903D1*
X11222163D1*
X12076290Y7217140D2*
X12165833D1*
Y7247460D1*
X9219360Y5079860D2*
X9519470D1*
Y5086013D1*
X7058047Y4131300D2*
Y4049050D1*
X6965170D1*
X10567830Y5238610D2*
X10654897D1*
Y5203280D1*
X9519470Y5086013D2*
Y4993110D1*
X9589450Y4923130D1*
Y4860800D1*
X6965170Y4049050D2*
X6975170Y4039050D1*
X7063040D1*
X7073050Y4049060D1*
X7527110D1*
X7589140Y4111090D1*
X8669080D1*
X8709080Y4151090D1*
Y4962470D1*
X8749080Y5002470D1*
X8869360D1*
X8909360Y4962470D1*
Y4813480D1*
X8949360Y4773480D1*
X9219360D1*
X10313413Y4962543D2*
Y4992767D1*
X10294550D1*
Y5148560D1*
X10397270D1*
X9489280Y7361877D2*
Y7276040D1*
X9586760Y7909970D2*
X9584290Y7912440D1*
Y7974973D1*
X9535310Y8023953D1*
Y8200507D1*
X3367480Y2720420D2*
X2874350D1*
X2713330Y2881440D1*
X2269090D1*
X2259420Y2871770D1*
X3367480Y3488270D2*
X3394973Y3515763D1*
Y3581813D1*
X7299170Y5426690D2*
X7517230D1*
X4594240Y3289090D2*
X4505257D1*
Y3258773D1*
X4772560Y1733350D2*
Y1648040D1*
X2259420Y2177190D2*
X2240623D1*
X2205623Y2142190D1*
Y2091873D1*
X7517230Y5426690D2*
Y5298297D1*
X7434617D1*
Y5302420D1*
X4296447Y3300680D2*
X4026023D1*
X3997433Y3329270D1*
X3666290D1*
X3626410Y3289390D1*
X3539690D1*
X4505257Y3258773D2*
Y3197860D1*
X4380420D1*
X4340420Y3237860D1*
Y3300680D1*
X4296447D1*
X5894230Y4151930D2*
X5887570Y4145270D1*
X5671913D1*
Y4149390D1*
X10869420Y7331790D2*
X10780440D1*
Y7325800D1*
X8487430Y7872450D2*
X7602450D1*
X7562450Y7832450D1*
Y7652460D1*
X8477430Y8215590D2*
X8494330Y8232490D1*
X8587057D1*
Y8210900D1*
X5760450Y7841160D2*
X5739577Y7862033D1*
Y7956290D1*
X7534950Y7130940D2*
X7524950Y7140940D1*
Y7216260D1*
X7517443D1*
X11281800Y8320370D2*
X11276293Y8325877D1*
X10590673D1*
Y8329997D1*
X16879420Y8513300D2*
X16795943D1*
Y8584163D1*
X13598440Y7841340D2*
X13583673Y7856107D1*
X13446557D1*
Y7860227D1*
X4707770Y8723120D2*
X4470580D1*
X3269270Y3431510D2*
X2958150D1*
X2897170Y3370530D1*
X2402220D1*
X2336010Y3304320D1*
X1894000D1*
X1853997Y3264317D1*
Y3111920D1*
X1813997Y3071920D1*
X1608430D1*
X1071670Y7500480D2*
X1298070D1*
X7426590Y7972597D2*
Y8262790D1*
X1608430Y3650190D2*
X2014520D1*
X2054520Y3690190D1*
Y3844860D1*
X1961547D1*
Y3848980D1*
X3850360Y8196930D2*
Y7956773D1*
X3890363Y7916770D1*
X4082857D1*
Y7947083D1*
X4470580Y8723120D2*
X4322730D1*
X4282730Y8683120D1*
Y8523980D1*
X4242730Y8483980D1*
X3820880D1*
X3780880Y8443980D1*
Y8196930D1*
X3850360D1*
X5040790Y3802900D2*
X4857720D1*
X4853470Y3807150D1*
X4614610D1*
X4462120Y3959640D1*
X3541110D1*
X3524500Y3976250D1*
X5043980Y3888220D2*
X5040790Y3885030D1*
Y3802900D1*
X1298070Y7500480D2*
X1883680D1*
X1923680Y7460480D1*
Y7221110D1*
X1883673Y7181103D1*
X1806780D1*
X7426590Y8262790D2*
X7461600Y8227780D1*
Y8201030D1*
X7599830D1*
X7661590Y8262790D1*
X8265770D1*
X8305770Y8302790D1*
Y8411130D1*
X3413680Y1506670D2*
X3405760D1*
X3378680Y1479590D1*
X3324703D1*
Y1483713D1*
X16435013Y7703247D2*
Y7657960D1*
X16475420D1*
Y7602130D1*
X16515420Y7562130D1*
X16826120D1*
Y7457760D1*
X16866120Y7417760D1*
X16958210D1*
Y7353030D1*
X16885710Y7280530D1*
X19307820Y7830560D2*
X19350103Y7872843D1*
Y7958873D1*
X19307820Y7187890D2*
X19303137Y7192573D1*
X19015030D1*
X17769850Y8571010D2*
Y8565513D1*
X17799353Y8536010D1*
Y8485697D1*
X18362597Y5352117D2*
X18223453D1*
X18195900Y5379670D1*
X8913340Y7266150D2*
X8978570Y7331380D1*
X9324570D1*
X9415380Y7422190D1*
X9726930D1*
X9870700Y7278420D1*
X7922020Y7236700D2*
X7966340Y7281020D1*
X8459670D1*
X8545960Y7367310D1*
X8682430D1*
X1923687Y7638607D2*
Y7795520D1*
X1780683D1*
X1740680Y7835523D1*
Y7945820D1*
X2637603Y7284560D2*
X2637610Y7222750D1*
X3654140Y8133610D2*
Y8283390D1*
X2904690Y8407210D2*
Y8538593D1*
X2984530Y6948000D2*
X2866413D1*
X2826410Y6988003D1*
Y7162433D1*
X4289630Y8321810D2*
X4842940Y8322207D1*
X4289627Y7563597D2*
X4289630Y7648910D1*
X4061873Y7632227D2*
X4125850D1*
Y7588100D1*
X4004350D1*
Y7662360D1*
X3905900D1*
Y7653220D1*
Y7464780D2*
X4958200D1*
X3905900Y7653220D2*
X3870890Y7688230D1*
X3534660D1*
X3510060Y7663630D1*
X8224247Y7681563D2*
Y7677440D1*
X8318470D1*
X2992253Y6314980D2*
X2952253Y6354980D1*
X2256393D1*
Y6394240D1*
X16383950Y7868560D2*
X16331137Y7921373D1*
Y8032290D1*
X19080120Y6418100D2*
Y6605120D1*
X19040113Y6645127D1*
X18952227D1*
X14995320Y7257220D2*
X15132130D1*
X15172140Y7297230D1*
Y7415303D1*
X19080120Y6178180D2*
X19098050Y6160250D1*
X19744833D1*
X16383950Y7310160D2*
X16701727Y7310557D1*
X9915640Y7974970D2*
X9659290D1*
X9624290Y8009970D1*
Y8039970D1*
X9400300Y8248290D2*
X8851990D1*
X8727990Y8124290D1*
X8417083D1*
X8377080Y8164293D1*
Y8496447D1*
X12120850Y3055547D2*
Y3140860D1*
X9915640Y8188180D2*
X10345360D1*
X10369800Y8163740D1*
X10643593D1*
X10651700Y8171847D1*
X10778407D1*
X10867140D1*
Y7501610D1*
X10907140Y7461610D1*
X11402323D1*
X11456753Y7516040D1*
X12036300D1*
X12076300Y7556040D1*
Y7722840D1*
X12116300Y7762840D1*
X12757740D1*
X12767740Y7752840D1*
X12108940Y1753310D2*
Y1749190D1*
X12197920D1*
X9946020Y1306200D2*
X11102040D1*
X11216560Y1191680D1*
X12068933D1*
X12108940Y1231687D1*
Y1753310D1*
X10117973Y1753627D2*
X9986417D1*
X9946020Y1713230D1*
Y1306200D1*
X12767740Y7752840D2*
X12688757D1*
Y7722527D1*
X12678757D1*
X11402323Y7461610D2*
X11442323D1*
Y7401297D1*
X8888800Y1878480D2*
X8881183Y1886097D1*
X8799817D1*
Y1904977D1*
X9915640Y7771360D2*
X9938387D1*
X9973387Y7736360D1*
Y7686043D1*
X14277080Y1298340D2*
X14357130Y1378390D1*
Y1492300D1*
X9251300Y4201710D2*
Y4683480D1*
X14888680Y1347290D2*
X14823680Y1412290D1*
X14679470D1*
X14678013Y1410833D1*
X14589703D1*
Y1427177D1*
X11530250Y1289300D2*
X11409077D1*
X11369077Y1329300D1*
Y1400240D1*
X9796590Y1763860D2*
Y1436200D1*
X9532640Y1733543D2*
Y1763860D1*
X9621620D1*
X20043190Y2356110D2*
X20472860D1*
X18823030Y4371240D2*
X18844840Y4349430D1*
X19102737D1*
X19526250D1*
X19551250Y4374430D1*
X18823030Y3920770D2*
X18553613D1*
X18513603Y3880760D1*
Y3810870D1*
X18363940Y1080240D2*
Y1527420D1*
X16320000Y1891020D2*
X16085280D1*
Y1895133D1*
X17231090Y1657560D2*
Y1527420D1*
X20043190Y2093610D2*
X19791387D1*
Y2165797D1*
X17443270Y2613210D2*
X17564760D1*
Y2698520D1*
X19102737Y4349430D2*
Y4433053D1*
X20043187Y3416207D2*
Y3461573D1*
X20362583D1*
Y3465693D1*
X20043190Y3330890D2*
X20043187Y3416207D1*
X11369077Y1400240D2*
Y1411670D1*
X11042790D1*
X11017320Y1386200D1*
X10164660D1*
X10114660Y1436200D1*
X10011020D1*
X9621620Y1763860D2*
Y1855973D1*
X9469750D1*
X20472867Y2495317D2*
Y2555630D1*
X20452440Y2576057D1*
Y2759233D1*
X20472860Y2356110D2*
X20472867Y2495317D1*
X14518160Y5024330D2*
X14528160Y5014330D1*
Y4939010D1*
X14542107D1*
X17231090Y1527420D2*
X16528550D1*
X16484350Y1571620D1*
X16320000D1*
X15002247Y4027277D2*
X15009743D1*
Y3942707D1*
X15017393D1*
X10455120Y2181170D2*
X10682623Y2183233D1*
X11703550Y2196077D2*
Y2191957D1*
X11951090D1*
X11983213Y2224080D1*
X12444050D1*
X10682623Y2183233D2*
X10936447D1*
X10968210Y2151470D1*
X11473457D1*
X11518063Y2196077D1*
X11703550D1*
X12679930Y3848533D2*
X12759967D1*
X12805647Y3894213D1*
X12970190D1*
X12469050Y3848530D2*
X12679930Y3848533D1*
X1978757Y2788340D2*
Y3224317D1*
X2018760Y3264320D1*
X2480680D1*
X2546890Y3330530D1*
X3192327D1*
X3232330Y3290527D1*
Y3215833D1*
X4108300Y1611440D2*
Y1281670D1*
X4148300Y1241670D1*
X4464057D1*
Y1317157D1*
X4005750Y4438400D2*
X3851767D1*
Y4378080D1*
X3827020Y5168200D2*
Y4785150D1*
X3824720Y2708070D2*
X3539690D1*
X3232330Y3215833D2*
Y3211720D1*
X3413200D1*
X3373200Y3251720D1*
Y3370947D1*
X3539690Y3199390D2*
X3527360Y3211720D1*
X3413200D1*
X7047080Y1917960D2*
X7987670D1*
X6943187Y2176013D2*
Y2154600D1*
X7047080D1*
X7987670Y1917960D2*
X8052673D1*
X8069267Y1901367D1*
X8409923D1*
X15184520Y4633410D2*
X15535030D1*
Y4663803D1*
X15585767D1*
X17361447Y3952767D2*
Y4092503D1*
X17321440Y4132510D1*
X17165440D1*
X16983380Y4314570D1*
X16391967D1*
Y4393993D1*
X15204490Y4001470D2*
X15115507D1*
Y3971150D1*
X15585767Y4663803D2*
Y4648900D1*
X15701050D1*
X16391967Y4393993D2*
Y4456660D1*
X15965060D1*
X14512603Y4556007D2*
Y4492053D1*
X14553507Y4451150D1*
X15184520D1*
X14211940Y4580300D2*
X14312497D1*
X14336790Y4556007D1*
X14512603D1*
X14312150Y4657597D2*
Y4647213D1*
X14246940D1*
X14211940Y4612213D1*
Y4580300D1*
X14329100Y8284830D2*
X14041080D1*
Y8254690D1*
X14032720D1*
Y8224377D1*
X10932140Y7927150D2*
X11494730D1*
Y7862147D1*
X10685047Y4700977D2*
Y4427940D1*
X10720047Y4392940D1*
X10748920D1*
X19702740Y7018000D2*
X19885680D1*
X19925687Y7058007D1*
Y7212900D1*
X10748920Y4110600D2*
X10659937D1*
Y4080280D1*
X12318370Y7330950D2*
X12229390D1*
Y7300630D1*
X10308077Y7942533D2*
X10308070Y7857220D1*
X14032720Y8224377D2*
X13960103D1*
X13942417Y8206690D1*
X12658580D1*
X12618580Y8166690D1*
Y7974170D1*
X12578580Y7934170D1*
X12315580D1*
X12241320Y7859910D1*
X11494730Y7862147D2*
Y7815050D1*
X11877600D1*
X11885050Y7822500D1*
X11992610D1*
X12030020Y7859910D1*
X12141320D1*
X12318370Y7495960D2*
X12351373D1*
X12386373Y7530960D1*
Y7620833D1*
X19702740Y6539970D2*
X19712743Y6529967D1*
X19797160D1*
X7855430Y3083220D2*
X7768483D1*
Y3026860D1*
X3892760Y2207560D2*
X3804173Y2118973D1*
X3524357D1*
Y2123097D1*
X4178730Y2588730D2*
X4183043Y2593043D1*
Y2916020D1*
X14349997Y7264083D2*
X14254837D1*
X14236053Y7245300D1*
X13962660D1*
X13925067Y7207707D1*
Y6743733D1*
X13278220Y4784010D2*
X13268220Y4774010D1*
Y4688697D1*
X13261847D1*
X13556960Y5164480D2*
X13474577D1*
Y5241903D1*
X8392060Y4227290D2*
X8227040D1*
X8187033Y4267297D1*
Y4358237D1*
X13474577Y5241903D2*
Y5246680D1*
X13307260D1*
X12556983Y7137217D2*
Y7215110D1*
X12596983Y7255110D1*
X12709660D1*
Y7242580D1*
X12779040D1*
Y7214137D1*
X12717090D1*
Y7183917D1*
X14438980Y7256250D2*
Y7289400D1*
X14403980Y7324400D1*
X14218840D1*
X14192060Y7297620D1*
X13783723D1*
X13700240Y7214137D1*
X12807483D1*
X12779040Y7242580D1*
X10113960Y2994810D2*
X9416280D1*
X9308000Y3103090D1*
X9045690D1*
Y3002920D1*
X3184930Y3871250D2*
X4128983D1*
Y3783693D1*
X5924810Y1643490D2*
X6004360D1*
Y1707973D1*
X3314650Y1810880D2*
X3354000D1*
X3389000Y1775880D1*
Y1725647D1*
X3184930Y2195040D2*
X3102670D1*
X3062670Y2235040D1*
Y2328310D1*
X2529647D1*
X2489647Y2368310D1*
X1971180D1*
X1931180Y2328310D1*
Y2252130D1*
X1851710D1*
X3314650Y2418320D2*
X4928630D1*
X1851710Y3996100D2*
Y3910957D1*
X1924223D1*
X2489647Y2368310D2*
Y2664743D1*
X1949510Y4365690D2*
X2315340D1*
X2343120Y4393470D1*
X2853600D1*
Y4333157D1*
X7923420Y3018220D2*
X7904027Y2998827D1*
X7834443D1*
Y2992473D1*
X6805810Y1488890D2*
X6793030Y1501670D1*
X6230070D1*
X6140080Y1411680D1*
X5924810D1*
X6778317Y1577050D2*
Y1548010D1*
X6805810D1*
Y1488890D1*
X5459057Y3156897D2*
X5578250Y3156500D1*
X4896920Y3222200D2*
Y3249180D1*
X4931920Y3284180D1*
X5419053D1*
X5459057Y3244177D1*
Y3156897D1*
X1558387Y5657840D2*
Y5653710D1*
X1652090D1*
X7712487Y4598660D2*
X7580270D1*
Y4641727D1*
X7522283D1*
X7829760Y4640330D2*
Y4643980D1*
X7794760Y4678980D1*
X7712487D1*
Y4598660D1*
X12777037Y4573613D2*
X12639143D1*
X12599140Y4533610D1*
Y4493940D1*
X12559140Y4453940D1*
X12363320D1*
X11688470Y4775970D2*
X11720073Y4744367D1*
Y4572660D1*
X12363320Y4453940D2*
Y4557180D1*
X12018620D1*
X11903000Y4672800D1*
X11847580D1*
X11807580Y4712800D1*
Y4931510D1*
X11767590Y4971500D1*
X11374770D1*
X17560520Y7179050D2*
X17846760D1*
X17989980Y7322270D1*
X18406767D1*
Y7399910D1*
X17995630Y4370157D2*
Y3972240D1*
X18199150Y3768720D1*
Y3753580D1*
X18239150Y3713580D1*
X18136370Y3610800D1*
X17662443D1*
X17637470Y3635773D1*
X17511553D1*
Y3628463D1*
X18239150Y3713580D2*
X18279140Y3673590D1*
X18330473D1*
Y3753897D1*
X16969420Y8464930D2*
X16945960Y8441470D1*
X16799070D1*
Y8445593D1*
X15642040Y4127580D2*
X15822420D1*
X16051340Y3556480D2*
Y3984070D1*
Y4075447D1*
X16140887D1*
Y4104490D1*
X15642040Y4375210D2*
Y4440210D1*
X15618057Y4464193D1*
Y4583937D1*
X15582027Y4307737D2*
Y4340210D1*
X15617027Y4375210D1*
X15642040D1*
X16556247Y3456710D2*
Y3394480D1*
X8576893Y1867473D2*
Y1807163D1*
X8805903D1*
X8812210Y1813470D1*
X4575570Y7650060D2*
X4642710D1*
X4740490Y7747840D1*
X5132580D1*
Y7833853D1*
X8894100Y2979800D2*
X8931597D1*
X8966593Y3014797D1*
Y3097500D1*
X5618250Y1346680D2*
X6189870D1*
X7665590Y1539200D2*
X7530100D1*
X7490097Y1579203D1*
Y1701830D1*
X3711300Y4853670D2*
X3579720D1*
Y4932117D1*
X4659240Y1820760D2*
X5383250D1*
X4360800Y2685330D2*
X4659240D1*
X4144230Y4126670D2*
X4141170Y4123610D1*
Y4038103D1*
X4106237D1*
X8812210Y1813470D2*
Y1434400D1*
X8772210Y1394400D1*
X7897650D1*
X3545590Y4698670D2*
X3528693Y4715567D1*
X3456610D1*
Y4719687D1*
X3579720Y4932117D2*
X3496123D1*
X3479120Y4949120D1*
X3947680Y2798300D2*
X3914263Y2764883D1*
Y2712990D1*
X9163480Y4009790D2*
X9279450D1*
X9314430Y4044770D1*
X10242310D1*
X10533660Y5394820D2*
X10508670Y5369830D1*
X10472697D1*
Y5309500D1*
X12479450Y8679430D2*
Y8741460D1*
X11492400D1*
X11452400Y8701460D1*
Y8270380D1*
X11412400Y8230380D1*
X11129580D1*
X9994790Y7441900D2*
X9905810D1*
Y7411583D1*
X11452400Y8701460D2*
X11412400Y8741460D1*
X9994790D1*
X12479450Y8574800D2*
Y8679430D1*
X11129580Y7670950D2*
X11124240Y7665610D1*
X11037817D1*
Y7650123D1*
X10255533Y4708907D2*
Y4787783D1*
X10288420Y4820670D1*
X10242310Y4044770D2*
Y4109767D1*
X10255533Y4122990D1*
Y4708907D1*
X10472697Y5309500D2*
Y5218840D1*
X10462270Y5208413D1*
Y4820670D1*
X10434910Y7108420D2*
X10492270D1*
X10539910Y7156060D1*
X10718150D1*
X10743150Y7181060D1*
X10019430Y7108420D2*
X10434910D1*
X9994790Y8741460D2*
Y8649410D1*
X9954780Y8609400D1*
X9214047D1*
Y8615583D1*
X12479450Y8383860D2*
X12499187Y8364123D1*
Y8033717D1*
X12287920Y1701140D2*
X12437780D1*
Y1763920D1*
X20458110Y5271380D2*
X20609510D1*
X20649510Y5311380D1*
Y6251560D1*
X20609510Y6291560D1*
X20649510Y6331560D1*
Y7856740D1*
X20609510Y7896740D1*
X20392740D1*
X20191730Y8097750D1*
Y8566700D1*
X20151730Y8606700D1*
X19772390D1*
X19732390Y8566700D1*
Y8247730D1*
X19692390Y8207730D1*
X19496143D1*
X19456143Y8247730D1*
Y8455550D1*
X14294540Y4138600D2*
X14106020Y4327120D1*
X13634910D1*
X13594910Y4367120D1*
Y4417120D1*
X13490330D1*
X13464920Y4442530D1*
X13454920Y4432530D1*
X13348830D1*
X18242190Y8591540D2*
X18572230D1*
X19039580Y8124190D1*
X19412603D1*
X19496143Y8207730D1*
X16385030Y1970030D2*
X16716913D1*
Y1980820D1*
X13464920Y4442530D2*
X13554910D1*
Y4453320D1*
X20368307Y6363360D2*
Y6319970D1*
X20419687D1*
X20456897Y6357180D1*
X20586560D1*
Y6314510D1*
X20609510Y6291560D1*
X20458110Y5442690D2*
X19722730D1*
Y5446813D1*
X18298270Y3281523D2*
Y3166390D1*
X18924890Y1751930D2*
X18413600D1*
Y2103790D1*
X18453600Y2143790D1*
X18619580D1*
X20609510Y5271380D2*
X20649510Y5231380D1*
Y1631250D1*
X20609510Y1591250D1*
X19627090D1*
X18112190Y8591540D2*
X17937860Y8765870D1*
X15033100D1*
X14993100Y8725870D1*
Y8623960D1*
X18007990Y8423320D2*
Y8419197D1*
X18072187D1*
X18112190Y8459200D1*
Y8591540D1*
X15058697Y7672947D2*
Y7668830D1*
X15305600D1*
X16385030Y1506620D2*
X16404880Y1486770D1*
X17013540D1*
X17080070Y1420240D1*
X17231090D1*
X7765570Y1727190D2*
X7613693D1*
Y1646790D1*
X12940780Y7295110D2*
X12490360D1*
X12410370Y7215120D1*
X12318370D1*
X16305420Y4558990D2*
X16444090Y4559253D1*
X14814320Y7440210D2*
X15013930D1*
Y7409890D1*
X12948277Y7648480D2*
Y7563137D1*
X12940780Y7555640D1*
X14730410Y8793960D2*
Y8885870D1*
X19828940D1*
X19929050Y8785760D1*
X20398880D1*
X20438883Y8745757D1*
Y8227183D1*
X15396100Y8498150D2*
X16491170D1*
X12940780Y7555640D2*
X13233480D1*
X13453540Y7775700D1*
X13633080D1*
X13693800Y7836420D1*
X14079660D1*
X14094390Y7821690D1*
X14447460D1*
X14487460Y7861690D1*
Y8084190D1*
X14500260Y8096990D1*
Y8275070D1*
X14540260Y8315070D1*
X14878100D1*
X14918100Y8275070D1*
Y7936870D1*
X14814320D1*
X14918100Y8275070D2*
X14958100Y8315070D1*
X15032140D1*
X15215220Y8498150D1*
X16491170D2*
X16556640D1*
X16568190Y8509700D1*
X16626957D1*
Y8449380D1*
X7452230Y4771160D2*
Y4685847D1*
X5985303Y5182827D2*
X5820390Y5182440D1*
X6174880Y5162340D2*
X6158513Y5178707D1*
X5985303D1*
Y5182827D1*
X7452230Y4685847D2*
X7383330D1*
X7343330Y4645847D1*
Y4586850D1*
X7303330Y4546850D1*
X6571420D1*
X6424270Y4694000D1*
X6174880D1*
X12340850Y3000930D2*
X12374790D1*
X12409790Y2965930D1*
Y2915617D1*
X6982080Y1655480D2*
X6893103D1*
Y1625160D1*
X5006770Y1343170D2*
Y1151680D1*
X6705780D1*
X6745780Y1191680D1*
Y1358890D1*
X7112080Y1590490D2*
X7284420D1*
X7456070Y1762140D1*
X7477260D1*
X7507310Y1792190D1*
X8113937D1*
Y1736883D1*
X2488060Y3463020D2*
X1942887D1*
Y3549877D1*
X5478630Y4473960D2*
X5925520D1*
X3848300Y1429903D2*
Y1344590D1*
X6893103Y1625160D2*
X6895810Y1407230D1*
X5478623Y3718483D2*
Y3509947D1*
X5518623Y3469947D1*
X5687457D1*
X5478630Y3803800D2*
X5478623Y3718483D1*
X5925520Y4473960D2*
X6022000D1*
X6062000Y4433960D1*
Y4327290D1*
X3397963Y1604597D2*
Y1590790D1*
X3307060D1*
X7259973Y5300813D2*
Y5203150D1*
X7170430D1*
Y5296690D1*
X7180170Y3984060D2*
X7320580D1*
X7329940Y3993420D1*
X7764840D1*
X4274230Y4284130D2*
X4381503Y4284527D1*
X4450430Y2620330D2*
X4724240D1*
X5889050Y2966310D2*
X5688250D1*
X5678250Y2956310D1*
X5130167D1*
X5090167Y2996310D1*
X5001910Y2908053D1*
Y2855330D1*
X4961910Y2815330D1*
X4724240D1*
X2862850Y1706730D2*
X2979753D1*
Y1646410D1*
X4274230Y3632750D2*
X4128260D1*
X5090167Y2996310D2*
Y3183863D1*
X2979753Y1646410D2*
X3055923D1*
X3095920Y1606413D1*
Y1191670D1*
X3938300D1*
X3978300Y1231670D1*
Y1408170D1*
X5860517Y4810013D2*
X5730930Y4809610D1*
X2481857Y2202990D2*
Y2198860D1*
X2862850D1*
X5457720Y2328320D2*
X5383730D1*
Y2298000D1*
X6672043Y8353027D2*
Y8396860D1*
X6798470D1*
Y8162340D1*
X6838470Y8122340D1*
X7103320D1*
X6837730Y7420067D2*
Y7505380D1*
X6668007Y7191357D2*
Y7187233D1*
X6826933D1*
X6837730Y7198030D1*
X7103320Y8122340D2*
Y8057340D1*
X7125467Y8035193D1*
Y7970923D1*
X7146493D1*
X7994620Y7151557D2*
Y7220703D1*
X8074543D1*
X14171070Y8349830D2*
X14203830Y8382590D1*
X14436280D1*
Y8322273D1*
X18532203Y8041890D2*
Y7971747D1*
X18561810Y7942140D1*
X18601810Y7902140D1*
Y7764020D1*
X18537610Y7699820D1*
X18561810Y7942140D2*
X18601810D1*
Y7973417D1*
X18637623D1*
Y8002457D1*
X18472810Y4120440D2*
X18277810D1*
Y4161123D1*
X18253833D1*
X13580820Y4946650D2*
X13500080D1*
Y5017863D1*
X15767630Y4521660D2*
X15729800Y4483830D1*
Y4279890D1*
X13460870Y8765280D2*
X13951270D1*
X19677120Y1294670D2*
X19939277D1*
Y1356550D1*
X18931110Y2842020D2*
X19098110D1*
X19204110Y2948020D1*
X19647260D1*
Y2877800D1*
X19672260Y2852800D1*
X18834527Y3308900D2*
Y3087373D1*
X18931110Y2990790D1*
X18364940Y3391620D2*
X18471610D1*
X18554330Y3308900D1*
X18834527D1*
X18209837Y3357410D2*
Y3353287D1*
X18326607D1*
X18364940Y3391620D1*
X9015710Y8420100D2*
X9105410D1*
X9915640Y8537240D2*
X9906380Y8527980D1*
X8975420D1*
X8935420Y8487980D1*
Y8420100D1*
X9015710D1*
X11354647Y8599397D2*
Y8642220D1*
X10315190D1*
X10210210Y8537240D1*
X9915640D1*
X11374770Y8320370D2*
X11354647Y8340493D1*
Y8599397D1*
X8074543Y7220703D2*
Y7125040D1*
X8552430D1*
X18449103Y5386507D2*
Y5444670D1*
X17989330D1*
X18538090Y5416820D2*
Y5406820D1*
X18503090Y5371820D1*
X18449103D1*
Y5386507D1*
X12683130Y8027680D2*
Y7942830D1*
X12691220Y7934740D1*
X14329100Y8145070D2*
X13878870D1*
X13857250Y8166690D1*
X12723133D1*
X12683130Y8126687D1*
Y8027680D1*
X14436280Y8322273D2*
Y8252250D1*
X14329100Y8145070D1*
X12705440Y3095650D2*
X13032700D1*
X13072700Y3055650D1*
Y2958970D1*
X20489880Y2868920D2*
X20369860D1*
X20329860Y2828920D1*
Y2747797D1*
X14389520Y2079280D2*
X14403250Y2093010D1*
X14534897D1*
X14553710D1*
X14593710Y2133010D1*
Y2231070D1*
X14633710Y2271070D1*
X14752800D1*
Y1922350D1*
X14792800Y1882350D1*
X15457320D1*
X20473110Y5854290D2*
X20500997Y5826403D1*
Y5676603D1*
X17034610Y4453770D2*
X17421190D1*
X17428890Y4446070D1*
X17560343D1*
X16441320Y4157510D2*
X17034610D1*
X14534897Y2093010D2*
Y2022780D1*
X19843700Y2452500D2*
X19429507D1*
Y2526023D1*
X20329860Y2747797D2*
Y2492500D1*
X20289860Y2452500D1*
X19843700D1*
X16230000Y1437030D2*
X16250137Y1416893D1*
Y1325203D1*
X16034827Y1543780D2*
Y1539660D1*
X16230000D1*
Y1437030D1*
X17560343Y4446070D2*
Y4441950D1*
X17649330D1*
X19843700Y1526250D2*
X19826670D1*
X19791670Y1491250D1*
Y1415590D1*
X10866970Y3868620D2*
Y4754630D1*
X10861840Y4759760D1*
Y4863780D1*
X13571423Y2005133D2*
X13362307D1*
Y1998247D1*
X13314950Y1950890D1*
X13162250Y3071050D2*
Y2985737D1*
X12268190Y2021743D2*
X11495487D1*
X11470820Y2046410D1*
X13314950Y1950890D2*
X13224950D1*
X13181230Y1994610D1*
X12736330D1*
X12711330Y1969610D1*
X12268190D1*
Y2021743D1*
X19807697Y4701397D2*
Y4601440D1*
X19908007Y4501130D1*
X20060280D1*
X20100280Y4461130D1*
Y4162490D1*
X20060280Y4122490D1*
X19696250D1*
X13783330Y1557300D2*
X14777560D1*
Y1641647D1*
X14836443D1*
X19221380Y3963280D2*
Y3915360D1*
X19191093D1*
Y3877967D1*
X15174380Y1817350D2*
X15346610D1*
X15358020Y1805940D1*
X15669850D1*
Y1830940D1*
X15709850Y1870940D1*
X15733487D1*
X15759390Y1845037D1*
Y1765900D1*
X19375230Y2729390D2*
X19279673D1*
Y2794237D1*
X19735270Y3624960D2*
X20079187D1*
X20119193Y3664967D1*
Y3771983D1*
X19696250Y4122490D2*
X19458100D1*
X19420150Y4160440D1*
X19301383D1*
Y4249113D1*
X11915220Y1826420D2*
X11292710D1*
X11159300Y1959830D1*
X11060850D1*
X10852770Y1751750D1*
X10566510D1*
X10542240Y1776020D1*
X19221380Y4160440D2*
X19301383D1*
X19807697Y4601440D2*
X19767707D1*
X19750990Y4618157D1*
Y4954350D1*
X19638670Y5066670D1*
Y5153990D1*
X19211440Y5235410D2*
X19200737Y5224707D1*
X19122463D1*
Y5194483D1*
X14836443Y1641647D2*
Y1622310D1*
X15174380D1*
X19195903Y2444737D2*
X18876637D1*
X18866910Y2435010D1*
X18334510D1*
X18246510Y2347010D1*
X17565650D1*
X17522270Y2303630D1*
Y2265950D1*
X17482270Y2225950D1*
X17433290D1*
Y2293193D1*
X19279673Y2794237D2*
X19195903D1*
Y2444737D1*
X8401720Y2225350D2*
X8426717Y2250347D1*
X8779520D1*
X8821127Y2208740D1*
X8969990D1*
X9009997Y2168733D1*
Y2030607D1*
X18677227Y3395487D2*
Y3425800D1*
X18766210D1*
X16460287Y4459310D2*
Y4428990D1*
X16549270D1*
X14267130Y1492220D2*
X14188103D1*
Y1421977D1*
X20037140Y1724690D2*
X20522210D1*
X20562217Y1764697D1*
Y1889760D1*
X16148210Y2956630D2*
X16059227D1*
Y2926313D1*
X14064520Y2260140D2*
Y2118770D1*
X19624707Y3299227D2*
Y3238440D1*
X19713980D1*
X19756590Y3281050D1*
X19905270D1*
X18766210Y3425800D2*
X19032980D1*
X19159553Y3299227D1*
X19624707D1*
X19349650Y4958360D2*
X19354197D1*
X19384513Y4988677D1*
X19444687D1*
X16549270Y4428990D2*
Y4579540D1*
X16589270Y4619540D1*
X16654290D1*
X16715060Y4558770D1*
X17649590D1*
X17676290Y4585470D1*
X17969290D1*
X18009290Y4545470D1*
Y4455630D1*
X18091090Y4373830D1*
X18693030D1*
X8409980Y4657770D2*
X8166460D1*
Y4809430D2*
X8256000D1*
Y4839750D1*
X8351457Y5360723D2*
Y5356610D1*
X8499540D1*
X8172280Y5262670D2*
X8187290Y5277680D1*
X8351457D1*
Y5360723D1*
X9186700Y2030300D2*
X9335340D1*
X11224300Y1346200D2*
X10099660D1*
X10074660Y1371200D1*
X5658250Y3066510D2*
X5285160D1*
X2929680Y7758030D2*
X3107950D1*
Y7727717D1*
X2328690Y8019697D2*
Y7989380D1*
X2449580D1*
X5673590Y1978780D2*
X5584610D1*
Y2007820D1*
X1989520Y3763660D2*
X1881030D1*
Y3834723D1*
X1821720Y1965400D2*
X1989520D1*
X2701430Y1424560D2*
X2620800Y1505190D1*
X2456550D1*
X2375790Y1424430D1*
X1821720D1*
X2053970Y8634780D2*
Y8549467D1*
X2528680Y5345860D2*
X2439693D1*
Y5315540D1*
X5200320Y4173600D2*
X5215193Y4188473D1*
X5298990D1*
X2774570Y7989380D2*
X2929680D1*
X2449580D2*
X2774570D1*
X3486950Y1676880D2*
Y1610620D1*
X3542367D1*
Y1591570D1*
X5584610Y2007820D2*
X5311760D1*
X5189700Y1885760D1*
X4568940D1*
X4528940Y1845760D1*
Y1741670D1*
X4488940Y1701670D1*
X3576740D1*
X3551950Y1676880D1*
X3486950D1*
X5658250Y2516530D2*
X5578250Y2436530D1*
Y2182570D1*
X2690790Y4273230D2*
X2715070Y4248950D1*
X3200307D1*
Y4319477D1*
X2449573Y6189087D2*
Y6184980D1*
X2593680D1*
X2449580Y6274400D2*
X2449573Y6189087D1*
X18603090Y5274200D2*
X18917170D1*
X18957170Y5234200D1*
Y5131213D1*
X19163393D1*
Y5150097D1*
X19635510Y8278060D2*
X19538810D1*
Y8430537D1*
X14374540Y4253930D2*
Y4168607D1*
X14384087D1*
X15621373Y7887293D2*
X15529750D1*
Y7808830D1*
X15564750Y7773830D1*
X15592150D1*
X18603090Y5178490D2*
X18909667Y5178887D1*
X20126730Y8054610D2*
Y7922117D1*
X20229393D1*
X18788190Y7745390D2*
Y7662947D1*
X18828193D1*
Y7632723D1*
X17426510Y8329220D2*
X17257517D1*
Y8333337D1*
X18084220Y8098440D2*
X18094220Y8108440D1*
Y8183757D1*
X18108773D1*
X18279667Y8219380D2*
Y8138440D1*
X18239667Y8098440D1*
X18084220D1*
X18326390Y8400933D2*
X18279667D1*
Y8219380D1*
X18788190Y8076740D2*
X18722720Y8142210D1*
X18556900D1*
X18516900Y8182210D1*
Y8349830D1*
X18326390D1*
Y8400933D1*
X19635510Y8094190D2*
X19538810D1*
X19528810Y8084190D1*
X18795640D1*
X18788190Y8076740D1*
X15592150Y7773830D2*
X15852980D1*
X15861030Y7781880D1*
X17899960Y7741200D2*
X17900980Y7655887D1*
X14192590Y1954060D2*
X14217190D1*
X14227193Y1944057D1*
X14282137D1*
X15470030Y4698410D2*
X15097850D1*
X15061190Y4661750D1*
X14925537D1*
Y4665873D1*
X11784050Y4283540D2*
Y4624560D1*
X11767580Y4641030D1*
Y4800970D1*
X11727580Y4840970D1*
X11592043D1*
Y4889470D1*
X9752270Y5261483D2*
Y5346800D1*
X16246340Y3407550D2*
X16181460Y3342670D1*
Y3265877D1*
X16323400Y3968210D2*
X17130840D1*
X17228690Y3870360D1*
X17476390D1*
X17516393Y3910363D1*
Y4337267D1*
X18454960Y4577700D2*
X18429960Y4552700D1*
X18235180D1*
X18210430Y4527950D1*
X18074590D1*
X18363600Y3010040D2*
X18136530D1*
Y3077533D1*
X20173190Y2158600D2*
X20095720Y2236070D1*
X19747510D1*
X19719940Y2208500D1*
X19275240D1*
X19210530Y2143790D1*
X18870530D1*
X10479730Y4102260D2*
Y4252573D1*
X10507223D1*
X10373070Y7778450D2*
X10241370D1*
X10109850Y7909970D1*
X9756740D1*
X9691740Y7844970D1*
X10932140Y7837150D2*
X11290830D1*
X11365797Y7762183D1*
X11988333D1*
X20108190Y3119380D2*
X19890580D1*
Y3195730D1*
X9918960Y2929810D2*
X10272920D1*
X10344790Y3001680D1*
X20173190Y1275240D2*
X20502117D1*
Y1336623D1*
X17916630Y3870360D2*
X17556397D1*
X17516393Y3910363D1*
X10118210Y4652990D2*
Y4495670D1*
X18454957Y5143337D2*
X18454960Y5228650D1*
X14925537Y4665873D2*
X14533167D1*
X14416130Y4782910D1*
X9752270Y5346800D2*
X9914980D1*
X9954980Y5306800D1*
Y5101863D1*
X10006757D1*
Y5071640D1*
X15988280Y4254800D2*
Y4265253D1*
X15963733Y4289800D1*
Y4342303D1*
X15999393D1*
Y4371343D1*
X8809013Y7849233D2*
X8659270D1*
X8617477Y7807440D1*
X7744660D1*
X9691740Y7844970D2*
X9522727D1*
X9520810Y7843053D1*
X8809013D1*
Y7849233D1*
X14204540Y4073600D2*
Y4063603D1*
X14239540Y4028603D1*
X14316080D1*
Y4032693D1*
X15887420Y4049070D2*
X15875930Y4037580D1*
X15659790D1*
X10513200Y4495670D2*
X10522060Y4504530D1*
Y4646130D1*
X10435113Y2991677D2*
Y2987557D1*
X10857217D1*
X10878880Y3009220D1*
X10344790Y3001680D2*
X10354793Y2991677D1*
X10435113D1*
X19181380Y1549550D2*
X18669077D1*
Y1521613D1*
X16851340Y2080950D2*
X16638470D1*
X16592550Y2035030D1*
X16300220D1*
X16209800Y2125450D1*
X15837460D1*
X15802250Y2160660D1*
X15331630D1*
X16851340Y2480980D2*
X16918540D1*
X16958543Y2520983D1*
Y2622027D1*
X17695783Y1726390D2*
Y1657560D1*
X17605390D1*
X19554590Y5700610D2*
X19900677D1*
Y5640293D1*
X19554600Y5507690D2*
X20529730D1*
X20173190Y3029380D2*
X19849650D1*
X19704870Y3174160D1*
X19197450D1*
X18669077Y1521613D2*
Y1617553D1*
X18629070Y1657560D1*
X17834530D1*
X16851340Y1722560D2*
X16936873Y1808093D1*
Y1910987D1*
X17605390Y1657560D2*
X17540390Y1722560D1*
X16851340D1*
X20529730Y5507690D2*
Y5429240D1*
X20585007D1*
Y5368927D1*
X19197450Y3174160D2*
X19108470D1*
Y3113843D1*
X16851340Y1592420D2*
X17015470Y1593440D1*
X18578090Y4120440D2*
X18545647Y4152883D1*
Y4225497D1*
X17214610Y3343020D2*
X17133330D1*
X16994770Y3204460D1*
X16830800D1*
X16790800Y3164460D1*
Y3087340D1*
X16750800Y3047340D1*
X16409207D1*
X16245437Y3211110D1*
X16205437Y3171110D1*
X16026340D1*
X15986340Y3211110D1*
Y3407550D1*
X19170030Y6963820D2*
X19307820D1*
X16245437Y3211110D2*
X16242343Y3283537D1*
X16992787Y8137303D2*
X16612783D1*
X16572780Y8097300D1*
Y7997380D1*
X16658170Y7911990D1*
X17105160D1*
X17277600Y7739550D1*
X17601710D1*
X17641710Y7779550D1*
Y7792930D1*
X17719990Y7871210D1*
X18448650D1*
Y7129050D2*
X18532330D1*
X18572330Y7169050D1*
Y7235970D1*
X17270440Y4251410D2*
X17300337Y4281307D1*
Y4393450D1*
X17314483Y3074640D2*
Y3125087D1*
X17279610Y3159960D1*
X19145130Y8319190D2*
Y8529457D1*
X19221720D1*
X19202823Y7786740D2*
X19202830Y7872060D1*
X15804617Y3716713D2*
Y3621477D1*
X15844613Y3581480D1*
X15986340D1*
X19307820Y5311490D2*
X19080630Y5312980D1*
X19051323Y5306713D1*
X17390520Y7797043D2*
Y7792930D1*
X17641710D1*
X19483710Y7400560D2*
X20035103D1*
X20065417Y7370247D1*
X20193627D1*
X19177820Y7400560D2*
X19483710D1*
X18572330Y7235970D2*
Y7399810D1*
X18612330Y7439810D1*
X19053190D1*
X19092440Y7400560D1*
X19177820D1*
X16621250Y3521710D2*
X16586480Y3556480D1*
X16206340D1*
X16116340Y3646480D1*
X20437870Y2223590D2*
X20585527Y2371247D1*
Y2501550D1*
X16916340Y1304900D2*
X16509410D1*
X17686900Y7976210D2*
X17863723Y8153033D1*
Y8228263D1*
X17422010Y3785340D2*
X17620440D1*
X17621400Y4068530D2*
Y4229430D1*
X17661793Y4269823D1*
X17809473D1*
X16854923Y3634573D2*
X16754897D1*
X16719900Y3599577D1*
Y3560330D1*
X17422010Y3610620D2*
X16854923D1*
Y3634573D1*
X17620440Y3785340D2*
X18100047D1*
Y3700020D1*
X17829360Y4430470D2*
X17945307D1*
Y4497227D1*
X17809473Y4269823D2*
Y4344833D1*
X17829360Y4364720D1*
Y4430470D1*
X17817420Y5345160D2*
Y5376330D1*
X17782420Y5411330D1*
X17728440D1*
Y5351013D1*
X12120720Y4443410D2*
Y4242570D1*
X12160720Y4202570D1*
X12386993D1*
X12396993Y4192570D1*
X13213220D1*
X15435600Y7798830D2*
X15469063Y7832293D1*
Y7926660D1*
X15831750Y7206170D2*
Y7441170D1*
X15435600D1*
X16330410Y4914670D2*
X16457370Y4787710D1*
X16796170D1*
Y4709437D1*
X13408020Y4799700D2*
Y4876167D1*
X13486290D1*
X13419680Y4624390D2*
X13419670Y4709700D1*
X13213220Y3848370D2*
X13124237D1*
Y3818050D1*
X15832630Y4619580D2*
X15836080Y4616130D1*
Y4395980D1*
X15832630Y5111950D2*
X15848880Y5128200D1*
Y5176950D1*
X15890200D1*
X15905060Y5162090D1*
X16031090D1*
X14143040Y5167080D2*
X14208040Y5232080D1*
X15189450D1*
X15309580Y5111950D1*
X15832630D1*
X13486290Y4876167D2*
Y4791650D1*
X13526290Y4751650D1*
X13786590D1*
X13857850Y4822910D1*
X14046310D1*
X14086310Y4862910D1*
Y5045350D1*
X14143040Y5102080D1*
Y5167080D1*
X16031090Y4914670D2*
X16026493Y4919267D1*
X15939763D1*
Y4923390D1*
D14*
X6550740Y2366240D3*
X3439690Y6875770D3*
X11628090Y3798400D3*
X18868040Y5571890D3*
X14881750Y5545577D3*
X18325900Y5574670D3*
X18871540Y5897710D3*
X6965170Y3120650D3*
X6482770Y5610410D3*
X3290207Y5542380D3*
D3*
X12120850Y3140860D3*
X13925067Y6743733D3*
X17233200Y7244050D3*
X5915440Y8475670D3*
Y8340370D3*
X12597270Y3916240D3*
X10708350Y7648450D3*
X15862890Y2956630D3*
X19349650Y4958360D3*
X4433360Y4977520D3*
X8166460Y4657770D3*
X8409980D3*
X9335340Y2030300D3*
X9186700D3*
X10074660Y1371200D3*
X11224300Y1346200D3*
X8669550Y5286130D3*
X9080420D3*
Y5039860D3*
X1978960Y4686660D3*
X14267130Y1492220D3*
X14064520Y2118770D3*
X19905270Y3281050D3*
X20037140Y1724690D3*
X1898680Y8425690D3*
X8172280Y5262670D3*
X7793110Y7416470D3*
X12091960Y4654050D3*
X8499540Y5356610D3*
X4445820Y2906430D3*
X7902530Y5262300D3*
X16090130Y8585320D3*
X14064520Y2260140D3*
X16179730Y7504740D3*
X16969980Y8565380D3*
X2054510Y4101800D3*
X7806630Y7285650D3*
X17113210Y8565380D3*
X17126380Y7764550D3*
X4433360Y3816030D3*
X11445540Y7170640D3*
X18693030Y4373830D3*
X16148210Y2956630D3*
X2175370Y7104610D3*
X16549270Y4428990D3*
X18766210Y3425800D3*
X8166460Y4809430D3*
X4887320Y3389180D3*
X9906230Y4109780D3*
Y4482990D3*
X15986340Y3581480D3*
Y3407550D3*
X19307820Y5311490D3*
Y6963820D3*
X19170030D3*
X4877560Y4411930D3*
X5420930Y1321670D3*
X18448650Y7871210D3*
X17270440Y4251410D3*
X17279610Y3159960D3*
X7304470Y1096850D3*
X13134370Y1929610D3*
Y2284090D3*
X6279870Y2932510D3*
X5954860Y3031310D3*
X6728330Y7650030D3*
X19145130Y8319190D3*
X1533530Y1820070D3*
X19202830Y7872060D3*
X10107360Y2255880D3*
X9528270Y2184990D3*
X19483710Y7400560D3*
X18448650Y7129050D3*
X4796130Y4578720D3*
X17214610Y3343020D3*
X6084880Y4709230D3*
X4314230Y4698650D3*
X19177820Y7400560D3*
X6115310Y5318140D3*
X4877560Y4043600D3*
X15470020Y4527980D3*
X15955790Y4709570D3*
X11439770Y5101500D3*
X11768480D3*
X3836190Y3081580D3*
X16155550Y4385380D3*
Y4522190D3*
X12626220Y7360110D3*
X1376680Y2682680D3*
Y6459570D3*
X17313270Y1989420D3*
X17293550Y2877340D3*
X17211950Y3036760D3*
X19145120Y5481900D3*
X18983190Y7952310D3*
X11301470Y7161180D3*
X2129070Y2537030D3*
X19080030Y6923820D3*
X11281800Y8320370D3*
X15060320Y7141960D3*
X17399190Y7956450D3*
X17574680D3*
X3513440Y4092700D3*
X2249650Y3936850D3*
X12206290Y7619560D3*
X18478600Y1816930D3*
X17609350D3*
X14461440Y8753960D3*
X3199930Y4016250D3*
X2711320D3*
Y3699670D3*
X2446890D3*
X8344980Y4521810D3*
X16637780Y8331910D3*
X15461100Y8393150D3*
X16637780Y7803560D3*
X14022030Y7771420D3*
X14121700Y8211970D3*
X7389170Y4292290D3*
Y4428210D3*
X3423433Y4133950D3*
X16155550Y4709570D3*
X14265460Y8211970D3*
X16637780Y8066650D3*
X14742350Y5062080D3*
X11860740Y4378410D3*
X17029790Y4625470D3*
X8344980Y4807470D3*
X3779280Y4116250D3*
X14717340Y4387050D3*
X14276940Y4896570D3*
X12619090Y7591180D3*
X12619080Y7461180D3*
X14259520Y2248770D3*
X14454520D3*
X2828680Y5845730D3*
X15898070Y7386200D3*
X6659800Y7804470D3*
X7265250Y1722140D3*
X18774080Y1682570D3*
X14349520Y1647290D3*
X8931780Y1321670D3*
X2759160Y7013000D3*
X10953880Y5011490D3*
X10176970Y5317180D3*
X17192080Y2578960D3*
X13821250Y7735700D3*
X10031970Y5317180D3*
X9095630Y2088150D3*
X8996780Y1829990D3*
X19242820Y5642290D3*
X17035440Y1290240D3*
X16012190Y1239900D3*
X13823330Y1071670D3*
Y1281670D3*
X13848330Y1647290D3*
X14169520D3*
X15203110Y8237140D3*
X11008950Y1231680D3*
X11108780Y4054520D3*
X17931330Y8553190D3*
X2828680Y6452230D3*
X14284640Y4782910D3*
X6564520Y7446810D3*
X19242820Y5832710D3*
X7265250Y1434200D3*
X8996780Y1485260D3*
X3019440Y7587770D3*
X10110610Y7807570D3*
X6450400Y4376190D3*
X14121930Y4515300D3*
X17070440Y1925950D3*
X18778040Y5015400D3*
Y5376490D3*
X2647680Y3615440D3*
X3439690Y7395290D3*
X16929770Y3269470D3*
X16471640Y3112340D3*
X2647680Y3013200D3*
X4184230Y4261480D3*
X16849610Y5186450D3*
X2363960Y3013200D3*
X11437410Y4323540D3*
X2647680Y3144370D3*
X11517390Y7989910D3*
X12058620Y8119900D3*
X1905960Y6655210D3*
X1692590Y8116130D3*
X11696060Y1581020D3*
X4264410Y3081330D3*
X3225920Y1321670D3*
X20238190Y2093610D3*
Y1526250D3*
X12262350Y2159080D3*
X5959210Y3950070D3*
X18153600Y2178790D3*
X18088530Y2540010D3*
X15781410Y2680530D3*
Y2415980D3*
X4201010Y3698380D3*
Y3222860D3*
X5801110Y4909800D3*
X16929770Y3543530D3*
X11628090Y3100750D3*
X1917010Y4076800D3*
X5801110Y3950070D3*
X7259170Y4744790D3*
X1905960Y5961650D3*
X11104320Y4857690D3*
X16332060Y5056460D3*
X16096090Y5097090D3*
X17831890Y7397280D3*
X16914900Y3139460D3*
X15370600Y7972610D3*
X15571930D3*
X16702780Y8266910D3*
X9654450Y5051110D3*
X10318920Y1646020D3*
X11541060D3*
X11764280Y1266680D3*
X2723680Y5221270D3*
X15264380Y1598430D3*
X1674140Y7860510D3*
X1895760Y6899360D3*
X19314300Y8589770D3*
X3692850Y5251260D3*
X10188290Y1993670D3*
X2723680Y6720210D3*
X2737670Y2403150D3*
X16995450Y4886020D3*
X12209820Y1483170D3*
X20243440Y6276530D3*
X20207860Y6528030D3*
X16939610Y5264920D3*
X3692850Y5473890D3*
X6280400Y5031320D3*
X14104510Y1492300D3*
X15028620Y5031250D3*
X20207860Y6978020D3*
X2737670Y3521760D3*
X4705700Y1216680D3*
X5071770D3*
X11017520Y5076490D3*
X15701050Y4648900D3*
X15965060Y4456660D3*
X20153110Y4761130D3*
X2102470Y8025970D3*
X16669480Y2301140D3*
X17625380Y1946930D3*
X16879420Y8513300D3*
X16450040Y1718900D3*
X16330510Y2106140D3*
X8294400Y1578510D3*
X7895570Y1611890D3*
X7729230D3*
X6542680Y1306680D3*
X15764420Y2285980D3*
X12870520Y5141660D3*
X19261350Y4457750D3*
X2850820Y1531670D3*
X15440690Y2285980D3*
X13598440Y7841340D3*
X19375240Y1592440D3*
Y1751930D3*
X19065530D3*
X6929350Y5466680D3*
X19294120Y3875360D3*
X14211940Y4580300D3*
X20065930Y5993970D3*
X7753410Y7652460D3*
X7075170Y3015430D3*
X15184520Y4633410D3*
X10595380Y7221060D3*
X15184520Y4451150D3*
X2372020Y4816670D3*
X6699960Y1817160D3*
X15204490Y4001470D3*
X13307260Y5246680D3*
X13556960Y5164480D3*
X3524500Y3976250D3*
X14675390Y7257220D3*
X19080120Y6027710D3*
X14438980Y7256250D3*
X20292410Y4387630D3*
X18888030Y4160440D3*
X19481350Y3743700D3*
X20167510Y3395890D3*
X1071670Y7500480D3*
X5043980Y3888220D3*
X5135360Y2661530D3*
X6593990Y3006320D3*
X17353270Y1846330D3*
X14712560Y1622300D3*
X15841600Y1412290D3*
X3413680Y1506670D3*
X16383950Y7868560D3*
X1608430Y3650190D3*
X19080120Y6418100D3*
X19481350Y3603700D3*
X4707770Y8723120D3*
X8305770Y8411130D3*
X17109310Y1657560D3*
X18409970Y4438830D3*
X17288950Y4067510D3*
X1298070Y7500480D3*
X20075270Y4052450D3*
X18888030Y4449060D3*
X14995320Y7257220D3*
X19481350Y4046280D3*
X4470580Y8723120D3*
X1608430Y3071920D3*
X16383950Y7310160D3*
X7426590Y8262790D3*
X3269270Y3431510D3*
X16584280Y4067510D3*
X19080120Y6178180D3*
X18031380Y3166620D3*
X15592150Y7274760D3*
X2579580Y8245740D3*
X18603090Y5274200D3*
X19635510Y8278060D3*
X14374540Y4253930D3*
X15861030Y7781880D3*
X6055440Y8362580D3*
Y7935860D3*
X6765240Y7334750D3*
X12485480Y1613620D3*
X11961960Y4784050D3*
X18603090Y5178490D3*
X8082280Y5237300D3*
X8343470Y5446040D3*
X20126730Y8054610D3*
X19635510Y8094190D3*
X13913330Y1281670D3*
X3491570Y8068610D3*
X14192590Y1954060D3*
X17899960Y7741200D3*
X3917010Y5233200D3*
X13147240Y4779050D3*
X2681620Y7839740D3*
X15592150Y7773830D3*
X17426510Y8329220D3*
X8779910Y8609160D3*
X13469390Y2219090D3*
Y1715590D3*
X2709570Y8144860D3*
X18084220Y8098440D3*
X8247060Y3093330D3*
X11821890Y1571140D3*
X18788190Y7745390D3*
Y8076740D3*
X9219360Y5079860D3*
Y4773480D3*
X6895810Y1407230D3*
X6745780Y1358890D3*
X5006770Y1343170D3*
X13808420Y4202570D3*
Y4070650D3*
X18823030Y4512700D3*
X17801280Y2103800D3*
X5444170Y7794130D3*
X14817800Y1966800D3*
X14623880D3*
X14434850Y1978710D3*
X7112080Y1590490D3*
X18125860Y4437950D3*
X16510510Y2145950D3*
X17819330Y5081020D3*
Y4520470D3*
X2565960Y8375740D3*
X2839700Y8628720D3*
X5311980Y8251380D3*
X10397270Y5148560D3*
X10567830Y5238610D3*
X13886250Y8272160D3*
X2488060Y3463020D3*
X19440720Y6560370D3*
X19818690Y4930510D3*
Y4793620D3*
X12141290Y7118460D3*
X7279380Y7701630D3*
X7971630Y7423240D3*
X5478630Y3803800D3*
Y4473960D3*
X7361440Y7263030D3*
X5925520Y7166700D3*
X12011300Y7924910D3*
X15246460Y1959280D3*
Y1733490D3*
X15604850D3*
X15896600D3*
X5465690Y7116700D3*
X3307060Y1590790D3*
X5949500Y4774230D3*
X19920460Y7530560D3*
X6965170Y4049050D3*
X17851630Y4003530D3*
X19896680Y4728620D3*
X12011300Y7605950D3*
X11129580Y7526610D3*
X17851630Y3477790D3*
X4789840Y5042520D3*
X5925520Y4473960D3*
X3848300Y1344590D3*
X14265300Y7991990D3*
X6982080Y1655480D3*
X17553020Y5016020D3*
X6514030Y8107210D3*
X5984460Y7762480D3*
X16446630Y3695340D3*
X15635690Y2980870D3*
X14757340Y4812910D3*
X4707770Y7399780D3*
Y8604000D3*
X4347730D3*
X3889230Y8588980D3*
X2993670Y8473720D3*
X12483330Y5320680D3*
X8818270Y4183350D3*
X8904970Y4368350D3*
X11901510Y4014030D3*
X19412820Y7700560D3*
X19357830Y8189190D3*
X12221960Y5380730D3*
X1447080Y2617680D3*
Y5438220D3*
X10316330Y7570850D3*
X10802140Y7411120D3*
X16016020Y7917120D3*
X16662790Y8647250D3*
X1447080Y8803120D3*
X2669600Y8473720D3*
X9064350Y4573000D3*
X14812800Y2973800D3*
X12553830Y5076660D3*
X6982080Y1556660D3*
X17346380Y7594550D3*
X1447080Y6883780D3*
X16446630Y3377330D3*
X11231730Y4386090D3*
X17048210Y7594550D3*
X17558070Y7610290D3*
X6763600Y1729080D3*
X17553020Y4625470D3*
X19131380Y3983300D3*
X11170370Y7331790D3*
X11094300Y1151680D3*
X8747430Y7587460D3*
X12298320Y4071910D3*
X17559400Y7414460D3*
X11094300Y1894830D3*
X5972460Y4321930D3*
X6019870Y4120070D3*
X12209830Y3034460D3*
X14868050Y1514910D3*
X16053280Y4162040D3*
X10140800Y1581790D3*
X10203960Y3872290D3*
X11890540Y7695950D3*
X1769260Y5283320D3*
Y6750940D3*
X18024050Y3465800D3*
X8440440Y5458610D3*
X20343110Y5294580D3*
X4950960Y3454180D3*
X7903410Y8062860D3*
X1777440Y5101580D3*
Y4653070D3*
X2294600Y2046630D3*
X15294490Y4022590D3*
X15257320Y4230470D3*
X15119520D3*
X19311340Y4642700D3*
X19443680D3*
X19598670Y4837700D3*
X7140170Y3894060D3*
X2294600Y1636950D3*
X13157660Y7620640D3*
X11281230Y4715350D3*
X16116340Y3914810D3*
X11279270Y4943520D3*
X20333370Y8097280D3*
X15822420Y3914810D3*
X19598670Y4945510D3*
X5850440Y7906150D3*
X18010500Y3689350D3*
X11890540Y7283500D3*
X5124280Y4642360D3*
X15369290Y1992150D3*
X15119520Y4569770D3*
X4759880Y4912520D3*
X12241320Y7859910D3*
X14329100Y8284830D3*
X19439050Y7317890D3*
X1648430Y3266920D3*
X10204730Y7263420D3*
X18363600Y2355020D3*
Y2208790D3*
X18243600Y1881930D3*
X17483270Y1657560D3*
X10932140Y7927150D3*
X1691720Y3585190D3*
X4863630Y3132200D3*
Y2682690D3*
X10748920Y4392940D3*
X18642140Y2355020D3*
Y2549900D3*
X13559690Y1071670D3*
Y1289010D3*
X13649690Y1419010D3*
X11465250Y1360510D3*
X19702740Y7018000D3*
Y6539970D3*
X12318370Y7495960D3*
X1691720Y4106590D3*
X12141320Y7859910D3*
X4645690Y5261780D3*
X2788680Y4684710D3*
X2658770Y4170620D3*
X8140850Y1497310D3*
X10748920Y4110600D3*
X12318370Y7330950D3*
X10308070Y7857220D3*
X4677320Y3702150D3*
X6159870Y2067570D3*
X8015430Y1660360D3*
X16235120Y8563150D3*
X10670120Y1946020D3*
X1993740Y7294330D3*
X2035960Y6002170D3*
X6674930Y2922980D3*
X11773240Y3020480D3*
X15500600Y7506170D3*
X7730590Y1161850D3*
X20564980Y5919290D3*
X19210120Y5546490D3*
X19712260Y2988020D3*
X19095750Y1435280D3*
X9104310Y1111670D3*
X16235120Y8138920D3*
X8067650Y1111670D3*
X19615270Y2371540D3*
X13116530Y7842850D3*
X20238190Y2224950D3*
X3369930Y4819120D3*
X12792490Y5289370D3*
X20307870Y1443510D3*
X18868040Y5015400D3*
X8191620Y7213450D3*
X16155130Y7610020D3*
X16235120Y8287680D3*
X20320140Y3038450D3*
X19001540Y5571890D3*
X5990440Y8200770D3*
X16155130Y7983920D3*
X19742120Y2695600D3*
X13821250Y7482620D3*
X14127080Y7364400D3*
X4408080Y5147520D3*
X3184930Y1981630D3*
Y1851630D3*
X4186020Y1899570D3*
Y2142560D3*
X8728120Y3993940D3*
X18094960Y7452270D3*
X17896890Y7492270D3*
X16637780Y7634550D3*
X14687800Y2206060D3*
X14699970Y1752300D3*
X8554420Y2082790D3*
X10184150Y4174770D3*
X10072310Y3887740D3*
X9788960Y2032780D3*
Y2202780D3*
X10181770Y4829510D3*
X18918190Y7740560D3*
X2070990Y3909860D3*
X4893200Y7183590D3*
X19015030Y6508100D3*
X2064070Y2220490D3*
X6837730Y7198030D3*
X11560820Y2086750D3*
Y1916410D3*
X7103320Y8122340D3*
X13000520Y2065450D3*
X14687800Y2036060D3*
X9044010Y4074790D3*
X16685800Y3247330D3*
X14697800Y2973800D3*
X16627980Y4863630D3*
X9688200Y3887740D3*
X7538330Y3838420D3*
X4893200Y7965380D3*
X19015030Y7534620D3*
X2070170Y3199320D3*
X6837730Y7505380D3*
X4276020Y2206200D3*
X10750050Y4482940D3*
X10772000Y4755980D3*
X10783890D3*
X13808870Y5427580D3*
X10783890Y5141490D3*
X5723250Y3362060D3*
X5826400Y2003200D3*
X19021110Y2699220D3*
Y2973030D3*
X19590270Y3109160D3*
X18088530Y2810590D3*
X13278790Y5456280D3*
X16874320Y7764550D3*
X5826400Y2152580D3*
X19905270Y3741200D3*
X4853200Y8055380D3*
X4359740Y8025660D3*
X7990490Y2047960D3*
X11612290Y8054900D3*
X2549470Y1256670D3*
X3160920D3*
X15541110Y4763410D3*
X19798480Y4283570D3*
X17552010Y3289970D3*
X17700230Y4168120D3*
X9386760Y4572990D3*
X10608110Y1513620D3*
X19800270Y3349320D3*
X15541110Y5190200D3*
X11492390Y5473460D3*
X3746190Y3053640D3*
X8137680Y8417780D3*
X3759690Y1546440D3*
X14963620Y4842150D3*
X5088200Y8389580D3*
X3214560Y8609740D3*
X18214910Y5238280D3*
X7426450Y8457780D3*
X9988200Y4387990D3*
X9853960Y2266420D3*
X10011020D3*
Y1646790D3*
X7855430Y3083220D3*
X15987630Y5399410D3*
X16637780Y5345140D3*
X12852430Y8901140D3*
X9850640Y8675900D3*
X17185320Y5173140D3*
X16849610Y5406450D3*
Y5276450D3*
X6124870Y3087790D3*
X4251010Y2336200D3*
X3124430Y5650560D3*
X3892760Y2207560D3*
X11998820Y7153500D3*
X4178730Y2588730D3*
X19372820Y5697630D3*
X19383710Y7570560D3*
X20061730Y8381380D3*
Y8876130D3*
X14081070Y8796130D3*
X17120320Y5314580D3*
X17074770Y3856450D3*
X1311670Y5348320D3*
Y4747550D3*
X7869760Y5172300D3*
X17470280Y2906760D3*
X5253200Y7732840D3*
X14081070Y8443270D3*
X7988530Y4025930D3*
X16764900Y3856450D3*
X7646590Y7954400D3*
X3212760Y8519740D3*
X15986340Y3777030D3*
X16116340Y3646480D3*
X16621250Y3521710D3*
X20437870Y2223590D3*
X16509410Y1304900D3*
X16916340D3*
X10455120Y2181170D3*
X8241590Y2914800D3*
X7764840Y3993420D3*
X2904690Y8407210D3*
X3040533Y6458133D3*
X4108300Y1611440D3*
X17686900Y7976210D3*
X4005750Y4438400D3*
X15322320Y4820890D3*
X17621400Y4068530D3*
X4289630Y8321810D3*
X12444050Y2224080D3*
X12469050Y3848530D3*
X7180170Y3984060D3*
X14743440Y3984770D3*
Y4152590D3*
X3827020Y4785150D3*
Y5168200D3*
X3539690Y3199390D3*
Y2708070D3*
X3824720D3*
X2984530Y6948000D3*
X2977067Y6712000D3*
X17422010Y3610620D3*
Y3785340D3*
X17817420Y5345160D3*
X16719900Y3560330D3*
X15405020Y4152590D3*
X7170430Y5296690D3*
X17620440Y3785340D3*
X17829360Y4430470D3*
X4289630Y7648910D3*
X19143190Y8654770D3*
X19477820Y7764200D3*
X6254870Y1914960D3*
X20357400Y4857350D3*
X19540180Y1992060D3*
X19327450Y3513710D3*
Y2883020D3*
X20256490Y3835040D3*
Y3233450D3*
X20238190Y3103450D3*
X20173190Y2883020D3*
X18908330Y1909070D3*
X4346020Y1496450D3*
X4534460Y1469810D3*
X13357250Y2935240D3*
X6900170Y4309030D3*
X19440230Y2664390D3*
X19507750Y6690380D3*
X20102920Y6790380D3*
X3455600Y4633670D3*
X13278220Y4784010D3*
X3712680Y1346680D3*
X19700510Y7989610D3*
X20361090Y5204580D3*
X13212240Y5019700D3*
X6600880Y1436670D3*
X9040410Y8329310D3*
X9276500Y5286450D3*
X3746610Y5015160D3*
X19507750Y6093230D3*
X5080730Y1678530D3*
X17671270Y2979950D3*
X5080730Y2239360D3*
X3627160Y2045500D3*
X9045690Y3002920D3*
X10113960Y2994810D3*
X3184930Y3871250D3*
X5924810Y1411680D3*
X3314650Y1810880D3*
X18024360Y5041020D3*
Y4911010D3*
X17365700D3*
X16994610Y4755470D3*
X6805810Y1488890D3*
X5578250Y3156500D3*
X1851710Y2252130D3*
X4896920Y3222200D3*
X4928630Y2418320D3*
X3314650D3*
X20108190Y2517500D3*
X20238190D3*
Y2818020D3*
X7829760Y4640330D3*
X12650610Y2939750D3*
X1652090Y5653710D3*
X15249520Y4321140D3*
X9586760Y7909970D3*
X12062750Y1912060D3*
X15714370Y1477290D3*
X16679910Y2616250D3*
X16142190Y1360290D3*
X1949510Y4365690D3*
X5924810Y1643490D3*
X7923420Y3018220D3*
X15249520Y5480580D3*
X16616630Y3903210D3*
X3184930Y2195040D3*
X16724770Y4928630D3*
X1851710Y3996100D3*
X12590460Y2249090D3*
X16549410Y1730410D3*
X9489280Y7276040D3*
X9624290Y8039970D3*
X9400300Y8248290D3*
X16213210Y2630530D3*
X18092420Y5379670D3*
X19826710Y5903980D3*
X19659590D3*
X18536810Y8526540D3*
X12767740Y7752840D3*
X9094380Y8848670D3*
X16570230Y2335220D3*
X8424400Y1986680D3*
X4724240Y2815330D3*
Y2620330D3*
X3978300Y1408170D3*
X16241590Y8048920D3*
X12197920Y1749190D3*
X5730930Y4809610D3*
X2862850Y2198860D3*
Y1706730D3*
X18713040Y4950400D3*
X18289070D3*
X9915640Y8188180D3*
Y7771360D3*
X4128260Y3632750D3*
X4274230D3*
X18918190Y7374810D3*
X18164620Y3940610D3*
X4274230Y4284130D3*
X9915640Y7974970D3*
X8888800Y1878480D3*
X13863240Y3040950D3*
X4450430Y2620330D3*
X18270930Y4632080D3*
X18536810Y7806210D3*
X5889050Y2966310D3*
X13434250Y3040950D3*
X9946020Y1306200D3*
X3426570Y7825360D3*
X16278950Y7658270D3*
X18743350Y7374810D3*
X6408520Y1933320D3*
X1233070Y8320690D3*
X9793200Y4322990D3*
X10118200Y4405670D3*
X19091240Y4670410D3*
X19655220Y4707700D3*
X19865280Y4187490D3*
X17769850Y8571010D3*
X8644080Y2988350D3*
X6214490Y4488740D3*
X16885710Y7280530D3*
X9829720Y4730670D3*
X14021310Y4956660D3*
X2562320Y5196510D3*
X2516210Y4302360D3*
X6019880Y7308940D3*
X1246670Y3136920D3*
X17473010Y4694900D3*
X19307820Y7830560D3*
Y7187890D3*
X4577770Y7744750D3*
X14404640Y4956450D3*
X6019880Y4538960D3*
X6214490Y4398740D3*
X20041730Y1935430D3*
X11776290Y8253860D3*
X5541130Y8121380D3*
X19865280Y3982350D3*
X2522610Y4735760D3*
X6019880Y4844800D3*
X14404640Y5297080D3*
X10446920Y4730670D3*
Y4429220D3*
X13005780Y7381180D3*
X15922630Y5467590D3*
X1246670Y4964690D3*
X4577770Y8121380D3*
X8644080Y4456160D3*
X13638870Y5449820D3*
X11374770Y4971500D3*
X8849010Y4058940D3*
X8719540Y2082760D3*
X11688470Y4775970D3*
X8552430Y7125040D3*
X9015710Y8420100D3*
X8930650Y2143740D3*
X7578330Y3928420D3*
Y4496830D3*
X13072700Y2958970D3*
X12705440Y3095650D3*
X2994680Y8252210D3*
X17989330Y5444670D3*
X11374770Y8320370D3*
X12691220Y7934740D3*
X10528110Y1461200D3*
X18537610Y7699820D3*
X18364940Y3391620D3*
X2932670Y1837360D3*
X13580820Y4946650D3*
X15767630Y4521660D3*
X5547980Y3374640D3*
X14171070Y8349830D3*
X13951270Y8765280D3*
X13460870D3*
X2658680Y4859680D3*
X2883750D3*
X13143990Y1616240D3*
X19677120Y1294670D3*
X19672260Y2852800D3*
X18931110Y2842020D3*
Y2990790D3*
X18472810Y4120440D3*
X9915640Y8537240D3*
X14329100Y8145070D3*
X2814580Y7379790D3*
X13143990Y1751530D3*
X12363320Y4453940D3*
X2999730Y2884270D3*
X5547980Y4629000D3*
X3044710Y4403240D3*
X18538090Y5416820D3*
X1363530Y1883710D3*
X14357130Y1492300D3*
X14277080Y1298340D3*
X9251300Y4683480D3*
Y4201710D3*
X14888680Y1347290D3*
X5691530Y1616430D3*
X15435600Y7104760D3*
X2997670Y2630420D3*
Y2263310D3*
X15766750Y8345030D3*
Y7376170D3*
X10011020Y1436200D3*
X9796590D3*
Y1763860D3*
X11530250Y1289300D3*
X8064580Y7522360D3*
X18823030Y4371240D3*
Y3920770D3*
X18363940Y1527420D3*
Y1080240D3*
X19551250Y4374430D3*
X16320000Y1891020D3*
Y1571620D3*
X20043190Y2093610D3*
X17443270Y2613210D3*
X17231090Y1657560D3*
X4782320Y2976330D3*
X5844150Y1578490D3*
X14518160Y5024330D3*
X17231090Y1527420D3*
X20472860Y2356110D3*
X4645680Y5147650D3*
X6570990Y1993980D3*
X20043190Y2356110D3*
X4655930Y4105450D3*
X9621620Y1763860D3*
X20043190Y3330890D3*
X11859310Y4209030D3*
X11567410Y4218550D3*
X11361730D3*
X12043930Y1417440D3*
X12575480Y1548620D3*
X12774990D3*
Y1864610D3*
X13718930Y1888040D3*
X9857270Y4969520D3*
X6319870Y1396680D3*
X13933050Y8036690D3*
X9870700Y7278420D3*
X8913340Y7266150D3*
X8682430Y7367310D3*
X7922020Y7236700D3*
X13974520Y2290130D3*
X14389520Y2079280D3*
X14192070Y7429400D3*
X16230000Y1437030D3*
X20489880Y2868920D3*
X20473110Y5854290D3*
X14118580Y4605300D3*
X17649330Y4441950D3*
X19843700Y1526250D3*
X4861540Y1640650D3*
Y2483740D3*
X20473110Y6423680D3*
X3097320Y6289980D3*
X2818760Y5411260D3*
X17034610Y4453770D3*
Y4157510D3*
X16441320D3*
X2818760Y5001800D3*
X2785820Y1636300D3*
X3119930Y3533720D3*
X6832410Y4179030D3*
X11026400Y4792690D3*
X13718930Y2290130D3*
X15457320Y1882350D3*
X13891310Y4752220D3*
X14105930D3*
X19843700Y2452500D3*
X6453940Y1702700D3*
X15812500Y3346480D3*
X4023270Y2328320D3*
X14857800Y2285980D3*
X13213220Y4192570D3*
X11216800Y8390880D3*
X16318140Y5449260D3*
X18846560Y2330010D3*
X12120720Y4443410D3*
X15435600Y7798830D3*
Y7441170D3*
X15831750Y7206170D3*
X4958200Y7889600D3*
Y8039770D3*
X15832630Y4619580D3*
X16604480Y1884000D3*
X17228550Y2433630D3*
Y2236140D3*
X16330410Y4914670D3*
X5281710Y4884590D3*
X5008080Y4977520D3*
X16092890Y2350980D3*
X4364230Y4076930D3*
X4256020Y1561450D3*
X13408020Y4799700D3*
X18578500Y2926210D3*
X8644080Y4617770D3*
X8919390Y4631610D3*
X4281400Y2903300D3*
X4266970Y3435600D3*
X4255800Y2678720D3*
X16604480Y2236140D3*
X4170880Y7728630D3*
X8342070Y5018560D3*
X15832630Y5111950D3*
X5281710Y5231150D3*
X16031090Y5162090D3*
X6965940Y4811160D3*
X14143040Y5167080D3*
X16031090Y4914670D3*
X18578500Y2634220D3*
X12076290Y7217140D3*
X13419670Y4709700D3*
X13213220Y3848370D3*
X16505230Y2480980D3*
X12042230Y3991400D3*
X11769310Y3928400D3*
Y4144030D3*
X6417460Y5228150D3*
X5610390Y5247440D3*
X12734990Y1419010D3*
X19667390Y8432920D3*
X17191380Y7464560D3*
X14987800Y1817350D3*
Y2155980D3*
X18936210Y3530800D3*
X9322140Y2929810D3*
X5311990Y8479570D3*
X5023200D3*
X19863540Y6913000D3*
X3939340Y8198610D3*
X8914010Y4278350D3*
X9110690Y2928550D3*
X8804360Y4937470D3*
X5660400Y4874610D3*
X5495120Y4909590D3*
X17634930Y8066210D3*
X13652910Y4816650D3*
X2186510Y7238380D3*
X8698250Y8432260D3*
X14811620Y8250070D3*
X18088890Y8001210D3*
X18341810D3*
X4926130Y4668720D3*
X4796130D3*
X4226010Y4763650D3*
X19242830Y8810760D3*
X1311680Y2178300D3*
Y4523070D3*
X11557870Y4610760D3*
X5505400Y4819590D3*
X18341810Y8656540D3*
X18936210Y3685140D3*
X3426570Y7916320D3*
X4226010Y4633650D3*
X14811620Y8623960D3*
X16024840Y2020450D3*
X13524670Y4055560D3*
X13624680Y1823040D3*
X13004370Y1799610D3*
X2380320Y8180740D3*
X19553490Y7093630D3*
X17560520Y7179050D3*
X12700820Y5149210D3*
X10866970Y3868620D3*
X14574770Y1282290D3*
X3913300Y1278170D3*
X20372870Y1656250D3*
X1756720Y4430690D3*
X1512080Y6957930D3*
X20537870Y2586860D3*
X16969420Y8464930D3*
X12746880Y8404800D3*
X13045780Y8337160D3*
X13756250D3*
X14209600Y3871400D3*
X15822420Y4127580D3*
X15642040D3*
X4069340Y7399780D3*
X1612100Y5094690D3*
X1512080Y6368470D3*
X20372870Y1210240D3*
X18989890Y1305280D3*
X12853840Y1613610D3*
X4445570Y8224040D3*
X5995440Y7440560D3*
X17164080Y1355240D3*
X4958200Y8652160D3*
X7627890Y2191360D3*
X17168200Y7179050D3*
X17380140Y1305280D3*
X14574770Y1136680D3*
X7328890Y1369200D3*
X16051340Y3984070D3*
X15642040Y4375210D3*
X7994580Y8352780D3*
X12700820Y3989530D3*
Y4466190D3*
X13756250Y7670700D3*
X5612980Y3763600D3*
X15756030Y8563150D3*
X14267330Y7646430D3*
X11129580Y8230380D3*
Y7670950D3*
X14931680Y7332260D3*
X16345410Y2730530D3*
X7897650Y1394400D3*
X4575570Y7650060D3*
X13224950Y2175460D3*
X18004960Y7427270D3*
X10288420Y4820670D3*
X10462270D3*
X10743150Y7181060D3*
X15934840Y2016870D3*
X6189870Y1346680D3*
X5618250D3*
X17765230Y3297160D3*
X17612270Y2036930D3*
X17801270Y3019950D3*
X14986100Y7901870D3*
X7665590Y1539200D3*
X11470820Y2046410D3*
X8894100Y2979800D3*
X10533660Y5394820D3*
X18153890Y7696740D3*
X16011410Y2730530D3*
X3545590Y4698670D3*
X3479120Y4949120D3*
X3711300Y4853670D3*
X13314950Y1950890D3*
X12479450Y8574800D3*
Y8383860D3*
X5383250Y1820760D3*
X4659240D3*
Y2685330D3*
X4360800D3*
X13162250Y3071050D3*
X3947680Y2798300D3*
X17959360Y5314670D3*
X15150320Y7901870D3*
X4144230Y4126670D3*
X8812210Y1813470D3*
X9994790Y8741460D3*
X10242310Y4044770D3*
X9163480Y4009790D3*
X17566920Y8567690D3*
X10434910Y7108420D3*
X10019430D3*
X15934840Y2216870D3*
X9994790Y7441900D3*
X6540400Y4356540D3*
X5360940Y4256930D3*
X16509910Y2982340D3*
X8252070Y5018100D3*
X8176600Y4046090D3*
X17753730Y2765020D3*
X19000530Y2038790D3*
X19525270Y2103330D3*
X3119410Y5316260D3*
X3512420Y4248950D3*
X5989860Y1800610D3*
X5835310Y1888540D3*
X13931320Y5141670D3*
Y4893020D3*
X13752920Y5106660D3*
X8633240Y8674160D3*
X7312380Y8497780D3*
X16509910Y2812340D3*
X6927730Y8268390D3*
X10539760Y1881020D3*
X7640540Y4867130D3*
X7523600Y5163160D3*
X10538920Y3937290D3*
X15585460Y2016870D3*
X15844840D3*
X2211000Y5066800D3*
X2983690Y5066510D3*
X19880870Y4348570D3*
X19629160Y3746600D3*
X19800270D3*
X10477810Y7371540D3*
Y7504990D3*
X6312650Y8495450D3*
X2121000Y5429330D3*
X10294730Y7182080D3*
X13866310Y3879550D3*
X6877730Y8495450D3*
X5360940Y4949590D3*
X5570390Y5097340D3*
X15240600Y7579500D3*
X19525270Y2367500D3*
X6680050Y5163150D3*
X8950710Y7506900D3*
X5448250Y1888540D3*
X14928100Y8508270D3*
X19697470Y3391940D3*
X5360940Y3584480D3*
X14416130Y4782910D3*
X11784050Y4283540D3*
X5200320Y4173600D3*
X5285160Y3066510D3*
X5658250D3*
X16246340Y3407550D3*
X8982210Y2273740D3*
X8306880Y2256360D3*
X7925310D3*
X2929680Y7758030D3*
Y7989380D3*
X8497060Y3028330D3*
X18074590Y4527950D3*
X18454960Y4577700D3*
X18363600Y3010040D3*
X5673590Y1978780D3*
X5578250Y2182570D3*
X18870530Y2143790D3*
X10479730Y4102260D3*
X8497060Y3908640D3*
X2774570Y7989380D3*
X7744660Y7807440D3*
X7426440Y7177370D3*
X10932140Y7837150D3*
X10373070Y7778450D3*
X2690790Y4273230D3*
X20108190Y3119380D3*
X12287920Y1701140D3*
X15470030Y4698410D3*
X15659790Y4037580D3*
X15887420Y4049070D3*
X2593680Y6184980D3*
X20173190Y1275240D3*
X10878880Y3009220D3*
X9918960Y2929810D3*
X7725570Y2059700D3*
X2449580Y7989380D3*
X1989520Y1965400D3*
X1821720D3*
Y1424430D3*
X2701430Y1424560D3*
X10118210Y4495670D3*
Y4652990D3*
X2053970Y8634780D3*
X7725570Y2256360D3*
X17916630Y3870360D3*
X15988280Y4254800D3*
X16323400Y3968210D3*
X3486950Y1676880D3*
X20173190Y2158600D3*
X1989520Y3763660D3*
X10344790Y3001680D3*
X5658250Y2516530D3*
X14204540Y4073600D3*
X10513200Y4495670D3*
X9691740Y7844970D3*
X9752270Y5346800D3*
X2449580Y6274400D3*
X2528680Y5345860D3*
X18454960Y5228650D3*
X20538110Y6665390D3*
X12917430Y8805280D3*
Y8635280D3*
X2259420Y2177190D3*
Y2871770D3*
X3367480Y2720420D3*
X9300910Y7419630D3*
X9335300Y8325820D3*
X3367480Y3488270D3*
X7047080Y2154600D3*
X17326380Y7309050D3*
X3539690Y3289390D3*
X19703670Y5218990D3*
X10432700Y8359200D3*
X17256380Y7889910D3*
X18445860Y3191380D3*
Y2282010D3*
X17099100Y5108140D3*
X3654140Y8133610D3*
X19505720Y6853790D3*
X4772560Y1733350D3*
X10384280Y7323740D3*
X7299170Y5426690D3*
X17931270Y2282010D3*
X7047080Y1917960D3*
X17389210Y5108140D3*
X7517230Y5426690D3*
X19597740Y6401110D3*
X7987670Y1917960D3*
X5894230Y4151930D3*
X4594240Y3289090D3*
X13643200Y8614800D3*
X13370880Y8828920D3*
X12912150Y7111430D3*
X5553250Y1692630D3*
X19339700Y2013330D3*
X19830510Y8541700D3*
X19564160Y3813700D3*
X17544500Y5379580D3*
Y5106020D3*
X16931550Y5471910D3*
X16904260Y8070150D3*
X17256380Y8180530D3*
X12529200Y4518940D3*
X10382560Y1576430D3*
X12365560Y5235510D3*
X9235910Y8073060D3*
X13343030Y5019700D3*
X18407810Y3940620D3*
X3608680Y2210040D3*
X2864680Y8317210D3*
X2579590Y7145530D3*
X13110780Y8443680D3*
X3224410Y5928230D3*
X18159070Y4981970D3*
X19499610Y4225440D3*
X13678200Y8414690D3*
X3608680Y2523730D3*
X13529910Y4287120D3*
X17361510Y8180530D3*
X3608680Y2790980D3*
X18407810Y4306240D3*
X5318250Y2752770D3*
X2290380Y7145530D3*
X2280370Y5928230D3*
X12505800Y4097570D3*
X6350010Y3880670D3*
X19339700Y2434070D3*
X3620520Y4246100D3*
X10378420Y4560670D3*
X15818780Y4217580D3*
X16476280Y5009270D3*
X5729710Y1432300D3*
X5145730Y1950760D3*
X18923510Y3335560D3*
X13717910Y4392120D3*
X14269540Y4367110D3*
X19111770Y2248500D3*
X19508670Y4837700D3*
X19439650Y5898940D3*
X7112080Y1720480D3*
X10251280Y5238560D3*
X18364700Y2920040D3*
Y2500010D3*
X5760450Y7841160D3*
X9154360Y5456450D3*
Y4701090D3*
X8983030D3*
X18951270Y3080790D3*
X11238780Y3975530D3*
X8515250Y4281010D3*
X14573440Y4087590D3*
X11073950Y2228520D3*
X13380290Y8101690D3*
X10869420Y7331790D3*
X7387290Y2087960D3*
X3474690Y3806250D3*
Y3374310D3*
X7562450Y7652460D3*
X19439650Y5220400D3*
X13717910Y4916660D3*
X12653310Y5470680D3*
X8477430Y8215590D3*
X19111770Y2509900D3*
X7534950Y7130940D3*
X7393590Y4162290D3*
X11248250Y2228520D3*
X19026240Y4744000D3*
X3566170Y1769500D3*
X8487430Y7872450D3*
X3445990Y1945430D3*
X7387290Y1850580D3*
X9714290Y8039970D3*
X13348830Y4432530D3*
X9803960Y4232990D3*
X18242190Y8591540D3*
X16385030Y1970030D3*
X15305600Y7169760D3*
X11451230Y4814780D3*
X14993100Y8623960D3*
X1988680Y7763920D3*
X6405390Y8315590D3*
X6120440Y8079470D3*
X14294540Y4138600D3*
X6755940Y3985670D3*
X8666100Y5107750D3*
X5107620Y3953220D3*
X5108980Y2817770D3*
X1311670Y5753080D3*
X2693580Y1714940D3*
X1311670Y6818790D3*
X17231090Y1420240D3*
X16385030Y1506620D3*
X7765570Y1727190D3*
X1858680Y7370490D3*
X1311670D3*
X20458110Y5442690D3*
Y5271380D3*
X2802670Y3014370D3*
X2934730D3*
X8434980Y4937470D3*
X1858680Y7728920D3*
X18298270Y3166390D3*
X18619580Y2143790D3*
X18924890Y1751930D3*
X19627090Y1591250D3*
X11028590Y4209520D3*
X11451240Y4542680D3*
X18112190Y8591540D3*
X4688450Y7118590D3*
X6755940Y4441190D3*
X6971030Y7360150D3*
X15305600Y7668830D3*
X2952890Y4093950D3*
X18866110Y2778380D3*
X7922850Y5428540D3*
X6728330Y8251230D3*
X13291490Y7312620D3*
X14359480Y7581430D3*
X2985040Y8607740D3*
X20433900Y3298450D3*
X7037840Y8050180D3*
X12542790Y1241670D3*
X11996130Y1256680D3*
X11622860Y4685970D3*
X11906320Y7892840D3*
Y8318860D3*
X20140280Y4566130D3*
X20357410Y4476140D3*
X18687070Y8656540D3*
X18431810D3*
X9369990Y7934980D3*
X8176590Y2978440D3*
X2893680Y6119980D3*
X9557230Y8783670D3*
X12699450Y8574800D3*
X18918190Y8019190D3*
X15832630Y5474700D3*
X13598440Y7931340D3*
X14186700Y7911700D3*
X5015960Y4213600D3*
X8499550Y5164020D3*
X18195900Y5379670D3*
X9061780Y1354390D3*
X3119867Y6029733D3*
X19635510Y7831740D3*
X19864350D3*
X20473110D3*
X20408110Y5789290D3*
X20153110D3*
X1970960Y4895950D3*
Y6172280D3*
X9369990Y7720260D3*
X14129520Y2183770D3*
X16098450Y5334410D3*
X14359480Y7901140D3*
X18730770Y8339830D3*
X18738080Y8243580D3*
X19191630Y3592560D3*
X9061780Y1609990D3*
X12524010Y4381490D3*
X12318370Y7215120D3*
X12940780Y7295110D3*
X19211440Y5235410D3*
X19638670Y5153990D3*
X3510060Y7663630D3*
X16305420Y4558990D3*
X13783330Y1557300D3*
X2867670Y2473970D3*
X19221380Y3963280D3*
Y4160440D3*
X14814320Y7440210D3*
Y7936870D3*
X7895570Y2143740D3*
X14730410Y8793960D3*
X4958200Y7464780D3*
X3905900D3*
Y7653220D3*
X16491170Y8498150D3*
X3023680Y6199990D3*
X3194940Y4183950D3*
X6180310Y5394390D3*
X8318470Y7677440D3*
X10542240Y1776020D3*
X11915220Y1826420D3*
X15174380Y1622310D3*
X2952890Y4183950D3*
X15215220Y8498150D3*
X19375230Y2729390D3*
X19735270Y3624960D3*
X2868680Y3223640D3*
X8401720Y2225350D3*
X15396100Y8498150D3*
X19696250Y4122490D3*
X12940780Y7555640D3*
X15174380Y1817350D3*
X16851340Y2080950D3*
X9610950Y4322990D3*
X9651190Y4742990D3*
X9654450Y4652990D3*
Y4925800D3*
X9889980Y5061870D3*
X1146660Y7625110D3*
X19467740Y5988940D3*
X10367700Y8577220D3*
X10645050Y7992150D3*
X17113210Y8657690D3*
X17543290D3*
X19181380Y1549550D3*
X16851340Y2480980D3*
X9318480Y3879790D3*
X9146300Y4266710D3*
X14679350Y7706250D3*
X5292360Y8717160D3*
X17686910Y8657160D3*
X2267030Y4282590D3*
X18764760Y7116740D3*
X2269620Y3570200D3*
X18578090Y4120440D3*
X9667310Y1980620D3*
X19554600Y5507690D3*
X13846530Y7127010D3*
X9304980Y7226150D3*
X17834530Y1657560D3*
X9713400Y7655260D3*
X2448060Y1359430D3*
X16851340Y1592420D3*
X5053170Y7524000D3*
X20173190Y3029380D3*
X10175610Y8253740D3*
X9850640D3*
X9105410Y7226150D3*
X19554590Y5700610D3*
X17605390Y1657560D3*
X14640410Y8623960D3*
Y8250070D3*
Y8115990D3*
X16851340Y1722560D3*
X1543430Y3936080D3*
X9105410Y7655260D3*
X19197450Y3174160D3*
X9776450Y8908120D3*
X20529730Y5507690D3*
X14105160Y7180300D3*
X5665920Y4538960D3*
X15951020Y7716880D3*
X14608980Y7878830D3*
X6174880Y5162340D3*
Y4694000D3*
X15694240Y5257580D3*
X15319870D3*
X1963680Y8229180D3*
X20446770Y3557660D3*
Y5036500D3*
X18953030Y3950440D3*
Y4512700D3*
X19521140Y8621140D3*
X1562090Y6262280D3*
X1970960D3*
X12935520Y4886530D3*
X12962490Y5334380D3*
X16553950Y8201910D3*
X4550430Y1559810D3*
X5093980Y2530640D3*
X14887340Y4217590D3*
X4515430Y3565600D3*
X19810180Y6337320D3*
X20272860Y6398030D3*
X5820390Y5182440D3*
X12340850Y3000930D3*
X4999180Y7334780D3*
X15309670Y3842320D3*
X4004340Y7334780D3*
X1615920Y4286890D3*
X12026960Y4900170D3*
X20272860Y7624820D3*
X19838700Y5229580D3*
X18094930Y7209040D3*
X19284650Y5055400D3*
X1562090Y5468210D3*
X7452230Y4771160D3*
X3845880Y8394000D3*
X19931730Y8496580D3*
X13017240Y5181660D3*
X2194070Y1701950D3*
Y2936770D3*
X3853120Y2987930D3*
X19196240Y4772700D3*
X7741950Y5039690D3*
X5222190Y4266340D3*
X20226530Y4217630D3*
X20063290Y4656130D3*
X20023110Y4879610D3*
X13181530Y7920540D3*
X5220160Y1473160D3*
X16849900Y3391700D3*
X18309620Y3595800D3*
X3904040Y3500600D3*
X3304930Y4909750D3*
X5825440Y7589000D3*
X5253970D3*
X5097350Y8186380D3*
X4761970D3*
X4109340Y8717730D3*
X3711300Y4715710D3*
X3581300Y4788670D3*
X20023110Y5724300D3*
X2500960Y8702410D3*
X1600450Y8739780D3*
X18761110Y3114660D3*
X12935520Y1494640D3*
X7804750Y5243660D3*
X9119440Y7136150D3*
X1605290Y8255690D3*
X17100440Y4379570D3*
X19985460Y7327010D3*
X17024770Y2015950D3*
X18643090Y4830450D3*
X3509680Y8637410D3*
X3378170Y5336640D3*
X3934280Y4025020D3*
X4818450Y7553070D3*
X3904040Y3264270D3*
X5220160Y3440820D3*
X12935520Y3030650D3*
X13017240Y4332050D3*
X3296570Y8003610D3*
D20*
X1622187Y3452180D3*
X8604243Y8186743D3*
X13065970Y4466907D3*
X20109630Y1465933D3*
X16701727Y7310557D3*
X14384087Y4168607D3*
X5329483Y7824450D3*
X5217130Y7459913D3*
X7616303Y4317277D3*
X10951480Y2924077D3*
X1923687Y7638607D3*
X1978757Y2788340D3*
X19583277Y2887707D3*
X9489280Y7361877D3*
X20427193Y6219657D3*
X6168003Y7768267D3*
X18637623Y8002457D3*
X6678417Y1915923D3*
X8531923Y4517567D3*
X9905810Y7411583D3*
X11006813Y5268953D3*
X15999393Y4371343D3*
X10348390Y8298887D3*
X12467867Y5235367D3*
X19327293Y5167500D3*
X11533883Y4696073D3*
X15759390Y1765900D3*
X1882543Y7594887D3*
X14614350Y7967380D3*
X1967310Y1608877D3*
X4052653Y5294503D3*
X6505493Y7657097D3*
X17159983Y1895633D3*
X1905953Y6046967D3*
X1532690Y8173880D3*
X14623583Y1672723D3*
X18909667Y5178887D3*
X6893103Y1625160D3*
X16812863Y8651373D3*
X2760723Y4187913D3*
X19798480Y4440817D3*
X15203217Y4825020D3*
X5375920Y2255797D3*
X7712487Y4598660D3*
X2285483Y7849917D3*
X2601813Y4242043D3*
X18253833Y4161123D3*
X17564760Y2698520D3*
X2053023Y5628110D3*
X13124237Y3818050D3*
X5784787Y8653193D3*
X3816933Y7601550D3*
X16096367Y2826897D3*
X15462147Y7670047D3*
X5298990Y4188473D3*
X14522057Y7098097D3*
X3477187Y1808547D3*
X18614570Y8370150D3*
X3522267Y4336253D3*
X16958543Y2622027D3*
X4964187Y7555133D3*
X10621027Y7711803D3*
X10590673Y8329997D3*
X10029267Y5067660D3*
X4175430Y3097540D3*
X19081147Y8449017D3*
X2592637Y7843857D3*
X15889097Y1565883D3*
X10722027Y4307627D3*
X16061437Y7549703D3*
X18982937Y6396427D3*
X17812467Y4172243D3*
X3250970Y8436560D3*
X18100047Y3700020D3*
X16399010Y3907190D3*
X12108940Y1753310D3*
X3276597Y3523180D3*
X18449103Y5386507D3*
X16034827Y1543780D3*
X20417077Y6519277D3*
X2265250Y4427753D3*
X4892050Y1759877D3*
X11592043Y4889470D3*
X8824360Y7251140D3*
X18276747Y3805290D3*
X17374653Y4703663D3*
X1562087Y6100820D3*
X20428510Y3418753D3*
X19195903Y2444737D3*
X20585007Y5368927D3*
X19899730Y6337717D3*
X19920003Y5793970D3*
X4214373Y3785933D3*
X5416423Y1499273D3*
X2160083Y3998633D3*
X14179183Y4911473D3*
X1606107Y8055813D3*
X10083717Y1903360D3*
X15115507Y3971150D3*
X12556983Y7137217D3*
X18326390Y8400933D3*
X11241233Y4471407D3*
X4588343Y3671837D3*
X8710417Y7282000D3*
X6672043Y8353027D3*
X14874643Y4811833D3*
X4289627Y7563597D3*
X7054710Y4306763D3*
X17799353Y8485697D3*
X10235937Y1583197D3*
X20452440Y2759233D3*
X17560343Y4446070D3*
X13563927Y4828817D3*
X12502460Y5184210D3*
X17859137Y3380933D3*
X14316080Y4032693D3*
X16360170Y3347237D3*
X8671947Y2190033D3*
X2863907Y4165717D3*
X14423480Y8084750D3*
X14836443Y1641647D3*
X5161883Y7513993D3*
X19303783Y5154517D3*
X5225100Y4531390D3*
X20562217Y1889760D3*
X19221720Y8529457D3*
X17144313Y4709117D3*
X14505093Y1750997D3*
X10432920Y8225977D3*
X2109137Y8151287D3*
X12717090Y7183917D3*
X9030403Y8671120D3*
X20558963Y7709893D3*
X1686273Y5791423D3*
X18554577Y2240180D3*
X13029197Y7906277D3*
X8878017Y2044330D3*
X2004067Y5693837D3*
X12679930Y3848533D3*
X20311457Y3921033D3*
X18264120Y4046583D3*
X2276007Y5547363D3*
X8998567Y5483380D3*
X2808683Y2608843D3*
X13763850Y3985337D3*
X15934847Y1931557D3*
X17999910Y8028077D3*
X9752270Y5261483D3*
X2205623Y2091873D3*
X4370937Y2827293D3*
X18325767Y2834730D3*
X16716913Y1980820D3*
X14208223Y2110990D3*
X19108470Y3113843D3*
X18762053Y2930477D3*
X8256000Y4839750D3*
X15381037Y4497663D3*
X13933050Y7749030D3*
X17103103Y2605920D3*
X17310117Y5180760D3*
X10678147Y7301220D3*
X3324703Y1483713D3*
X18279667Y8219380D3*
X5687457Y3469947D3*
X19263537Y8396310D3*
X4756143Y7620067D3*
X12386373Y7620833D3*
X3511643Y1860117D3*
X9811733Y5213623D3*
X6963483Y8616037D3*
X16435413Y7479620D3*
X4488790Y7805063D3*
X19102737Y4433053D3*
X15723517Y3316167D3*
X5430127Y5100557D3*
X19111360Y3716940D3*
X13667273Y7640383D3*
X3914263Y2712990D3*
X7729187Y7183267D3*
X18454957Y5143337D3*
X17888763Y1756557D3*
X14296560Y3933267D3*
X10260913Y8083573D3*
X19191093Y3877967D3*
X19202823Y7786740D3*
X6568027Y4231227D3*
X4917790Y1373000D3*
X14493250Y7453483D3*
X19473113Y1364620D3*
X7426590Y7972597D3*
X19538810Y8430537D3*
X11754680Y2935163D3*
X14463773Y1329127D3*
X3492323Y4819510D3*
X15127863Y1728050D3*
X17802357Y8660473D3*
X6004360Y1707973D3*
X12120850Y3055547D3*
X2522610Y4650447D3*
X8332097Y3928707D3*
X11962867Y4222660D3*
X8952460Y4546290D3*
X17952073Y2986327D3*
X4672993Y8224433D3*
X15654683Y8042263D3*
X6213873Y1829643D3*
X4505257Y3258773D3*
X5605900Y1558890D3*
X4929910Y3554497D3*
X11044713Y4357813D3*
X9147713Y1816737D3*
X2256393Y6394240D3*
X15862040Y7686560D3*
X3289190Y5340753D3*
X18677227Y3395487D3*
X4877557Y3958283D3*
X18995167Y5474823D3*
X15091423Y8206827D3*
X11515933Y4457360D3*
X20154457Y6269863D3*
X5040790Y3802900D3*
X17257517Y8333337D3*
X9599220Y4197680D3*
X11901510Y4112217D3*
X18035717Y3332147D3*
X17769523Y1821933D3*
X4437037Y5259643D3*
X3068527Y3230217D3*
X4464057Y1317157D3*
X3705173Y1433233D3*
X9740737Y4735710D3*
X18532203Y8041890D3*
X18513603Y3810870D3*
X6755940Y4225867D3*
X6607113Y8025783D3*
X15997503Y1745623D3*
X9347783Y4378940D3*
X8163087Y5017297D3*
X10435113Y2991677D3*
X10389133Y1491110D3*
X2801337Y2641007D3*
X20438883Y8227183D3*
X18000073Y7221950D3*
X15064113Y5125297D3*
X13526850Y7605640D3*
X20481927Y5356690D3*
X16762363Y1663890D3*
X16234183Y5197137D3*
X10313413Y4962543D3*
X8268453Y8058180D3*
X2058607Y2135173D3*
X8760030Y3821987D3*
X12340970Y7694083D3*
X7844443Y8451790D3*
X18743350Y7289497D3*
X8739090Y2988740D3*
X2602513Y7487013D3*
X11369077Y1400240D3*
X18896157Y2244693D3*
X12915387Y1800577D3*
X13408127Y1600057D3*
X10472697Y5309500D3*
X6305033Y8646060D3*
X17516393Y4337267D3*
X19777913Y6855460D3*
X6366633Y4046640D3*
X7381193Y7843670D3*
X8224247Y7681563D3*
X18669077Y1521613D3*
X5172543Y4548507D3*
X6233480Y8308463D3*
X7838550Y5365910D3*
X17390520Y7797043D3*
X8319000Y4892790D3*
X14032947Y4545620D3*
X2249703Y3032080D3*
X16163547Y4125613D3*
X4825990Y4818247D3*
X18698493Y7639503D3*
X11890540Y7415727D3*
X2140850Y8483060D3*
X10761413Y1813997D3*
X10782947Y1453303D3*
X11844837Y7103663D3*
X3538173Y2015187D3*
X2853600Y4333157D3*
X11354647Y8599397D3*
X4566950Y4075133D3*
X4500807Y4137327D3*
X1921420Y2117987D3*
X17680873Y8557410D3*
X8422813Y7466377D3*
X16181460Y3265877D3*
X18756907Y3202167D3*
X4138753Y8632413D3*
X13758243Y4815480D3*
X19722730Y5446813D3*
X17310967Y7161913D3*
X4061873Y7632227D3*
X5819107Y4559003D3*
X6720037Y4681433D3*
X3815063Y3259963D3*
X1793030Y8553850D3*
X16992787Y8137303D3*
X3969753Y3037840D3*
X7543923Y1419053D3*
X12460453Y2098767D3*
X14865567Y4958927D3*
X7560137Y2920683D3*
X4082857Y7947083D3*
X15621373Y7887293D3*
X14265297Y8077307D3*
X16536177Y3706130D3*
X16028277Y4368577D3*
X5481410Y5137327D3*
X20353557Y3407857D3*
X16627980Y4948950D3*
X11498020Y5368453D3*
X11877850Y2993360D3*
X18994843Y3792880D3*
X1924223Y3910957D3*
X3557763Y7795143D3*
X13549893Y5419597D3*
X8074543Y7220703D3*
X16085280Y1895133D3*
X14512163Y7521120D3*
X14442147Y7761370D3*
X18330473Y3753897D3*
X18023600Y2221677D3*
X3542367Y1591570D3*
X8409923Y1901367D3*
X7517443Y7216260D3*
X20368307Y6363360D3*
X9378690Y1355647D3*
X12948277Y7648480D3*
X16936873Y1910987D3*
X8351457Y5360723D3*
X10779863Y7563133D3*
X18781553Y2124387D3*
X6066630Y1960353D3*
X12209817Y1346540D3*
X7655683Y7760287D3*
X18952227Y6645127D3*
X17900980Y7655887D3*
X8872093Y7589130D3*
X10148293Y1732107D3*
X14120627Y1399060D3*
X6668007Y7191357D3*
X12011417Y7343047D3*
X3373200Y3370947D3*
X19906097Y8286387D3*
X17139570Y2453647D3*
X19015030Y7192573D3*
X7467637Y4567047D3*
X12913187Y4443327D3*
X13419680Y4624390D3*
X4393353Y4308973D3*
X17511553Y3628463D3*
X1702310Y6082970D3*
X17781230Y2850333D3*
X12437780Y1763920D3*
X15955113Y3904407D3*
X12656960Y7194797D3*
X11389050Y2218663D3*
X2825440Y7779927D3*
X2289380Y4897110D3*
X6272647Y5364167D3*
X9479023Y3880183D3*
X19931723Y8411263D3*
X3201230Y5572697D3*
X9424883Y2289667D3*
X10148027Y5193237D3*
X13809690Y4576717D3*
X10944553Y4335257D3*
X19246620Y3790050D3*
X11040600Y7605297D3*
X8051867Y1549770D3*
X13164760Y7717533D3*
X10308077Y7942533D3*
X19254733Y7534620D3*
X5932273Y1972880D3*
X4183043Y2916020D3*
X17728440Y5351013D3*
X17984057Y5166687D3*
X4381503Y4284527D3*
X18834527Y3308900D3*
X14542107Y4939010D3*
X20329860Y2747797D3*
X3545907Y7753857D3*
X14854120Y8050983D3*
X13646820Y5195267D3*
X10522060Y4646130D3*
X3654140Y8283390D3*
X2652157Y2134053D3*
X10780440Y7325800D3*
X9151330Y1579670D3*
X13846523Y7237310D3*
X12409790Y2915617D3*
X19104623Y4833240D3*
X12043030Y2923343D3*
X11021443Y4116583D3*
X3242053Y1730140D3*
X11791770Y1356353D3*
X8205417Y1582627D3*
X20258523Y4567883D3*
X3362033Y8109850D3*
X10654897Y5203280D3*
X6657017Y2053897D3*
X11436933Y4729467D3*
X4896907Y3046890D3*
X14357143Y1905920D3*
X19895577Y3439287D3*
X5277700Y7822683D3*
X17945307Y4497227D3*
X11442323Y7401297D3*
X2013487Y7871147D3*
X19791670Y1415590D3*
X11222163Y8516903D3*
X9262903Y3042777D3*
X10255533Y4708907D3*
X20009800Y4288250D3*
X2439693Y5315540D3*
X16964173Y8339610D3*
X19589160Y4217383D3*
X19557287Y6001513D3*
X18007990Y8423320D3*
X19534953Y7892573D3*
X3091697Y2500230D3*
X17015470Y1593440D3*
X14750603Y4280613D3*
X20254023Y4132317D3*
X16460287Y4459310D3*
X18572330Y7235970D3*
X12646587Y7687713D3*
X18178073Y2635987D3*
X17042970Y3109147D3*
X10388827Y7656167D3*
X3850360Y8196930D3*
X16359410Y2273760D3*
X15769410Y7856807D3*
X3077743Y5051793D3*
X10802990Y4584497D3*
X11703550Y2196077D3*
X5459057Y3156897D3*
X8799817Y1904977D3*
X3134253Y4372920D3*
X2365053Y5341993D3*
X19578410Y8449260D3*
X7165470Y7956110D3*
X5132580Y7833853D3*
X1840230Y5699553D3*
X2328690Y8019697D3*
X19339700Y2347437D3*
X12985677Y8083350D3*
X7559427Y7305403D3*
X2462187Y4628877D3*
X2218617Y3047897D3*
X17248270Y1868317D3*
X14188103Y1421977D3*
X9348043Y4111677D3*
X2140880Y2622347D3*
X3019433Y7673087D3*
X20527487Y2163277D3*
X15172140Y7415303D3*
X1665457Y8579913D3*
X3397963Y1604597D3*
X2903127Y8231897D3*
X5949623Y7968987D3*
X15947187Y1392533D3*
X7224110Y8643360D3*
X10682623Y2183233D3*
X19451197Y2011360D3*
X1558387Y5657840D3*
X20328767Y3550353D3*
X6682390Y4711817D3*
X3875183Y2888393D3*
X20043187Y3416207D3*
X4856297Y2593790D3*
X15939763Y4923390D3*
X12633107Y1396383D3*
X20579420Y2891890D3*
X17487733Y7900703D3*
X1978140Y5777917D3*
X18937257Y4743860D3*
X3435523Y4009787D3*
X11907153Y1315030D3*
X16444090Y4559253D3*
X10668443Y7740047D3*
X9530140Y4521387D3*
X3942667Y3021260D3*
X15165307Y7142350D3*
X9089323Y2264060D3*
X4095253Y2234090D3*
X19591240Y4576887D3*
X16331137Y8032290D3*
X18274957Y1545043D3*
X5235410Y4669273D3*
X4763643Y5322097D3*
X5898697Y8145540D3*
X14239720Y2961333D3*
X15779627Y5186680D3*
X3034077Y5646783D3*
X20284900Y4772030D3*
X12811620Y2250893D3*
X2481857Y2202990D3*
X1844140Y4965080D3*
X5459003Y4598683D3*
X5626630Y1512210D3*
X2215807Y5720410D3*
X13719733Y4136807D3*
X16982830Y1426453D3*
X9214047Y8615583D3*
X4772560Y1648040D3*
X10230567Y5005710D3*
X18649103Y8273900D3*
X15220690Y3852710D3*
X8809087Y2106580D3*
X5150670Y2445327D3*
X3043517Y4938783D3*
X17037397Y7830430D3*
X16242343Y3283537D3*
X12295503Y4345497D3*
X19466343Y5773627D3*
X8591090Y4713183D3*
X13474577Y5241903D3*
X7058047Y4131300D3*
X15498320Y2974193D3*
X18781077Y8605810D3*
X1689713Y3770777D3*
X4416953Y2170880D3*
X16164780Y8665560D3*
X4842940Y8322207D3*
X10909737Y8479507D3*
X19350103Y7958873D3*
X7994620Y7151557D3*
X11614027Y5437917D3*
X7540563Y2251673D3*
X16599730Y7127743D3*
X5216710Y5330150D3*
X2206330Y7430433D3*
X18298270Y3281523D3*
X19066060Y5252667D3*
X10411143Y5414453D3*
X15331630Y2160660D3*
X17412570Y4186797D3*
X6344950Y5330277D3*
X16060987Y7698977D3*
X19733917Y1789817D3*
X5959210Y3864757D3*
X19353383Y6629497D3*
X15853970Y2289987D3*
X18031377Y3251937D3*
X15173950Y2042060D3*
X11094300Y1809513D3*
X14032720Y8224377D3*
X18890237Y4930087D3*
X6837730Y7420067D3*
X20570080Y3735067D3*
X16334267Y3807987D3*
X5924857Y1894933D3*
X7834443Y2992473D3*
X9973387Y7686043D3*
X2154633Y3402707D3*
X1856783Y1755063D3*
X20500997Y5676603D3*
X5386793Y5235820D3*
X6483413Y3859500D3*
X3539120Y1423070D3*
X4106237Y4038103D3*
X5271960Y3554160D3*
X5584610Y2007820D3*
X16243077Y4988083D3*
X19434610Y2017453D3*
X15627413Y4227657D3*
X6926557Y4446510D3*
X15013930Y7409890D3*
X17087733Y8169850D3*
X13457613Y7976377D3*
X7144023Y4920073D3*
X19911460Y6779893D3*
X1697513Y6399253D3*
X12058617Y8270570D3*
X17004150Y5385240D3*
X13446557Y7860227D3*
X19744833Y6160250D3*
X18320987Y4434140D3*
X19117503Y3836593D3*
X11465250Y1445827D3*
X8242363Y1666310D3*
X15392370Y5172270D3*
X3125573Y8576533D3*
X7259973Y5300813D3*
X9206320Y8420170D3*
X16638953Y1700090D3*
X18158823Y4601857D3*
X16958210Y7417760D3*
X12777037Y4573613D3*
X16796170Y4709437D3*
X15618057Y4583937D3*
X12499187Y8033717D3*
X3955783Y4201160D3*
X8621043Y3078427D3*
X17037933Y5480630D3*
X5757203Y1517613D3*
X7613693Y1646790D3*
X19191623Y3677877D3*
X19279673Y2794237D3*
X1874627Y4286713D3*
X15781300Y5389387D3*
X11959237Y3928710D3*
X9629723Y8255643D3*
X12607680Y1390233D3*
X13250407Y1734470D3*
X13511527Y5380410D3*
X5046373Y2683083D3*
X17914890Y8305350D3*
X1982007Y3956793D3*
X3670707Y1516123D3*
X7768483Y3026860D3*
X7030503Y3864417D3*
X4960060Y2250620D3*
X4128983Y3783693D3*
X8377080Y8496447D3*
X5919490Y8099307D3*
X13500080Y5017863D3*
X4458570Y5271297D3*
X1883153Y5036970D3*
X18489523Y2930333D3*
X2077877Y7231707D3*
X10861840Y4863780D3*
X8392713Y3937680D3*
X19846713Y5108480D3*
X5739577Y7956290D3*
X6402193Y8508350D3*
X1662880Y6034663D3*
X19301383Y4249113D3*
X12267003Y4839850D3*
X3639223Y8637807D3*
X17641943Y8499100D3*
X12312390Y7618290D3*
X6361417Y4345877D3*
X17037343Y3543920D3*
X16355513Y2208427D3*
X1961547Y3848980D3*
X10084257Y1879727D3*
X1942887Y3549877D3*
X15485277Y1992540D3*
X18925293Y2625130D3*
X20438990Y3049237D3*
X7146493Y7970923D3*
X4764220Y8026063D3*
X3851767Y4378080D3*
X20474057Y3709727D3*
X16368490Y7627957D3*
X8644083Y4370843D3*
X12683130Y8027680D3*
X15002247Y4027277D3*
X11016383Y4707377D3*
X17545947Y8065470D3*
X16556247Y3394480D3*
X17013740Y3061223D3*
X20502117Y1336623D3*
X18215933Y5081660D3*
X2737617Y3867993D3*
X9578330Y1986797D3*
X5836443Y7330203D3*
X5164990Y7607523D3*
X15804617Y3716713D3*
X2968777Y6517230D3*
X6600363Y7351493D3*
X1547863Y6713477D3*
X15826860Y1662410D3*
X20521947Y6141240D3*
X14282137Y1944057D3*
X6062000Y4327290D3*
X13697333Y4691333D3*
X6051393Y1964757D3*
X11445210Y4676530D3*
X3746193Y3138953D3*
X19388793Y5612313D3*
X20585527Y2501550D3*
X3655890Y5017083D3*
X9535310Y8200507D3*
X18554177Y8441223D3*
X10558217Y4398990D3*
X13263710Y1616637D3*
X9469750Y1855973D3*
X9971277Y4978903D3*
X15836080Y4395980D3*
X4056217Y8423667D3*
X18196793Y7611427D3*
X19407690Y2348753D3*
X7434617Y5302420D3*
X12393157Y4067253D3*
X12633793Y5336727D3*
X9354980Y4847807D3*
X17695783Y1726390D3*
X5235713Y1321493D3*
X6128243Y8445353D3*
X2643427Y7025533D3*
X5220300Y3724040D3*
X9516933Y5250827D3*
X16795943Y8584163D3*
X18108773Y8183757D3*
X19336420Y1414443D3*
X10955567Y7751833D3*
X17236720Y4995827D3*
X9187523Y5256133D3*
X3389000Y1725647D3*
X16091600Y8227363D3*
X17972083Y4705690D3*
X6894343Y7777213D3*
X2696843Y1629630D3*
X7551563Y4899373D3*
X11657730Y4600653D3*
X8966593Y3097500D3*
X6943187Y2176013D3*
X7266267Y1822643D3*
X5675400Y2333337D3*
X19386797Y8685450D3*
X15426290Y4386140D3*
X16762143Y7501810D3*
X4384960Y1839250D3*
X17361447Y3952767D3*
X19942713Y4057353D3*
X11904560Y1650147D3*
X5930707Y5393057D3*
X12464847Y5119187D3*
X1777437Y5198010D3*
X4564157Y5340943D3*
X20457810Y1443907D3*
X2159720Y3169003D3*
X16800157Y7851680D3*
X19799350Y7988300D3*
X18840077Y8596697D3*
X12759743Y2950097D3*
X2473343Y5250517D3*
X8841673Y2147860D3*
X15469063Y7926660D3*
X6071580Y1990310D3*
X12706880Y8319483D3*
X10713160Y7464677D3*
X14925537Y4665873D3*
X19830060Y8177740D3*
X7222433Y4134350D3*
X7570487Y4741820D3*
X3102773Y8609803D3*
X12435027Y4386400D3*
X18772257Y7218710D3*
X2052923Y8174180D3*
X19624707Y3299227D3*
X20193627Y7370247D3*
X11095393Y4496600D3*
X18478570Y4896280D3*
X11307153Y4472003D3*
X19475277Y3875903D3*
X3892810Y5082880D3*
X5478623Y3718483D3*
X9627613Y1419253D3*
X20402567Y8036960D3*
X16442783Y8170180D3*
X20418740Y6765490D3*
X17329930Y3338327D3*
X3524357Y2123097D3*
X11279550Y7266780D3*
X2612750Y4774367D3*
X14957597Y1548233D3*
X6496633Y2127340D3*
X14223290Y4983057D3*
X3755200Y7899907D3*
X9532640Y1733543D3*
X16140887Y4104490D3*
X3579720Y4932117D3*
X10575063Y4778967D3*
X18136530Y3077533D3*
X17411550Y5247617D3*
X8349003Y1768493D3*
X11372403Y4429430D3*
X16200433Y5336473D3*
X18984907Y3865123D3*
X19599543Y7336503D3*
X20511143Y1979130D3*
X3439687Y7309973D3*
X13704240Y1632213D3*
X8187033Y4358237D3*
X18554397Y8425347D3*
X2348200Y8337953D3*
X5408873Y7407230D3*
X4783737Y3440540D3*
X8143377Y8503090D3*
X7204563Y8554723D3*
X8667863Y3090953D3*
X9801697Y5201657D3*
X5860517Y4810013D3*
X14436280Y8322273D3*
X16513193Y7164657D3*
X19429507Y2526023D3*
X3560300Y3746113D3*
X19553490Y7178950D3*
X12700823Y4380873D3*
X15086617Y7343053D3*
X19608487Y3361627D3*
X17371673Y8095210D3*
X1595043Y7933800D3*
X8410570Y5157350D3*
X19122463Y5194483D3*
X19900677Y5640293D3*
X5985303Y5182827D3*
X13233573Y1434323D3*
X2086393Y7074297D3*
X17300337Y4393450D3*
X6074003Y7810543D3*
X9261540Y1618663D3*
X19495140Y3518387D3*
X12691133Y4826217D3*
X9519470Y5086013D3*
X16656610Y7440427D3*
X10685047Y4700977D3*
X9640883Y2225787D3*
X19580033Y7581407D3*
X16021327Y5016347D3*
X15346860Y4280597D3*
X5090167Y3183863D3*
X13072047Y7295863D3*
X15729800Y4279890D3*
X17726040Y7484973D3*
X11826767Y1387123D3*
X16428547Y5415457D3*
X13528970Y3953100D3*
X7490097Y1701830D3*
X17854393Y7301250D3*
X19890580Y3195730D3*
X2905800Y2929050D3*
X8587057Y8210900D3*
X15058697Y7672947D3*
X18629043Y2797430D3*
X11258680Y8564587D3*
X7769447Y5158343D3*
X15166973Y8652560D3*
X10853013Y2115583D3*
X14429177Y5041767D3*
X15970570Y7300880D3*
X11031807Y1585140D3*
X6982027Y5042110D3*
X16391967Y4393993D3*
X1806780Y7181103D3*
X17445443Y1527873D3*
X16620793Y3350000D3*
X6628120Y3817910D3*
X2077167Y7520063D3*
X10184143Y4744193D3*
X17484687Y2821443D3*
X16854923Y3634573D3*
X18623327Y1878760D3*
X10738060Y5436260D3*
X12678757Y7722527D3*
X20041730Y1850117D3*
X7194967Y3078050D3*
X14534897Y2022780D3*
X7993300Y5301173D3*
X8223383Y8479267D3*
X12479450Y8679430D3*
X3200307Y4319477D3*
X17253037Y7379243D3*
X3620513Y4331417D3*
X1617040Y1913973D3*
X6417373Y7710707D3*
X17433290Y2293193D3*
X1735330Y3936470D3*
X4400337Y3672733D3*
X19714533Y7331130D3*
X16059227Y2926313D3*
X3869283Y4699837D3*
X14721653Y3899460D3*
X18037307Y8512870D3*
X15585767Y4663803D3*
X11060193Y3957943D3*
X19934307Y4643300D3*
X1867197Y2337443D3*
X4759883Y4827207D3*
X17841947Y7265863D3*
X11868887Y8595127D3*
X18197663Y2913610D3*
X3232330Y3215833D3*
X19603147Y6027890D3*
X2563920Y4008327D3*
X2782110Y1777047D3*
X1594387Y4856817D3*
X12386993Y4319170D3*
X11751067Y8010210D3*
X1647170Y6958327D3*
X13571423Y2005133D3*
X14130857Y8580903D3*
X1881030Y3834723D3*
X19958110Y5174323D3*
X3450477Y7279753D3*
X9983703Y4671550D3*
X3845880Y8308683D3*
X17495513Y7310707D3*
X7784657Y7200340D3*
X18412707Y8195377D3*
X11020283Y4926170D3*
X3204263Y3626223D3*
X4503840Y5367310D3*
X6431903Y1373797D3*
X19163393Y5150097D3*
X17745083Y5190493D3*
X6541527Y8021890D3*
X3410953Y2149720D3*
X8604467Y1532543D3*
X19670953Y2286220D3*
X9009503Y4197240D3*
X16577187Y5485140D3*
X17692237Y2894637D3*
X17824617Y5480397D3*
X5390817Y3441133D3*
X20362583Y3465693D3*
X3215583Y3534113D3*
X12165833Y7247460D3*
X17935073Y3443750D3*
X17995630Y4370157D3*
X15267117Y8595353D3*
X8809013Y7849233D3*
X11499440Y4124220D3*
X6734493Y8336547D3*
X9057320Y4339547D3*
X3600330Y7789247D3*
X14461430Y8609990D3*
X6574347Y7874423D3*
X14512603Y4556007D3*
X17425777Y1929107D3*
X4562147Y4212573D3*
X7368927Y7706313D3*
X14628357Y4910157D3*
X12229390Y7300630D3*
X18257063Y2877520D3*
X7899553Y4033547D3*
X7522283Y4641727D3*
X16361040Y2335217D3*
X4120540Y7169463D3*
X20472867Y2495317D3*
X8217903Y2021933D3*
X2259107Y8150420D3*
X14574760Y1391120D3*
X8576893Y1867473D3*
X2302617Y8107877D3*
X3107950Y7727717D3*
X10384280Y7238420D3*
X12446810Y4587963D3*
X18545647Y4225497D3*
X11545513Y4899510D3*
X3207593Y7973293D3*
X4913953Y2906827D3*
X7204463Y1323827D3*
X3423433Y4251337D3*
X7170193Y4714477D3*
X2737670Y3436443D3*
X16337033Y1723020D3*
X16620700Y4559223D3*
X17648947Y7395410D3*
X1742010Y7270167D3*
X15195187Y7450060D3*
X19801887Y2610280D3*
X2637603Y7284560D3*
X20361087Y5119263D3*
X16590923Y2555933D3*
X10778407Y8171847D3*
X7133190Y4418610D3*
X18209837Y3357410D3*
X5348203Y3154397D3*
X6453943Y1788013D3*
X8698247Y8543990D3*
X16351890Y1331180D3*
X12268190Y2021743D3*
X10629307Y1842657D3*
X10507223Y4252573D3*
X20131930Y7175473D3*
X19039807Y3257787D3*
X13554910Y4453320D3*
X19920970Y4914510D3*
X9009997Y2030607D3*
X17776450Y8657547D3*
X1615920Y4201573D3*
X13017240Y4417367D3*
X19444687Y4988677D3*
X4672340Y3941613D3*
X19789207Y6102040D3*
X4202597Y4428337D3*
X16995443Y5071120D3*
X6627583Y8023517D3*
X20229393Y7922117D3*
X8113937Y1736883D3*
X17455517Y5208800D3*
X8620873Y5469400D3*
X8099573Y1597737D3*
X18232953Y7505090D3*
X1691753Y4789623D3*
X17863723Y8228263D3*
X17931883Y4308977D3*
X11973767Y1921097D3*
X16435013Y7703247D3*
X19791387Y2165797D3*
X13976887Y4578583D3*
X6972350Y3035337D3*
X3597093Y7856000D3*
X3684960Y1641353D3*
X2449573Y6189087D3*
X12934690Y8383367D3*
X9018360Y7724090D3*
X3133910Y7707093D3*
X12561627Y2985937D3*
X12494527Y4658730D3*
X2312190Y1840080D3*
X16183047Y4300063D3*
X19246380Y1347357D3*
X6610983Y1786850D3*
X15950213Y1497567D3*
X17696263Y3447477D3*
X6615097Y1671920D3*
X19529583Y5155120D3*
X10659937Y4080280D3*
X2248453Y1332760D3*
X2081863Y4719993D3*
X12970190Y3894213D3*
X14090153Y2935637D3*
X2489647Y2664743D3*
X16071240Y3060797D3*
X11776290Y8168550D3*
X9167327Y8385013D3*
X14589703Y1427177D3*
X12420527Y7873857D3*
X13970260Y8489687D3*
X6195023Y7380247D3*
X16325793Y4822613D3*
X1508063Y5813393D3*
X18362597Y5352117D3*
X16626957Y8449380D3*
X2488973Y1444870D3*
X7452230Y4685847D3*
X2457013Y3904297D3*
X17314483Y3074640D3*
X17520373Y1818843D3*
X9515243Y5484087D3*
X15773910Y2990473D3*
X20207860Y7063333D3*
X7798757Y2967470D3*
X9433260Y2266300D3*
X3848300Y1429903D3*
X1543623Y6785843D3*
X12933390Y4603823D3*
X4021323Y7101077D3*
X18672130Y3082120D3*
X4107473Y7997567D3*
X1740680Y7945820D3*
X9063887Y7994833D3*
X2826410Y7162433D3*
X8569137Y8331373D3*
X16020153Y1471937D3*
X10117973Y1753627D3*
X15797073Y8430340D3*
X4878973Y1555330D3*
X5897803Y7985773D3*
X18856127Y3835453D3*
X19195670Y5073003D3*
X4296447Y3300680D3*
X9221803Y8158580D3*
X8604793Y4329077D3*
X19456143Y8455550D3*
X20119193Y3771983D3*
X8746257Y3908623D3*
X16341743Y7505137D3*
X16785957Y8071330D3*
X10110610Y7722257D3*
X3692857Y5165940D3*
X3031937Y1382717D3*
X18964977Y4610100D3*
X19123040Y2728523D3*
X8907810Y4153037D3*
X19222363Y4628167D3*
X1523063Y6690113D3*
X9218200Y2958230D3*
X13712067Y7577223D3*
X9361700Y4236393D3*
X14349997Y7264083D3*
X2979753Y1646410D3*
X19990740Y3982740D3*
X3697757Y2646770D3*
X13533230Y5387957D3*
X18275717Y2638340D3*
X16799070Y8445593D3*
X13162250Y2985737D3*
X7839283Y2058427D3*
X3394973Y3581813D3*
X5633610Y3860833D3*
X2501103Y1878360D3*
X15547840Y5389083D3*
X1562097Y5553523D3*
X19647300Y2638307D3*
X17798393Y8452030D3*
X19716867Y5375220D3*
X17668417Y7281947D3*
X14312150Y4657597D3*
X20167510Y3262847D3*
X7882653Y7427360D3*
X1966517Y2541707D3*
X12211463Y2949143D3*
X19925687Y7212900D3*
X16155130Y7898607D3*
X5458970Y7893053D3*
X20507960Y4009720D3*
X9817250Y4443300D3*
X2904690Y8538593D3*
X13261847Y4688697D3*
X20191157Y2698283D3*
X11720073Y4572660D3*
X4381313Y1371140D3*
X18406767Y7399910D3*
X11037817Y7650123D3*
X14528653Y2912937D3*
X2053970Y8549467D3*
X8918730Y7391693D3*
X13361393Y5151040D3*
X10613303Y7582220D3*
X8935377Y8166820D3*
X3015527Y2503003D3*
X2362580Y3639357D3*
X4620070Y1409497D3*
X7708407Y3013003D3*
X7688477Y4472330D3*
X2614477Y1367677D3*
X1712097Y4021270D3*
X20243170Y4747643D3*
X12329957Y8168473D3*
X12500187Y5448137D3*
X2064857Y1576640D3*
X19797160Y6529967D3*
X5383730Y2298000D3*
X13992090Y8406317D3*
X17809473Y4269823D3*
X10363313Y5035063D3*
X6491543Y1868157D3*
X6086037Y1630747D3*
X16250137Y1325203D3*
X13486290Y4876167D3*
X8830710Y4577427D3*
X19856710Y1729370D3*
X8550790Y4046480D3*
X11988333Y7762183D3*
X5671913Y4149390D3*
X19411403Y2325233D3*
X11599487Y4772397D3*
X3088267Y5737417D3*
X10962273Y7206407D3*
X14523067Y7191087D3*
X1769483Y8195373D3*
X6594793Y7719153D3*
X19051323Y5306713D3*
X2130443Y2821670D3*
X6578233Y2280923D3*
X7239350Y4629083D3*
X2113693Y6829670D3*
X2461563Y4846987D3*
X18828193Y7632723D3*
X9170563Y4615773D3*
X15571103Y3918933D3*
X11494730Y7862147D3*
X16360410Y3237267D3*
X10051027Y1527923D3*
X6962620Y1321913D3*
X6778317Y1577050D3*
X19939277Y1356550D3*
X15017393Y3942707D3*
X16694027Y1884393D3*
X3655303Y4630397D3*
X15582027Y4307737D3*
X3456610Y4719687D3*
X10006757Y5071640D3*
X3590613Y3374703D3*
X3345443Y7327893D3*
X5046343Y4315033D3*
X19807697Y4701397D3*
X20383823Y3472343D3*
X4080547Y4041357D3*
M02*
