G04 DipTrace 3.0.0.1*
G04 Top.gbr*
%MOIN*%
G04 #@! TF.FileFunction,Copper,L1,Top*
G04 #@! TF.Part,Single*
%AMOUTLINE0*5,1,6,0,0,0.027559,-5E-6.0*%
G04 #@! TA.AperFunction,Conductor*
%ADD13C,0.007874*%
G04 #@! TA.AperFunction,ViaPad*
%ADD14C,0.027559*%
%ADD20OUTLINE0*%
%FSLAX26Y26*%
G04*
G70*
G90*
G75*
G01*
G04 Top*
%LPD*%
X2328913Y3283610D2*
D13*
X2063917D1*
X2048169Y3299358D1*
Y3475638D1*
X2032421Y3491386D1*
X544126D1*
Y3359657D1*
X559874Y3343909D1*
X705917D1*
Y3332953D1*
X721669Y3317201D1*
X747512D1*
X1745417Y1502374D2*
X1704173D1*
X1690701Y1488902D1*
X1659202D1*
Y1490525D1*
X3068154Y2919870D2*
X2846173D1*
X2769831Y2996213D1*
X2690287D1*
X2674539Y3011961D1*
Y3023287D1*
X2658790Y3039037D1*
X2596375D1*
X705917Y3343909D2*
Y3367657D1*
X3073476Y2868366D2*
Y2834780D1*
X3064825D1*
X1745417Y1959654D2*
X1611285D1*
X1595533Y1975406D1*
Y2084450D1*
X779118Y1845142D2*
X740303Y1806327D1*
X490819D1*
Y1374874D1*
X506567Y1359126D1*
X638656D1*
X1750323Y1144264D2*
X1934627Y1144420D1*
X856445Y2797091D2*
X821415D1*
Y2785156D1*
X967328Y1537125D2*
Y1614882D1*
X808862D1*
X1659202Y1490525D2*
Y1524114D1*
X1643454Y1539862D1*
X1310815D1*
X1300972Y1549705D1*
X1050354D1*
X1034606Y1565453D1*
Y1601827D1*
X987014D1*
X971265Y1586077D1*
Y1537125D1*
X967328D1*
X2412694Y3324942D2*
Y3336878D1*
X2328913D1*
X2596375Y3039037D2*
Y3067331D1*
X2507835D1*
X2492087Y3083079D1*
Y3279047D1*
X2476339Y3294795D1*
X2412694D1*
Y3324942D1*
X1924142Y1334323D2*
X1914299Y1324480D1*
X1880409D1*
X1864661Y1308732D1*
Y1259000D1*
X1848913Y1243252D1*
X1603831D1*
X1588083Y1227504D1*
Y1171787D1*
X1552231D1*
Y1189472D1*
X6777406Y1316150D2*
X6745406D1*
X6690854Y1261598D1*
X6626299D1*
X6610551Y1245850D1*
Y1215488D1*
X6594803Y1199740D1*
X6460318D1*
X6395841Y1264217D1*
X6380093Y1248469D1*
X6309583D1*
X6293835Y1264217D1*
Y1341555D1*
X3900091Y1764957D2*
X3955780Y1820646D1*
Y1938874D1*
X3995286Y1978381D1*
Y2044581D1*
X6222290Y1463273D2*
X6173870D1*
X6158122Y1447525D1*
Y1414539D1*
X7547256Y2741661D2*
X7601504D1*
X6395841Y1264217D2*
X6394623Y1292731D1*
X2395622Y1854028D2*
X2269075D1*
X2261059Y1862043D1*
X2012303D1*
X1945327Y1795067D1*
Y1762008D1*
X1920299Y1736980D1*
X6690073Y3203663D2*
X6540466D1*
X6524717Y3187913D1*
Y3148575D1*
X6558335Y3114957D1*
X6734315D1*
X6802205Y3047067D1*
X6929807D1*
X6945555Y3062815D1*
Y3068083D1*
X6976374Y3098902D1*
X7263248D1*
Y2806713D2*
X7296193D1*
X7311941Y2822461D1*
Y2848807D1*
X6799386Y1673783D2*
X6811156Y1685554D1*
Y1729705D1*
X6816726Y1210488D2*
Y1230349D1*
X6802996Y1244079D1*
X2407602Y2093756D2*
X2433193D1*
X2452161Y2074787D1*
X2498012D1*
Y2098534D1*
X2875776Y431831D2*
X2836403Y471203D1*
Y521192D1*
X3979276Y888142D2*
X4068224D1*
X4083972Y872394D1*
Y848656D1*
X4099722Y832907D1*
X4272840D1*
X2344433Y1193429D2*
X2354276Y1183587D1*
X2443335D1*
X2472390Y1154531D1*
X7537453Y3275272D2*
Y3358054D1*
X7567606D1*
X7560167Y3065646D2*
X7560169Y3099236D1*
X1920298Y1558379D2*
X1920299Y1591969D1*
X6090559Y1782669D2*
X6055526D1*
Y1770734D1*
X3680332Y1618770D2*
X3900091Y1618024D1*
X6222290Y1463273D2*
Y1425778D1*
X6238037Y1410031D1*
X6293835D1*
X7601504Y2091138D2*
X7512059Y2091724D1*
X7500521Y2089257D1*
X2134224Y520343D2*
X2132450Y522117D1*
Y590265D1*
X6846661Y3069702D2*
Y3068083D1*
X6945555D1*
X7670752Y2913606D2*
X7887836D1*
X7899770Y2901672D1*
X7950247D1*
X7550323Y2913606D2*
X7670752D1*
X7311941Y2848807D2*
Y2913311D1*
X7327689Y2929059D1*
X7501256D1*
X7516709Y2913606D1*
X7550323D1*
X1698516Y1849862D2*
X1748654D1*
X1795870Y1802646D1*
X1888240D1*
X1523340Y1850329D2*
Y1848707D1*
X1621869D1*
X1623024Y1849862D1*
X1698516D1*
X4272840Y832907D2*
Y831285D1*
X4449130D1*
X4500332Y780083D1*
X4764508D1*
X4784902Y759689D1*
X5171012D1*
X603752Y716563D2*
X611630Y724441D1*
X910311D1*
X4970953Y2897681D2*
X5036378D1*
X5070264Y2931567D1*
X5148728D1*
X5175720Y2904575D1*
X5469705D1*
X5485453Y2920323D1*
Y3050799D1*
X6919165Y3132461D2*
X6936976Y3114650D1*
X7171122D1*
X7180965Y3124492D1*
X7246776D1*
Y3174098D1*
X7262524Y3189846D1*
X7347087D1*
X7362835Y3174098D1*
Y3146579D1*
X7378583Y3130831D1*
X7473697D1*
X7511823Y2725913D2*
X7521665Y2716071D1*
X7619445D1*
X7635193Y2700323D1*
Y2685000D1*
X7650944Y2669249D1*
X7839157D1*
X5929260Y2811795D2*
X5970593Y2811949D1*
X6550307Y3175846D2*
X6575898D1*
X6577740Y3177689D1*
X6608644D1*
X7262524Y3189846D2*
X7246146D1*
X7230398Y3205594D1*
Y3226526D1*
X7249097D1*
X5693476Y3389760D2*
X5693480Y3446441D1*
X6087047Y3304390D2*
X6131583Y3259854D1*
X6221035D1*
X6265386Y3304205D1*
X6490547D1*
X6514472Y3280280D1*
X6550307D1*
Y3072268D2*
X6338972D1*
X6323223Y3056518D1*
Y3031093D1*
X5616323Y3233059D2*
X5559724D1*
X5485453Y3050799D2*
Y3049177D1*
X5506705D1*
X5517142Y3059614D1*
X5520484D1*
X7537449Y2158228D2*
X7533041Y2153820D1*
X7478412D1*
Y2155442D1*
X6608644Y3177689D2*
Y3148209D1*
X6624392Y3132461D1*
X6850075D1*
X5620843Y1927783D2*
X5582356D1*
Y1933651D1*
X3516449Y520343D2*
X3503744Y507638D1*
X2985799D1*
X2970049Y523388D1*
Y558682D1*
X1188753Y3020900D2*
X1188756Y2987311D1*
X4373535Y1596268D2*
X4339151D1*
Y1620702D1*
X4006681Y2093378D2*
X3949594D1*
X5690756Y885343D2*
X5613984D1*
X2621969Y3072626D2*
X2688902D1*
Y3100167D1*
X2588325D1*
X2860335Y678008D2*
X2825622D1*
Y690583D1*
X2809874Y706331D1*
X2694866D1*
X2679118Y722079D1*
Y882253D1*
X2663370Y898001D1*
X2589856D1*
X7391370Y662429D2*
X7753511D1*
X7769259Y678177D1*
Y704652D1*
X5649417Y648539D2*
X5694917D1*
X5710667Y664289D1*
Y689369D1*
X4338694Y1939437D2*
Y1959248D1*
X4324915Y1973028D1*
X4312551D1*
X4334232Y484913D2*
X3831335D1*
X3815587Y500661D1*
Y584748D1*
X3542039D1*
X2860335Y564646D2*
X2797874D1*
X2782126Y548898D1*
Y437665D1*
X2766378Y421917D1*
X1951886D1*
X1936138Y437665D1*
X1920390Y421917D1*
X1045071D1*
X1029322Y437667D1*
Y538455D1*
X6304012Y488150D2*
X6687047D1*
X6706866Y507969D1*
X5442256Y504594D2*
Y421917D1*
X5578551Y648539D2*
X5452098D1*
X2539528Y1722909D2*
X2504495D1*
Y1710975D1*
X6720646Y758248D2*
X6755899D1*
Y746312D1*
X5582356Y1933651D2*
Y1898786D1*
X5598106Y1883035D1*
X5623874D1*
X5524782Y1789614D2*
Y1773087D1*
X5436886D1*
Y1801857D1*
X5559815Y1777677D2*
X5524782D1*
Y1789614D1*
X1936138Y437665D2*
Y540551D1*
X2970049Y558682D2*
X2913881D1*
X2907917Y564646D1*
X2860335D1*
X1188756Y2987311D2*
X1398094D1*
X1523287Y2862118D1*
X2319071D1*
X2334819Y2877866D1*
Y2973983D1*
X2391340Y3030504D1*
Y3075017D1*
X2589856Y898001D2*
X2579031D1*
Y931591D1*
X3949594Y2093378D2*
X3953531Y2089441D1*
X3967311D1*
Y2007041D1*
X3948530D1*
Y1995142D1*
X2584457Y2931815D2*
X2499768Y2847126D1*
X2334063D1*
X2319071Y2862118D1*
X2598568Y2894289D2*
X2588394D1*
Y2927878D1*
X2584457Y2931815D1*
X7769259Y704652D2*
Y775252D1*
X7785007Y791000D1*
X8043878D1*
X8055811Y802933D1*
X8075253D1*
Y779185D1*
X1113654Y2540248D2*
X1110766Y2543135D1*
X668312D1*
Y2519391D1*
X1086283Y2761024D2*
X1082972Y2764335D1*
X1040719D1*
Y2765958D1*
X6768535Y1015339D2*
X6759545Y1024329D1*
X6733505D1*
Y1025953D1*
X3580957Y822106D2*
X3578474Y824589D1*
Y891362D1*
X3542039Y584748D2*
Y720469D1*
X6210201Y1177352D2*
Y1058280D1*
X6213154Y1055327D1*
X2850138Y1822474D2*
Y1846220D1*
X2857941D1*
Y1868028D1*
X1042394Y1186299D2*
X930693D1*
X6633705Y2041909D2*
X6684555D1*
X6704906Y2062260D1*
X6815007D1*
Y2039669D1*
X1042394Y1423402D2*
X1261521D1*
Y1427647D1*
X1354209Y2911531D2*
X1354207Y2877942D1*
X1354209Y2706996D2*
X1184929D1*
X1098094Y2620161D1*
X750378D1*
X7121469Y1000004D2*
X7156722D1*
Y1037790D1*
X6484898Y1225331D2*
X6579055D1*
X6594803Y1241079D1*
Y1271445D1*
X6610551Y1287193D1*
X6665264D1*
X1653941Y1268843D2*
X1567260D1*
X1557972Y1259555D1*
X1439965D1*
X1398378Y1217969D1*
X1249020D1*
X1233272Y1233717D1*
Y1295484D1*
X1170740D1*
X1154992Y1279736D1*
Y1253689D1*
X1139244Y1237941D1*
X1042394D1*
X4533832Y1754866D2*
Y1702181D1*
X4566657D1*
X4582406Y1686433D1*
Y1499850D1*
X4577988Y1495433D1*
X1653941Y1456055D2*
X1679531D1*
X1693181Y1469705D1*
X1764295D1*
X1777720Y1483130D1*
X1887417D1*
X1904390Y1466157D1*
X2055236D1*
X7967791Y600886D2*
X7917177D1*
Y577139D1*
X754728Y1605039D2*
X721106D1*
X699244Y1583177D1*
X674054D1*
X666374Y3195327D2*
X632325D1*
Y3171580D1*
X7967791Y824256D2*
X8081688D1*
Y851684D1*
X2346146Y1555146D2*
Y1521558D1*
X750375Y2380696D2*
X750378Y2347106D1*
X4502917Y1702181D2*
X4533832D1*
X2822911Y1856093D2*
X2678441D1*
X2649602Y1884932D1*
Y1917244D1*
X2633854Y1932992D1*
X2283902D1*
X2857941Y1868028D2*
X2822911D1*
Y1856093D1*
X930693Y1186299D2*
X926193Y1181799D1*
X889398D1*
Y1193732D1*
X885710D1*
X6815007Y2039669D2*
Y1960913D1*
X6811299Y1957206D1*
Y1907878D1*
X7159083D1*
X7174831Y1923626D1*
Y1974567D1*
X7392929D1*
X7762546Y2116228D2*
X7392929Y2116728D1*
X8063751Y2108933D2*
Y2114606D1*
X7762546D1*
Y2116228D1*
X7156722Y1037790D2*
X7096957D1*
X7081209Y1022042D1*
Y999461D1*
X7065461Y983713D1*
X6772673D1*
X6766638Y989748D1*
X6730917D1*
X6692343Y951173D1*
X6213154D1*
X1647335Y1677748D2*
X1654566Y1684979D1*
Y1743440D1*
X4905690Y826286D2*
Y850031D1*
X4827697D1*
X2055236Y1466157D2*
Y1539398D1*
X2070984Y1555146D1*
X2283902D1*
X7577315Y530455D2*
Y621091D1*
X7561567Y636839D1*
X7365780D1*
Y658067D1*
X7350031Y673815D1*
X7162835D1*
X7147087Y689563D1*
Y857791D1*
X7917177Y577139D2*
X7898480D1*
Y492224D1*
X7882732Y476476D1*
X7593063D1*
X7577315Y492224D1*
Y530455D1*
X4343231Y624071D2*
Y622449D1*
X4604748D1*
X1678902Y1213122D2*
X1674143Y1217881D1*
X1643870D1*
Y1219504D1*
X6665264Y1395091D2*
X6707615Y1395244D1*
X1270047Y520343D2*
X1276399Y526694D1*
Y681157D1*
X1077823Y946122D2*
X1198917D1*
X1244126Y900913D1*
X1547417D1*
X1568768Y879563D1*
X1612304D1*
X1453878Y2155075D2*
X1731705D1*
X1741583Y2145197D1*
X1773165D1*
X1777299Y2141063D1*
X1773165Y2136929D1*
Y2113114D1*
X1453881Y2033835D2*
X1453878Y2067425D1*
X659110Y3094689D2*
Y3131543D1*
X643362Y3147291D1*
X619169D1*
X603421Y3163039D1*
Y3218063D1*
X1072315Y2645752D2*
X847911D1*
X832163Y2661500D1*
Y2688846D1*
X1077823Y1386520D2*
Y1352930D1*
X1612304Y879563D2*
Y797413D1*
X1628052Y781665D1*
X1710612D1*
X1726362Y765915D1*
Y724114D1*
X1453878Y2067425D2*
X1418626D1*
Y2041835D1*
X1086098D1*
X1072315Y2055618D1*
X832163Y2688846D2*
Y2716283D1*
X746362D1*
X6939126Y766508D2*
X7018220D1*
X7033969Y782256D1*
Y844862D1*
X7018220Y860610D1*
X6853835D1*
X6808484Y905961D1*
X6562787D1*
X6476394Y676732D2*
X6431903D1*
Y678354D1*
X6429335Y829189D2*
Y869459D1*
X6439178D1*
X6079012Y899992D2*
X6206465D1*
X7583209Y1755020D2*
X7609673Y1728555D1*
X7628484D1*
X7644232Y1744303D1*
Y1786173D1*
X7659983Y1801924D1*
X7713087D1*
X7628047Y626945D2*
X7666580Y588412D1*
Y537252D1*
X7506114Y689736D2*
X7628047D1*
X7899972Y2359831D2*
X7935406D1*
X7995449Y2419874D1*
Y2456681D1*
X8011197Y2472429D1*
X8063756D1*
X8079507Y2456678D1*
Y2417811D1*
X7934295Y1874461D2*
Y1870996D1*
X7948075Y1857217D1*
X7969752D1*
Y1869151D1*
X6206465Y899992D2*
X6241720D1*
Y901570D1*
X7596110Y1525732D2*
X7594517D1*
X7580738Y1511953D1*
Y1492146D1*
X7577409D1*
X6236850Y556020D2*
Y589593D1*
X6279612D1*
X6806673Y1601382D2*
X6529244D1*
X7989138Y1727413D2*
X7975797Y1740755D1*
Y1798379D1*
X7669823Y1473898D2*
X7637449Y1506272D1*
Y1596630D1*
X7621701Y1612378D1*
X7461823D1*
X7436232Y1637969D1*
X7939965Y1284585D2*
Y1336965D1*
X6831996Y726902D2*
X6846764D1*
X6860542Y740680D1*
Y759491D1*
X7248020Y1747571D2*
X7432205D1*
X7436232Y1751598D1*
X7903650Y1595453D2*
X7851462D1*
Y1597383D1*
X6599356Y655075D2*
Y652583D1*
X6735949D1*
X6279612Y589593D2*
Y627465D1*
X6296486Y644339D1*
X6500728D1*
X6527972Y617094D1*
X6599356D1*
Y655075D1*
X6529244Y1601382D2*
X6434102D1*
X6399291Y1636193D1*
X6363601D1*
Y1624257D1*
X7098969Y1246701D2*
X7098967Y1280290D1*
X7675252Y1385192D2*
Y1354646D1*
X7566386D1*
X7556543Y1364488D1*
X7418783D1*
X7408941Y1374331D1*
X7159563D1*
X7143815Y1358583D1*
Y1262449D1*
X7128067Y1246701D1*
X7098969D1*
X7669823Y1418780D2*
X7675252Y1413350D1*
Y1385192D1*
X7436232Y1751598D2*
Y1815000D1*
X7466526D1*
X7669823Y1593024D2*
X7667432Y1590633D1*
Y1525946D1*
X7851462Y1597383D2*
X7699773D1*
X7695413Y1593024D1*
X7669823D1*
X5792346Y638701D2*
Y643150D1*
X5778567Y656929D1*
X5757316D1*
Y658552D1*
X1374634Y3176618D2*
X1364791Y3166776D1*
X1323635D1*
Y3192854D1*
X4915543Y635283D2*
X4942165Y661906D1*
X5216696D1*
Y682862D1*
X4686835Y649664D2*
Y618559D1*
X4654287D1*
X1015583Y3246354D2*
X885756D1*
X740709Y3391402D1*
X655692D1*
Y3377919D1*
X3555277Y3413827D2*
Y3389433D1*
X3456657D1*
X2663480Y2887697D2*
Y2945102D1*
X2647732Y2960850D1*
X2469283D1*
X2453535Y2976598D1*
Y3108606D1*
X2437787Y3124354D1*
X2384031D1*
X5176079Y1881516D2*
X5021697D1*
Y1900085D1*
X4996509D1*
X3284831Y2144110D2*
X3197748D1*
X3182000Y2128362D1*
Y2061929D1*
X1323635Y3192854D2*
X1080543D1*
X1066760Y3206638D1*
X5216696Y682862D2*
Y675429D1*
X5302909D1*
X4654287Y618559D2*
X4599217Y673630D1*
X4077248D1*
X4036728Y714150D1*
Y810150D1*
X4020980Y825898D1*
X3729630D1*
X3713882Y841646D1*
Y892244D1*
X1532602Y2001134D2*
Y1925256D1*
X1548350Y1909508D1*
X1797055D1*
X1842894Y1863669D1*
X1913831D1*
Y1778319D1*
X1898083Y1762571D1*
X1811870D1*
X1796121Y1746822D1*
Y1658493D1*
X1542130Y2060315D2*
X1532602Y2050787D1*
Y2001134D1*
X3456657Y3389433D2*
X3482248Y3415024D1*
Y3443457D1*
X3466500Y3459205D1*
X2263917D1*
X2168717Y3364004D1*
X2065740D1*
Y3324949D1*
X2081488Y3309201D1*
X2367185D1*
X2384031Y3292354D1*
X4996509Y1900085D2*
Y1873642D1*
X4719276D1*
X4709433Y1883484D1*
X6868285Y601525D2*
Y427824D1*
X6852535Y412075D1*
X5493437D1*
X5477689Y427823D1*
Y504594D1*
X7194865Y608285D2*
X6868285D1*
Y601525D1*
X1020723Y3088133D2*
Y3086512D1*
X1055756D1*
X7410642Y1776654D2*
X7212987D1*
Y1745724D1*
X5436386Y1602618D2*
Y1654555D1*
X4346693Y2994211D2*
Y2963232D1*
X4381724D1*
X6440713Y895181D2*
X6484449D1*
X6500201Y879429D1*
Y844862D1*
X6002543Y771370D2*
Y803961D1*
X5973996D1*
X5683012Y779020D2*
X5693854Y768177D1*
X5751280D1*
X5757433Y774331D1*
X7015484Y2000402D2*
X7000033D1*
X6986253Y2014181D1*
Y2043501D1*
X7028201Y1576193D2*
X6911965D1*
Y1643681D1*
X6921406Y1653122D1*
Y1680878D1*
X6937154Y1696626D1*
X6974146D1*
X6989894Y1712374D1*
Y1773811D1*
X7009583D1*
X7015484Y1779713D1*
X4728858Y3120043D2*
X4748252Y3139437D1*
X4838566D1*
X4854314Y3155185D1*
Y3215934D1*
X7802634Y1887252D2*
Y1941146D1*
X7028201Y1369209D2*
X6992220D1*
Y1355652D1*
X6967033D1*
Y1357274D1*
X6989894Y1773811D2*
X6976764D1*
X6971531Y1779043D1*
X6543583D1*
Y1794970D1*
X6143642Y682476D2*
X6002543D1*
X6258504D2*
Y616490D1*
X6255550D1*
X7842701Y2964787D2*
X8078329D1*
X8094080Y2980538D1*
Y3035391D1*
X5616259Y3180042D2*
X5616260Y3146453D1*
X7212987Y1745724D2*
Y1747224D1*
X7136165D1*
X4381724Y2963232D2*
X4412961Y2994469D1*
X4728858D1*
X6500201Y844862D2*
X6991783D1*
X7008378Y828268D1*
X5973996Y803961D2*
X5863409D1*
X5833780Y774331D1*
X4854314Y3215934D2*
Y3318819D1*
X4870062Y3334567D1*
X5044047D1*
Y3272504D1*
X5059795Y3256756D1*
X5467028D1*
X7833339Y1861661D2*
X7848152Y1846848D1*
Y1828071D1*
X1853453Y2913299D2*
X2053988D1*
Y2936974D1*
X4907420Y2015428D2*
Y1998685D1*
X4942453D1*
X4367835Y453417D2*
X3806147D1*
X3790399Y469165D1*
Y558761D1*
X6910638Y1974811D2*
X6872251D1*
Y2050709D1*
X2604369Y658236D2*
X2629559D1*
Y680740D1*
X2662835D1*
X569717Y2710150D2*
X607726D1*
Y2671592D1*
X5759196Y1933133D2*
Y1906236D1*
X5724917D1*
Y1894846D1*
X5809976D1*
X1711705Y3387402D2*
X1853453D1*
X1178610Y3336110D2*
X1224480Y3290240D1*
X1320846D1*
X1402252Y3371646D1*
X1521350D1*
X1531193Y3381488D1*
X6829283Y2989980D2*
X6711894D1*
X4841858Y1603114D2*
X4699417D1*
Y1594110D1*
X4685634Y1580327D1*
X6912626Y2996177D2*
X6938217D1*
X6948059Y2986335D1*
X7057071D1*
X7072819Y3002083D1*
Y3040055D1*
X7088567Y3055803D1*
X7220157D1*
X7293079Y2982882D1*
X7361612D1*
Y3007678D1*
X7621193Y3224091D2*
Y3305634D1*
X7584070D1*
X735117Y920253D2*
Y1000672D1*
X774219D1*
X6475051Y1329657D2*
X6500642Y1304067D1*
X6543619D1*
Y1318898D1*
X2053988Y2936974D2*
Y2935350D1*
X2079173D1*
X2091677Y2947854D1*
X2136039D1*
X2167535Y2916358D1*
X2303323D1*
X2319071Y2932106D1*
Y3056094D1*
X2356087D1*
X569717Y2141031D2*
X589362Y2121386D1*
X660272D1*
X676020Y2137134D1*
Y2239328D1*
X663887Y2251461D1*
Y2280088D1*
X4397783Y2886531D2*
X4366551Y2917764D1*
X4252811D1*
X6305520Y3116976D2*
X6208429D1*
Y3093231D1*
X3790399Y558761D2*
X3502785D1*
X3467409Y523386D1*
X3083720D1*
Y558823D1*
Y574571D1*
X3170026D1*
Y610146D1*
X4367835Y745996D2*
Y712407D1*
X2167535Y2916358D2*
X2165787Y2914610D1*
X2129478D1*
Y2916232D1*
X2575404Y3158224D2*
X2564579D1*
Y3191815D1*
X3443870Y2987189D2*
X2951752D1*
Y3041980D1*
X2936004Y3057728D1*
X2772591D1*
X2706402Y3123917D1*
X2575404D1*
Y3158224D1*
X3492950Y2987846D2*
X3443870Y2987189D1*
X4061547Y2980650D2*
X4055972Y2986224D1*
X3492950D1*
Y2987846D1*
X6101701Y1170942D2*
X5831811Y1170787D1*
X6155783Y1173571D2*
X6151533Y1169320D1*
X6101701D1*
Y1170942D1*
X4942453Y1998685D2*
X5131295D1*
X5134461Y2001850D1*
X5197740D1*
X5213488Y2017598D1*
Y2091085D1*
X5229240Y2106837D1*
X5319499D1*
Y2118272D1*
X3083720Y558823D2*
X3067972Y574571D1*
X3000193D1*
X2984528Y590236D1*
X2771472D1*
X2748850Y612858D1*
X4914697Y2094756D2*
X4921333Y2101392D1*
Y2144936D1*
X4811795Y2118398D2*
X4861953D1*
X4885594Y2094756D1*
X4914697D1*
X2662835Y680740D2*
Y793408D1*
X2647622Y808621D1*
X2620873D1*
X6510306Y1459106D2*
Y1454858D1*
X6475051D1*
X4421941Y1726807D2*
X4425682Y1730549D1*
Y1760396D1*
X6711894Y2989980D2*
X6700083D1*
X6686303Y2976201D1*
Y2969146D1*
X6701650Y2953799D1*
Y2848059D1*
X6685902Y2832311D1*
X6623146D1*
X6607398Y2848059D1*
Y2913551D1*
X6591647Y2929302D1*
X6557720D1*
X4685634Y1580327D2*
Y1618983D1*
X7532039Y1568228D2*
X7526576Y1562765D1*
Y1510470D1*
X6913150Y2919079D2*
X6920650Y2911579D1*
X6948404D1*
X7361612Y3007678D2*
Y3059209D1*
X7377360Y3074957D1*
X7497209D1*
X7540449Y3031717D1*
X7642843D1*
X774219Y1000672D2*
Y1030583D1*
X569717D1*
X1051024Y3336110D2*
Y3256496D1*
X1066615Y3240904D1*
X1142963D1*
X569717Y3465795D2*
X1035929D1*
X1051024Y3450701D1*
Y3336110D1*
X6560154Y3404429D2*
X6561777Y3406052D1*
X6619238D1*
X8032507Y3164157D2*
Y3187906D1*
X8005264D1*
X5952567Y1799122D2*
X5848598D1*
X5830272Y1817449D1*
X5699890D1*
X5659894Y1857445D1*
X5604329D1*
X5592244Y1845360D1*
X5392651D1*
Y1846982D1*
X7090748Y1452500D2*
X6672276D1*
X6670094Y1454681D1*
X6576421D1*
X6537677Y1415937D1*
X6470343D1*
X6345016Y1541264D1*
X2017433Y1827701D2*
X2043024D1*
Y1838297D1*
X2061185D1*
X2998545Y1699715D2*
Y1664287D1*
X2853106D1*
X2840264Y1651445D1*
X2737189D1*
X2700854Y1615110D1*
X2637717D1*
X2630752Y1622075D1*
X2370028D1*
X4807020Y1194669D2*
X4807663Y1161080D1*
X5853563Y596421D2*
X5710150D1*
X5694399Y580671D1*
Y523278D1*
X6320189Y1638598D2*
Y1719912D1*
X6310345D1*
X3992441Y622752D2*
Y681932D1*
X3995391D1*
X4017307Y1524524D2*
X4217409D1*
X4257449Y1564563D1*
Y1695916D1*
X4221270D1*
X1873970Y1900475D2*
X1873969Y1934063D1*
X696559Y2657850D2*
X685831Y2668579D1*
Y2862270D1*
X7716012Y1947051D2*
Y1976340D1*
X7688812Y2003539D1*
Y2029575D1*
X2700854Y1615110D2*
Y1576890D1*
X2732350Y1545394D1*
X2690071Y1503114D1*
X2609496D1*
X699780Y1831917D2*
X490819D1*
X475071Y1816169D1*
Y1327528D1*
X490819Y1311780D1*
X674579D1*
Y1260598D1*
X465224D1*
Y672909D1*
X480972Y657161D1*
X736961D1*
X775449Y695650D1*
X887638D1*
X903386Y679902D1*
Y644469D1*
X1949197Y1359913D2*
X1917740D1*
X1899362Y1378291D1*
X1883361D1*
Y1354543D1*
X6021453Y1583697D2*
X6114608D1*
X6130356Y1567949D1*
Y1542887D1*
X903386Y805760D2*
X1327146D1*
X1342895Y821509D1*
Y846346D1*
X5952567Y1665539D2*
X6006819D1*
X2732350Y1545394D2*
X2793102D1*
Y1533094D1*
X2811091D1*
X8005264Y3187906D2*
Y3427465D1*
X7989516Y3443213D1*
X7409874D1*
X7394125Y3427463D1*
Y3388114D1*
X4441429Y1856437D2*
X4459146D1*
Y1857562D1*
X4502730D1*
Y1861995D1*
X5091886Y1812529D2*
Y1842146D1*
X5076138Y1857894D1*
X4680150D1*
X4664402Y1873642D1*
Y1967126D1*
X4648654Y1982874D1*
X4428866D1*
X4413118Y1967126D1*
Y1870217D1*
X4426898Y1856437D1*
X4441429D1*
X5392651Y1846982D2*
X5373953D1*
Y1808516D1*
X5358205Y1792768D1*
X5237526D1*
X5217765Y1812529D1*
X5091886D1*
X2061185Y1838297D2*
X2100768D1*
Y1717295D1*
X2116516Y1701547D1*
X2351362D1*
X699778Y2046461D2*
Y2076828D1*
X696559Y2080047D1*
X699780Y2008496D2*
X699778Y2046461D1*
X1873969Y1934063D2*
X1583469D1*
X1567720Y1949811D1*
Y2085906D1*
X1495217D1*
X1479469Y2070157D1*
Y2009138D1*
X1332315D1*
X1321059Y2020394D1*
X792705D1*
X780807Y2008496D1*
X699780D1*
X7096083Y1364488D2*
X7100676Y1359895D1*
Y1311869D1*
X4441429Y1856437D2*
X4440657Y1946268D1*
X7688812Y2029575D2*
Y2068732D1*
X7704560Y2084480D1*
X8009098D1*
X903386Y644469D2*
X812936D1*
Y620724D1*
X6130356Y1542887D2*
X6173055D1*
X6174678Y1541264D1*
X6229299D1*
X6050902Y784311D2*
X6096566Y784465D1*
X7602890Y1827835D2*
X7596454D1*
X7589110Y1820491D1*
X7567860D1*
Y1822113D1*
X7716012Y1904606D2*
Y1892795D1*
X7702232Y1879016D1*
X7670740D1*
X7654992Y1863268D1*
Y1827835D1*
X7229764Y927173D2*
X7304951D1*
Y881961D1*
X2158035Y2022570D2*
Y2106480D1*
X2142287Y2122228D1*
X1878619D1*
X1875450Y2119059D1*
Y2095314D1*
X7339425Y927173D2*
X7304951D1*
X7182520Y740917D2*
Y822358D1*
X7229764Y869602D1*
X5559302Y550811D2*
Y488852D1*
X5575051Y473102D1*
X6253071D1*
X6263614Y462559D1*
X6793736D1*
X6809484Y478307D1*
Y578890D1*
X6883177Y652583D1*
X1914815Y1056177D2*
X1986761Y1056332D1*
X7339425Y1003898D2*
X7450903D1*
Y1033516D1*
X5338461Y507484D2*
Y421917D1*
X4513878Y535634D2*
Y569223D1*
X1841465Y1457539D2*
X1806434D1*
Y1445605D1*
X6263614Y462559D2*
X6278420Y477365D1*
Y548241D1*
X5373894Y558665D2*
X5381748Y550811D1*
X5559302D1*
X3205059Y589492D2*
X3387585D1*
Y603364D1*
X3188808Y629030D2*
Y617597D1*
X3205059D1*
Y589492D1*
X1829012Y2071567D2*
X1796912D1*
Y2102734D1*
X1875450Y2095314D2*
Y2071567D1*
X1829012D1*
X1914815Y1233150D2*
X1927916Y1220049D1*
Y1199563D1*
X2425146Y814004D2*
X2364669D1*
X2360732Y817941D1*
X1738958D1*
Y854677D1*
X3155681Y653685D2*
X3245025D1*
Y656028D1*
X6391780Y3371319D2*
X6560150D1*
X6575898Y3355571D1*
Y3317039D1*
X6591646Y3301291D1*
X6632866D1*
X6638634Y3307059D1*
X6883551D1*
X6920787Y3269823D1*
X7053106D1*
X4200835Y766150D2*
X4068224D1*
X4052476Y781898D1*
Y825898D1*
X4036728Y841646D1*
X3795623D1*
Y876294D1*
X6360287Y2996071D2*
X6323400D1*
Y2972324D1*
X3584374Y437665D2*
X3176240D1*
X7563039Y2183657D2*
X7652118D1*
X7662433Y2193972D1*
X8080701D1*
X8096449Y2209720D1*
Y2330429D1*
X7760732Y1176386D2*
X7545709D1*
X7514217Y1144894D1*
X7421724D1*
X7401925Y1125094D1*
X7366980D1*
X7351232Y1140843D1*
Y1213433D1*
X7518012Y565071D2*
X7324402D1*
X7257441Y632031D1*
X7078429D1*
X7072496Y626098D1*
X7011626D1*
X6995875Y641849D1*
Y717297D1*
X5163988Y3087736D2*
X5129605D1*
Y3112707D1*
X7995224Y568311D2*
X8054256Y568467D1*
X7428362Y2193657D2*
X7480921D1*
X6360287Y3143276D2*
Y3109688D1*
X4311606Y1151211D2*
Y1189165D1*
X4635134D1*
X6323400Y2972324D2*
Y2955185D1*
X6102598D1*
X3176240Y437665D2*
X3156484Y457421D1*
X3043539D1*
X6391780Y3262866D2*
Y3204299D1*
X6473537Y3216606D2*
Y3247117D1*
X6457787Y3262866D1*
X6391780D1*
X7744470Y900087D2*
Y919898D1*
X7730690Y933677D1*
X7722547D1*
X7967791Y875965D2*
Y884684D1*
X7954012Y898463D1*
X7744470D1*
Y900087D1*
X8046846Y1200487D2*
X8004302D1*
X8000055Y1196240D1*
X7428362Y1974567D2*
X7437101Y1965828D1*
Y1940979D1*
X3367882Y819996D2*
X3358031Y810146D1*
Y789484D1*
X3373780Y773736D1*
X3495283D1*
X3713524D1*
X3745736Y805949D1*
X3848280D1*
X3853921Y800307D1*
X5782598Y868528D2*
Y801598D1*
X7772488Y1061260D2*
Y1027669D1*
X7796018D1*
X5441437Y2945913D2*
X5398451D1*
Y2983159D1*
X7448106Y3047465D2*
X7437862Y3037220D1*
Y2978007D1*
X7422114Y2962259D1*
X7178328D1*
Y2954760D1*
X6550307Y3005728D2*
X6560150Y3015571D1*
X6848130D1*
X6893114Y2970587D1*
X6997035D1*
X7001969Y2965654D1*
X7030079D1*
X7046020Y2949713D1*
X3965476Y1530606D2*
X3814252D1*
X3495283Y773736D2*
X3495282Y804854D1*
X7486232Y2966386D2*
X7580604D1*
X7486232Y2562244D2*
X7473597Y2549609D1*
Y2518278D1*
X4236777Y714172D2*
Y783573D1*
X4221028Y799323D1*
X4083972D1*
X4068224Y815071D1*
Y841646D1*
X4052476Y857394D1*
X3863764D1*
X3853921Y867236D1*
X6546449Y1914815D2*
Y1948406D1*
X815028Y1259575D2*
X850283D1*
Y1247639D1*
X1382537Y732329D2*
Y747862D1*
X1648039D1*
X1253909Y728988D2*
X1263457Y738535D1*
X1382537D1*
Y732329D1*
X5118315Y813169D2*
X4978535D1*
X4956551Y791185D1*
X4870370D1*
X4840000Y821555D1*
X4551504D1*
X5652419Y750362D2*
Y740929D1*
X5478610D1*
X5406370Y813169D1*
X5118315D1*
X5782598Y801598D2*
Y748740D1*
X5652419D1*
Y750362D1*
X6441106Y1274514D2*
Y1272892D1*
X6563629D1*
X6569213Y1278476D1*
X810475Y840619D2*
Y795917D1*
X826223Y780169D1*
X1253909D1*
X812626Y874209D2*
X810475Y872058D1*
Y840619D1*
X3560634Y1604248D2*
X3528803Y1572417D1*
X3436268D1*
X3547049Y1652457D2*
X3556697D1*
Y1608185D1*
X3560634Y1604248D1*
X7178328Y2954760D2*
Y2933965D1*
X7124000D1*
X5786535Y1170787D2*
X5606189D1*
Y1165879D1*
X5787390Y689882D2*
X5788438Y688833D1*
X5955852D1*
Y680335D1*
X4009505Y1867793D2*
Y1900448D1*
X4008571Y1901382D1*
X4009508Y1643610D2*
X4009505Y1867793D1*
X4236777Y783573D2*
X4252526Y799323D1*
X4409173D1*
X4454004Y754492D1*
X4551504D1*
X7580604Y2966386D2*
Y2939197D1*
X8023126D1*
X8038874Y2923449D1*
Y2663579D1*
X815350Y1539315D2*
X806306Y1548360D1*
X780318D1*
Y1557793D1*
X1910709Y3171409D2*
X1897545Y3158245D1*
X1875677D1*
Y3159867D1*
X2293858Y847472D2*
X2280075Y833689D1*
X1835118D1*
X1790382Y878425D1*
X1723394D1*
X1713551Y868583D1*
X1683472D1*
X4245626Y1872433D2*
X4240945D1*
Y1835134D1*
X4228008Y1822197D1*
Y1769232D1*
X4232303Y1764937D1*
X4245626Y2024209D2*
Y1872433D1*
X3695575Y1800390D2*
X3705421Y1790543D1*
Y1666249D1*
X3685709D1*
Y1667871D1*
X1474879Y1235808D2*
X1474878Y1202220D1*
X2293858Y788661D2*
X2335541D1*
Y776724D1*
X7488626Y1062685D2*
X7204563D1*
X7176465Y1090783D1*
Y1095176D1*
X7187820Y1106531D1*
Y1132882D1*
X7712705Y1224079D2*
X7680760Y1192134D1*
X7488626D1*
Y1170484D1*
X7121469Y1106531D2*
X7160717D1*
X7176465Y1090783D1*
X5858957Y2183298D2*
X5812501Y2136843D1*
X5436563D1*
X8098457Y1470499D2*
Y1494244D1*
X8073996D1*
Y1509993D1*
X8074000Y1509996D1*
Y1578630D1*
X6822807Y1314302D2*
X6847997D1*
X6867035Y1295264D1*
X6910240D1*
X4176421Y595913D2*
X4245255D1*
Y572167D1*
X7795382Y1318630D2*
X7832904D1*
Y1354050D1*
X6212451Y2042000D2*
X6119933D1*
X6118547Y2043386D1*
X6968594Y1640992D2*
X7012782D1*
Y1642615D1*
X4571768Y3171220D2*
Y3368157D1*
X4587518Y3383908D1*
X4672790D1*
X1003728Y494752D2*
X885218D1*
Y524709D1*
X1445160Y596899D2*
Y608835D1*
X1480193D1*
X5856159Y1894423D2*
Y1906358D1*
X5891189D1*
X7794677Y1686445D2*
Y1748353D1*
X1875677Y3159867D2*
X1716433Y3159709D1*
X4524563Y2154906D2*
X4526780Y2152689D1*
Y2113564D1*
X4245626Y1872433D2*
Y1836185D1*
X4253146Y1828665D1*
Y1804920D1*
X1474878Y1202220D2*
X1223831D1*
X1208081Y1217970D1*
Y1271739D1*
X8074000Y1578630D2*
X8055299D1*
Y1500016D1*
X8039551Y1484268D1*
X7958390D1*
X7933878Y1508780D1*
X7872587D1*
X7836720Y1472913D1*
X6118547Y2043386D2*
X6085177D1*
Y2034703D1*
X6059988D1*
Y2036327D1*
X1480193Y608835D2*
Y583079D1*
X1487276Y575996D1*
Y510500D1*
X1471528Y494752D1*
X1244457D1*
X5891189Y1906358D2*
X5943961D1*
X5961181Y1923579D1*
X6179571D1*
X6195319Y1907831D1*
Y1891106D1*
X6179571Y1875358D1*
X6118547D1*
X3203811Y3314087D2*
X3206054Y3316329D1*
Y3347673D1*
X7898319Y3494539D2*
X7878736Y3514122D1*
X5579055D1*
X5569319Y3504386D1*
Y3476823D1*
X5555539Y3463043D1*
X5543728D1*
X1265575Y3389661D2*
X1335803Y3459890D1*
X1987480D1*
X2003228Y3444142D1*
Y3302984D1*
X7214921Y2194752D2*
X7341748D1*
X7397984Y2250988D1*
X7585756D1*
X7601504Y2235240D1*
Y2209572D1*
X7633383D1*
X6740283Y2092354D2*
X6871181D1*
X6889079Y2074457D1*
X7016681D1*
X7028823Y2062315D1*
X7171224D1*
X3098331Y2036339D2*
X3247606D1*
X3269937Y2058669D1*
X3347768D1*
X3395969Y2106870D1*
X3773012D1*
X3788760Y2091122D1*
Y2063846D1*
X3828457Y2024150D1*
X3884126D1*
Y2049173D1*
X3862887D1*
Y2052608D1*
X3865059Y1749331D2*
Y1727555D1*
X3932362D1*
X3941346Y892291D2*
X3879512D1*
X3941346Y648343D2*
X3957097Y632592D1*
Y601545D1*
X6550307Y2104386D2*
X6526451D1*
Y2159504D1*
X5569319Y3504386D2*
X5060012D1*
X6722350Y1518287D2*
X6600354D1*
X6765874Y2036669D2*
X6786110Y2016433D1*
Y1966861D1*
X6633705Y2077343D2*
Y2128524D1*
X516406Y2105638D2*
X844882D1*
X860630Y2121386D1*
Y2163122D1*
X765437D1*
X749689Y2178870D1*
Y2241668D1*
X789003D1*
X6364087Y3411638D2*
Y3435382D1*
X5944134D1*
X5928386Y3419634D1*
Y3339870D1*
X5912638Y3324122D1*
X5543728D1*
X7898319Y3299756D2*
Y3160748D1*
X7882571Y3145000D1*
X7795020D1*
X3010469Y3131654D2*
X3358268D1*
X3375925Y3113996D1*
X3568459D1*
Y3147572D1*
X516406Y1869114D2*
X526248Y1859272D1*
X666045D1*
Y1885678D1*
X4723945Y2816339D2*
Y2862025D1*
X4728904Y2866984D1*
Y2890963D1*
X7627094Y2243161D2*
X7633383Y2236873D1*
Y2209572D1*
X2923799Y3329835D2*
Y3352913D1*
X2965138D1*
X2999394Y3387169D1*
X3381280D1*
X3397028Y3371421D1*
Y3309945D1*
X3412776Y3294197D1*
X3482248D1*
X3497996Y3309945D1*
Y3357472D1*
X3513744Y3373220D1*
X3564717D1*
X3580465Y3388969D1*
Y3399961D1*
X3596213Y3415709D1*
X3878205D1*
X2836442Y3368001D2*
Y3335740D1*
X2852190Y3319992D1*
X2913957D1*
X2923799Y3329835D1*
X2844138Y3402898D2*
X2841185D1*
Y3368001D1*
X2836442D1*
X1264866Y3354228D2*
X1230541D1*
Y3376588D1*
X1279909Y3321480D2*
X1269016D1*
Y3350079D1*
X1264866Y3354228D1*
X2068189Y3044425D2*
X2077835Y3054071D1*
Y3079797D1*
X6526451Y2159504D2*
X6512850D1*
Y2124071D1*
X6497102Y2108323D1*
X6424791D1*
X6413327Y2119787D1*
X6401858D1*
X6395894Y2125752D1*
X6294343D1*
X6600354Y1518287D2*
X6581274Y1499207D1*
X6430814D1*
X1194518Y2223143D2*
X1228604D1*
X1230091Y2224630D1*
X789003Y2241668D2*
Y2240046D1*
X814193D1*
X850022Y2275875D1*
X1135451D1*
X1139244Y2272083D1*
Y2238735D1*
X1154836Y2223143D1*
X1194518D1*
X5543728Y3324122D2*
Y3293240D1*
X5527980Y3277492D1*
X5508697D1*
Y3309573D1*
X7708675Y2984806D2*
X7635652D1*
X7631382Y2980535D1*
X7795020Y3145000D2*
Y3000555D1*
X7779270Y2984806D1*
X7708675D1*
X666045Y1885678D2*
X819631D1*
Y1858265D1*
X6878063Y1144394D2*
X6882000Y1140457D1*
Y1110804D1*
X6883735D1*
X3145091Y1585012D2*
X3143715Y1586387D1*
X3110060D1*
Y1588011D1*
X4663322Y2796718D2*
Y2821126D1*
X4638433Y2846014D1*
Y2927575D1*
X4654181Y2943323D1*
X4754449D1*
X4770197Y2959071D1*
Y3013417D1*
X4785946Y3029167D1*
X4858650D1*
X7717774Y2373185D2*
Y2398909D1*
X7680217D1*
X7536689Y3407390D2*
X7417353D1*
Y3384526D1*
X7837046Y3262357D2*
Y3200247D1*
X7821295Y3184496D1*
X7795087D1*
X7756106Y3145516D1*
X8014724Y1912343D2*
X7999962D1*
X7986181Y1898562D1*
Y1878752D1*
X7480791Y1419626D2*
X7517067Y1383350D1*
X7609232D1*
X8016176Y2015458D2*
X8016177Y2049047D1*
X7967791Y1221831D2*
Y1265807D1*
X7974996Y1273012D1*
X6957193Y1173209D2*
X6868220D1*
X6852472Y1157461D1*
Y1096969D1*
X6836724Y1081220D1*
X6490126D1*
X6474378Y1065472D1*
Y1025799D1*
X6458630Y1010051D1*
X6289925D1*
X6274177Y1025799D1*
Y1185350D1*
X6258429Y1201098D1*
X5563052D1*
X5547304Y1185350D1*
Y1155762D1*
X7709951Y1136892D2*
Y1106056D1*
X7725701Y1090307D1*
X7763953D1*
X7808693Y1135047D1*
X7942201D1*
X7914535Y2673378D2*
X7875165Y2634008D1*
X7680217D1*
X7756106Y3145516D2*
Y3072520D1*
X7740358Y3056772D1*
X7668433D1*
X7692984Y784276D2*
X7657951D1*
Y791874D1*
X7444224Y751602D2*
X7718575D1*
Y770496D1*
X7704795Y784276D1*
X7692984D1*
X7332018Y739669D2*
Y738046D1*
X7395235D1*
X7408791Y751602D1*
X7444224D1*
X7709951Y1106056D2*
X7694202Y1090307D1*
X7653634D1*
Y1048972D1*
X7609232Y1135047D2*
X7611077Y1136892D1*
X7709951D1*
X7996636Y1543714D2*
Y1523638D1*
X7982857Y1509858D1*
X7974996D1*
X8016177Y2049047D2*
X8059752D1*
X8075500Y2033299D1*
Y1681241D1*
X7996636Y1602378D1*
Y1543714D1*
X6965448Y1139621D2*
X6961130D1*
Y1169272D1*
X6957193Y1173209D1*
X7949274Y1062316D2*
Y1090940D1*
X7967791Y1109457D1*
X7096205Y1984654D2*
X7080337Y2000521D1*
Y2034129D1*
X6836890Y1933469D2*
X7096205D1*
X6584555Y1940406D2*
X6628413Y1896547D1*
Y1893602D1*
X6644161Y1877854D1*
X6685169D1*
X6690791Y1872232D1*
X7967791Y991142D2*
X7916610D1*
X4956874Y885469D2*
X4982465D1*
X4995499Y872434D1*
X5043945D1*
Y886178D1*
X6186760Y581610D2*
X5888818D1*
Y609541D1*
X6566894Y1030020D2*
X6531860D1*
Y1006273D1*
X6355193Y535547D2*
X6322898D1*
X6307147Y551298D1*
Y579503D1*
X6515516Y681264D2*
X6550769D1*
Y669327D1*
X7967791Y1109457D2*
Y1146539D1*
X7983539Y1162287D1*
X8067689D1*
X8083437Y1178035D1*
Y1403459D1*
X8060652Y1426244D1*
Y1460522D1*
X4980555Y1157382D2*
X4970063Y1161299D1*
X5023521Y1161455D1*
X6456303Y1538264D2*
Y1536697D1*
X6541980D1*
X6003748Y1701236D2*
X6009744D1*
X6017528Y1709020D1*
X6042071D1*
Y1685274D1*
X4749114Y752780D2*
X4747180Y754714D1*
X4714081D1*
Y756337D1*
X7151425Y1551421D2*
Y1593143D1*
X7190598D1*
X7123000Y2117980D2*
X7060776D1*
X7045028Y2133728D1*
Y2148203D1*
X7017566D1*
Y2157636D1*
X7805791Y2324402D2*
X8026453D1*
X8042202Y2340151D1*
Y2448684D1*
X7739996Y2324402D2*
X7712421Y2296827D1*
X7640366D1*
X7615260Y2321933D1*
X7429740D1*
X6441354Y919377D2*
X6523713Y919378D1*
X6470635Y2944732D2*
Y2978524D1*
X6444287D1*
Y3003133D1*
X6394327Y3168866D2*
X6351024D1*
X6335276Y3184614D1*
Y3239119D1*
X7379272Y2869881D2*
Y2903469D1*
X7193280Y1823654D2*
X7149143D1*
Y1811755D1*
X7190598Y1593143D2*
Y1591520D1*
X7476421D1*
X7478720Y1593819D1*
X7605953D1*
X7621701Y1578071D1*
Y1460118D1*
X7637449Y1444370D1*
X7706024D1*
X7752617Y1397777D1*
X8003451D1*
X6327260Y1205038D2*
X6354352D1*
X6383154Y1176236D1*
Y1035642D1*
X5457969Y1197224D2*
X5489496D1*
X5509209Y1216937D1*
X6327260D1*
Y1205038D1*
X5289075Y1197224D2*
X5457969D1*
X7297957Y3356906D2*
X7304794Y3350068D1*
Y3323316D1*
X6523713Y919378D2*
Y933157D1*
X6747236D1*
X6747862Y932531D1*
Y966003D1*
X6409035Y3015067D2*
X6450488Y3056520D1*
X6489531D1*
X6514732Y3031319D1*
X6984894D1*
X7026886Y3073311D1*
X7297957D1*
X6444287Y3003133D2*
Y3015067D1*
X6409035D1*
X7200421Y1948976D2*
X7202862Y1951417D1*
X7364898D1*
X7367339Y1948976D1*
X7379272Y2903469D2*
X7448106D1*
X4636335Y3249551D2*
Y3215965D1*
X5120386Y2905976D2*
X5132696D1*
X5146475Y2892197D1*
Y2872387D1*
X2149214Y1810505D2*
Y1822441D1*
X2184244D1*
X2502657D1*
X2550760Y1774339D1*
X2940014D1*
Y1770406D1*
X2983594D1*
X3516004Y843992D2*
X3480974D1*
Y845614D1*
X1024612Y2947643D2*
Y2921180D1*
X1040362Y2905429D1*
X1108102D1*
X1179008Y3248902D2*
X1384476D1*
X1400224Y3233154D1*
Y3182524D1*
X1415972Y3166776D1*
X1462677D1*
X1478425Y3151028D1*
Y3110199D1*
X1154594Y723370D2*
X1095319D1*
Y699625D1*
X1525663Y1137163D2*
Y1135539D1*
X1588083D1*
X1603831Y1151287D1*
Y1187531D1*
X1838902D1*
X1880409Y1229039D1*
Y1292984D1*
X1896157Y1308732D1*
X2102500D1*
X2122369Y1328601D1*
Y1354777D1*
X1135335Y1913260D2*
X1046724D1*
X5174799Y636315D2*
X5221933Y636471D1*
X1198705Y1733559D2*
X1233958D1*
Y1721622D1*
X2940014Y1774339D2*
Y1798050D1*
X2184244Y1328598D2*
X2122369Y1328601D1*
X1180996Y1135539D2*
X1182619Y1137163D1*
X1525663D1*
X4144925Y575276D2*
X4131146Y561496D1*
X4045646D1*
X4029896Y577245D1*
Y623306D1*
X5174799Y689579D2*
X5168138Y682917D1*
X4990335D1*
X4955047Y718205D1*
X4739276D1*
X4723528Y702457D1*
Y599386D1*
X4707780Y583638D1*
X4560185D1*
X4546961Y596862D1*
X4314213D1*
X4289571Y621504D1*
X4160673D1*
X4144925Y605756D1*
Y575276D1*
X3280353Y1546735D2*
Y1577358D1*
X3321098D1*
X3334031Y1564425D1*
X3377094D1*
X3410677Y1598008D1*
X3483862D1*
X2983594Y1546622D2*
X3280353Y1546735D1*
X3480974Y845614D2*
X3472388Y853618D1*
X3439343D1*
Y826437D1*
X3432890Y819984D1*
X1108102Y2905429D2*
X1234461D1*
X1317266Y2822623D1*
X1622260D1*
X2105592Y1241888D2*
Y1277236D1*
X1969260D1*
X1953512Y1261488D1*
Y1187531D1*
X1937764Y1171783D1*
X1882803D1*
X1180185Y891067D2*
X1152697D1*
X1143965Y899799D1*
X797402D1*
X781654Y884051D1*
Y815118D1*
X765906Y799370D1*
X594575D1*
X536823Y741618D1*
X1829008Y2026634D2*
X1787803D1*
X1772055Y2042382D1*
Y2064879D1*
X1755343D1*
Y2075314D1*
X2240760Y636390D2*
Y604924D1*
X2215209D1*
Y595358D1*
X1833043Y1616319D2*
X1798012D1*
Y1604383D1*
X1455810Y1042035D2*
Y1035598D1*
X1180185D1*
X1882803Y1171783D2*
X1619579D1*
Y1056161D1*
X1603829Y1040412D1*
X1455810D1*
Y1042035D1*
X536823Y741618D2*
X578161D1*
Y690278D1*
X578853Y690970D1*
X731017D1*
X2587004Y785031D2*
X2629298D1*
Y754301D1*
X2396077Y642026D2*
X2481701D1*
X2497449Y657774D1*
Y786740D1*
X2585295D1*
X2587004Y785031D1*
X2300846Y621453D2*
X2304017Y618282D1*
X2396077D1*
Y642026D1*
X4746346Y1660843D2*
X4709790D1*
Y1662465D1*
X4473122Y1660846D2*
X4554098D1*
X4741705Y558047D2*
X4656207D1*
Y546112D1*
X5029524Y609693D2*
X4950976D1*
X5401154Y743323D2*
X5329303D1*
X5319461Y733480D1*
X5145732D1*
X5145114Y734098D1*
X5029524D1*
X3880815Y1956504D2*
X3925699D1*
Y1960198D1*
X5083930Y1672098D2*
X5083932Y1749341D1*
X5558496Y1813110D2*
X5545268Y1826339D1*
X5502711D1*
Y1802592D1*
X5553516Y1870953D2*
X5469020D1*
X4709790Y1662465D2*
X4674386D1*
X4669020Y1657098D1*
X4341102Y1886886D2*
X4340113Y1885896D1*
Y1853298D1*
X4337159D1*
X3359025Y1778570D2*
Y1818018D1*
X3346449Y1830594D1*
Y1960063D1*
X3330701Y1975811D1*
X3284280D1*
X3403181Y1818020D2*
X3359025Y1818018D1*
X1971685Y1959654D2*
X2008272Y1923067D1*
X2079413D1*
X2742193Y1228602D2*
X2745020Y1225776D1*
Y1195014D1*
X2120785Y2061346D2*
Y2085098D1*
X2093193D1*
X2079413Y2071319D1*
Y2059508D1*
X2137845Y2008093D2*
X2109961D1*
Y2044516D1*
X2120785D1*
Y2061346D1*
X2742496Y1894157D2*
X2681098D1*
X2665350Y1909906D1*
Y1932992D1*
X2649602Y1948740D1*
X2410835D1*
X2385327Y1974248D1*
X2137845D1*
Y2008093D1*
X2973056Y1928887D2*
X2904021D1*
X2869291Y1894157D1*
X2742496D1*
X3284280Y1975811D2*
Y1963819D1*
X3270500Y1950039D1*
X3198646D1*
X3139209Y1890602D1*
X2973056D1*
Y1928887D1*
X3511571Y1823469D2*
X3524591Y1810449D1*
Y1789878D1*
X6498122Y976764D2*
Y1040291D1*
X6513870Y1056039D1*
X6781583D1*
X6838161Y999461D1*
X7038398D1*
X7054146Y1015209D1*
Y1175719D1*
X7067745D1*
X4626404Y3153626D2*
X4661925D1*
Y3334567D1*
X4677673Y3350315D1*
X5500102D1*
Y3342396D1*
X5401470Y1628664D2*
Y1596677D1*
X5324673D1*
X4633587Y1631508D2*
Y1546614D1*
X7524157Y1463362D2*
Y1450843D1*
X7455201D1*
X4550343Y1815260D2*
X4575933D1*
Y1811281D1*
X4589657D1*
X6298230Y687253D2*
Y729424D1*
X6307377Y738571D1*
Y793837D1*
X6308992Y795453D1*
X3586886Y1152972D2*
Y1182249D1*
X3602580Y1197944D1*
X3646812D1*
X5831346Y3248059D2*
X5848079Y3231327D1*
Y3169678D1*
X7820291Y2721654D2*
X7924378D1*
X7940126Y2705906D1*
Y2624169D1*
X7955874Y2608421D1*
X8022469D1*
X8038219Y2592671D1*
Y2566644D1*
X3466283Y1943886D2*
Y1836256D1*
X3476657Y1825882D1*
Y1802136D1*
X6942886Y3175673D2*
X6907853Y3175382D1*
X7221185Y3150083D2*
X7121610D1*
X5831346Y3395260D2*
Y3466878D1*
X5847094Y3482626D1*
X7236933D1*
Y3468803D1*
X7221185D1*
Y3408087D1*
X7698224Y2792768D2*
Y2826358D1*
X7061052Y1355807D2*
Y1390079D1*
X7455201D1*
X7067745Y1175719D2*
X7064007D1*
Y1355807D1*
X7061052D1*
X7575917Y3468803D2*
X7250756D1*
X7236933Y3482626D1*
X5500102Y3342396D2*
Y3386303D1*
X5515854Y3402055D1*
X5634024D1*
X5670618Y3365461D1*
X5801547D1*
X5831346Y3395260D1*
X5324673Y1596677D2*
X4961764D1*
X4936504Y1571417D1*
X4741035D1*
X7455201Y1450843D2*
X7423672Y1482371D1*
Y1510021D1*
X5013776Y558665D2*
X5012367Y557257D1*
X4973664D1*
Y549757D1*
X7708035Y3326480D2*
Y3320047D1*
X7743067D1*
X5364047Y717732D2*
X5898469D1*
X5900709Y715492D1*
X5119831Y708508D2*
X5145421D1*
X5154646Y717732D1*
X5364047D1*
X5084798Y708888D2*
Y707266D1*
X5118589D1*
X5119831Y708508D1*
X6308992Y795453D2*
X6283402Y821043D1*
X6011232D1*
X5983465Y848811D1*
X5900709D1*
X3646812Y1197944D2*
Y1186511D1*
X3670134D1*
Y1153469D1*
X5324673Y1596677D2*
X5326366Y1594984D1*
Y1556339D1*
X5848079Y3169678D2*
X5735220D1*
X5719472Y3153930D1*
Y3055657D1*
X5685885D1*
X3476657Y1802136D2*
Y1684390D1*
X3509453D1*
X5375161Y1896319D2*
X5371995Y1899486D1*
X5340129D1*
Y1901109D1*
X3237552Y3338294D2*
Y3304245D1*
X3221803Y3288496D1*
X3147472D1*
X5738098Y504839D2*
X5738094Y547685D1*
X1540669Y503217D2*
Y630454D1*
X1524921Y646202D1*
X1450772D1*
X2885390Y539055D2*
X3012370Y412075D1*
X5044819D1*
X5060567Y427823D1*
Y635280D1*
X8020815Y652067D2*
X7817602D1*
Y680854D1*
X691622Y1744366D2*
X820272D1*
X821428Y1743210D1*
X891831D1*
X6757512Y533559D2*
X6686154D1*
Y561596D1*
X595307Y2739343D2*
X648492Y2739499D1*
X8085776Y1018449D2*
X8102134Y1034807D1*
Y1138539D1*
X3003106Y862740D2*
X2968726D1*
Y886486D1*
X5594331Y1524173D2*
X5522945D1*
X5478088Y1569030D1*
X5418839D1*
X5415846Y3282346D2*
X5136134D1*
X5000324Y1724753D2*
X5000323Y1758343D1*
X1602102Y2913299D2*
X1518480D1*
X1502730Y2929050D1*
Y2992736D1*
X595307Y2507272D2*
X490815Y2402780D1*
Y2021531D1*
X506563Y2005783D1*
X634685D1*
X7476335Y513890D2*
X7539343Y450882D1*
X7995224D1*
X8020815Y476472D1*
X1952047Y3406362D2*
Y3264323D1*
X1936299Y3248575D1*
X1846686D1*
Y3237966D1*
X1839761D1*
X2360409Y2929354D2*
X2438986D1*
Y2905609D1*
X3147472Y3288496D2*
X2892043D1*
X2876294Y3272747D1*
Y3156575D1*
X2860546Y3140827D1*
X2821051D1*
Y3132327D1*
X5000323Y2027248D2*
X4997978Y2029593D1*
X4922228D1*
Y2041028D1*
X1450772Y646202D2*
X1419823D1*
Y608807D1*
X1395795Y584780D1*
X1393354D1*
Y560264D1*
X5738098Y447512D2*
X6827528D1*
X6842575Y462559D1*
Y513890D1*
X5278790Y629944D2*
X5312870D1*
Y533075D1*
X5487531D1*
X5503280Y517327D1*
Y463260D1*
X5519028Y447512D1*
X5738098D1*
X5060567Y635280D2*
X5103776D1*
X5132858Y606197D1*
X5278790D1*
Y629944D1*
X6686154Y561596D2*
X6437752D1*
Y524087D1*
X5418839Y1569030D2*
Y1540701D1*
X5403091Y1524953D1*
X5306201D1*
X5260472Y1570681D1*
X5000323D1*
X5018457Y3308976D2*
X5016488D1*
X5002709Y3295197D1*
Y3275387D1*
X1839761Y3237966D2*
X1750224Y3237811D1*
X5415846Y3019961D2*
X5403911Y3008025D1*
X5380816D1*
X7031156Y1331076D2*
Y1298094D1*
X7008374D1*
Y1188957D1*
X7070614Y2092390D2*
X7181067D1*
X7196815Y2076642D1*
Y2015906D1*
X7212563Y2000157D1*
X7452496D1*
X7455408Y1997245D1*
X7557350D1*
X5617059Y3010406D2*
X5719472D1*
X5735220Y3026154D1*
Y3060563D1*
X5750969Y3076311D1*
X5865378D1*
X5900039Y3110972D1*
X6916110Y3373106D2*
X6950080D1*
X6960974Y3369059D1*
X5878614Y2886717D2*
X5939613D1*
Y2890966D1*
X7008374Y1298094D2*
X6994185D1*
X6273562Y760455D2*
X6273559Y794043D1*
X6933965Y801941D2*
X6924122Y792098D1*
X6913535D1*
Y741043D1*
X7080157D1*
X7095906Y756791D1*
Y874676D1*
X6163261Y3166245D2*
X6035866D1*
X6020118Y3181993D1*
Y3360252D1*
X6030331D1*
X6041398Y3371319D1*
X6203161D1*
X6303705Y1075012D2*
Y1112951D1*
X6337152D1*
X6020118Y3360252D2*
X6015835D1*
Y3383997D1*
X6010676D1*
X5964693Y3110972D2*
X6019966Y3166245D1*
X6163261D1*
X5900039Y3110972D2*
X5964693D1*
X6994185Y1298094D2*
X6965760Y1269669D1*
X6766516D1*
X6750768Y1253921D1*
Y1148559D1*
X6735020Y1132811D1*
X6450949D1*
X6435201Y1117063D1*
Y1075012D1*
X7164092Y2996625D2*
X7104315D1*
X7088567Y2980877D1*
Y2924122D1*
X7147201Y3030213D2*
X7150311D1*
X7164092Y3016432D1*
Y2996625D1*
X6499965Y1174150D2*
X6698323D1*
Y1205206D1*
X4163411Y1881483D2*
Y1905228D1*
X4220031Y1961849D1*
Y2059642D1*
X4234781Y2074391D1*
X4333391D1*
X6499965Y1107220D2*
X6820976D1*
X6836724Y1122969D1*
Y1173209D1*
X6852472Y1188957D1*
X6863295D1*
X6873138Y1198799D1*
X6982783D1*
Y1167283D1*
X7000484Y1149583D1*
Y1122178D1*
X7687114Y828083D2*
X7505933D1*
X7480524Y802673D1*
X5563329Y3378308D2*
Y3349713D1*
X5877205D1*
X6000236Y2984055D2*
X6087459D1*
Y3019703D1*
X5484772Y1926386D2*
Y2024280D1*
X6238126Y794043D2*
X6136008D1*
X7827114Y1712035D2*
X7877874D1*
Y1688287D1*
X7795382Y1475039D2*
X7728016D1*
X7754909Y1335409D2*
X7719877D1*
Y1323475D1*
X5414535Y2010496D2*
X5372764D1*
Y2045381D1*
X4333391Y2074391D2*
Y2039752D1*
X4731197D1*
X4821528Y1949421D1*
X5273457D1*
X5289205Y1965169D1*
Y1990808D1*
X5304955Y2006559D1*
X5410598D1*
X5414535Y2010496D1*
X4149181Y1550114D2*
X4152921Y1553854D1*
Y1619571D1*
X4181969Y1648618D1*
Y1801646D1*
X4167732Y1815882D1*
Y1845837D1*
X4163411Y1850159D1*
Y1881483D1*
X7687114Y932087D2*
X7680011Y939190D1*
X7640823D1*
Y924706D1*
X7000484Y1122178D2*
X6989657D1*
Y1088591D1*
X5877205Y3349713D2*
Y3451130D1*
X5892953Y3466878D1*
X7140626D1*
X7156374Y3451130D1*
Y3259724D1*
X7102327D1*
X7086579Y3243976D1*
Y3160660D1*
X4149512Y740559D2*
Y739079D1*
X4163135Y725455D1*
X4184766D1*
X3304218Y1550268D2*
Y1538835D1*
X3345299D1*
X3041563Y888331D2*
X3120201D1*
X3345299Y1192256D2*
X3353589Y1200546D1*
X3394112D1*
Y1211979D1*
X3041563Y810906D2*
X3086332Y810404D1*
X7679417Y2698343D2*
X7705008Y2723933D1*
X7723815D1*
X7748748Y2699000D1*
X7786580D1*
X5085602Y3399717D2*
Y3466646D1*
X6846146Y2011079D2*
Y2054556D1*
X6854941D1*
Y2065991D1*
X3661776Y2921114D2*
X3511311D1*
Y2910115D1*
X4107362Y3291024D2*
X4074169D1*
Y3267278D1*
X7262150Y898429D2*
X7137244D1*
X7121496Y882681D1*
Y707306D1*
X7105748Y691558D1*
X7042820D1*
X7757350Y2054720D2*
Y2026807D1*
X7772945Y2011213D1*
X7813667D1*
X6281541Y1537168D2*
Y1638689D1*
X6259866Y1660364D1*
Y1782213D1*
X6307399Y1829745D1*
Y1882976D1*
X6323147Y1898724D1*
X6379164D1*
X6394912Y1914472D1*
Y1898667D1*
X6427478D1*
X4088299Y2849772D2*
Y2883362D1*
X7121496Y882681D2*
Y898429D1*
X7059555D1*
X7925957Y2824990D2*
X7981441D1*
X7997189Y2809241D1*
Y2639917D1*
X8012937Y2624169D1*
X8085870D1*
X7786580Y2699000D2*
Y2731495D1*
X7802329Y2747244D1*
X7910207D1*
X7925957Y2762993D1*
Y2824990D1*
X6394912Y1914472D2*
Y1963812D1*
X3511311Y2910115D2*
X3474157D1*
Y2854780D1*
X4074169Y3267278D2*
X4053772D1*
Y3277882D1*
X3675315D1*
X7262150Y1256449D2*
X7266396Y1260696D1*
X7384609D1*
X6394912Y1963812D2*
Y2000575D1*
X6410656Y2016319D1*
X6657327D1*
X6661260Y2020252D1*
X6722756D1*
X6731929Y2011079D1*
X5264126Y3475953D2*
Y3407402D1*
X5279874Y3391654D1*
X5371339D1*
X4879196Y1601281D2*
Y1613217D1*
X4923543D1*
X5083524Y2799776D2*
X4983055D1*
Y2832597D1*
X2186319Y666390D2*
X2207047Y645661D1*
Y613736D1*
X7614055Y792650D2*
X7651421D1*
Y794273D1*
X7614055Y958295D2*
Y924188D1*
X7807287Y3362874D2*
X7807110Y3219583D1*
X7702425Y1501457D2*
X7725496Y1524528D1*
X7914642D1*
X7930390Y1540276D1*
Y1670327D1*
X7946138Y1686075D1*
X8029217D1*
X8044965Y1701823D1*
Y1941535D1*
X8029217Y1957283D1*
X7873272D1*
X7857524Y1973031D1*
Y2037135D1*
X1420740Y1098811D2*
X1159768D1*
X1144016Y1114563D1*
Y1153169D1*
X7171627Y2000654D2*
X7146218D1*
Y1964428D1*
X7149240Y1961406D1*
X6793850Y3220681D2*
X6750394Y3177224D1*
X6655220D1*
X4932756Y1779110D2*
X4900319D1*
Y1806285D1*
X1720841Y1113108D2*
Y1082807D1*
X1873476D1*
X1889224Y1067059D1*
Y1039839D1*
X1885528Y1036142D1*
Y1009343D1*
X1869780Y993594D1*
X1420740D1*
X7247169Y1695370D2*
X7504386D1*
X7505642Y1696626D1*
X7643945D1*
X7677012Y1663559D1*
X1269453Y2333949D2*
X897783D1*
X1015587Y2813201D2*
X901724D1*
X5385118Y3312870D2*
X5282898D1*
X5271484Y3324283D1*
X5161724D1*
X2093799Y1083768D2*
X1905933D1*
X1889224Y1067059D1*
X6835240Y3220681D2*
X6850650D1*
X6864429Y3206902D1*
Y3185467D1*
X6839241D1*
Y3187091D1*
X7247169Y1551425D2*
X7211320D1*
X7195570Y1535675D1*
Y1498146D1*
X1420740Y870094D2*
X1311038D1*
X1279500Y838556D1*
X1044156D1*
Y840178D1*
X1127827Y3274492D2*
X1336594D1*
X1418000Y3355898D1*
X1613681D1*
X1629430Y3371647D1*
Y3398588D1*
X1425399Y1705282D2*
X1425402Y1671693D1*
X5326736Y1687843D2*
X5468307D1*
X5595720Y1560429D1*
X5628567D1*
Y1548530D1*
X4923543Y1613217D2*
X5252110D1*
X5326736Y1687843D1*
X4868331Y2061224D2*
X4875820Y2053735D1*
X4908609D1*
Y2061168D1*
X2217957Y1520013D2*
Y1518390D1*
X2293744D1*
X2309492Y1534138D1*
Y1564988D1*
X2325240Y1580736D1*
X2420555D1*
X2473469Y1527823D1*
X2500004D1*
X6707848Y2157728D2*
X6745979D1*
X6785762Y2117945D1*
X6907283D1*
X6665965Y2154295D2*
X6707848D1*
Y2157728D1*
X7149240Y1961406D2*
X7146898Y1959063D1*
X7003157D1*
X6951976Y2010244D1*
X6907283D1*
X4087622Y620642D2*
X4090210Y618054D1*
Y587051D1*
X7677012Y1663559D2*
X7680184Y1660387D1*
X7712268D1*
X897783Y2333949D2*
X794543D1*
X778795Y2318201D1*
Y2274770D1*
X901724Y2813201D2*
Y2925367D1*
X868634D1*
X5161724Y3324283D2*
X5092398D1*
Y3300538D1*
X3636185Y3178370D2*
X3630631Y3183924D1*
Y3212039D1*
X5253161Y1976260D2*
X5260391Y1983490D1*
Y2027969D1*
X4424717Y1565169D2*
X4511587D1*
X4527339Y1580921D1*
Y1623709D1*
X4359823Y877370D2*
X4428445D1*
X4027782Y1970752D2*
Y1942720D1*
X4043530Y1926972D1*
X4070244D1*
X4085992Y1911224D1*
Y1795539D1*
X4035937Y2062425D2*
X4027782Y2054270D1*
Y1970752D1*
X4428445Y877370D2*
X4432325Y873490D1*
X4483878D1*
X4178466Y2985126D2*
X4146776D1*
X4131028Y3000874D1*
Y3166761D1*
X4115280Y3182509D1*
X4039730D1*
X4477324Y1743870D2*
Y1788457D1*
X4508362D1*
X3411850Y2010925D2*
X3507622D1*
X3523370Y1995177D1*
Y1924333D1*
X3539118Y1908585D1*
X3683063D1*
X4508358Y1895583D2*
X4526780D1*
Y1878896D1*
X4566727D1*
X3320858Y1943886D2*
Y1880984D1*
X3305109Y1865235D1*
X2980507D1*
Y1866858D1*
X4039730Y3182509D2*
X3841690D1*
X3824524Y3165343D1*
X3683063Y1908585D2*
X3721169D1*
Y1692122D1*
X3736917Y1676374D1*
X3849984D1*
X3859827Y1666531D1*
X4341965Y1657291D2*
X4348312Y1663639D1*
Y1715675D1*
X4938106Y488846D2*
X4877083Y427823D1*
X3708146D1*
X3692398Y443571D1*
Y533719D1*
X2648949Y3248516D2*
Y3282105D1*
X2651375D1*
X3688972Y3124008D2*
X3634248D1*
X3586937Y3171319D1*
X3533613D1*
X3509696Y3147402D1*
X3073437D1*
X3063594Y3157244D1*
X2975035D1*
X2949043Y3131252D1*
Y3086437D1*
X2905982D1*
Y3088059D1*
X5653339Y2984815D2*
X5542157D1*
X5526409Y2969067D1*
Y2904575D1*
X5510661Y2888827D1*
X5242713D1*
X5232870Y2878984D1*
X1175213Y3388874D2*
X1221564Y3389686D1*
X4722886Y494756D2*
X4687856D1*
Y517728D1*
X4687528Y3275142D2*
Y3107417D1*
X4999783Y3375906D2*
Y3451362D1*
X4984035Y3467110D1*
X3771661D1*
X3762689Y3458138D1*
X6233319Y2155394D2*
X6121197D1*
Y2121686D1*
X5585315Y3114843D2*
X5361449D1*
X5353717Y3122575D1*
X5653339Y3110685D2*
Y3136276D1*
X5662785D1*
X5678535Y3152026D1*
Y3182972D1*
X3533613Y3171319D2*
X3517865Y3187067D1*
Y3215283D1*
X3688972Y3039472D2*
X3550535D1*
Y3040980D1*
X5562803Y859752D2*
X5593789D1*
Y831098D1*
X3602886Y621917D2*
Y633854D1*
X3567630D1*
X3692398Y533719D2*
X3567630Y533224D1*
X3119232Y2137220D2*
X3000878D1*
X2985130Y2121472D1*
Y2074079D1*
X2969382Y2058331D1*
X2907035D1*
X2891287Y2074079D1*
Y2095154D1*
X2875539Y2110902D1*
X2568020D1*
X2552272Y2126650D1*
Y2208823D1*
X2905982Y3088059D2*
X2786552D1*
X2770803Y3103808D1*
Y3169362D1*
X775969Y2430031D2*
X656335D1*
X640587Y2414283D1*
Y2387751D1*
X654677D1*
Y2375852D1*
X1139244Y2409441D2*
X933535D1*
X912945Y2430031D1*
X775969D1*
X1228294Y2373911D2*
Y2400568D1*
X1219421Y2409441D1*
X1139244D1*
X6337972Y2100161D2*
X6378123Y2100974D1*
X4575929Y1844870D2*
X4540899D1*
Y1848848D1*
X775969Y1927539D2*
X829071D1*
X844819Y1911791D1*
Y1837987D1*
X860413Y1822392D1*
X969365D1*
X901331Y1927996D2*
X775969Y1927539D1*
X3346280Y2033079D2*
X3336749D1*
X3332500Y2028829D1*
X3311248D1*
Y2030453D1*
X3567630Y633854D2*
X3571567Y637791D1*
X3601462D1*
Y715251D1*
X4930713Y1724996D2*
X4895680D1*
Y1726929D1*
X5779272Y3033957D2*
X5790130Y3044815D1*
X6105234D1*
X6115343Y3034706D1*
X6244898D1*
Y3026205D1*
X5763941Y3395260D2*
Y3456283D1*
X5748193Y3472031D1*
X5643768D1*
X5592591Y3420854D1*
X5494429D1*
X5439638Y3366063D1*
X5050165D1*
X5034417Y3381811D1*
Y3491386D1*
X5018669Y3507134D1*
X3848996D1*
X4190965Y3146516D2*
Y3047262D1*
X4200175D1*
X6906807Y3408539D2*
X6737484D1*
X5717743Y2831136D2*
X5557459D1*
X5553213Y2826890D1*
X3663378Y2844941D2*
X3584807D1*
X7387701Y2801866D2*
Y2842012D1*
X7390652D1*
X893551Y1405591D2*
X930150D1*
Y1432818D1*
X2230677Y1786992D2*
X2256268D1*
X2264159Y1794883D1*
X2290987D1*
X5451387Y2849335D2*
X5451390Y2805909D1*
X3878205Y3249504D2*
X4006146D1*
X3584807Y3013882D2*
X3824173D1*
X5763941Y3195272D2*
Y3248059D1*
X6244898Y3026205D2*
Y3038142D1*
X6279929D1*
X451441Y3002012D2*
X741159D1*
Y2990113D1*
X2083606Y3431953D2*
Y3491386D1*
X2067858Y3507134D1*
X522311D1*
X422618Y3407441D1*
Y3030835D1*
X451441Y3002012D1*
X3848996Y3507134D2*
X3735311D1*
X3686315Y3458138D1*
X3544988D1*
X3528173Y3474953D1*
X2126606D1*
X2083606Y3431953D1*
X4081772Y3376858D2*
X4088732Y3383819D1*
X4432551D1*
Y3371885D1*
X6963350Y3408331D2*
X6971976D1*
X6977130Y3413484D1*
X6985520D1*
Y3408483D1*
X6998602D1*
X607650Y1549638D2*
X683201Y1549791D1*
X738042Y1687682D2*
Y1713343D1*
X623398D1*
X607650Y1697594D1*
Y1549638D1*
X892531Y1686059D2*
X738042D1*
Y1687682D1*
X963803Y535209D2*
X966131D1*
X979911Y548988D1*
Y568846D1*
X1989437Y2962205D2*
X1993377Y2958265D1*
X2032238D1*
X4735024Y1929201D2*
X4829530D1*
X5087354D1*
X5092724Y1923831D1*
X5751567Y3101902D2*
Y3136764D1*
X5753681D1*
X6031445Y2069913D2*
X6178835D1*
X7461823Y1776654D2*
X7526079D1*
X7541827Y1792402D1*
Y1837677D1*
X7557575Y1853425D1*
X7576634D1*
X7592382Y1869173D1*
Y1990315D1*
X7685488Y3394150D2*
X7632597D1*
Y3419469D1*
X7981441Y3001898D2*
X7826516D1*
X7810768Y2986150D1*
Y2970693D1*
X7795020Y2954945D1*
X7605791D1*
Y2991980D1*
X7469358D1*
X7453610Y2976232D1*
Y2960555D1*
X7437862Y2944807D1*
X7287697D1*
X7271949Y2929059D1*
Y2853953D1*
X7256201Y2838205D1*
X7123988D1*
X4829530Y1929201D2*
X4829529Y1905453D1*
X5861157Y1660469D2*
X5807324D1*
Y1685281D1*
X7981441Y2518909D2*
X7834539D1*
Y2495164D1*
X7847135Y3311521D2*
X7847138Y3345110D1*
X8049909Y1400654D2*
Y1392743D1*
X8036130Y1378963D1*
X8025127D1*
Y1367064D1*
X7810512Y2058890D2*
X7812503Y2060881D1*
X7928756D1*
X8006762Y1982874D1*
X8049909D1*
X7592382Y1990315D2*
Y1998143D1*
X7586430Y2004094D1*
Y2017904D1*
X7599915D1*
Y2029337D1*
X7461823Y1555291D2*
X7474373Y1542741D1*
Y1521702D1*
X7123988Y2838205D2*
X7120528Y2841665D1*
X7086643D1*
Y2843287D1*
X7834539Y2495164D2*
X7799283Y2495008D1*
X7963201Y1660484D2*
Y1626896D1*
X7974025D1*
X7883114Y1921106D2*
X7898933Y1905287D1*
Y1833122D1*
X5189579Y3118323D2*
X5298273D1*
Y3140306D1*
X7208512Y1415669D2*
X7198669Y1405827D1*
X6965102D1*
X6901016Y1341740D1*
X6640244D1*
X6633819Y1335315D1*
X5124898Y1705531D2*
Y1739121D1*
X6209173Y2065744D2*
Y2121806D1*
X6213110D1*
X5092724Y1193169D2*
X4973783D1*
X4967642Y1199311D1*
X4945522D1*
Y1175566D1*
X7883114Y2253661D2*
X7850661D1*
Y2281091D1*
X7842521D1*
X5092724Y588441D2*
X5210068D1*
Y564694D1*
X6732457Y1724240D2*
X6758047D1*
X6773795Y1708492D1*
Y1648345D1*
X6855343D1*
X6702665Y793681D2*
X6774909D1*
X6790657Y777933D1*
Y735558D1*
X7521505Y1902850D2*
X7340898D1*
X7339799Y1901752D1*
X7557575Y1879016D2*
Y1887448D1*
X7543795Y1901227D1*
X7521505D1*
Y1902850D1*
X7761627Y2886272D2*
Y2862524D1*
X7735059D1*
Y2888387D1*
X7716356D1*
X7868291Y2884650D2*
X7761627D1*
Y2886272D1*
X7386264Y1226244D2*
X7386635Y1153731D1*
X666031Y1411492D2*
X607650D1*
X591902Y1427240D1*
Y1468806D1*
X607654Y1484558D1*
X665241D1*
X666031Y1616768D2*
X691240Y1641976D1*
X1046760D1*
X1097906Y1844374D2*
X1147059D1*
X1162807Y1860122D1*
Y1952402D1*
X1178555Y1968150D1*
X1211710D1*
Y1988895D1*
X648988Y1286189D2*
X459327D1*
X443579Y1301937D1*
Y2559453D1*
X541996Y2657870D1*
Y2606689D1*
X565890Y2582795D1*
X599631D1*
Y2598543D1*
X1046760Y1641976D2*
X1050697Y1645913D1*
X1086899D1*
Y1648785D1*
X6293835Y1487020D2*
X6132531D1*
X6543799Y1386500D2*
X6530110Y1400189D1*
X6380449D1*
X6345016Y1435622D1*
X8046406Y875429D2*
X8104538Y933562D1*
Y984862D1*
X6659976Y513740D2*
X6499768D1*
X6963346Y3140240D2*
X7032962Y3209856D1*
Y3239474D1*
X6859059Y1490291D2*
X6937181D1*
X6937559Y1601783D2*
Y1665130D1*
X6953462Y1681033D1*
X7011604D1*
X6064969Y1634878D2*
X5804504D1*
X6635797Y1430934D2*
X6596416D1*
X6582638Y1417156D1*
Y1401705D1*
X6859059Y1421504D2*
X6635797D1*
Y1430934D1*
X6937181Y1490291D2*
X7126003D1*
Y1456701D1*
X7019433Y1744280D2*
X7065081D1*
Y1770562D1*
X7011604Y1681033D2*
Y1710564D1*
X7019433Y1718394D1*
Y1744280D1*
X5985518Y1899614D2*
Y1897988D1*
X6032409D1*
X7014732Y2104394D2*
Y2116665D1*
X7000953Y2130445D1*
X6979701D1*
Y2106698D1*
X4959555Y1541827D2*
X4708361D1*
Y1546736D1*
X4760614Y1832303D2*
X4762457Y1834146D1*
X4919105D1*
X3403182Y1720804D2*
X3403181Y1754394D1*
X2523039Y761150D2*
X2555726D1*
Y735495D1*
X485461Y3275862D2*
X731764D1*
X747512Y3260114D1*
Y3114626D1*
X763261Y3098877D1*
X792711D1*
X848281Y1339648D2*
X818613D1*
X795626Y1316661D1*
X755252D1*
X739504Y1332409D1*
Y1421335D1*
X835047D1*
X911614Y1497902D1*
X1009417D1*
X1025165Y1482154D1*
X1274249D1*
X1289999Y1466404D1*
Y1387079D1*
X3403181Y1754394D2*
X3161354D1*
X3130421Y1723461D1*
X2954457D1*
X2946465Y1715469D1*
X2871383D1*
X2858675Y1728177D1*
X2833531D1*
X2808343D1*
Y1739610D1*
X2370031Y1907402D2*
X2615110D1*
X2630862Y1891650D1*
Y1855046D1*
X3983543Y1734516D2*
X3950992Y1701965D1*
X3855591D1*
X1802272Y3197394D2*
X2181547D1*
X3403181Y1176516D2*
X3440587Y1176669D1*
X990634Y1693843D2*
X1024336D1*
Y1670096D1*
X2370031Y2877535D2*
X2464173D1*
X2479921Y2893283D1*
Y2929354D1*
X2464173Y2945102D1*
X2444098D1*
X2428348Y2960853D1*
Y3058373D1*
X739504Y1332409D2*
X706075D1*
X690327Y1316661D1*
Y1250756D1*
X674579Y1235008D1*
X490815D1*
X1802272Y3049114D2*
X1767240D1*
Y3072860D1*
X4156778Y1731886D2*
Y1697988D1*
X4128709D1*
X4112961Y1713736D1*
Y1743787D1*
X1009417Y1497902D2*
Y1578081D1*
X2446650Y1731787D2*
X2411803D1*
Y1771244D1*
X2396055Y1786992D1*
X2370031D1*
X973757Y2067133D2*
X911660D1*
X896066Y2082727D1*
Y2184001D1*
X1008787Y2045870D2*
Y2051730D1*
X995008Y2065509D1*
X973757D1*
Y2067133D1*
X2446650Y1767220D2*
X2456492Y1757378D1*
X2590969D1*
X2626287Y1722059D1*
X2833531D1*
Y1728177D1*
X5369634Y2145598D2*
Y2085465D1*
X5385382Y2069717D1*
X5520201D1*
Y1951441D1*
X5334604Y2133699D2*
Y2145598D1*
X5369634D1*
X2181547Y3197394D2*
X2268366D1*
X2293953Y3171807D1*
X2330508D1*
Y3188703D1*
X3869969Y1862469D2*
X3834936D1*
Y1864453D1*
X5671118Y2085465D2*
X5535949D1*
X5520201Y2069717D1*
X993154Y1864472D2*
Y1830885D1*
X726039Y1954756D2*
Y1953134D1*
X978559D1*
X994308Y1937385D1*
Y1865627D1*
X993154Y1864472D1*
X490815Y1954602D2*
X726039Y1954756D1*
X5671118Y1951358D2*
X5662266Y1960210D1*
X5599720D1*
Y1961833D1*
X4112961Y1743787D2*
Y1862469D1*
X7820976Y1648618D2*
X7754024D1*
X7738276Y1664366D1*
Y1853425D1*
X7890445Y761980D2*
Y728392D1*
X7075623Y1852634D2*
X7086121Y1856638D1*
X7411539D1*
X7429433Y1838744D1*
X7516236D1*
X6879138Y1848386D2*
X6883386Y1852634D1*
X7075623D1*
X7820976Y1567854D2*
X7870370Y1568008D1*
X3175031Y2961559D2*
X2864701D1*
X2814299Y3011961D1*
X2730059D1*
X2714308Y3027711D1*
Y3061895D1*
X5849528Y899992D2*
X6024882D1*
X6050472Y925583D1*
X6335783D1*
X6782894Y958122D2*
X7138520D1*
X7195164Y1014766D1*
Y1038717D1*
X4771937Y1749374D2*
Y1670303D1*
X4787685Y1654555D1*
X4876769D1*
X4880706Y1650618D1*
X5202055D1*
X6077008Y3070406D2*
X6090182Y3083580D1*
Y3120732D1*
X6232972Y2837075D2*
Y2929594D1*
X6077008D1*
X6537197Y741732D2*
X6572451Y741887D1*
X6537197Y880370D2*
X6782894D1*
X6429295Y1934909D2*
X6479280Y1884925D1*
X6612665D1*
Y1854109D1*
X5278748Y1889646D2*
Y1919751D1*
X5309563D1*
X7314370Y1152051D2*
X7279340D1*
Y1153675D1*
X5283339Y1820626D2*
X5283335Y1854213D1*
X5202055Y1515106D2*
X5167022D1*
Y1503169D1*
X7195164Y1038717D2*
Y1037094D1*
X7314370D1*
X7419906Y917327D2*
X7425651D1*
X7439432Y903546D1*
Y883738D1*
X6233319Y1818732D2*
X6234677Y1817374D1*
Y1730701D1*
X6233319Y2012579D2*
X6239717Y2018976D1*
Y2038169D1*
X6255984D1*
X6261835Y2032319D1*
X6311453D1*
X5568126Y2034283D2*
X5593717Y2059874D1*
X5980098D1*
X6027394Y2012579D1*
X6233319D1*
X5309563Y1919751D2*
Y1886476D1*
X5325311Y1870728D1*
X5427791D1*
X5455846Y1898783D1*
X5530043D1*
X5545791Y1914531D1*
Y1986358D1*
X5568126Y2008693D1*
Y2034283D1*
X6311453Y1934909D2*
X6309643Y1936719D1*
X6275497D1*
Y1938343D1*
X5737575Y1609287D2*
X6090559D1*
Y1648684D1*
X6106307Y1664432D1*
X6152525D1*
X6486724Y1972154D2*
X6490335Y1975764D1*
X6628413D1*
X6644161Y1960016D1*
Y1913571D1*
X6659909Y1897823D1*
X6757748D1*
X6779189Y1876382D1*
X6840415D1*
X7260339D1*
X7261122Y1875598D1*
X7377303D1*
X7385236Y1883531D1*
X7455613D1*
Y1867661D1*
X2800031Y677354D2*
X2704783D1*
X2672063Y644634D1*
X2647272D1*
X2611402Y608764D1*
X2421228D1*
X2408327Y595862D1*
X2266615D1*
Y597486D1*
X1368971Y712026D2*
Y696654D1*
X1404004D1*
X2843478Y1627697D2*
X2869476D1*
X2880476Y1638697D1*
X2910862D1*
X7461130Y1212909D2*
X7495987Y1247766D1*
Y1282593D1*
X5617929Y1719335D2*
X5608083Y1729181D1*
X5400752D1*
X636630Y753533D2*
X661819D1*
X667163Y748189D1*
X931161D1*
X939839Y739512D1*
X984686D1*
X7524319Y885236D2*
X7642285D1*
Y915446D1*
X7609171Y2034449D2*
Y2055276D1*
X7653406D1*
Y2322417D2*
X7683969D1*
X7699719Y2338168D1*
Y2362801D1*
X7524319Y988150D2*
X7481126D1*
X7471067Y978091D1*
X7236362D1*
X7230197Y984256D1*
X4981618Y2153811D2*
Y2113008D1*
X4973934D1*
Y2101073D1*
X3536626Y1850823D2*
X3604079D1*
X5400752Y1935693D2*
X5416631Y1919814D1*
Y1895858D1*
X1367988Y1498524D2*
X1077802D1*
Y1522832D1*
X7455613Y1867661D2*
Y1866038D1*
X7488967D1*
X7490646Y1867717D1*
X6840415Y1876382D2*
Y1851836D1*
X6152525Y1664432D2*
Y1650622D1*
X6218024D1*
X6227866Y1660465D1*
X2266615Y597486D2*
X2255791D1*
Y563898D1*
X1404004Y696654D2*
X1751551D1*
X1767299Y712402D1*
Y752268D1*
X1783047Y768016D1*
X2025878D1*
X3352461Y1685437D2*
X3387714D1*
Y1704361D1*
X2910862Y1638697D2*
X3305720D1*
X3352461Y1685437D1*
X7495987Y1282593D2*
Y1313213D1*
X7450201D1*
X984686Y739512D2*
X1102571D1*
X1117638Y754579D1*
X1315811D1*
X1327150Y765917D1*
X1356689D1*
X7653406Y2055276D2*
Y2014965D1*
X7680579Y1987791D1*
Y1904606D1*
X3287009Y696257D2*
Y666524D1*
X3326535D1*
X3342283Y682272D1*
Y846467D1*
X3358034Y862218D1*
X3414152D1*
X2908382Y728575D2*
X3287009D1*
Y696257D1*
X2860735Y717576D2*
Y728575D1*
X2908382D1*
X7230197Y1149622D2*
X7228648D1*
X7214869Y1135843D1*
Y1116035D1*
X1413627Y1328623D2*
Y1327001D1*
X1805303D1*
X1877710Y1399408D1*
X1940909D1*
X1367988Y1328469D2*
X1413627Y1328623D1*
X5267831Y3189642D2*
X5265110Y3186921D1*
X5112471D1*
Y3182421D1*
X8044843Y1298602D2*
Y1345966D1*
X8042720D1*
X8014728Y1762260D2*
Y1701823D1*
X7944992D1*
X7929244Y1717571D1*
Y1797689D1*
X7256618Y3408087D2*
X7357114D1*
X7730516Y3083362D2*
X7690927D1*
Y3107312D1*
X8060280Y3083362D2*
X7820610D1*
X7934295Y2279248D2*
X8034689D1*
X7374319Y3283398D2*
X7328571D1*
Y3295335D1*
X7377197Y3245504D2*
X7342167D1*
Y3257441D1*
X7555757Y1447983D2*
X7555760Y1414394D1*
X7427602Y1093850D2*
X7421726Y1099727D1*
X7334269D1*
Y1101350D1*
X7929244Y1797689D2*
X7889091D1*
X7873343Y1813437D1*
Y1872030D1*
X7842902Y1902471D1*
Y1934846D1*
X7690927Y3107312D2*
Y3141413D1*
X7675178Y3157161D1*
X7448106D1*
X3799681Y1867319D2*
X3770764Y1838402D1*
Y1808559D1*
X3783839Y1795484D1*
Y1701965D1*
X3800965Y1831886D2*
X3891904D1*
X3899211Y1839193D1*
X3930592D1*
X3893693Y1992862D2*
X3854535D1*
X3800965Y1939291D1*
X3600906Y1679807D2*
X3565874D1*
Y1708483D1*
X3668693Y1527476D2*
X3675726Y1534509D1*
X3731899D1*
Y1527631D1*
X3770996Y782203D2*
Y779772D1*
X3806028D1*
X773102Y3239835D2*
X808238D1*
Y3218181D1*
X775969Y2465465D2*
X614996D1*
X1791508Y614098D2*
X1818925Y586681D1*
Y554920D1*
X1777728Y1403780D2*
X1748165D1*
X1732416Y1419529D1*
Y1445958D1*
X1576512Y2887709D2*
X1968181D1*
X636189Y1687752D2*
Y1654163D1*
X614999Y2186427D2*
X614996Y2152839D1*
X1514126Y3271135D2*
Y3304724D1*
X2005504Y996315D2*
X2014043D1*
X2027823Y982535D1*
Y962727D1*
X1968181Y2887709D2*
X2009514D1*
X2011316Y2885907D1*
X2297812D1*
X4215886Y3011201D2*
X4181507D1*
Y3036143D1*
X6681094Y3372197D2*
X6737484D1*
X6742669Y3056909D2*
X6707636D1*
Y3082846D1*
X6334697Y3380047D2*
X6308224Y3406520D1*
X5971249D1*
X6369972Y2954622D2*
X6433757Y2954778D1*
X6737484Y3372197D2*
X6763579Y3346102D1*
X6945647D1*
X3574969Y2081154D2*
X3413209D1*
X3574969Y1984197D2*
X3622898Y1936268D1*
X3736276D1*
X3752024Y1920520D1*
Y1780073D1*
X3086043Y2112563D2*
X3111232D1*
Y2071772D1*
X2812608Y1937037D2*
Y1935413D1*
X2837795D1*
X2870764Y1968382D1*
X2985130D1*
X3000878Y1984130D1*
Y2096870D1*
X3016571Y2112563D1*
X3086043D1*
X3791230Y3250253D2*
Y3213850D1*
X3806978Y3198102D1*
X3962972D1*
X3971126Y3206256D1*
X4056512D1*
X4064445Y3198323D1*
X4193598D1*
X4244041Y3147881D1*
Y2977612D1*
X2648949Y3011823D2*
X2647790Y3012982D1*
X2561218D1*
Y3014605D1*
X6816248Y783236D2*
X6882035D1*
X6897785Y767487D1*
Y716080D1*
X542000Y1056173D2*
X848205D1*
X863945Y1071913D1*
Y1110894D1*
X838757D1*
X5930753Y2017833D2*
Y2041579D1*
X5852709D1*
X5804075Y1992945D1*
X1487906Y1620571D2*
X1572969D1*
X1602661Y1650264D1*
X1657177D1*
Y1591311D1*
X1672925Y1575563D1*
X1839504D1*
X1881500Y1617559D1*
X2147846D1*
X2190496Y1660209D1*
X2567138D1*
Y1665837D1*
X2585837D1*
X4633260Y2008465D2*
X4503846D1*
X1510311Y1213220D2*
X1562895D1*
Y1196000D1*
X6360453Y1726528D2*
Y1692938D1*
X6371278D1*
X6749730Y1853983D2*
Y1821051D1*
X6704642D1*
X7275039Y715327D2*
Y761445D1*
X7290787Y777193D1*
X7378564D1*
X7394312Y792941D1*
Y836373D1*
X838217Y998831D2*
Y1032420D1*
X842866D1*
X6776358Y1195575D2*
Y1164937D1*
X6808484Y1132811D1*
X6073343Y1726827D2*
X5794228Y1727185D1*
X5804075Y1992945D2*
X5777933D1*
X5762185Y2008693D1*
X5680778D1*
Y1984948D1*
X885689Y1549941D2*
X850427D1*
Y1574265D1*
X1067449Y1581201D2*
X1259815D1*
X963343Y1456563D2*
X1067449D1*
X2909122Y1743390D2*
X3009185D1*
Y1760760D1*
X3026959D1*
X1347808Y1627539D2*
Y1673755D1*
X2585837Y1665837D2*
Y1689583D1*
X2675654D1*
X2694358Y1670878D1*
X2821437D1*
X2840437Y1689878D1*
X2909122D1*
X1839504Y1575563D2*
Y1551816D1*
X1383244Y1611299D2*
X1392516Y1620571D1*
X1487906D1*
X6897785Y716080D2*
X6932815Y715327D1*
X5804075Y1992945D2*
X5852445D1*
X5903102Y1942287D1*
X6211067D1*
X6226815Y1926539D1*
Y1909154D1*
X6281807Y1854161D1*
X4840749Y1710825D2*
Y1759217D1*
X4825001Y1774965D1*
X4720764D1*
X4669583Y1723783D1*
X5144083Y1758625D2*
Y1780961D1*
X5069969D1*
X5054220Y1765213D1*
Y1686051D1*
X5038472Y1670303D1*
X4856500D1*
X4840749Y1686054D1*
Y1710825D1*
X5795927Y1535220D2*
X5713472D1*
X5697878Y1550815D1*
Y1697689D1*
X5650638Y1744929D1*
X5431264D1*
X5421421Y1754772D1*
X5372890D1*
X5350642Y1777020D1*
X5204802D1*
X5186407Y1758625D1*
X5144083D1*
X6360453Y1854161D2*
Y1780390D1*
X6704642Y1821051D2*
X6601075D1*
X6567965Y1854161D1*
X6360453D1*
X7394312Y836373D2*
Y942917D1*
X7509374D1*
X7519583Y932709D1*
X7566882D1*
X7582630Y948457D1*
Y1002496D1*
X7598378Y1018244D1*
X7735157D1*
Y1038703D1*
X842866Y1032420D2*
X844299Y1040417D1*
X848205Y1056173D1*
X1168810Y2565839D2*
X642480D1*
X619780Y2543138D1*
X542000D1*
X5794228Y1727185D2*
X5744122D1*
X5714626Y1697689D1*
X5697878D1*
X3285425Y1892705D2*
X3281488Y1896642D1*
Y1926295D1*
X3275197D1*
X3026959Y1760760D2*
Y1759138D1*
X3097622D1*
X3118724Y1780240D1*
X3285425D1*
X4805626Y2999827D2*
X4847398Y2999327D1*
X7101302Y3351524D2*
Y3367398D1*
X7059579D1*
X4968146Y2988654D2*
Y3026659D1*
X4978971D1*
X5441437Y3045551D2*
X5341280D1*
X5325531Y3029803D1*
Y2994346D1*
X6599269Y2953469D2*
X6518583D1*
X6473067Y2907953D1*
X6312812D1*
Y2872740D1*
X6287626D1*
Y2874362D1*
X3980555Y3073846D2*
Y3040259D1*
X7059579Y3367398D2*
Y3319894D1*
X7043831Y3304146D1*
X7007241D1*
Y3327571D1*
X5325531Y2994346D2*
Y2963063D1*
X5309783Y2947315D1*
X4977984D1*
X4968142Y2937472D1*
X7663915Y2273081D2*
X7764453D1*
X7780201Y2288829D1*
Y2385417D1*
X7791026D1*
Y2402378D1*
X7575913Y2296343D2*
X7599175Y2273081D1*
X7663915D1*
X6287626Y2874362D2*
Y2894173D1*
X6273846Y2907953D1*
X6259083D1*
X5985476Y3242969D2*
X5983108Y3240600D1*
X5941505D1*
Y3231034D1*
X4534406Y3145634D2*
X4381303D1*
X4277862Y3249075D1*
X4139142D1*
X4125898Y3262319D1*
X4107449D1*
Y3238573D1*
X4747487Y3256130D2*
X4747488Y3196811D1*
X3800965Y1988626D2*
X3773012Y2016579D1*
Y2067255D1*
X3746824D1*
Y2037846D1*
X3398071D1*
X3382319Y2022094D1*
Y2017150D1*
X3366571Y2001402D1*
X3101921D1*
X3053154Y1952634D1*
X2893193D1*
X2853543Y1912984D1*
X2793291D1*
X2782980Y1923295D1*
X2696846D1*
X2681098Y1939043D1*
Y1958896D1*
X2696850Y1974648D1*
X2748829D1*
Y1985083D1*
X2593618D1*
X2589370Y1980835D1*
X2472598D1*
X3382319Y1855584D2*
Y1985654D1*
X3366571Y2001402D1*
X3969967Y749354D2*
Y784909D1*
X4011138D1*
X7275028Y1927669D2*
Y1892130D1*
X6799965D1*
X6768465Y1923630D1*
X6691122D1*
X5916780Y1980807D2*
X6245949D1*
X6271870Y2006728D1*
X6337043D1*
X6659409Y1236008D2*
X6709831D1*
Y1224073D1*
X4631606Y498693D2*
Y533997D1*
X4642429D1*
X4543724Y648039D2*
X4062567D1*
X5552957Y587520D2*
X5411118D1*
X5395370Y603268D1*
Y642604D1*
X6009598Y629303D2*
X6231047D1*
Y654492D1*
X6669138Y2072803D2*
Y2120173D1*
X6694547D1*
X4807014Y530134D2*
X4807016Y583925D1*
X4308879Y1706794D2*
Y1896728D1*
X4324627Y1912476D1*
X4371780D1*
X4011138Y784909D2*
Y729898D1*
X3995390Y714150D1*
X3938394D1*
X3924614Y727929D1*
X3847083D1*
X3831335Y712181D1*
Y651398D1*
X3815584Y635647D1*
X3646276D1*
Y637269D1*
X6691119Y1996504D2*
X6554705D1*
X6553465Y1997744D1*
X6436957D1*
X6429945Y1990732D1*
X6691122Y1923630D2*
X6691119Y1996504D1*
X7020429Y2912315D2*
X6999406Y2891291D1*
Y2882657D1*
X6983656Y2866908D1*
X6956070D1*
X7604055Y3381799D2*
X7528012D1*
X7512262Y3366050D1*
Y3326385D1*
X7955850Y2747252D2*
Y2780840D1*
X7619442Y2610038D2*
Y2608416D1*
X7879295D1*
X7917621Y2570091D1*
X7955850D1*
X7969858Y2471075D2*
X7960327D1*
X7956079Y2466827D1*
X7934825D1*
Y2468450D1*
X6051417Y3138823D2*
X5973157Y3060563D1*
X5766717D1*
X5750969Y3044815D1*
Y2950194D1*
X5735217Y2934442D1*
X5706004D1*
X6575898Y3254689D2*
X6508602D1*
X6474835Y3288457D1*
X6295677D1*
X6279929Y3272709D1*
Y3154571D1*
X6264181Y3138823D1*
X6130681D1*
X1122370Y603020D2*
X1177928D1*
X1193676Y587272D1*
Y544377D1*
X2532245Y540865D2*
Y514441D1*
X2575858D1*
X4337606Y1998618D2*
X4397370Y1938854D1*
Y1825555D1*
X4413118Y1809807D1*
X4435886D1*
X4451635Y1794058D1*
Y1760631D1*
X827744Y3159831D2*
Y3209168D1*
X830369D1*
X2976432Y1149875D2*
Y1187177D1*
X2785500D1*
X3043004Y634602D2*
X3108492D1*
X3014049Y3055231D2*
Y3012780D1*
X3052524D1*
X933866Y1896327D2*
X969119D1*
Y1908262D1*
X2637780Y715417D2*
X2602749D1*
Y703484D1*
X1193676Y544377D2*
Y469161D1*
X1209424Y453413D1*
X1827043D1*
X1852638Y479008D1*
X2575858Y514441D2*
X2587669D1*
X2601449Y500661D1*
Y479008D1*
X1996760D1*
X3230479Y623081D2*
Y621461D1*
X3265512D1*
X4171409Y2842937D2*
X4203995D1*
Y2874496D1*
X4090089Y3014239D2*
Y2943521D1*
X4105839Y2927772D1*
X4155661D1*
X4171409Y2912024D1*
Y2842937D1*
X3052524Y3012780D2*
X3087949Y3048205D1*
X3433650D1*
X3450508Y3065063D1*
X3701768D1*
X3727358Y3039472D1*
X3849764D1*
X3887264Y3001972D1*
X4014077D1*
X4026344Y3014239D1*
X4090089D1*
X2143374Y3068555D2*
X2098222D1*
Y3080492D1*
X1010220Y3297535D2*
X924488D1*
Y3282659D1*
X2091331Y3248575D2*
X2048169D1*
X2032421Y3264323D1*
Y3459890D1*
X2016673Y3475638D1*
X1196496D1*
X1117992Y3397134D1*
X2865898Y3032138D2*
X2901152D1*
Y3033982D1*
X2332882Y2821535D2*
X2559339D1*
X2597264Y2859461D1*
X2898205D1*
X3103407Y2924157D2*
Y2922535D1*
X3138437D1*
X1899996Y1896948D2*
Y1945421D1*
X1885764Y1959654D1*
Y1985244D1*
X3505894Y1719823D2*
X3534047Y1747976D1*
X3552894D1*
X3568642Y1763724D1*
Y1800394D1*
X3471760Y1646988D2*
X3507012D1*
Y1635054D1*
X3568642Y1800394D2*
X3610458D1*
Y1817234D1*
X2342371Y3137396D2*
Y3112657D1*
X2303323D1*
Y3034583D1*
X2287575Y3018835D1*
X1872497D1*
Y3000026D1*
X3111579Y3174354D2*
X3113421Y3172512D1*
X3255297D1*
X4681315Y2867520D2*
Y2919577D1*
Y3029902D2*
X4432972D1*
X4410971Y3051903D1*
X4313215D1*
X5180181Y3000252D2*
X5182976Y3003047D1*
Y3038399D1*
X4681315Y2919577D2*
X4895717D1*
X4939202Y2963063D1*
X4980362D1*
X5052260Y3034961D1*
X5122937D1*
X5138685Y3019213D1*
Y3016000D1*
X5154433Y3000252D1*
X5180181D1*
X3394045Y2153307D2*
Y2149059D1*
X3323008D1*
X2358441Y3228650D2*
X2322322D1*
Y3206906D1*
X3225047Y2839941D2*
X3230953Y2845846D1*
X3391354D1*
X3394020Y2843181D1*
X3429298D1*
Y2866929D1*
X784937Y2871783D2*
X817782Y2904629D1*
Y2960655D1*
X1374930Y1897445D2*
X1326744Y1897291D1*
X2149201Y3107501D2*
Y3139673D1*
X1930154D1*
X1926457Y3135976D1*
X1735465Y2026583D2*
Y2070726D1*
X1746865D1*
X1926457Y3135976D2*
X1924598Y3134118D1*
X1692394D1*
X1689297Y3137215D1*
X1617115D1*
Y3148648D1*
X6643433Y3056909D2*
X6628014D1*
X6614235Y3070689D1*
Y3091213D1*
X2598772Y565618D2*
X2624362D1*
X2629394Y560587D1*
X2668075D1*
X2708223Y520438D1*
X2741189D1*
X1785220Y578665D2*
X1755358D1*
X1744870Y589154D1*
X1711031D1*
X1360472Y1824280D2*
X1347063Y1810870D1*
X1044394D1*
X1028642Y1826622D1*
Y1879672D1*
X1428016Y805315D2*
X1392982D1*
Y793381D1*
X3652165Y2081280D2*
X3617135D1*
Y2069344D1*
X2332621Y746037D2*
Y707731D1*
X2316870Y691980D1*
X2160728D1*
Y676587D1*
X2144980Y660839D1*
X2000287D1*
X2462547Y753921D2*
X2453039Y744413D1*
X2332621D1*
Y746037D1*
X2000287Y881638D2*
X2103841D1*
Y888109D1*
X2116504D1*
X1952780Y886071D2*
Y884449D1*
X1997476D1*
X2000287Y881638D1*
X1475043Y1974472D2*
X1439327D1*
Y1975230D1*
X2716602Y1696469D2*
X2777445Y1695576D1*
X1461685Y530189D2*
X1458730Y533144D1*
Y564265D1*
X4295172Y3338388D2*
Y3316614D1*
X3659024D1*
X3643276Y3335531D1*
X3624535D1*
Y3315028D1*
X2741529Y3392140D2*
Y3319995D1*
X2757280Y3304244D1*
X2987516D1*
X3010748Y3327476D1*
X3088364D1*
X3559217Y3279256D2*
X3564967Y3273505D1*
X3627528D1*
X3643276Y3289253D1*
Y3316614D1*
X3659024D1*
X3373676Y3280068D2*
Y3278445D1*
X3532815D1*
X3533626Y3279256D1*
X3559217D1*
X3088364Y3327476D2*
Y3355673D1*
X3104112Y3371421D1*
X3357925D1*
X3373676Y3355671D1*
Y3280068D1*
X1349043Y3080850D2*
X1166106D1*
X1132693Y3114264D1*
X899797D1*
Y3090518D1*
X1400694Y3068954D2*
Y3080850D1*
X1349043D1*
X6223130Y2797150D2*
X6207382Y2812898D1*
Y2904004D1*
Y3285445D2*
Y3287286D1*
X6219320Y3299224D1*
Y3319031D1*
X6501257Y2820731D2*
Y2832665D1*
X6583591D1*
X6599693Y2816563D1*
X6701650D1*
X6717398Y2832311D1*
Y2948646D1*
X6733146Y2964394D1*
X6785070D1*
X6802623Y2946840D1*
X6978756D1*
X5485453Y3164051D2*
X5184551D1*
X5164413Y3143913D1*
X5116571D1*
X5070978Y3098320D1*
X4889971D1*
Y3099944D1*
X5587429Y2924961D2*
X5621105Y2958636D1*
X5713450D1*
Y2961071D1*
X1228319Y1391228D2*
X1252379D1*
Y1391383D1*
X1265978D1*
X808277Y2215791D2*
Y2198815D1*
X856617D1*
X872365Y2214563D1*
Y2252130D1*
X627711Y1912133D2*
Y1894705D1*
X475075D1*
X459327Y1910453D1*
Y1964445D1*
X475075Y1980193D1*
X658924D1*
X661790Y1983059D1*
X741399D1*
X872365Y2252130D2*
X931126D1*
X946874Y2236382D1*
Y2181445D1*
X931123Y2165694D1*
Y2103147D1*
X1920856Y612335D2*
Y639062D1*
X1913992Y645925D1*
X2689925Y1645287D2*
X2659819D1*
Y1663727D1*
X2540923Y703942D2*
X2540921Y670354D1*
X1920856Y612335D2*
Y588591D1*
X1997413D1*
X2022835Y614012D1*
X2159815D1*
Y514445D1*
X2175563Y498697D1*
X2472390D1*
X2488138Y514445D1*
Y549874D1*
X1096780Y644213D2*
Y453413D1*
X1112528Y437665D1*
X1862699D1*
X1878448Y453413D1*
Y596585D1*
X1894197Y612335D1*
X1920856D1*
X1061749Y641587D2*
X1084311D1*
X1086937Y644213D1*
X1096780D1*
X946874Y2181445D2*
X997902Y2130417D1*
X1109748D1*
X741399Y1983059D2*
X804303D1*
X818150Y1969213D1*
X1109748D1*
X1913992Y977850D2*
X1911928Y979915D1*
Y1021177D1*
X1583965Y916661D2*
X1273890D1*
X1258142Y932409D1*
Y993433D1*
X1242394Y1009181D1*
X1156567D1*
X1152634Y1005248D1*
X1105781D1*
Y1027104D1*
X1718201Y1605091D2*
X1771971D1*
Y1628869D1*
X1675598Y614744D2*
Y555568D1*
X1691348Y539819D1*
X1724927D1*
X1675512Y1054614D2*
X1685591Y1064693D1*
Y1143031D1*
X1679909Y1352598D2*
X1417441D1*
X1401693Y1368346D1*
Y1474848D1*
X2190138Y3156146D2*
X1961165D1*
X1952047Y3165264D1*
X1642079Y3042768D2*
X1705453Y3106142D1*
X1952047D1*
X1396026Y3052699D2*
X1407504D1*
Y3042768D1*
X1642079D1*
X1977638Y3338413D2*
Y3431953D1*
X1918430D1*
X1902678Y3416201D1*
Y3330533D1*
X1886927Y3314781D1*
X1596936D1*
Y3316404D1*
X516409Y1780736D2*
X1139413D1*
X1157898Y1762252D1*
X1423138D1*
X1439096Y1778210D1*
Y1822991D1*
X2208815Y2065921D2*
X2373890D1*
X2381484Y2058327D1*
X2526559D1*
X889412Y3208827D2*
Y3220764D1*
X937134D1*
X2163433Y1932909D2*
X2214732D1*
X2228504Y1919138D1*
X2167480Y1897476D2*
X1955169D1*
X1939421Y1881728D1*
Y1838079D1*
X1663783Y1875453D2*
X1769791D1*
X1807165Y1838079D1*
X1888240D1*
X516409Y857598D2*
X756465D1*
Y833853D1*
X1596936Y3316404D2*
Y3273814D1*
X1550921Y3227799D1*
X1663783Y1824272D2*
X1729667Y1758388D1*
Y1696446D1*
X1439096Y1822991D2*
Y1821369D1*
X1660881D1*
X1663783Y1824272D1*
X1349043Y3116661D2*
X1416178D1*
Y3092913D1*
X937134Y3220764D2*
X986882Y3171016D1*
X1182669D1*
X1238337Y3115348D1*
X1347730D1*
X1349043Y3116661D1*
X2277475Y3406769D2*
Y3354161D1*
X2261727Y3338413D1*
X2091335D1*
X3424507Y3363776D2*
Y3427706D1*
X3408756Y3443457D1*
X2277475D1*
Y3406769D1*
X3424508Y3319787D2*
X3424507Y3363776D1*
X860831Y2849756D2*
X856580Y2845505D1*
X818062D1*
Y2847129D1*
X2110606Y1675957D2*
X2518449D1*
X2535724Y1693232D1*
X2567138D1*
Y1705331D1*
X2574961Y1715173D1*
X3008087Y1916193D2*
X3067667D1*
X3126787Y1975314D1*
X3213814D1*
X2110606Y1948657D2*
X2071642D1*
X1993717Y2026583D1*
X1867394D1*
X1841803Y2000992D1*
X1703951D1*
X1688203Y2016740D1*
Y2110882D1*
X1672455Y2126630D1*
X1261728D1*
X1228114Y2093016D1*
X1382843Y1672815D2*
X1418768Y1636890D1*
X1442437D1*
X1459547Y1654000D1*
X1557395D1*
X2878890Y3345583D2*
X2948331Y3415024D1*
X3398913D1*
X1993717Y2026583D2*
Y2082732D1*
X2009469Y2098484D1*
X2053823D1*
X2707768Y3344665D2*
Y3265114D1*
X2717610D1*
X2727453Y3255272D1*
X2193067Y2006827D2*
X2604031D1*
X2629941Y2032736D1*
X4125122Y2954720D2*
X4217780D1*
Y2938849D1*
X835039Y2137531D2*
X740251D1*
X724500Y2153282D1*
Y2243919D1*
X3523902Y2955472D2*
X3971996D1*
X4037295Y2890173D1*
X4056075Y2908953D1*
X4118350D1*
X4125122Y2902181D1*
X2110606Y1411213D2*
X2075575D1*
Y1399276D1*
X3213814Y1975314D2*
X3248846Y1975630D1*
X3219134Y1592949D2*
X3366453Y1593102D1*
X2446407Y720332D2*
Y708902D1*
X2358213D1*
X2144980Y743520D2*
X2297366D1*
X1926004Y692865D2*
Y691241D1*
X2144980D1*
Y743520D1*
X4037295Y2890173D2*
X4053043Y2874425D1*
Y2827591D1*
X3316068Y2939518D2*
Y2937895D1*
X3465461D1*
X3483038Y2955472D1*
X3523902D1*
X2629941Y2032736D2*
X2907028D1*
X2907031Y2032740D1*
X2962047D1*
X1174681Y1994689D2*
X870472Y1994803D1*
X2485295Y3344665D2*
X2482297Y3347664D1*
Y3403961D1*
X6793850Y3106264D2*
X6884934D1*
Y3110513D1*
X6821409Y2877579D2*
X6792534D1*
Y2905214D1*
X6884934Y3110513D2*
X6882444D1*
Y3230524D1*
X6866696Y3246272D1*
X6678808D1*
Y3283311D1*
X731764Y3042882D2*
X643719D1*
X627970Y3058631D1*
Y3123543D1*
X516406Y2264992D2*
X593726D1*
Y2288738D1*
X1127522Y1640046D2*
Y1611791D1*
X1162555D1*
X516406Y2684563D2*
X412075Y2580232D1*
Y602138D1*
X427823Y586390D1*
X884583D1*
X973366Y675173D1*
X1060465D1*
X516406Y2901768D2*
X731764D1*
X1155406Y1186760D2*
X1103413D1*
X1112378Y3062963D2*
Y3056661D1*
X782945D1*
X1317104Y2884997D2*
Y2921378D1*
X1301356Y2937126D1*
X1128130D1*
X1112378Y2952878D1*
Y3062963D1*
X593726Y2288738D2*
Y2401898D1*
X614995D1*
X1162555Y1611791D2*
X1268760D1*
X1301895Y1578656D1*
X1352568D1*
X2976152Y2876143D2*
Y2899887D1*
X2746690D1*
X2744500Y2897697D1*
X2521807Y3273854D2*
X2520549Y3275113D1*
Y3349744D1*
X2526525Y3035711D2*
X2485031D1*
X2469283Y3051459D1*
Y3165146D1*
X2453535Y3180894D1*
X2409622D1*
X2744500Y2897697D2*
Y2964717D1*
X2728752Y2980465D1*
X2526525D1*
Y3035711D1*
X2010874Y1556386D2*
X2050972Y1596484D1*
X2461102D1*
X2464421Y1593165D1*
X2506549D1*
X2659819Y1748500D2*
X2661913Y1750594D1*
X2726991D1*
X2506549Y1593165D2*
Y1569161D1*
X2659819D1*
X1358455Y2838374D2*
X1366598D1*
X1382346Y2854122D1*
X1974787Y1658898D2*
X1986749Y1670860D1*
Y1698832D1*
X1129402Y1269150D2*
X1031260D1*
X979591Y1217480D1*
X873471D1*
Y1199959D1*
X1386719Y1707186D2*
Y1731154D1*
X1320587D1*
X1294996Y1705563D1*
Y1684370D1*
X1257850Y1647224D1*
X1187215Y985434D2*
Y974004D1*
X1129004D1*
X1217203Y984343D2*
X1187215Y985434D1*
X1257850Y1647224D2*
X1162555D1*
X2433193Y2123776D2*
X2469546D1*
Y2111877D1*
X4315856Y2837168D2*
X4315854Y2766165D1*
X6517303Y3229098D2*
X6727454D1*
Y3216476D1*
X863807Y670059D2*
X774531D1*
Y633416D1*
X1516976Y1176350D2*
X1196744D1*
X1180996Y1192098D1*
Y1212350D1*
X1083732D1*
X1067984Y1196602D1*
Y1171957D1*
X1052236Y1156209D1*
X863807D1*
X1262832Y3139092D2*
Y3151028D1*
X1297862D1*
X2055980Y1679661D2*
X2057126Y1784012D1*
X1874791Y3222984D2*
X2006831D1*
X2055181Y1354654D2*
X1986681Y1423154D1*
X1848272D1*
X1803307Y1378189D1*
X1537024D1*
X2068492Y2987795D2*
X2293480D1*
X1381764Y3400555D2*
X1432765Y3400711D1*
X1897028Y2973650D2*
X1954404Y2974462D1*
X1409961Y1885303D2*
X1447362D1*
X1461142Y1871524D1*
Y1856579D1*
X630098Y3440858D2*
X969917D1*
X984630Y3426146D1*
X632004Y3250272D2*
X696647D1*
Y3226525D1*
X1260327Y2193975D2*
Y2182039D1*
X1295357D1*
X1297862Y3151028D2*
X1425618D1*
X1441366Y3135280D1*
Y3074133D1*
X1417453D1*
Y3066633D1*
X3058837Y2030844D2*
X3048012D1*
Y1984130D1*
X3072736Y2064433D2*
X3058837Y2050534D1*
Y2030844D1*
X1548929Y1584654D2*
X1557706D1*
X1562707Y1579652D1*
X1606514D1*
Y1591085D1*
X2006831Y3222984D2*
X2117035D1*
X2148299Y3254248D1*
X2454126D1*
Y3271049D1*
X2055181Y579984D2*
X2061304Y573861D1*
Y520273D1*
X1198235Y1944403D2*
Y1932972D1*
X1301154D1*
X1432765Y3400711D2*
Y3432177D1*
X1617850D1*
X1954404Y2974462D2*
Y2995088D1*
X2033461D1*
X1537024Y1285146D2*
X1501993D1*
Y1283450D1*
X1294957Y2102659D2*
Y2101039D1*
X1329988D1*
X4416063Y3303496D2*
Y3353112D1*
X4418175D1*
X4754445Y2841394D2*
X4789698D1*
Y2853331D1*
X3629669Y1999945D2*
X3747823D1*
Y2002367D1*
X2778759Y1626496D2*
Y1594114D1*
X2742193D1*
X4160563Y2062445D2*
X4194841D1*
Y2048535D1*
X3747823Y2002367D2*
Y1965791D1*
X3775374Y1938240D1*
Y1913701D1*
X2742193Y1594114D2*
X2746130Y1590177D1*
X2780724D1*
X2784665Y1594118D1*
X2963429D1*
X2987850Y1618539D1*
X3413024D1*
X3428772Y1634287D1*
Y1953728D1*
X3444520Y1969476D1*
X3491874D1*
X3507622Y1953728D1*
Y1895071D1*
X3523370Y1879323D1*
X3629669D1*
X4060399Y1953757D2*
Y1965656D1*
X4052972D1*
Y2026992D1*
X4093413D1*
X3735937Y2898377D2*
Y2864583D1*
X3774315Y3114161D2*
X3773343Y3115134D1*
Y3139753D1*
X3754059Y3159037D1*
Y3228546D1*
X1325780Y1071031D2*
X1131634D1*
X1068240Y1134425D1*
X893343D1*
X889535Y1130618D1*
X1325780Y1373335D2*
X1336604Y1384159D1*
Y1410163D1*
X2873689Y2136492D2*
X2959539D1*
X1808756Y1294917D2*
X1773723D1*
Y1282982D1*
X1878961Y682421D2*
Y648835D1*
X889535Y857161D2*
X882135D1*
X868356Y843382D1*
Y823572D1*
X2959539Y2136492D2*
Y2085944D1*
X2927014D1*
Y2087567D1*
X1691514Y1299480D2*
X1585049D1*
X1573793Y1310736D1*
X1443421D1*
X1427720Y1295035D1*
X1393579D1*
X1773723Y1282982D2*
Y1259000D1*
X1724575D1*
X1708827Y1274748D1*
Y1299480D1*
X1691514D1*
X2320563Y1634618D2*
X2317941Y1631996D1*
X2233037D1*
Y1633618D1*
X4279299Y2886531D2*
X4244268D1*
Y2884173D1*
X3341508Y3099390D2*
X2993091D1*
X2977343Y3083642D1*
Y3012780D1*
X3337571Y3234484D2*
X3344224Y3241138D1*
X3380731D1*
Y3232638D1*
X2267894Y3087071D2*
X2259676Y3095289D1*
Y3132398D1*
X2966516Y2807457D2*
X2962579Y2811394D1*
Y2841047D1*
X2959623D1*
X4441654Y3275736D2*
X4439486Y3277904D1*
X4169556D1*
Y3279526D1*
X6645441Y3351693D2*
X6612576D1*
Y3379592D1*
X5353717Y3087142D2*
X5347903Y3092955D1*
X5293920D1*
Y3094577D1*
X1853453Y3434299D2*
X1760071D1*
X1287114Y1350988D2*
X1164626D1*
X1140618Y1326980D1*
X945756D1*
X919689Y1300913D1*
X745669D1*
X729920Y1285164D1*
Y1225165D1*
X714172Y1209417D1*
X633240D1*
X421917Y2952945D2*
X511051D1*
X2923854Y3138818D2*
Y3253067D1*
X633240Y1437083D2*
X793118D1*
X808866Y1452831D1*
Y1513724D1*
X772262D1*
Y1515346D1*
X1515890Y3227138D2*
Y3132588D1*
X1531639Y3116839D1*
X1607424D1*
Y3128773D1*
X1760071Y3434299D2*
X1701862D1*
X1686114Y3418551D1*
Y3355898D1*
X1670366Y3340150D1*
X1504283D1*
X1488535Y3324402D1*
Y3227138D1*
X1515890D1*
X1984563Y1497205D2*
X1912488D1*
X1910815Y1498878D1*
X1816776D1*
X1756740Y1558913D1*
X1394138D1*
X1387598Y1565453D1*
X1985819Y1530795D2*
X1984563Y1529539D1*
Y1497205D1*
X511051Y2952945D2*
X741606D1*
X757354Y2937197D1*
Y2842957D1*
X741604Y2827206D1*
X711331D1*
X2923854Y3253067D2*
X2937638Y3239283D1*
Y3228752D1*
X2992059D1*
X3016374Y3253067D1*
X3254240D1*
X3269988Y3268815D1*
Y3311469D1*
X1343969Y593177D2*
X1340850D1*
X1330189Y582516D1*
X1308938D1*
Y584139D1*
X6470478Y3032774D2*
Y3014945D1*
X6486386D1*
Y2992965D1*
X6502134Y2977217D1*
X6624457D1*
Y2936126D1*
X6640205Y2920378D1*
X6676461D1*
Y2894894D1*
X6647917Y2866350D1*
X7601504Y3082898D2*
X7618151Y3099545D1*
Y3133415D1*
X7601504Y2829878D2*
X7599660Y2831722D1*
X7486232D1*
X6996004Y3374413D2*
Y3372249D1*
X7007619Y3360634D1*
Y3340825D1*
X7229369Y2107133D2*
X7174588D1*
X7163740Y2117980D1*
X3509189Y2860689D2*
X3534870Y2886370D1*
X3671091D1*
X3706843Y2922122D1*
X3829500D1*
X3886102Y2865520D1*
X3118906Y2849094D2*
X3136354Y2866543D1*
X3330579D1*
X3364551Y2900516D1*
X3418280D1*
X757357Y3007325D2*
Y3069102D1*
X701056D1*
X685307Y3084852D1*
Y3128276D1*
X1038427Y2867937D2*
X1038429Y2843602D1*
X1438638Y3202209D2*
Y3261177D1*
X1143579Y3309925D2*
Y3361651D1*
X1175012Y2735433D2*
X1128509D1*
X1112760Y2751182D1*
Y2819856D1*
X1688831Y3276303D2*
X1906669Y3276459D1*
X1688829Y2977794D2*
X1688831Y3011382D1*
X1599163Y3004814D2*
X1624350D1*
Y2987441D1*
X1576516D1*
Y3016677D1*
X1537756D1*
Y3013079D1*
Y2938890D2*
X1952047D1*
X1537756Y3013079D2*
X1523972Y3026862D1*
X1391598D1*
X1381913Y3017177D1*
X3237892Y3024238D2*
Y3022614D1*
X3274988D1*
X1178052Y2486213D2*
X1162304Y2501961D1*
X888344D1*
Y2517417D1*
X6450374Y3097858D2*
X6429581Y3118651D1*
Y3162319D1*
X7511858Y2526811D2*
Y2600441D1*
X7496108Y2616192D1*
X7461507D1*
X5903669Y2857173D2*
X5957531D1*
X5973283Y2872925D1*
Y2919411D1*
X7511858Y2432354D2*
X7518917Y2425295D1*
X7773556D1*
X6450374Y2878016D2*
X6575483Y2878172D1*
X3903795Y3139752D2*
X3802870D1*
X3789091Y3153531D1*
Y3165343D1*
X3700906Y3247358D2*
X3485035D1*
X3436217Y3198539D1*
X3313812D1*
X3298063Y3214289D1*
Y3345058D1*
X4771988Y1202971D2*
Y1236559D1*
X3903795Y3223693D2*
X4072976D1*
X4082598Y3214071D1*
X4190391D1*
X4193583Y3217262D1*
X4243467D1*
X4278402D1*
Y2953390D1*
X4294150Y2937642D1*
X4489104D1*
X4510533Y2959071D1*
X4738701D1*
X4754449Y2974819D1*
Y3040488D1*
X4770197Y3056236D1*
X5022732D1*
X5026669Y3052299D1*
X4767299Y690280D2*
Y688657D1*
X4802331D1*
X3915756Y514252D2*
X4370882D1*
X4415969Y469165D1*
X4751549D1*
X4767299Y484916D1*
Y690280D1*
X3983454Y690404D2*
X3931660D1*
X3915756Y674500D1*
Y514252D1*
X5026669Y3052299D2*
X4995573D1*
Y3040365D1*
X4991636D1*
X4489104Y2937642D2*
X4504852D1*
Y2913896D1*
X3499528Y739559D2*
X3496529Y742558D1*
X3464495D1*
Y749991D1*
X3903795Y3059591D2*
X3912751D1*
X3926530Y3045811D1*
Y3026001D1*
X5620898Y511157D2*
X5652413Y542673D1*
Y587520D1*
X3642244Y1654217D2*
Y1843890D1*
X5861685Y530429D2*
X5836094Y556020D1*
X5779319D1*
X5778745Y555446D1*
X5743978D1*
Y561881D1*
X4539469Y507598D2*
X4491762D1*
X4476014Y523346D1*
Y551276D1*
X3856925Y694433D2*
Y565433D1*
X3753008Y682497D2*
Y694433D1*
X3788039D1*
X7891020Y927602D2*
X8060181D1*
X7410642Y1720961D2*
X7419228Y1712374D1*
X7520762D1*
X7687500D1*
X7697343Y1722217D1*
X7410642Y1543610D2*
X7304572D1*
X7288820Y1527858D1*
Y1500343D1*
X7229898Y425291D2*
Y601346D1*
X6425197Y744496D2*
X6332787D1*
Y746115D1*
X6783894Y652583D2*
Y601346D1*
X7891020Y824256D2*
X7791885D1*
Y852676D1*
X6867429Y1028823D2*
X6915260D1*
Y1062409D1*
X7520762Y1712374D2*
Y1745297D1*
X7891018Y1344963D2*
Y1362824D1*
X8016765D1*
Y1364446D1*
X7891020Y1311374D2*
X7891018Y1344963D1*
X4476014Y551276D2*
Y555776D1*
X4347555D1*
X4337528Y545748D1*
X4001835D1*
X3982150Y565433D1*
X3941346D1*
X3788039Y694433D2*
Y730698D1*
X3728248D1*
X8060184Y982408D2*
Y1006154D1*
X8052142Y1014196D1*
Y1086312D1*
X8060181Y927602D2*
X8060184Y982408D1*
X5715811Y1978083D2*
X5719748Y1974146D1*
Y1944492D1*
X5725239D1*
X6783894Y601346D2*
X6507303D1*
X6489902Y618748D1*
X6425197D1*
X5906396Y1585542D2*
X5909348D1*
Y1552247D1*
X5912360D1*
X4116189Y858728D2*
X4205757Y859541D1*
X4607697Y864597D2*
Y862975D1*
X4705154D1*
X4717801Y875622D1*
X4899232D1*
X4205757Y859541D2*
X4305688D1*
X4318193Y847035D1*
X4517109D1*
X4534671Y864597D1*
X4607697D1*
X4992098Y1515171D2*
X5023609D1*
X5041593Y1533155D1*
X5106374D1*
X4909075Y1515169D2*
X4992098Y1515171D1*
X779038Y1097772D2*
Y1269416D1*
X794787Y1285165D1*
X976646D1*
X1002713Y1311232D1*
X1256822D1*
X1272571Y1295483D1*
Y1266076D1*
X1617441Y634425D2*
Y504594D1*
X1633189Y488846D1*
X1757503D1*
Y518566D1*
X1577067Y1747402D2*
X1516444D1*
Y1723654D1*
X1506701Y2034724D2*
Y1883917D1*
X1505795Y1066169D2*
X1393579D1*
X1272571Y1266076D2*
Y1264457D1*
X1343780D1*
X1328031Y1280205D1*
Y1327144D1*
X1393579Y1259602D2*
X1388724Y1264457D1*
X1343780D1*
X2774441Y755102D2*
X3144752D1*
X2733538Y856698D2*
Y848268D1*
X2774441D1*
X3144752Y755102D2*
X3170344D1*
X3176877Y748570D1*
X3310993D1*
X5978157Y1824177D2*
X6116154D1*
Y1836143D1*
X6136129D1*
X6835215Y1556207D2*
Y1611222D1*
X6819465Y1626972D1*
X6758047D1*
X6686370Y1698650D1*
X6453530D1*
Y1729919D1*
X5986020Y1575382D2*
X5950987D1*
Y1563445D1*
X6136129Y1836143D2*
Y1830276D1*
X6181516D1*
X6453530Y1729919D2*
Y1754591D1*
X6285457D1*
X5713623Y1793703D2*
Y1768525D1*
X5729727Y1752421D1*
X5978157D1*
X5595252Y1803268D2*
X5634841D1*
X5644406Y1793703D1*
X5713623D1*
X5634705Y1833699D2*
Y1829612D1*
X5609031D1*
X5595252Y1815832D1*
Y1803268D1*
X5641378Y3261744D2*
X5527984D1*
Y3249878D1*
X5524693D1*
Y3237944D1*
X4303992Y3120925D2*
X4525484D1*
Y3095333D1*
X4206711Y1850778D2*
Y1743283D1*
X4220491Y1729504D1*
X4231858D1*
X7756984Y2762992D2*
X7829008D1*
X7844759Y2778743D1*
Y2839724D1*
X4231858Y1618346D2*
X4196825D1*
Y1606409D1*
X4849752Y2886201D2*
X4814720D1*
Y2874264D1*
X4058298Y3126982D2*
X4058295Y3093394D1*
X5524693Y3237944D2*
X5496104D1*
X5489140Y3230980D1*
X4983693D1*
X4967945Y3215232D1*
Y3139437D1*
X4952197Y3123689D1*
X4848654D1*
X4819417Y3094453D1*
X4525484Y3095333D2*
Y3076791D1*
X4676220D1*
X4679154Y3079724D1*
X4721500D1*
X4736228Y3094453D1*
X4780047D1*
X4849752Y2951165D2*
X4862745D1*
X4876525Y2964945D1*
Y3000328D1*
X7756984Y2574791D2*
X7760923Y2570853D1*
X7794157D1*
X3092689Y1213866D2*
X3058458D1*
Y1191677D1*
X1532583Y869118D2*
X1497706Y834241D1*
X1387542D1*
Y835865D1*
X1645169Y1019185D2*
X1646867Y1020883D1*
Y1148039D1*
X5649605Y2859875D2*
X5612140D1*
X5604745Y2852480D1*
X5497110D1*
X5482310Y2837680D1*
Y2655013D1*
X5227646Y1883469D2*
X5223709Y1879531D1*
Y1845944D1*
X5221199D1*
X5337386Y2033260D2*
X5304951D1*
Y2063741D1*
X3303961Y1664287D2*
X3238992D1*
X3223241Y1680038D1*
Y1715841D1*
X5304951Y2063741D2*
Y2065622D1*
X5239079D1*
X4943694Y2809928D2*
Y2840594D1*
X4959442Y2856343D1*
X5003803D1*
Y2851409D1*
X5031118D1*
Y2840211D1*
X5006728D1*
Y2828314D1*
X5684638Y2856791D2*
Y2869843D1*
X5670858Y2883622D1*
X5597969D1*
X5587425Y2873079D1*
X5426663D1*
X5393795Y2840211D1*
X5042316D1*
X5031118Y2851409D1*
X3981874Y1179059D2*
X3707197D1*
X3664567Y1221689D1*
X3561295D1*
Y1182252D1*
X1253909Y1524114D2*
X1625584D1*
Y1489643D1*
X2332602Y647043D2*
X2363921D1*
Y672430D1*
X1304980Y712945D2*
X1320472D1*
X1334252Y699165D1*
Y679388D1*
X1253909Y864189D2*
X1221524D1*
X1205776Y879937D1*
Y916657D1*
X995924D1*
X980176Y932406D1*
X776055D1*
X760307Y916657D1*
Y886665D1*
X729020D1*
X1304980Y952094D2*
X1940406D1*
X729020Y1573268D2*
Y1539747D1*
X757568D1*
X980176Y932406D2*
Y1049112D1*
X767524Y1718776D2*
X911551D1*
X922488Y1729713D1*
X1123465D1*
Y1705967D1*
X3119457Y1188276D2*
X3111822Y1180640D1*
X3084427D1*
Y1178139D1*
X2679453Y586177D2*
X2674421Y591209D1*
X2452783D1*
X2417354Y555780D1*
X2332602D1*
X2668629Y620886D2*
Y609453D1*
X2679453D1*
Y586177D1*
X2149235Y1242873D2*
X2196161Y1242717D1*
X1927921Y1268583D2*
Y1279205D1*
X1941701Y1292984D1*
X2133486D1*
X2149235Y1277235D1*
Y1242873D1*
X613538Y2227496D2*
Y2225870D1*
X650429D1*
X3036412Y1810496D2*
X2984358D1*
Y1827451D1*
X2961529D1*
X3082583Y1826902D2*
Y1828339D1*
X3068803Y1842118D1*
X3036412D1*
Y1810496D1*
X5030329Y1800635D2*
X4976041D1*
X4960291Y1784886D1*
Y1769268D1*
X4944543Y1753520D1*
X4867449D1*
X4601760Y1880303D2*
X4614202Y1867861D1*
Y1800260D1*
X4867449Y1753520D2*
Y1794165D1*
X4731740D1*
X4686220Y1839685D1*
X4664402D1*
X4648654Y1855433D1*
Y1941539D1*
X4632909Y1957283D1*
X4478256D1*
X6913591Y2826398D2*
X7026283D1*
X7082669Y2882783D1*
X7246759D1*
Y2913350D1*
X7084894Y1720534D2*
Y1563874D1*
X7165020Y1483748D1*
Y1477787D1*
X7180768Y1462039D1*
X7140303Y1421575D1*
X6953718D1*
X6943886Y1431407D1*
X6894312D1*
Y1428529D1*
X7180768Y1462039D2*
X7196512Y1446295D1*
X7216722D1*
Y1477912D1*
X6680874Y3332650D2*
X6671638Y3323413D1*
X6613807D1*
Y3325037D1*
X6158283Y1625031D2*
X6229299D1*
X6319425Y1400189D2*
Y1568531D1*
Y1604507D1*
X6354680D1*
Y1615941D1*
X6158283Y1722524D2*
Y1748114D1*
X6148841Y1757556D1*
Y1804699D1*
X6134656Y1695959D2*
Y1708744D1*
X6148436Y1722524D1*
X6158283D1*
X6518207Y1360909D2*
Y1336409D1*
X3376730Y735226D2*
Y711482D1*
X3466891D1*
X3469374Y713965D1*
X1801406Y3011835D2*
X1827839D1*
X1866335Y3050331D1*
X2020701D1*
Y3084194D1*
X3501614Y1173150D2*
X3516377D1*
X3530155Y1186928D1*
Y1219488D1*
X2211909Y530189D2*
X2436957D1*
X3017949Y605984D2*
X2964606D1*
X2948857Y621734D1*
Y670012D1*
X1461142Y1910894D2*
X1409339D1*
Y1941778D1*
X1834346Y716835D2*
X2119390D1*
X1716850Y1057217D2*
X1834346D1*
X1631587Y1624673D2*
X1630382Y1623469D1*
Y1589804D1*
X1616629D1*
X3469374Y713965D2*
Y564724D1*
X3453626Y548976D1*
X3109311D1*
X1395902Y1849870D2*
X1389249Y1856522D1*
X1360870D1*
Y1858144D1*
X1409339Y1941778D2*
X1376427D1*
X1369732Y1948472D1*
X1554205Y1101693D2*
X1541049Y1088537D1*
Y1068106D1*
X3607669Y1578657D2*
X3653327D1*
X3667098Y1592429D1*
X4032406D1*
X4147110Y2123945D2*
X4137272Y2114106D1*
X4123109D1*
Y2090354D1*
X4913169Y3417098D2*
Y3441520D1*
X4524567D1*
X4508819Y3425772D1*
Y3256055D1*
X4493071Y3240307D1*
X4381724D1*
X3934957Y2929882D2*
X3899925D1*
Y2917946D1*
X4508819Y3425772D2*
X4493071Y3441520D1*
X3934957D1*
X4913169Y3375906D2*
Y3417098D1*
X4381724Y3020059D2*
X4379622Y3017957D1*
X4345597D1*
Y3011860D1*
X4037612Y1853900D2*
Y1884954D1*
X4050559Y1897902D1*
X4032406Y1592429D2*
Y1618018D1*
X4037612Y1623224D1*
Y1853900D1*
X4123109Y2090354D2*
Y2054661D1*
X4119004Y2050556D1*
Y1897902D1*
X4108232Y2798591D2*
X4130815D1*
X4149571Y2817346D1*
X4219744D1*
X4229587Y2827189D1*
X3944657Y2798591D2*
X4108232D1*
X3934957Y3441520D2*
Y3405280D1*
X3919205Y3389528D1*
X3627577D1*
Y3391962D1*
X4913169Y3300732D2*
X4920940Y3292962D1*
Y3162881D1*
X4837764Y669740D2*
X4896764D1*
Y694457D1*
X8054374Y2075346D2*
X8113980D1*
X8129728Y2091094D1*
Y2461244D1*
X8113980Y2476992D1*
X8129728Y2492740D1*
Y3093205D1*
X8113980Y3108953D1*
X8028638D1*
X7949500Y3188091D1*
Y3372717D1*
X7933752Y3388465D1*
X7784406D1*
X7768657Y3372717D1*
Y3247138D1*
X7752909Y3231390D1*
X7675647D1*
X7659899Y3247138D1*
Y3328957D1*
X5627772Y1629370D2*
X5553551Y1703591D1*
X5368075D1*
X5352327Y1719339D1*
Y1739024D1*
X5311154D1*
X5301150Y1749028D1*
X5297213Y1745091D1*
X5255445D1*
X7181965Y3382496D2*
X7311902D1*
X7495898Y3198500D1*
X7642757D1*
X7675647Y3231390D1*
X6450799Y775602D2*
X6581462D1*
Y779850D1*
X5301150Y1749028D2*
X5336579D1*
Y1753276D1*
X8019018Y2505260D2*
Y2488177D1*
X8039247D1*
X8053896Y2502827D1*
X8104945D1*
Y2486028D1*
X8113980Y2476992D1*
X8054374Y2142791D2*
X7764854D1*
Y2144415D1*
X7204043Y1291938D2*
Y1246610D1*
X7450744Y689736D2*
X7249449D1*
Y828264D1*
X7265197Y844012D1*
X7330543D1*
X8113980Y2075346D2*
X8129728Y2059598D1*
Y642224D1*
X8113980Y626476D1*
X7727201D1*
X7130783Y3382496D2*
X7062150Y3451130D1*
X5918543D1*
X5902795Y3435382D1*
Y3395260D1*
X7089760Y3316268D2*
Y3314644D1*
X7115034D1*
X7130783Y3330394D1*
Y3382496D1*
X5928621Y3020845D2*
Y3019224D1*
X6025827D1*
X6450799Y593157D2*
X6458614Y585343D1*
X6698244D1*
X6724437Y559150D1*
X6783894D1*
X3057311Y679996D2*
X2997517D1*
Y648343D1*
X5094795Y2872091D2*
X4917465D1*
X4885972Y2840598D1*
X4849752D1*
X6419457Y1794878D2*
X6474051Y1794982D1*
X5832409Y2929217D2*
X5910996D1*
Y2917280D1*
X5097747Y3011213D2*
Y2977613D1*
X5094795Y2974661D1*
X5799374Y3462189D2*
Y3498374D1*
X7806669D1*
X7846083Y3458961D1*
X8031055D1*
X8046804Y3443211D1*
Y3239049D1*
X6061457Y3345728D2*
X6492587D1*
X5094795Y2974661D2*
X5210031D1*
X5296669Y3061299D1*
X5367354D1*
X5391260Y3085205D1*
X5543173D1*
X5548972Y3079406D1*
X5687976D1*
X5703724Y3095154D1*
Y3182752D1*
X5708764Y3187791D1*
Y3257902D1*
X5724512Y3273650D1*
X5857520D1*
X5873268Y3257902D1*
Y3124752D1*
X5832409D1*
X5873268Y3257902D2*
X5889016Y3273650D1*
X5918165D1*
X5990244Y3345728D1*
X6492587D2*
X6518362D1*
X6522909Y3350276D1*
X6546046D1*
Y3326528D1*
X2933949Y1878409D2*
Y1844822D1*
X2356419Y2040483D2*
X2291492Y2040331D1*
X2431055Y2032417D2*
X2424612Y2038861D1*
X2356419D1*
Y2040483D1*
X2933949Y1844822D2*
X2906823D1*
X2891075Y1829073D1*
Y1805846D1*
X2875327Y1790098D1*
X2587173D1*
X2529240Y1848031D1*
X2431055D1*
X4858602Y1181469D2*
X4871965D1*
X4885744Y1167689D1*
Y1147881D1*
X2748850Y651764D2*
X2713820D1*
Y639827D1*
X1971169Y528807D2*
Y453417D1*
X2640071D1*
X2655819Y469165D1*
Y534996D1*
X2800031Y626177D2*
X2867882D1*
X2935461Y693756D1*
X2943803D1*
X2955634Y705587D1*
X3194463D1*
Y683812D1*
X979551Y1363394D2*
X764916D1*
Y1397589D1*
X2156941Y1761402D2*
X2332882D1*
X1515079Y562954D2*
Y529366D1*
X2713820Y639827D2*
X2714886Y554028D1*
X2156938Y1463970D2*
Y1381869D1*
X2172686Y1366121D1*
X2239156D1*
X2156941Y1497559D2*
X2156938Y1463970D1*
X2332882Y1761402D2*
X2370866D1*
X2386614Y1745654D1*
Y1703657D1*
X1337781Y631731D2*
Y626295D1*
X1301992D1*
X2858257Y2086934D2*
Y2048484D1*
X2823004D1*
Y2085311D1*
X2826839Y1568528D2*
X2882118D1*
X2885803Y1572213D1*
X3057024D1*
X1682768Y1686665D2*
X1725001Y1686822D1*
X1752138Y1031626D2*
X1859937D1*
X2318524Y1167839D2*
X2239469D1*
X2235531Y1163902D1*
X2019751D1*
X2004003Y1179650D1*
X1969256Y1144903D1*
Y1124146D1*
X1953508Y1108398D1*
X1859937D1*
X1127106Y671941D2*
X1173131D1*
Y648193D1*
X1682768Y1430217D2*
X1625299D1*
X2004003Y1179650D2*
Y1253490D1*
X1173131Y648193D2*
X1203119D1*
X1218866Y632446D1*
Y469161D1*
X1550512D1*
X1566260Y484909D1*
Y554398D1*
X2307290Y1893706D2*
X2256272Y1893547D1*
X977109Y867319D2*
Y865693D1*
X1127106D1*
X2148709Y916661D2*
X2119579D1*
Y904724D1*
X2626789Y3288593D2*
Y3305850D1*
X2676563D1*
Y3213520D1*
X2692311Y3197772D1*
X2796583D1*
X2692020Y2921286D2*
Y2954874D1*
X2625199Y2831243D2*
Y2829619D1*
X2687769D1*
X2692020Y2833870D1*
X2796583Y3197772D2*
Y3172181D1*
X2805302Y3163462D1*
Y3138159D1*
X2813580D1*
X3147488Y2815573D2*
Y2842797D1*
X3178954D1*
X5579161Y3287335D2*
X5592059Y3300232D1*
X5683575D1*
Y3276486D1*
X7296143Y3166098D2*
Y3138483D1*
X7307799Y3126827D1*
X7323547Y3111079D1*
Y3056701D1*
X7298272Y3031425D1*
X7307799Y3126827D2*
X7323547D1*
Y3139140D1*
X7337647D1*
Y3150573D1*
X7272760Y1622220D2*
X7195988D1*
Y1638238D1*
X7186549D1*
X5346780Y1947500D2*
X5314992D1*
Y1975537D1*
X6207728Y1780181D2*
X6192835Y1765287D1*
Y1684996D1*
X5299555Y3450898D2*
X5492626D1*
X7746898Y509713D2*
X7850109D1*
Y534075D1*
X7453193Y1118906D2*
X7518941D1*
X7560673Y1160638D1*
X7735142D1*
Y1132992D1*
X7744984Y1123150D1*
X7415168Y1302717D2*
Y1215501D1*
X7453193Y1177476D1*
X7230291Y1335283D2*
X7272287D1*
X7304854Y1302717D1*
X7415168D1*
X7169227Y1321815D2*
Y1320192D1*
X7215199D1*
X7230291Y1335283D1*
X3549492Y3315000D2*
X3584807D1*
X3903795Y3361118D2*
X3900150Y3357472D1*
X3533630D1*
X3517882Y3341724D1*
Y3315000D1*
X3549492D1*
X4470333Y3385589D2*
Y3402449D1*
X4061098D1*
X4019768Y3361118D1*
X3903795D1*
X4478256Y3275736D2*
X4470333Y3283659D1*
Y3385589D1*
X3178954Y2842797D2*
Y2805134D1*
X3367098D1*
X7263427Y2120672D2*
Y2143571D1*
X7082413D1*
X7298461Y2132606D2*
Y2128669D1*
X7284681Y2114890D1*
X7263427D1*
Y2120672D1*
X4993358Y3160504D2*
Y3127098D1*
X4996543Y3123913D1*
X5641378Y3206720D2*
X5464122D1*
X5455610Y3215232D1*
X5009108D1*
X4993358Y3199483D1*
Y3160504D1*
X5683575Y3276486D2*
Y3248917D1*
X5641378Y3206720D1*
X5002142Y1218760D2*
X5130984D1*
X5146732Y1203012D1*
Y1164949D1*
X8066882Y1129496D2*
X8019630D1*
X8003882Y1113748D1*
Y1081810D1*
X5665165Y818614D2*
X5670571Y824020D1*
X5722400D1*
X5729807D1*
X5745555Y839768D1*
Y878374D1*
X5761303Y894122D1*
X5808189D1*
Y756831D1*
X5823937Y741083D1*
X6085559D1*
X8060280Y2304839D2*
X8071259Y2293860D1*
Y2234883D1*
X6706539Y1753453D2*
X6858736D1*
X6861768Y1750421D1*
X6913521D1*
X6472961Y1636815D2*
X6706539D1*
X6225394Y1317512D2*
X6190361D1*
Y1305577D1*
X5722400Y824020D2*
Y796370D1*
X7812480Y965551D2*
X7649412D1*
Y994497D1*
X8003882Y1081810D2*
Y981299D1*
X7988134Y965551D1*
X7812480D1*
X6389764Y565760D2*
X6397692Y557832D1*
Y521734D1*
X6312924Y607787D2*
Y606165D1*
X6389764D1*
Y565760D1*
X6913521Y1750421D2*
Y1748799D1*
X6948555D1*
X7812480Y600886D2*
X7805776D1*
X7791996Y587106D1*
Y557319D1*
X4278335Y1523079D2*
Y1871902D1*
X4276315Y1873921D1*
Y1914874D1*
X5343080Y789423D2*
X5260751D1*
Y786711D1*
X5242106Y768067D1*
X5181988Y1209075D2*
Y1175487D1*
X4829996Y795962D2*
X4525782D1*
X4516071Y805673D1*
X5242106Y768067D2*
X5206673D1*
X5189461Y785280D1*
X5014303D1*
X5004461Y775437D1*
X4829996D1*
Y795962D1*
X7798306Y1850944D2*
Y1811591D1*
X7837798Y1772098D1*
X7897748D1*
X7913496Y1756350D1*
Y1638776D1*
X7897748Y1623028D1*
X7754429D1*
X5426508Y613110D2*
X5817937D1*
Y646318D1*
X5841119D1*
X7567472Y1560346D2*
Y1541480D1*
X7555549D1*
Y1526759D1*
X5974165Y715492D2*
X6041972D1*
X6046465Y711000D1*
X6169232D1*
Y720843D1*
X6184980Y736591D1*
X6194286D1*
X6204484Y726392D1*
Y695236D1*
X7628043Y1074563D2*
X7590423D1*
Y1100093D1*
X7769791Y1427150D2*
X7905192D1*
X7920942Y1442900D1*
Y1485033D1*
X7754429Y1623028D2*
X7660669D1*
X7645728Y1637969D1*
X7598970D1*
Y1672879D1*
X4691031Y719063D2*
X4445949D1*
X4393425Y771587D1*
X4354665D1*
X4272744Y689665D1*
X4160043D1*
X4150488Y699220D1*
X7567472Y1637969D2*
X7598970D1*
X7798306Y1811591D2*
X7782562D1*
X7775980Y1818172D1*
Y1950531D1*
X7731760Y1994752D1*
Y2029130D1*
X7563559Y2061185D2*
X7559345Y2056971D1*
X7528529D1*
Y2045072D1*
X5841119Y646318D2*
Y638705D1*
X5974165D1*
X7557442Y962495D2*
X7431747D1*
X7427917Y958665D1*
X7218311D1*
X7183665Y924020D1*
X6915610D1*
X6898531Y906941D1*
Y892106D1*
X6882783Y876358D1*
X6863500D1*
Y902832D1*
X7590423Y1100093D2*
X7557442D1*
Y962495D1*
X3307764Y876122D2*
X3317605Y885963D1*
X3456504D1*
X3472885Y869583D1*
X3531492D1*
X3547243Y853832D1*
Y799451D1*
X7353239Y1336806D2*
Y1348740D1*
X7388272D1*
X6480428Y1755634D2*
Y1743697D1*
X6515461D1*
X5616980Y587488D2*
X5585867D1*
Y559833D1*
X7888638Y679012D2*
X8079610D1*
X8095361Y694762D1*
Y744000D1*
X6357563Y1164028D2*
X6322530D1*
Y1152092D1*
X5537213Y889819D2*
Y834161D1*
X7726262Y1298908D2*
Y1274976D1*
X7761409D1*
X7778185Y1291752D1*
X7836720D1*
X7388272Y1348740D2*
X7493299D1*
X7543131Y1298908D1*
X7726262D1*
X7617972Y1952110D2*
X7619762D1*
X7631698Y1964046D1*
X7655388D1*
X6515461Y1743697D2*
Y1802969D1*
X6531209Y1818717D1*
X6556807D1*
X6580732Y1794791D1*
X6948657D1*
X6959169Y1805303D1*
X7074524D1*
X7090272Y1789555D1*
Y1754185D1*
X7122476Y1721980D1*
X7359461D1*
X3311016Y1833768D2*
X3215142D1*
Y1893476D2*
X3250394D1*
Y1905413D1*
X3287975Y2110521D2*
Y2108902D1*
X3346276D1*
X3217433Y2071917D2*
X3223343Y2077827D1*
X3287975D1*
Y2110521D1*
X3616811Y799331D2*
X3675331D1*
X4419016Y530000D2*
X3976244D1*
X3966402Y539843D1*
X2227657Y1207287D2*
X2080772D1*
X1153417Y3054343D2*
X1223602D1*
Y3042408D1*
X916807Y3157361D2*
Y3145425D1*
X964402D1*
X2233697Y779047D2*
X2198665D1*
Y790480D1*
X783276Y1481756D2*
X740563D1*
Y1509734D1*
X717213Y773780D2*
X783276D1*
X1063555Y560850D2*
X1031811Y592594D1*
X967146D1*
X935350Y560799D1*
X717213D1*
X808650Y3399520D2*
Y3365932D1*
X995543Y2104669D2*
X960509D1*
Y2092732D1*
X2047370Y1643150D2*
X2053226Y1649005D1*
X2086217D1*
X1092350Y3145425D2*
X1153417D1*
X964402D2*
X1092350D1*
X1372815Y660189D2*
Y634102D1*
X1394633D1*
Y626602D1*
X2198665Y790480D2*
X2091244D1*
X2043189Y742425D1*
X1798795D1*
X1783047Y726677D1*
Y685697D1*
X1767299Y669949D1*
X1408165D1*
X1398406Y660189D1*
X1372815D1*
X2227657Y990760D2*
X2196161Y959264D1*
Y859280D1*
X1059366Y1682374D2*
X1068925Y1672815D1*
X1259963D1*
Y1700581D1*
X964399Y2436648D2*
Y2435031D1*
X1021134D1*
X964402Y2470236D2*
X964399Y2436648D1*
X7324051Y2076457D2*
X7447705D1*
X7463453Y2060709D1*
Y2020163D1*
X7544643D1*
Y2027597D1*
X7730516Y3259079D2*
X7692445D1*
Y3319109D1*
X5659268Y1674776D2*
Y1641184D1*
X5663026D1*
X6150147Y3105234D2*
X6114075D1*
Y3074343D1*
X6127854Y3060563D1*
X6138642D1*
X7324051Y2038776D2*
X7444751Y2038932D1*
X7923909Y3171106D2*
Y3118944D1*
X7964328D1*
X7396925Y3049366D2*
Y3016908D1*
X7412675D1*
Y3005009D1*
X6860831Y3279220D2*
X6794298D1*
Y3280841D1*
X7119772Y3188362D2*
X7123709Y3192299D1*
Y3221951D1*
X7129438D1*
X7196719Y3235976D2*
Y3204110D1*
X7180971Y3188362D1*
X7119772D1*
X7215114Y3307454D2*
X7196719D1*
Y3235976D1*
X7396925Y3179819D2*
X7371150Y3205594D1*
X7305866D1*
X7290118Y3221343D1*
Y3287335D1*
X7215114D1*
Y3307454D1*
X7730516Y3186689D2*
X7692445D1*
X7688508Y3182752D1*
X7399858D1*
X7396925Y3179819D1*
X6138642Y3060563D2*
X6241331D1*
X6244500Y3063732D1*
X7047228Y3047717D2*
X7047630Y3014129D1*
X5587634Y769315D2*
X5597319D1*
X5601257Y765377D1*
X5622888D1*
X6090563Y1849768D2*
X5944035D1*
X5929602Y1835335D1*
X5876196D1*
Y1836958D1*
X4639390Y1686433D2*
Y1820693D1*
X4632906Y1827177D1*
Y1890146D1*
X4617157Y1905894D1*
X4563797D1*
Y1924988D1*
X3839476Y2071450D2*
Y2105039D1*
X6396197Y1341555D2*
X6370654Y1316012D1*
Y1285778D1*
X6426535Y1562287D2*
X6744425D1*
X6782949Y1523764D1*
X6880469D1*
X6896218Y1539513D1*
Y1707585D1*
X7265732Y1802244D2*
X7255890Y1792402D1*
X7179205D1*
X7169461Y1782657D1*
X7115980D1*
X7229764Y1185055D2*
X7140366D1*
Y1211627D1*
X7942201Y849843D2*
X7911701Y880343D1*
X7774610D1*
X7763756Y869488D1*
X7588677D1*
X7563201Y844012D1*
X7429343D1*
X4125878Y1615063D2*
Y1674241D1*
X4136702D1*
X4083886Y3062382D2*
X4032035D1*
X3980256Y3114161D1*
X3841236D1*
X3815646Y3088571D1*
X4303992Y3085492D2*
X4445209D1*
X4474723Y3055978D1*
X4719816D1*
X7916610Y1228102D2*
X7830937D1*
Y1258161D1*
X3905102Y1153469D2*
X4044457D1*
X4072752Y1181764D1*
X7942201Y502063D2*
X8071699D1*
Y526230D1*
X7053791Y1523764D2*
X6911967D1*
X6896218Y1539513D1*
X3983547Y1831886D2*
Y1769949D1*
X7265731Y2024936D2*
X7265732Y2058524D1*
X5876196Y1836958D2*
X5721719D1*
X5675642Y1883035D1*
X3839476Y2105039D2*
X3903535D1*
X3919283Y2089291D1*
Y2008608D1*
X3939668D1*
Y1996709D1*
X6294598Y1675118D2*
Y1679234D1*
X6284934Y1688898D1*
Y1709568D1*
X6298974D1*
Y1721001D1*
X3468115Y3090249D2*
X3409161D1*
X3392707Y3073795D1*
X3049079D1*
X3815646Y3088571D2*
X3749105D1*
X3748350Y3087816D1*
X3468115D1*
Y3090249D1*
X5592339Y1603780D2*
Y1599844D1*
X5606118Y1586064D1*
X5636252D1*
Y1587675D1*
X6254890Y1594122D2*
X6250366Y1589598D1*
X6165272D1*
X4139055Y1769949D2*
X4142543Y1773437D1*
Y1829185D1*
X4108312Y1177825D2*
Y1176203D1*
X4274495D1*
X4283024Y1184732D1*
X4072752Y1181764D2*
X4076690Y1177825D1*
X4108312D1*
X7551724Y610059D2*
X7350030D1*
Y599060D1*
X6634386Y819272D2*
X6550579D1*
X6532500Y801193D1*
X6417409D1*
X6381811Y836791D1*
X6235220D1*
X6221358Y850654D1*
X6036075D1*
X6634386Y976764D2*
X6660843D1*
X6676592Y992513D1*
Y1032294D1*
X6966844Y679681D2*
Y652583D1*
X6931256D1*
X7698657Y2244335D2*
X7834912D1*
Y2220588D1*
X7698661Y2168382D2*
X8082571D1*
X7942201Y1192669D2*
X7814823D1*
X7757823Y1249669D1*
X7558051D1*
X7350030Y599060D2*
Y636832D1*
X7334280Y652583D1*
X7021469D1*
X6634386Y678173D2*
X6668060Y711848D1*
Y752357D1*
X6931256Y652583D2*
X6905665Y678173D1*
X6634386D1*
X8082571Y2168382D2*
Y2137496D1*
X8104333D1*
Y2113751D1*
X7558051Y1249669D2*
X7523020D1*
Y1225923D1*
X6634386Y626937D2*
X6699004Y627339D1*
X7314209Y1622220D2*
X7301436Y1634993D1*
Y1663581D1*
D14*
X6158122Y1414539D3*
X2579031Y931591D3*
X1354209Y2706996D3*
X4577988Y1495433D3*
X7428362Y2193657D3*
X5858957Y2183298D3*
X7214921Y2194752D3*
X7429740Y2321933D3*
X2742193Y1228602D3*
X2552272Y2208823D3*
X6132531Y1487020D3*
X1295357Y2182039D3*
D3*
X4771988Y1236559D3*
X5482310Y2655013D3*
X6784724Y2851988D3*
X2328913Y3336878D3*
Y3283610D3*
X4959555Y1541827D3*
X4215886Y3011201D3*
X6245232Y1164028D3*
X7617972Y1952110D3*
X1745417Y1959654D3*
X3215142Y1833768D3*
X3311016D3*
X3675331Y799331D3*
X3616811D3*
X3966402Y539843D3*
X4419016Y530000D3*
X3413209Y2081154D3*
X3574969D3*
Y1984197D3*
X779118Y1845142D3*
X5616980Y587488D3*
X5537213Y834161D3*
X7836720Y1291752D3*
X7888638Y679012D3*
X747512Y3317201D3*
X3217433Y2071917D3*
X3068154Y2919870D3*
X4760614Y1832303D3*
X3346276Y2108902D3*
X1750323Y1144264D3*
X3111232Y2071772D3*
X6334697Y3380047D3*
X5537213Y889819D3*
X6369972Y2954622D3*
X6681094Y3372197D3*
X808862Y1614882D3*
X3073476Y2868366D3*
X6737484Y3372197D3*
X6742669Y3056909D3*
X1745417Y1502374D3*
X4506118Y2823087D3*
X7359461Y1721980D3*
X6357563Y1164028D3*
X856445Y2797091D3*
X6515461Y1743697D3*
X7388272Y1348740D3*
X3215142Y1893476D3*
X1924142Y1334323D3*
X3900091Y1618024D3*
Y1764957D3*
X6293835Y1410031D3*
Y1341555D3*
X7601504Y2091138D3*
Y2741661D3*
X7547256D3*
X1920299Y1736980D3*
X2134224Y520343D3*
X7263248Y3098902D3*
X6799386Y1673783D3*
X6802996Y1244079D3*
X2875776Y431831D3*
X5171012Y759689D3*
Y899248D3*
X2472390Y1154531D3*
X2344433Y1193429D3*
X2648949Y3011823D3*
X7537453Y3275272D3*
X603752Y716563D3*
X7560169Y3099236D3*
X3979276Y888142D3*
X3751287Y860232D3*
X7670752Y2913606D3*
X7263248Y2806713D3*
X1888240Y1802646D3*
X6777406Y1316150D3*
X2395622Y1854028D3*
X1698516Y1849862D3*
X7550323Y2913606D3*
X2407602Y2093756D3*
X1920299Y1591969D3*
X6090559Y1782669D3*
X6281807Y1854161D3*
X4503846Y2008465D3*
X4633260D3*
X1510311Y1213220D3*
X6360453Y1726528D3*
Y1780390D3*
X4970953Y2897681D3*
X542000Y1056173D3*
Y2543138D3*
X6816248Y783236D3*
X6808484Y1132811D3*
X6776358Y1195575D3*
X7537449Y2158228D3*
X7473697Y3130831D3*
X4449398Y2819362D3*
X838217Y998831D3*
X7511823Y2725913D3*
X4441654Y3275736D3*
X5929260Y2811795D3*
X6850075Y3132461D3*
X6919165D3*
X1383244Y1611299D3*
X885689Y1549941D3*
X4805626Y2999827D3*
X7275039Y715327D3*
X6932815D3*
X5693480Y3446441D3*
X1259815Y1581201D3*
X1067449D3*
Y1456563D3*
X963343D3*
X3285425Y1780240D3*
X6550307Y3280280D3*
X6087047Y3304390D3*
X6550307Y3072268D3*
X5520484Y3059614D3*
X5559724Y3233059D3*
X2909122Y1689878D3*
Y1743390D3*
X1347808Y1627539D3*
X6360453Y1854161D3*
X5616323Y3233059D3*
X6550307Y3175846D3*
X5804075Y1992945D3*
X4669583Y1723783D3*
X6704642Y1821051D3*
X3285425Y1892705D3*
X1487906Y1620571D3*
X5794228Y1727185D3*
X5620843Y1927783D3*
X4968146Y2988654D3*
X4968142Y2937472D3*
X5613984Y885343D3*
X5690756D3*
X1113654Y2301469D3*
X6259083Y2907953D3*
X2621969Y3072626D3*
X2860335Y678008D3*
X7391370Y662429D3*
X5649417Y648539D3*
X3516449Y520343D3*
X1086283Y2761024D3*
X4312551Y1973028D3*
X4006681Y2093378D3*
X6768535Y1015339D3*
X5441437Y3045551D3*
X3949594Y2093378D3*
X3580957Y822106D3*
X3542039Y720469D3*
X7575913Y2221374D3*
X6706866Y507969D3*
X6304012Y488150D3*
X5442256Y421917D3*
Y504594D3*
X5452098Y648539D3*
X5578551D3*
X5985476Y3242969D3*
X4334232Y484913D3*
X4373535Y1596268D3*
X7059579Y3367398D3*
X1113654Y2540248D3*
X5623874Y1883035D3*
X2584457Y2931815D3*
X7575913Y2296343D3*
X2860335Y564646D3*
X3542039Y584748D3*
X1188756Y2987311D3*
X3980555Y3073846D3*
X2539528Y1722909D3*
X5559815Y1777677D3*
X6720646Y758248D3*
X7392929Y1974567D3*
Y2116728D3*
X1042394Y1423402D3*
X1354209Y2911531D3*
X6665264Y1287193D3*
X6484898Y1225331D3*
X1042394Y1186299D3*
X1647335Y1677748D3*
X6633705Y2041909D3*
X930693Y1186299D3*
X4502917Y1702181D3*
X1042394Y1237941D3*
X4534406Y3145634D3*
X4747488Y3196811D3*
X750378Y2620161D3*
X666374Y3195327D3*
X4604748Y622449D3*
X1678902Y1213122D3*
X1270047Y520343D3*
X7967791Y824256D3*
Y600886D3*
X4827697Y850031D3*
X2346146Y1555146D3*
X7147087Y857791D3*
X7121469Y1000004D3*
X6213154Y1055327D3*
Y951173D3*
X1653941Y1456055D3*
Y1268843D3*
X2283902Y1932992D3*
X6665264Y1395091D3*
X4577988Y1220768D3*
X754728Y1605039D3*
X2283902Y1555146D3*
X2857941Y1868028D3*
X750378Y2347106D3*
X4371780Y1912476D3*
X6429945Y1990732D3*
X6337043Y2006728D3*
X7020429Y2912315D3*
X6659409Y1236008D3*
X6051417Y3138823D3*
X6130681D3*
X6575898Y3254689D3*
X3800965Y1988626D3*
X4062567Y648039D3*
X4543724D3*
X4631606Y498693D3*
X1072315Y2055618D3*
X6009598Y629303D3*
X659110Y3094689D3*
X746362Y2716283D3*
X7604055Y3381799D3*
X1453878Y2067425D3*
X4011138Y784909D3*
X1072315Y2645752D3*
X1077823Y946122D3*
X6691122Y1923630D3*
X4807016Y583925D3*
X7969858Y2471075D3*
X7955850Y2570091D3*
X6669138Y2072803D3*
X1453878Y2155075D3*
X2472598Y1980835D3*
X5552957Y587520D3*
X5916780Y1980807D3*
X7955850Y2747252D3*
X1077823Y1386520D3*
X1852638Y479008D3*
X1996760D3*
X4337606Y1998618D3*
X6181516Y1830276D3*
X6285457Y1754591D3*
X7934295Y1874461D3*
X827744Y3159831D3*
X6562787Y905961D3*
X6939126Y766508D3*
X6645441Y3351693D3*
X6476394Y676732D3*
X6429335Y829189D3*
X3265512Y621461D3*
X3108492Y634602D3*
X3043004D3*
X2575858Y514441D3*
X6206465Y899992D3*
X5067134Y2024276D3*
X7583209Y1755020D3*
X1122370Y603020D3*
X6079012Y899992D3*
X5353717Y3087142D3*
X7628047Y626945D3*
Y689736D3*
X7506114D3*
X2728091Y2152236D3*
X7596110Y1525732D3*
X5595252Y1803268D3*
X7899972Y2359831D3*
X3052524Y3012780D3*
X2785500Y1187177D3*
X5978157Y1824177D3*
X4171409Y2842937D3*
X5978157Y1752421D3*
X933866Y1896327D3*
X2637780Y715417D3*
X5986020Y1575382D3*
X5239079Y2065622D3*
X5337386Y2033260D3*
X1387598Y1565453D3*
X5777713Y2857173D3*
X7511858Y2373114D3*
X5684638Y2856791D3*
X7989138Y1727413D3*
X7436232Y1637969D3*
X7669823Y1473898D3*
X7939965Y1336965D3*
X421917Y2952945D3*
X1985819Y1530795D3*
X2021795Y1047846D3*
X2596059Y1183591D3*
X6831996Y726902D3*
X5792346Y638701D3*
X6236850Y556020D3*
X1343969Y593177D3*
X6450374Y3097858D3*
X633240Y1437083D3*
X7511858Y2526811D3*
X7669823Y1418780D3*
X1853453Y3434299D3*
X3269988Y3311469D3*
X6735949Y652583D3*
X7248020Y1747571D3*
X6806673Y1601382D3*
X511051Y2952945D3*
X7903650Y1595453D3*
X7436232Y1751598D3*
X5903669Y2857173D3*
X7669823Y1593024D3*
X1760071Y3434299D3*
X633240Y1209417D3*
X6450374Y2878016D3*
X2923854Y3253067D3*
X1287114Y1350988D3*
X6529244Y1601382D3*
X7511858Y2432354D3*
X7098969Y1246701D3*
X6138642Y2864079D3*
X1015583Y3246354D3*
X7324051Y2076457D3*
X7730516Y3259079D3*
X5659268Y1674776D3*
X6244500Y3063732D3*
X2384031Y3292354D3*
Y3124354D3*
X2663480Y2887697D3*
X4915543Y635283D3*
X4709433Y1883484D3*
X7324051Y2038776D3*
X3182000Y2061929D3*
X3284831Y2144110D3*
X7923909Y3171106D3*
X7730516Y3186689D3*
X5477689Y504594D3*
X1374634Y3176618D3*
X5587634Y769315D3*
X7047228Y3047717D3*
X1542130Y2060315D3*
X5176079Y1881516D3*
X1055756Y3086512D3*
X6138642Y3060563D3*
X6860831Y3279220D3*
X3456657Y3389433D3*
X5302909Y873657D3*
Y675429D3*
X1066760Y3206638D3*
X7119772Y3188362D3*
X3246874Y1217846D3*
X4654287Y618559D3*
X7396925Y3049366D3*
Y3179819D3*
X3629669Y1999945D3*
Y1879323D3*
X2714886Y554028D3*
X2655819Y534996D3*
X1971169Y528807D3*
X5436386Y1654555D3*
Y1602618D3*
X7410642Y1776654D3*
X7008378Y828268D3*
X2143374Y3068555D3*
X5833780Y774331D3*
X5757433D3*
X5683012Y779020D3*
X2800031Y626177D3*
X7136165Y1747224D3*
X6500201Y844862D3*
X7015484Y2000402D3*
Y1779713D3*
X1010220Y3297535D3*
X1117992Y3397134D3*
X2091331Y3248575D3*
X4093413Y2026992D3*
X4160563Y2062445D3*
X5467028Y3256756D3*
X979551Y1363394D3*
X7653827Y2582823D3*
X7802634Y1941146D3*
Y1887252D3*
X4780035Y2802543D3*
X2865898Y3032138D3*
X3138437Y2922535D3*
X2156941Y1497559D3*
Y1761402D3*
X2898205Y2859461D3*
X2332882Y2821535D3*
X4728858Y3120043D3*
X6002543Y771370D3*
Y682476D3*
X6143642D3*
X6258504D3*
X2151846Y2801850D3*
X1301992Y626295D3*
X2342323Y1879618D3*
X7842701Y2964787D3*
X2742193Y1594114D3*
X7028201Y1576193D3*
X7833339Y1861661D3*
X4728858Y2994469D3*
X4381724Y2963232D3*
X7028201Y1369209D3*
X1885764Y1985244D3*
X2332882Y1761402D3*
X1515079Y529366D3*
X5616260Y3146453D3*
X2748850Y651764D3*
X6910638Y1974811D3*
X2564579Y3191815D3*
X2356087Y3056094D3*
X6475051Y1454858D3*
X6155783Y1173571D3*
X5809976Y1894846D3*
X1853453Y2913299D3*
Y3387402D3*
X1711705D3*
X1531193Y3381488D3*
X1178610Y3336110D3*
X4914697Y2094756D3*
X3471760Y1646988D3*
X3505894Y1719823D3*
X4685634Y1580327D3*
X7642843Y3031717D3*
X7621193Y3224091D3*
X4811795Y2118398D3*
X569717Y1030583D3*
Y2141031D3*
X4061547Y2980650D3*
X4252811Y2917764D3*
X6305520Y3116976D3*
X6560154Y3404429D3*
X569717Y3465795D3*
X1051024Y3336110D3*
X3568642Y1800394D3*
X5831811Y1170787D3*
X4942453Y1998685D3*
X2748850Y612858D3*
X6829283Y2989980D3*
X569717Y2710150D3*
X6475051Y1329657D3*
X4421941Y1726807D3*
X6711894Y2989980D3*
X6912626Y2996177D3*
X2662835Y680740D3*
X6910638Y1821051D3*
X7532039Y1568228D3*
X4397783Y2886531D3*
X4367835Y453417D3*
X3443870Y2987189D3*
X4841858Y1603114D3*
X6913150Y2919079D3*
X4367835Y745996D3*
X2351362Y1701547D3*
X2370028Y1622075D3*
X4807020Y1194669D3*
X5853563Y596421D3*
X6320189Y1638598D3*
X3992441Y622752D3*
X4017307Y1524524D3*
X4681315Y3029902D3*
X696559Y2080047D3*
Y2657850D3*
X7096083Y1364488D3*
X3323008Y2149059D3*
X8009098Y2084480D3*
X1949197Y1359913D3*
X3111579Y3174354D3*
X699780Y2008496D3*
Y1831917D3*
X903386Y805760D3*
X6021453Y1583697D3*
X6006819Y1665539D3*
X5952567D3*
X7602890Y1827835D3*
X7654992D3*
X7716012Y1904606D3*
X2811091Y1533094D3*
X903386Y644469D3*
X5180181Y3000252D3*
X4441429Y1856437D3*
X6345016Y1541264D3*
X4440657Y1946268D3*
X8005264Y3187906D3*
X6229299Y1541264D3*
X7716012Y1947051D3*
X2303323Y3112657D3*
X7090748Y1452500D3*
X4681315Y2867520D3*
X2017433Y1827701D3*
X6050902Y784311D3*
X5952567Y1799122D3*
X1873969Y1934063D3*
X4819417Y3094453D3*
X5641378Y3261744D3*
X7653169Y2881059D3*
X648988Y1286189D3*
X4017610Y2859614D3*
X7229764Y927173D3*
Y869602D3*
X7182520Y740917D3*
X6883177Y652583D3*
X4303992Y3120925D3*
X666031Y1411492D3*
X1914815Y1233150D3*
Y1056177D3*
X4231858Y1729504D3*
X7339425Y927173D3*
Y1003898D3*
X5338461Y421917D3*
Y507484D3*
X5373894Y558665D3*
X4513878Y535634D3*
X7756984Y2762992D3*
Y2574791D3*
X4849752Y2951165D3*
X666031Y1616768D3*
X4780047Y3094453D3*
X1829012Y2071567D3*
X1097906Y1844374D3*
X1046760Y1641976D3*
X3205059Y589492D3*
X4231858Y1618346D3*
X4849752Y2886201D3*
X4058295Y3093394D3*
X1841465Y1457539D3*
X2425146Y814004D3*
X3155681Y653685D3*
X6391780Y3371319D3*
X4200835Y766150D3*
X784937Y2871783D3*
X801559Y2363059D3*
X2627925Y1150780D3*
X4635134Y1189165D3*
X6102598Y2955185D3*
X3043539Y457421D3*
X8096449Y2330429D3*
X7563039Y2183657D3*
X7760732Y1176386D3*
X7518012Y565071D3*
X3584374Y437665D3*
X6391780Y3204299D3*
X3176240Y437665D3*
X7722547Y933677D3*
X5163988Y3087736D3*
X7967791Y875965D3*
X1326744Y1897291D3*
X5036413Y2082429D3*
X7995224Y568311D3*
X7428362Y1974567D3*
X3225047Y2839941D3*
X6360287Y2996071D3*
X6391780Y3262866D3*
X8000055Y1196240D3*
X7480921Y2193657D3*
X2358441Y3228650D3*
X6360287Y3143276D3*
X7772488Y1061260D3*
X5441437Y2945913D3*
X5561843Y2899370D3*
X1735465Y2026583D3*
X1253909Y780169D3*
Y728988D3*
X1648039Y747862D3*
Y843528D3*
X3436268Y1572417D3*
X7124000Y2933965D3*
X7046020Y2949713D3*
X6550307Y3005728D3*
X5782598Y868528D3*
X5787390Y689882D3*
X3367882Y819996D3*
X4009508Y1643610D3*
X3965476Y1530606D3*
X3853921Y800307D3*
Y867236D3*
X4008571Y1901382D3*
X7448106Y3047465D3*
X815350Y1539315D3*
X1926457Y2828185D3*
X7486232Y2562244D3*
X812626Y874209D3*
X2692020Y2833870D3*
X4551504Y821555D3*
Y754492D3*
X2796583Y3197772D3*
X5118315Y813169D3*
X5782598Y801598D3*
X3560634Y1604248D3*
X6569213Y1278476D3*
X5786535Y1170787D3*
X6546449Y1914815D3*
X3814252Y1530606D3*
X2967846Y1511189D3*
X1926457Y3135976D3*
X7486232Y2966386D3*
X815028Y1259575D3*
X2692020Y2954874D3*
X1683472Y868583D3*
X4232303Y1764937D3*
X4240945Y1872433D3*
X4245626D3*
X5436563Y2136843D3*
X4245626Y2024209D3*
X2253248Y1323646D3*
X2293858Y788661D3*
X7488626Y1062685D3*
Y1170484D3*
X7712705Y1224079D3*
X7121469Y1106531D3*
X5227870Y2148142D3*
X6643433Y3056909D3*
X2293858Y847472D3*
X7836720Y1472913D3*
X1910709Y3171409D3*
X1716433Y3159709D3*
X3145862Y806283D3*
X4571768Y3171220D3*
X1003728Y494752D3*
X1244457D3*
X6118547Y1875358D3*
X7794677Y1686445D3*
X6910240Y1295264D3*
X6968594Y1640992D3*
X3695575Y1800390D3*
X4176421Y595913D3*
X7795382Y1318630D3*
X6118547Y2043386D3*
X4524563Y2154906D3*
X1474878Y1202220D3*
X3203811Y3314087D3*
X1480193Y608835D3*
X5891189Y1906358D3*
X2003228Y3302984D3*
X1265575Y3389661D3*
X7171224Y2062315D3*
X2923799Y3329835D3*
X3932362Y1727555D3*
X3879512Y892291D3*
X3941346D3*
Y648343D3*
X3092689Y1213866D3*
X6294343Y2125752D3*
X6550307Y2104386D3*
X5060012Y3504386D3*
X3878205Y3415709D3*
X6765874Y2036669D3*
X6633705Y2128524D3*
Y2077343D3*
X2411366Y1215665D3*
X1673626Y919764D3*
X1230091Y2224630D3*
X1532583Y869118D3*
X4723945Y2816339D3*
X1645169Y1019185D3*
X7627094Y2243161D3*
X7631382Y2980535D3*
X7898319Y3299756D3*
Y3494539D3*
X5543728Y3463043D3*
X6740283Y2092354D3*
X6722350Y1518287D3*
X516406Y2105638D3*
Y1869114D3*
X3098331Y2036339D3*
X6878063Y1144394D3*
X2068189Y3044425D3*
X5543728Y3324122D3*
X3145091Y1585012D3*
X6600354Y1518287D3*
X3010469Y3131654D3*
X1264866Y3354228D3*
X6293835Y1487020D3*
X6345016Y1435622D3*
X6543799Y1386500D3*
X8046406Y875429D3*
X6499768Y513740D3*
X6659976D3*
X4116189Y858728D3*
X3244720Y1147559D3*
X3057024Y1572213D3*
X1143579Y3309925D3*
X1197060Y2542572D3*
X1617441Y634425D3*
X6963346Y3140240D3*
X1577067Y1747402D3*
X6032409Y1897988D3*
X6937559Y1601783D3*
X1688831Y3276303D3*
X4899232Y875622D3*
X4909075Y1515169D3*
X2826839Y1568528D3*
X5804504Y1568807D3*
Y1634878D3*
X1506701Y1883917D3*
Y2034724D3*
X1393579Y1259602D3*
Y1066169D3*
X1505795D3*
X1175012Y2735433D3*
X1172073Y2642520D3*
X6859059Y1421504D3*
Y1490291D3*
X7014732Y2104394D3*
X6582638Y1401705D3*
X6064969Y1634878D3*
X2823004Y2085311D3*
X6937181Y1490291D3*
X7019433Y1744280D3*
X1688831Y3011382D3*
X7536689Y3407390D3*
X7668433Y3056772D3*
X2462547Y753921D3*
X8014724Y1912343D3*
X7692984Y784276D3*
X7609232Y1383350D3*
Y1135047D3*
X7974996Y1509858D3*
Y1273012D3*
X7967791Y1221831D3*
X7942201Y1135047D3*
X7444224Y751602D3*
X1711031Y589154D3*
X1785220Y578665D3*
X5258760Y1155606D3*
X2716602Y1696469D3*
X7653634Y1048972D3*
X7680217Y2634008D3*
X7914535Y2673378D3*
X1360472Y1824280D3*
X5227646Y1883469D3*
X1461685Y530189D3*
X7756106Y3145516D3*
X8016177Y2049047D3*
X5201669Y1976260D3*
X2598772Y565618D3*
X3559217Y3279256D3*
X3652165Y2081280D3*
X1475043Y1974472D3*
X7680217Y2398909D3*
X2000287Y660839D3*
X6957193Y1173209D3*
X2000287Y881638D3*
X1428016Y805315D3*
X3561295Y1182252D3*
X3981874Y1179059D3*
X1253909Y1524114D3*
X2332602Y555780D3*
X1304980Y712945D3*
X7096205Y1984654D3*
Y1933469D3*
X6836890D3*
X6690791Y1872232D3*
X2679453Y586177D3*
X2196161Y1242717D3*
X729020Y886665D3*
X1927921Y1268583D3*
X1940406Y952094D3*
X1304980D3*
X7916610Y991142D3*
X7967791D3*
Y1109457D3*
X3082583Y1826902D3*
X4980555Y1157382D3*
X650429Y2225870D3*
X6003748Y1701236D3*
X3774315Y3114161D3*
X4749114Y752780D3*
X6186760Y581610D3*
X6566894Y1030020D3*
X6355193Y535547D3*
X767524Y1718776D3*
X2332602Y647043D3*
X3119457Y1188276D3*
X6003748Y2157709D3*
X6541980Y1536697D3*
X1253909Y864189D3*
X6584555Y1940406D3*
X729020Y1573268D3*
X4956874Y885469D3*
X6515516Y681264D3*
X3735937Y2864583D3*
X3789091Y3165343D3*
X3700906Y3247358D3*
X6383154Y1035642D3*
X7123000Y2117980D3*
X7805791Y2324402D3*
X7739996D3*
X7297957Y3356906D3*
X5026669Y3052299D3*
X3580465Y3483728D3*
X6523713Y919378D3*
X3316693Y782157D3*
X1859937Y1108398D3*
Y1031626D3*
X1566260Y554398D3*
X6394327Y3168866D3*
X4802331Y688657D3*
X2256272Y1893547D3*
X1127106Y865693D3*
Y671941D3*
X7367339Y1948976D3*
X7200421D3*
X3903795Y3223693D3*
Y3059591D3*
X1625299Y1430217D3*
X1682768D3*
X7448106Y2903469D3*
X7151425Y1551421D3*
X1682768Y1686665D3*
X3903795Y3139752D3*
X3499528Y739559D3*
X5457969Y1197224D3*
X1752138Y1031626D3*
X7193280Y1823654D3*
X7297957Y3073311D3*
X2318524Y1167839D3*
X5289075Y1197224D3*
X3915756Y514252D3*
X1349043Y3080850D3*
X6409035Y3015067D3*
X7379272Y2903469D3*
X2523039Y761150D3*
X485461Y3275862D3*
X3855591Y1701965D3*
X3983543Y1734516D3*
X7516236Y1838744D3*
X7738276Y1853425D3*
X7820976Y1648618D3*
X6996004Y3374413D3*
X3403181Y1176516D3*
X2446650Y1767220D3*
X6647917Y2866350D3*
X3869969Y1862469D3*
X5520201Y1951441D3*
X1008787Y2045870D3*
X990634Y1693843D3*
X2370031Y2877535D3*
X490815Y1235008D3*
X6879138Y1848386D3*
X7601504Y3082898D3*
Y2829878D3*
X1802272Y3049114D3*
X5671118Y1951358D3*
X2370031Y1786992D3*
X2446650Y1731787D3*
X7890445Y761980D3*
X4636335Y3249551D3*
X2181547Y3197394D3*
X7820976Y1567854D3*
X993154Y1864472D3*
X2370031Y1907402D3*
X5671118Y2085465D3*
X4112961Y1862469D3*
Y1743787D3*
X5120386Y2905976D3*
X6268752Y2152594D3*
X490815Y1954602D3*
X1802272Y3197394D3*
X3403181Y1754394D3*
X5369634Y2145598D3*
X4478256Y1957283D3*
X3483862Y1598008D3*
X3432890Y819984D3*
X4601760Y1880303D3*
X3367098Y2805134D3*
X3549492Y3315000D3*
X3516004Y843992D3*
X2983594Y1546622D3*
Y1770406D3*
X5146732Y1164949D3*
X5002142Y1218760D3*
X1179008Y3248902D3*
X7082413Y2143571D3*
X4478256Y3275736D3*
X4996543Y3123913D3*
X4144925Y575276D3*
X7298272Y3031425D3*
X7230291Y1335283D3*
X1154594Y723370D3*
X5346780Y1947500D3*
X6207728Y1780181D3*
X2184244Y1328598D3*
X5579161Y3287335D3*
X5492626Y3450898D3*
X5299555D3*
X1046724Y1913260D3*
X1135335D3*
X5174799Y636315D3*
X7746898Y509713D3*
X7744984Y1123150D3*
X7453193Y1118906D3*
Y1177476D3*
X7272760Y1622220D3*
X3903795Y3361118D3*
X5641378Y3206720D3*
X1108102Y2905429D3*
X5174799Y689579D3*
X4867449Y1753520D3*
X1180996Y1135539D3*
X2184244Y1822441D3*
X1198705Y1733559D3*
X7298461Y2132606D3*
X536823Y741618D3*
X5652413Y587520D3*
X5620898Y511157D3*
X3642244Y1843890D3*
Y1654217D3*
X5861685Y530429D3*
X2240760Y636390D3*
X6077008Y2797150D3*
X1180185Y1035598D3*
Y891067D3*
X6207382Y3285445D3*
Y2904004D3*
X3941346Y565433D3*
X3856925D3*
Y694433D3*
X4539469Y507598D3*
X3175031Y2961559D3*
X7410642Y1720961D3*
Y1543610D3*
X7229898Y601346D3*
Y425291D3*
X7697343Y1722217D3*
X6425197Y744496D3*
Y618748D3*
X7891020Y824256D3*
X6867429Y1028823D3*
X6783894Y652583D3*
X1882803Y1171783D3*
X2300846Y621453D3*
X5715811Y1978083D3*
X6783894Y601346D3*
X8060181Y927602D3*
X1829008Y2026634D3*
X2587004Y785031D3*
X7891020Y927602D3*
X1833043Y1616319D3*
X3788039Y694433D3*
X7891020Y1311374D3*
X4669020Y1657098D3*
X4554098Y1660846D3*
X4473122D3*
X4741705Y558047D3*
X4950976Y609693D3*
X5029524D3*
Y734098D3*
X5401154Y743323D3*
X3880815Y1956504D3*
X2488138Y549874D3*
X5485453Y3164051D3*
X3886102Y2865520D3*
X3509189Y2860689D3*
X3418280Y2900516D3*
X3118906Y2849094D3*
X5501780Y901626D3*
X5665165Y818614D3*
X5587429Y2924961D3*
X6389764Y565760D3*
X8066882Y1129496D3*
X8060280Y2304839D3*
X5558496Y1813110D3*
X6948555Y1748799D3*
X7812480Y600886D3*
X1913992Y645925D3*
Y977850D3*
X8060280Y2529008D3*
X1219417Y2476370D3*
X1109748Y2130417D3*
X6706539Y1753453D3*
Y1636815D3*
X6472961D3*
X1109748Y1969213D3*
X1096780Y644213D3*
X1228319Y1391228D3*
X2689925Y1645287D3*
X4341102Y1886886D3*
X5401154Y901626D3*
X6085559Y741083D3*
X5469020Y1870953D3*
X5553516D3*
X7812480Y965551D3*
X2540921Y670354D3*
X6225394Y1317512D3*
X1583965Y916661D3*
X5849528Y899992D3*
X5202055Y1650618D3*
X4416063Y3303496D3*
X6424465Y2145378D3*
X7419906Y917327D3*
X4771937Y1749374D3*
X6077008Y3070406D3*
Y2929594D3*
X6232972Y2837075D3*
X1952047Y3106142D3*
Y3165264D3*
X6233319Y1818732D3*
X6537197Y741732D3*
X6782894Y958122D3*
Y880370D3*
X6429295Y1934909D3*
X2079413Y1923067D3*
X1971685Y1959654D3*
X6335783Y925583D3*
X1718201Y1605091D3*
X1675598Y614744D3*
X5278748Y1889646D3*
X7314370Y1152051D3*
X3403181Y1818020D3*
X3511571Y1823469D3*
X1685591Y1143031D3*
X1679909Y1352598D3*
X1675512Y1054614D3*
X6537197Y880370D3*
X1642079Y3042768D3*
X3284280Y1975811D3*
X6233319Y2012579D3*
X2079413Y2059508D3*
X6311453Y2032319D3*
X2742496Y1894157D3*
X5568126Y2034283D3*
X6311453Y1934909D3*
X7314370Y1037094D3*
X4754445Y2841394D3*
X5283335Y1854213D3*
X5202055Y1515106D3*
X6498122Y976764D3*
X4741035Y1571417D3*
X4633587Y1546614D3*
Y1631508D3*
X2526559Y2058327D3*
X2208815Y2065921D3*
X5013776Y558665D3*
X7743067Y3320047D3*
X6768260Y2938803D3*
X5900709Y715492D3*
Y848811D3*
X7455201Y1390079D3*
X3670134Y1153469D3*
X2091335Y3338413D3*
X1977638D3*
X7820291Y2721654D3*
X1550921Y3227799D3*
X3509453Y1684390D3*
X3586886Y1152972D3*
X3466283Y1943886D3*
X2228504Y1919138D3*
X2163433Y1932909D3*
X6942886Y3175673D3*
X5375161Y1896319D3*
X860831Y2849756D3*
X3424508Y3319787D3*
X5831346Y3248059D3*
X7121610Y3150083D3*
X7221185D3*
X1939421Y1838079D3*
X1888240D3*
X1663783Y1875453D3*
X7575917Y3468803D3*
X516409Y857598D3*
Y1780736D3*
X4550343Y1815260D3*
X2167480Y1897476D3*
X7221185Y3408087D3*
X7455201Y1450843D3*
X1349043Y3116661D3*
X1663783Y1824272D3*
X5831346Y3395260D3*
X6308992Y795453D3*
X5324673Y1596677D3*
X5364047Y717732D3*
X5119831Y708508D3*
X937134Y3220764D3*
X7698224Y2792768D3*
X6913591Y2826398D3*
X5000323Y2027248D3*
X4278335Y1523079D3*
X5738098Y504839D3*
X1540669Y503217D3*
X8020815Y652067D3*
X691622Y1744366D3*
X595307Y2739343D3*
X8085776Y1018449D3*
X6680874Y3332650D3*
X5018457Y3308976D3*
X5136134Y3282346D3*
X5415846D3*
X5594331Y1524173D3*
X6229299Y1625031D3*
X6158283D3*
X1602102Y2913299D3*
X634685Y2005783D3*
X595307Y2507272D3*
X8020815Y476472D3*
X7476335Y513890D3*
X5060567Y635280D3*
X1750224Y3237811D3*
X2360409Y2929354D3*
X6757512Y533559D3*
X1952047Y3406362D3*
X3003106Y862740D3*
X6759134Y2826398D3*
X6842575Y513890D3*
X5738098Y447512D3*
X2885390Y539055D3*
X6319425Y1568531D3*
X6158283Y1722524D3*
X3147472Y3288496D3*
X5000323Y1570681D3*
Y1758343D3*
X5415846Y3019961D3*
X2209835Y1481732D3*
X6203161Y3371319D3*
X5617059Y3010406D3*
X4381724Y3240307D3*
Y3020059D3*
X5878614Y2886717D3*
X6435201Y1075012D3*
X3109311Y548976D3*
X1801406Y3011835D3*
X5206673Y856480D3*
X7088567Y2924122D3*
X4050559Y1897902D3*
X4119004D3*
X4229587Y2827189D3*
X6273559Y794043D3*
X2436957Y530189D3*
X2211909D3*
X6994185Y1298094D3*
X6933965Y801941D3*
X7008374Y1188957D3*
X5900039Y3110972D3*
X3017949Y605984D3*
X4516071Y805673D3*
X3501614Y1173150D3*
X4147110Y2123945D3*
X7147201Y3030213D3*
X6303705Y1075012D3*
X1395902Y1849870D3*
X1369732Y1948472D3*
X1461142Y1910894D3*
X5242106Y768067D3*
X4913169Y3375906D3*
Y3300732D3*
X2119390Y716835D3*
X1834346D3*
Y1057217D3*
X1716850D3*
X5181988Y1209075D3*
X1554205Y1101693D3*
X7070614Y2092390D3*
X5964693Y3110972D3*
X1631587Y1624673D3*
X3469374Y713965D3*
X3934957Y3441520D3*
X4032406Y1592429D3*
X3607669Y1578657D3*
X6916110Y3373106D3*
X4108232Y2798591D3*
X3944657D3*
X6273559Y872783D3*
X3934957Y2929882D3*
X2574961Y1715173D3*
X2110606Y1675957D3*
X6499965Y1174150D3*
X3248846Y1975630D3*
X3219134Y1592949D3*
X6989657Y1088591D3*
X7480524Y802673D3*
X7687114Y828083D3*
X1228114Y2093016D3*
X1382843Y1672815D3*
X2358213Y708902D3*
X2297366Y743520D3*
X5484772Y2024280D3*
Y1926386D3*
X5414535Y2010496D3*
X3398913Y3415024D3*
X2878890Y3345583D3*
X6499965Y1107220D3*
X2727453Y3255272D3*
X4149512Y740559D3*
X3008087Y1916193D3*
X2962047Y2032740D3*
X4149181Y1550114D3*
X6136008Y794043D3*
X6238126D3*
X870472Y1994803D3*
X1174681Y1994689D3*
X7827114Y1712035D3*
X7728016Y1475039D3*
X7795382D3*
X4125122Y2902181D3*
Y2954720D3*
X2485295Y3344665D3*
X835039Y2137531D3*
X4053043Y2827591D3*
X5459177Y1527382D3*
X2707768Y3344665D3*
X2110606Y1948657D3*
X2193067Y2006827D3*
X6000236Y2984055D3*
X7687114Y932087D3*
X2629941Y2032736D3*
X3523902Y2955472D3*
X2144980Y743520D3*
X5877205Y3349713D3*
X7754909Y1335409D3*
X2110606Y1411213D3*
X5675642Y1883035D3*
X4639390Y1686433D3*
X2047370Y1643150D3*
X2080772Y1207287D3*
X2227657D3*
X6396197Y1341555D3*
X3536303Y895173D3*
X3270425Y888331D3*
X3120201D3*
X1153417Y3054343D3*
Y3145425D3*
X3345299Y1192256D3*
X7115980Y1782657D3*
X7265732Y1802244D3*
X7229764Y1185055D3*
X2233697Y779047D3*
X2196161Y859280D3*
X7429343Y844012D3*
X4125878Y1615063D3*
X3345299Y1538835D3*
X1092350Y3145425D3*
X3049079Y3073795D3*
X2923795Y2825736D3*
X4303992Y3085492D3*
X4083886Y3062382D3*
X1059366Y1682374D3*
X7916610Y1228102D3*
X4837764Y669740D3*
X6090563Y1849768D3*
X6165272Y1589598D3*
X6254890Y1594122D3*
X1021134Y2435031D3*
X7942201Y502063D3*
X4283024Y1184732D3*
X3905102Y1153469D3*
X3041563Y810906D3*
X964402Y3145425D3*
X783276Y773780D3*
X717213D3*
Y560799D3*
X1063555Y560850D3*
X3983547Y1769949D3*
Y1831886D3*
X808650Y3399520D3*
X3041563Y888331D3*
X7053791Y1523764D3*
X6294598Y1675118D3*
X6426535Y1562287D3*
X1372815Y660189D3*
X7942201Y849843D3*
X783276Y1481756D3*
X4072752Y1181764D3*
X2227657Y990760D3*
X5592339Y1603780D3*
X4139055Y1769949D3*
X3815646Y3088571D3*
X3839476Y2105039D3*
X964402Y2470236D3*
X995543Y2104669D3*
X7265732Y2058524D3*
X8085870Y2624169D3*
X5085602Y3466646D3*
Y3399717D3*
X889535Y857161D3*
Y1130618D3*
X1325780Y1071031D3*
X3661776Y2921114D3*
X3675315Y3277882D3*
X1325780Y1373335D3*
X2774441Y848268D3*
X6821409Y2877579D3*
X1393579Y1295035D3*
X7757350Y2054720D3*
X4107362Y3291024D3*
X6793850Y3106264D3*
X7262150Y1256449D3*
Y898429D3*
X6731929Y2011079D3*
X1438638Y3202209D3*
X7679417Y2698343D3*
X1878961Y682421D3*
X4088299Y2883362D3*
X2873689Y2136492D3*
X7059555Y898429D3*
X2774441Y755102D3*
X6846146Y2011079D3*
X2959539Y2136492D3*
X7715646Y2520122D3*
X3144752Y755102D3*
X2320563Y1634618D3*
X1808756Y1294917D3*
X5371339Y3391654D3*
X5264126Y3475953D3*
X5083524Y2799776D3*
X2186319Y666390D3*
X7614055Y792650D3*
X7807287Y3362874D3*
X7702425Y1501457D3*
X6907283Y2117945D3*
Y2010244D3*
X6665965Y2154295D3*
X6655220Y3177224D3*
X6793850Y3220681D3*
X4932756Y1779110D3*
X4087622Y620642D3*
X4868331Y2061224D3*
X3636185Y3178370D3*
X5253161Y1976260D3*
X7247169Y1551425D3*
X1420740Y870094D3*
X1127827Y3274492D3*
X1015587Y2813201D3*
X5161724Y3324283D3*
X1269453Y2333949D3*
X7149240Y1961406D3*
X7677012Y1663559D3*
X5385118Y3312870D3*
X1420740Y993594D3*
X5326736Y1687843D3*
X6835240Y3220681D3*
X1420740Y1098811D3*
X7247169Y1695370D3*
X2093799Y1083768D3*
X901724Y2813201D3*
X897783Y2333949D3*
X4923543Y1613217D3*
X2500004Y1527823D3*
X7614055Y958295D3*
X1425402Y1671693D3*
X4085992Y1795539D3*
X6227866Y1660465D3*
X6486724Y1972154D3*
X2255791Y563898D3*
X2025878Y768016D3*
X7450201Y1313213D3*
X5400752Y1729181D3*
X5617929Y1719335D3*
X7524319Y885236D3*
X7680579Y1904606D3*
X7653406Y2322417D3*
X2800031Y677354D3*
X4035937Y2062425D3*
X7230197Y1149622D3*
Y984256D3*
X2267894Y3087071D3*
X3604079Y2148209D3*
Y1850823D3*
X3536626D3*
X7461130Y1212909D3*
X4424717Y1565169D3*
X3352461Y1685437D3*
X5737575Y1609287D3*
X4359823Y877370D3*
X5267831Y3189642D3*
X4279299Y2886531D3*
X2908382Y822031D3*
X1367988Y1498524D3*
Y1328469D3*
X2977343Y3012780D3*
X7653406Y2055276D3*
X5400752Y1935693D3*
X4981618Y2153811D3*
X3337571Y3234484D3*
X7524319Y988150D3*
X2966516Y2807457D3*
X2910862Y1638697D3*
X4428445Y877370D3*
X7490646Y1867717D3*
X1404004Y696654D3*
X3341508Y3099390D3*
X1356689Y765917D3*
X2908382Y728575D3*
X3824524Y3165343D3*
X5255445Y1745091D3*
X3859827Y1666531D3*
X7181965Y3382496D3*
X6450799Y775602D3*
X6025827Y2822740D3*
X4508358Y1895583D3*
X5902795Y3395260D3*
X782945Y3056661D3*
X2521807Y3273854D3*
X2409622Y3180894D3*
X5627772Y1629370D3*
X2659819Y1569161D3*
X3411850Y2010925D3*
X2010874Y1556386D3*
X2011409Y1109358D3*
X516406Y2264992D3*
X1060465Y675173D3*
X516406Y2684563D3*
X6783894Y559150D3*
X6450799Y593157D3*
X3057311Y679996D3*
X731764Y2901768D3*
X516406D3*
X8054374Y2142791D3*
Y2075346D3*
X1103413Y1186760D3*
X1155406D3*
X3320858Y1943886D3*
X731764Y3042882D3*
X7204043Y1246610D3*
X7330543Y844012D3*
X7450744Y689736D3*
X7727201Y626476D3*
X4341965Y1657291D3*
X4508362Y1788457D3*
X7130783Y3382496D3*
X1845846Y2802594D3*
X2659819Y1748500D3*
X2744500Y2897697D3*
X6025827Y3019224D3*
X1162555Y1611791D3*
X7427602Y1093850D3*
X3119232Y2137220D3*
X2648949Y3248516D3*
X5232870Y2878984D3*
X5653339Y2984815D3*
X1175213Y3388874D3*
X8044843Y1298602D3*
X2770803Y3169362D3*
X4938106Y488846D3*
X4722886Y494756D3*
X4575929Y1844870D3*
X4687528Y3107417D3*
Y3275142D3*
X7929244Y1797689D3*
X8014728Y1762260D3*
X7357114Y3408087D3*
X7256618D3*
X3688972Y3124008D3*
X3219130Y1172614D3*
X1139244Y2409441D3*
X3762689Y3458138D3*
X4999783Y3375906D3*
X7448106Y3157161D3*
X6233319Y2155394D3*
X5353717Y3122575D3*
X5585315Y3114843D3*
X1974787Y1658898D3*
X3346280Y2033079D3*
X7163740Y2117980D3*
X3567630Y533224D3*
X1228294Y2373911D3*
X7730516Y3083362D3*
X7820610D3*
X8060280D3*
X8034689Y2279248D3*
X7934295D3*
X775969Y1927539D3*
Y2430031D3*
X3688972Y3039472D3*
X5562803Y859752D3*
X6337972Y2100161D3*
X5653339Y3110685D3*
X7374319Y3283398D3*
X7377197Y3245504D3*
X7555760Y1414394D3*
X3567630Y633854D3*
X4930713Y1724996D3*
X4849752Y2840598D3*
X5094795Y2872091D3*
X7563559Y2061185D3*
X7731760Y2029130D3*
X1381913Y3017177D3*
X6419457Y1794878D3*
X5426508Y613110D3*
X1129004Y974004D3*
X7567472Y1560346D3*
Y1637969D3*
X5832409Y2929217D3*
Y3124752D3*
X3108492Y843992D3*
X5799374Y3462189D3*
X1952047Y2938890D3*
X1537756D3*
Y3013079D3*
X6492587Y3345728D3*
X1190425Y2440941D3*
X1257850Y1647224D3*
X2433193Y2123776D3*
X3274988Y3022614D3*
X4150488Y699220D3*
X4691031Y719063D3*
X5974165Y638705D3*
X1162555Y1647224D3*
X5990244Y3345728D3*
X7628043Y1074563D3*
X7769791Y1427150D3*
X1129402Y1269150D3*
X3307764Y876122D3*
X6061457Y3345728D3*
X7754429Y1623028D3*
X5094795Y2974661D3*
X5974165Y715492D3*
X6634386Y819272D3*
X3783839Y1701965D3*
X3799681Y1867319D3*
X3800965Y1831886D3*
Y1939291D3*
X3893693Y1992862D3*
X451441Y3002012D3*
X7664465Y2357850D3*
X4081772Y3376858D3*
X4190965Y3146516D3*
X6737484Y3408539D3*
X6906807D3*
X7551724Y610059D3*
X6634386Y976764D3*
X3668693Y1527476D3*
X3600906Y1679807D3*
X5779272Y3033957D3*
X2083606Y3431953D3*
X6963350Y3408331D3*
X892531Y1686059D3*
X7387701Y2801866D3*
X893551Y1405591D3*
X7314209Y1622220D3*
X3806028Y779772D3*
X7698661Y2168382D3*
X5451390Y2805909D3*
X3663378Y2844941D3*
X7021469Y652583D3*
X3824173Y3013882D3*
X963803Y535209D3*
X6634386Y626937D3*
X1989437Y2962205D3*
X7942201Y1192669D3*
X4006146Y3249504D3*
X3878205D3*
X3584807Y2844941D3*
X7698657Y2244335D3*
X6931256Y652583D3*
X5763941Y3395260D3*
Y3248059D3*
Y3195272D3*
X6634386Y678173D3*
X607650Y1549638D3*
X3584807Y3013882D3*
X7558051Y1249669D3*
X3848996Y3507134D3*
X8082571Y2168382D3*
X5553213Y2826890D3*
X2230677Y1786992D3*
X6279929Y3038142D3*
X5751567Y3101902D3*
X2431055Y2032417D3*
Y1848031D3*
X6178835Y2069913D3*
X6031445D3*
X773102Y3239835D3*
X8049909Y1400654D3*
Y1982874D3*
X7461823Y1555291D3*
Y1776654D3*
X7685488Y3394150D3*
X614996Y2465465D3*
X775969D3*
X5092724Y1923831D3*
X5103343Y2100150D3*
X6517303Y3229098D3*
X1791508Y614098D3*
X2005504Y996315D3*
X5861157Y1660469D3*
X1777728Y1403780D3*
X7799283Y2495008D3*
X7981441Y2518909D3*
X2291492Y2040331D3*
X4858602Y1181469D3*
X1968181Y2887709D3*
X6027429Y1512724D3*
X1576512Y2887709D3*
X636189Y1687752D3*
X4735024Y1929201D3*
X7981441Y3001898D3*
X7810512Y2058890D3*
X7123988Y2838205D3*
X7592382Y1990315D3*
X614996Y2152839D3*
X2933949Y1878409D3*
X1514126Y3304724D3*
X7847138Y3345110D3*
X5124898Y2040024D3*
X863807Y670059D3*
Y1156209D3*
X1516976Y1176350D3*
X7557575Y1879016D3*
X3048012Y1984130D3*
X2055980Y1679661D3*
X7963201Y1660484D3*
X7898933Y1833122D3*
X7883114Y1921106D3*
X5189579Y3118323D3*
X2055181Y579984D3*
X6633819Y1335315D3*
X7208512Y1415669D3*
X1537024Y1378189D3*
X1301154Y1932972D3*
X2293480Y2987795D3*
X2068492D3*
X2006831Y3222984D3*
X1874791D3*
X1617850Y3432177D3*
X1461142Y1856579D3*
X1409961Y1885303D3*
X7883114Y2253661D3*
X984630Y3426146D3*
X630098Y3440858D3*
X7386264Y1226244D3*
X5092724Y588441D3*
X3072736Y2064433D3*
X3590331Y2809508D3*
X632004Y3250272D3*
X6732457Y1724240D3*
X7868291Y2884650D3*
X6702665Y793681D3*
X7339799Y1901752D3*
X1381764Y3400555D3*
X1329988Y2101039D3*
X1548929Y1584654D3*
X1897028Y2973650D3*
X1537024Y1285146D3*
X2055181Y1354654D3*
X5092724Y1193169D3*
X5124898Y1705531D3*
X1297862Y3151028D3*
D20*
X638656Y1359126D3*
X3387497Y3223127D3*
X5144083Y1758625D3*
X7917177Y577139D3*
X6575483Y2878172D3*
X5663026Y1641184D3*
X2098222Y3080492D3*
X2053988Y2936974D3*
X2998545Y1699715D3*
X4311606Y1151211D3*
X757357Y3007325D3*
X779038Y1097772D3*
X7709951Y1136892D3*
X3735937Y2898377D3*
X8042202Y2448684D3*
X2428348Y3058373D3*
X7337647Y3150573D3*
X2629298Y754301D3*
X3359025Y1778570D3*
X3899925Y2917946D3*
X4333391Y2074391D3*
X6298974Y1721001D3*
X4074169Y3267278D3*
X4908609Y2061168D3*
X7609171Y2034449D3*
X4540899Y1848848D3*
X6204484Y695236D3*
X741159Y2990113D3*
X5753681Y3136764D3*
X774531Y633416D3*
X1595533Y2084450D3*
X2561218Y3014605D3*
X6755899Y746312D3*
X750375Y2380696D3*
X603421Y3218063D3*
X5757316Y658552D3*
X7444751Y2038932D3*
X2713820Y639827D3*
X6619238Y3406052D3*
X1086899Y1648785D3*
X7794677Y1748353D3*
X5985518Y1899614D3*
X2116504Y888109D3*
X3036412Y1810496D3*
X899797Y3090518D3*
X1024336Y1670096D3*
X7186549Y1638238D3*
X6915260Y1062409D3*
X808277Y2215791D3*
X5167022Y1503169D3*
X2277475Y3406769D3*
X1502730Y2992736D3*
X6337152Y1112951D3*
X6087459Y3019703D3*
X2086217Y1649005D3*
X5717345Y2794526D3*
X1368971Y712026D3*
X7328571Y3295335D3*
X1386719Y1707186D3*
X6676592Y1032294D3*
X1954404Y2974462D3*
X4181507Y3036143D3*
X4169556Y3279526D3*
X3948530Y1995142D3*
X1643870Y1219504D3*
X7512262Y3326385D3*
X1020723Y3088133D3*
X6255550Y616490D3*
X4221270Y1695916D3*
X6323400Y2972324D3*
X7473597Y2518278D3*
X7012782Y1642615D3*
X1279909Y3321480D3*
X7126003Y1456701D3*
X6456303Y1538264D3*
X4767299Y690280D3*
X1289999Y1387079D3*
X7263427Y2120672D3*
X6312924Y607787D3*
X8038219Y2566644D3*
X891831Y1743210D3*
X1926004Y692865D3*
X4563797Y1924988D3*
X3474157Y2854780D3*
X7195570Y1498146D3*
X6840415Y1851836D3*
X614995Y2401898D3*
X8042720Y1345966D3*
X7557442Y962495D3*
X8104333Y2113751D3*
X7834539Y2495164D3*
X7842521Y2281091D3*
X1659202Y1490525D3*
X2132450Y590265D3*
X850427Y1574265D3*
X5582356Y1933651D3*
X632325Y3171580D3*
X3969967Y749354D3*
X5950987Y1563445D3*
X4943694Y2809928D3*
X7215114Y3307454D3*
X4425682Y1760396D3*
X1806434Y1445605D3*
X3429298Y2866929D3*
X2626789Y3288593D3*
X5856159Y1894423D3*
X1688829Y2977794D3*
X2777445Y1695576D3*
X7007619Y3340825D3*
X4029896Y623306D3*
X8052142Y1086312D3*
X6913521Y1750421D3*
X5340129Y1901109D3*
X4922228Y2041028D3*
X7031156Y1331076D3*
X5636252Y1587675D3*
X6441012Y1317810D3*
X3414152Y862218D3*
X1127522Y1640046D3*
X5678535Y3182972D3*
X5841119Y646318D3*
X2032238Y2958265D3*
X7599915Y2029337D3*
X2057126Y1784012D3*
X8095361Y744000D3*
X7567606Y3358054D3*
X6749730Y1853983D3*
X5710667Y689369D3*
X4107449Y3238573D3*
X830369Y3209168D3*
X5006728Y2828314D3*
X3555277Y3413827D3*
X8094080Y3035391D3*
X663887Y2280088D3*
X7304951Y881961D3*
X5129605Y3112707D3*
X3495282Y804854D3*
X789003Y2241668D3*
X4992098Y1515171D3*
X7996636Y1543714D3*
X7190598Y1593143D3*
X896066Y2184001D3*
X3542743Y2158811D3*
X1105781Y1027104D3*
X5418839Y1569030D3*
X6273562Y760455D3*
X7086579Y3160660D3*
X3839476Y2071450D3*
X868356Y823572D3*
X1720841Y1113108D3*
X7214869Y1116035D3*
X6581462Y779850D3*
X5593789Y831098D3*
X7523020Y1225923D3*
X7386635Y1153731D3*
X3250394Y1905413D3*
X6055526Y1770734D3*
X5485453Y3050799D3*
X6733505Y1025953D3*
X6815007Y2039669D3*
X4203995Y2874496D3*
X1308938Y584139D3*
X7196719Y3235976D3*
X2239156Y1366121D3*
X7584070Y3305634D3*
X1872497Y3000026D3*
X4876525Y3000328D3*
X1382537Y732329D3*
X3862887Y2052608D3*
X2741529Y3392140D3*
X6470635Y2944732D3*
X1767240Y3072860D3*
X7520762Y1745297D3*
X6190361Y1305577D3*
X2137845Y2008093D3*
X7524157Y1463362D3*
X5380816Y3008025D3*
X1541049Y1068106D3*
X3042987Y2828058D3*
X7265731Y2024936D3*
X7042820Y691558D3*
X5628567Y1548530D3*
X4039730Y3182509D3*
X7555549Y1526759D3*
X7560167Y3065646D3*
X2585837Y1665837D3*
X1936138Y540551D3*
X5706004Y2934442D3*
X7666580Y537252D3*
X2923854Y3138818D3*
X7692445Y3319109D3*
X4627827Y1155576D3*
X5694399Y523278D3*
X1374930Y1897445D3*
X5955852Y680335D3*
X7008802Y3409635D3*
X2363921Y672430D3*
X4771988Y1202971D3*
X993154Y1830885D3*
X3280353Y1546735D3*
X4709790Y1662465D3*
X3524591Y1789878D3*
X7067745Y1175719D3*
X1839761Y3237966D3*
X6163261Y3166245D3*
X2446407Y720332D3*
X1773723Y1282982D3*
X2207047Y613736D3*
X1940909Y1399408D3*
X4348312Y1715675D3*
X3601462Y715251D3*
X888344Y2517417D3*
X6244898Y3026205D3*
X1294957Y2102659D3*
X7353239Y1336806D3*
X1920298Y1558379D3*
X7478412Y2155442D3*
X5941505Y3231034D3*
X4533832Y1754866D3*
X7934825Y2468450D3*
X1984563Y1497205D3*
X6794298Y3280841D3*
X3779220Y1652630D3*
X4685634Y1618983D3*
X7100676Y1311869D3*
X6995875Y717297D3*
X1746865Y2070726D3*
X1208081Y1271739D3*
X1757503Y518566D3*
X1458730Y564265D3*
X3834936Y1864453D3*
X7296143Y3166098D3*
X7288820Y1500343D3*
X2659819Y1663727D3*
X2601226Y3159757D3*
X6298230Y687253D3*
X3680230Y1723992D3*
X3213814Y1975314D3*
X4108312Y1177825D3*
X4090210Y587051D3*
X1102888Y1039766D3*
X8046804Y3239049D3*
X7086643Y2843287D3*
X5930753Y2017833D3*
X5325531Y2994346D3*
X8063751Y2108933D3*
X6599356Y655075D3*
X6391411Y2046117D3*
X4060399Y1953757D3*
X3255297Y3172512D3*
X810475Y840619D3*
X3448831Y1504719D3*
X4858650Y3029167D3*
X3088364Y3327476D3*
X7379272Y2869881D3*
X3440587Y1176669D3*
X1024612Y2947643D3*
X4476014Y551276D3*
X7439432Y883738D3*
X5084798Y708888D3*
X5278790Y629944D3*
X4123109Y2090354D3*
X2482297Y3403961D3*
X6896218Y1707585D3*
X7786580Y2699000D3*
X2506549Y1593165D3*
X2905982Y3088059D3*
X3237892Y3024238D3*
X7350030Y599060D3*
X2036434Y1790751D3*
X2454126Y3271049D3*
X3086043Y2112563D3*
X6846661Y3069702D3*
X3275197Y1926295D3*
X5524782Y1789614D3*
X885710Y1193732D3*
X6363601Y1624257D3*
X1899996Y1896948D3*
X7361612Y3007678D3*
X4681315Y2919577D3*
X842854Y3339787D3*
X4236777Y714172D3*
X4245255Y572167D3*
X4663322Y2796718D3*
X1392982Y793381D3*
X1123465Y1705967D3*
X4470333Y3385589D3*
X1798012Y1604383D3*
X1771971Y1628869D3*
X756465Y833853D3*
X6960974Y3369059D3*
X3316068Y2939518D3*
X6370654Y1285778D3*
X7384609Y1260696D3*
X1629430Y3398588D3*
X5416631Y1895858D3*
X7764854Y2144415D3*
X6815341Y2819651D3*
X1599163Y3004814D3*
X2290987Y1794883D3*
X2645684Y1843084D3*
X1501993Y1283450D3*
X705917Y3367657D3*
X6690073Y3203663D3*
X1562895Y1196000D3*
X2970049Y558682D3*
X4905690Y826286D3*
X5852585Y1952333D3*
X2976432Y1149875D3*
X1607424Y3128773D3*
X6150147Y3105234D3*
X5616259Y3180042D3*
X6510306Y1459106D3*
X6310345Y1719912D3*
X2158035Y2022570D3*
X8013211Y1341676D3*
X6546449Y1948406D3*
X4526780Y2113564D3*
X4676319Y1178488D3*
X7478285Y1493260D3*
X757568Y1539747D3*
X1400694Y3068954D3*
X5334604Y2133699D3*
X3178954Y2842797D3*
X6332787Y746115D3*
X5713450Y2961071D3*
X5685885Y3055657D3*
X7216722Y1477912D3*
X7095906Y874676D3*
X1394633Y626602D3*
X3310993Y748570D3*
X2959623Y2841047D3*
X8019018Y2505260D3*
X3692398Y533719D3*
X5097747Y3011213D3*
X6668060Y752357D3*
X3287975Y2110521D3*
X4244041Y2977612D3*
X7394312Y836373D3*
X2388437Y771793D3*
X4807014Y530134D3*
X3014049Y3055231D3*
X7461507Y2616192D3*
X7047630Y3014129D3*
X3492950Y2987846D3*
X3995391Y681932D3*
X5559302Y550811D3*
X2625199Y2831243D3*
X4728904Y2890963D3*
X1328031Y1327144D3*
X7837046Y3262357D3*
X6747862Y966003D3*
X7486232Y2831722D3*
X2940014Y1798050D3*
X5083932Y1749341D3*
X5283339Y1820626D3*
X1729667Y1696446D3*
X6894312Y1428529D3*
X670201Y2394870D3*
X7000484Y1122178D3*
X4896764Y694457D3*
X6281541Y1537168D3*
X4983055Y2832597D3*
X4483878Y873490D3*
X1112378Y3062963D3*
X901331Y1927996D3*
X2469546Y2111877D3*
X3731899Y1527631D3*
X7847135Y3311521D3*
X1260327Y2193975D3*
X3710584Y901444D3*
X3995286Y2044581D3*
X5436886Y1801857D3*
X4308879Y1706794D3*
X7577409Y1492146D3*
X4346693Y2994211D3*
X3170026Y610146D3*
X5182976Y3038399D3*
X4058298Y3126982D3*
X7580604Y2966386D3*
X2335541Y776724D3*
X1646867Y1148039D3*
X6979701Y2106698D3*
X7080337Y2034129D3*
X1725001Y1686822D3*
X7415168Y1302717D3*
X5725239Y1944492D3*
X8003882Y1081810D3*
X1396026Y3052699D3*
X5848079Y3169678D3*
X5372764Y2045381D3*
X4142543Y1829185D3*
X1438638Y3261177D3*
X1044156Y840178D3*
X4244268Y2884173D3*
X3602886Y621917D3*
X5451387Y2849335D3*
X4885744Y1147881D3*
X7521505Y1902850D3*
X4741350Y1150923D3*
X4339151Y1620702D3*
X1276399Y681157D3*
X4642429Y533997D3*
X3230479Y623081D3*
X7975797Y1798379D3*
X1323635Y3192854D3*
X4194841Y2048535D3*
X2620873Y808621D3*
X4502730Y1861995D3*
X1927916Y1199563D3*
X5652419Y750362D3*
X7832904Y1354050D3*
X2077835Y3079797D3*
X7065081Y1770562D3*
X4504852Y2913896D3*
X792711Y3098877D3*
X7791996Y557319D3*
X4418175Y3353112D3*
X3646812Y1197944D3*
X4037612Y1853900D3*
X7877874Y1688287D3*
X960509Y2092732D3*
X6678808Y3283311D3*
X7712268Y1660387D3*
X7699719Y2362801D3*
X7089760Y3316268D3*
X7690927Y3107312D3*
X1217203Y984343D3*
X6699004Y627339D3*
X5807324Y1685281D3*
X7974025Y1626896D3*
X6480428Y1755634D3*
X7311941Y2848807D3*
X4978971Y3026659D3*
X7156722Y1037790D3*
X6709831Y1224073D3*
X4090089Y3014239D3*
X1515890Y3227138D3*
X6440713Y895181D3*
X6208429Y3093231D3*
X1211710Y1988895D3*
X4253146Y1804920D3*
X4607697Y864597D3*
X2149235Y1242873D3*
X3464495Y749991D3*
X1233958Y1721622D3*
X931123Y2103147D3*
X7708035Y3326480D3*
X2821051Y3132327D3*
X2020701Y3084194D3*
X724500Y2243919D3*
X916807Y3157361D3*
X7614055Y924188D3*
X5112471Y3182421D3*
X2976152Y2876143D3*
X969365Y1822392D3*
X873471Y1199959D3*
X6790657Y735558D3*
X5585867Y559833D3*
X3680332Y1618770D3*
X842866Y1032420D3*
X1188753Y3020900D3*
X8081688Y851684D3*
X5973283Y2919411D3*
X655692Y3377919D3*
X1337781Y631731D3*
X1142963Y3240904D3*
X2342371Y3137396D3*
X6278420Y548241D3*
X2844138Y3402898D3*
X4205757Y859541D3*
X7657951Y791874D3*
X613538Y2227496D3*
X8003451Y1397777D3*
X2630862Y1855046D3*
X1525663Y1137163D3*
X7891018Y1344963D3*
X1911928Y1021177D3*
X6275497Y1938343D3*
X4973664Y549757D3*
X8102134Y1138539D3*
X6884934Y3110513D3*
X778795Y2274770D3*
X7455613Y1867661D3*
X1352568Y1578656D3*
X4687856Y517728D3*
X6474051Y1794982D3*
X4200175Y3047262D3*
X3752024Y1780073D3*
X1552231Y1189472D3*
X5970593Y2811949D3*
X3578474Y891362D3*
X1612304Y879563D3*
X7713087Y1801924D3*
X6429581Y3162319D3*
X7194865Y608285D3*
X2061185Y1838297D3*
X1875450Y2095314D3*
X2322322Y3206906D3*
X5606189Y1165879D3*
X6212451Y2042000D3*
X1194518Y2223143D3*
X7986181Y1878752D3*
X5043945Y886178D3*
X977109Y867319D3*
X726039Y1954756D3*
X2149214Y1810505D3*
X2215209Y595358D3*
X872365Y2252130D3*
X5401470Y1628664D3*
X6686154Y561596D3*
X3627577Y3391962D3*
X1878961Y648835D3*
X4027782Y1970752D3*
X7342167Y3257441D3*
X5992398Y1516815D3*
X3468144Y829362D3*
X2027823Y962727D3*
X1198235Y1944403D3*
X6707636Y3082846D3*
X6394623Y1292731D3*
X4840749Y1710825D3*
X7663915Y2273081D3*
X3382319Y1855584D3*
X5304951Y2063741D3*
X2778759Y1626496D3*
X6101701Y1170942D3*
X7394125Y3388114D3*
X665241Y1484558D3*
X1738958Y854677D3*
X6364087Y3411638D3*
X1906669Y3276459D3*
X4295172Y3338388D3*
X7618151Y3133415D3*
X3147488Y2815573D3*
X4572451Y2140912D3*
X2968726Y886486D3*
X6535327Y2806198D3*
X2053823Y2098484D3*
X868634Y2925367D3*
X7204043Y1291938D3*
X7506323Y2067979D3*
X4098875Y2131675D3*
X6036075Y850654D3*
X6855343Y1648345D3*
X2498012Y2098534D3*
X6323223Y3031093D3*
X7769259Y704652D3*
X2346146Y1521558D3*
X7619442Y2610038D3*
X6241720Y901570D3*
X7098967Y1280290D3*
X5973996Y803961D3*
X4367835Y712407D3*
X5524693Y3237944D3*
X7437101Y1940979D3*
X2692020Y2921286D3*
X8098457Y1470499D3*
X6430814Y1499207D3*
X2332621Y746037D3*
X3084427Y1178139D3*
X3926530Y3026001D3*
X848281Y1339648D3*
X731017Y690970D3*
X8071259Y2234883D3*
X2120785Y2061346D3*
X2552525Y1519488D3*
X1393354Y560264D3*
X1616629Y1589804D3*
X2075575Y1399276D3*
X2198665Y790480D3*
X6394912Y1963812D3*
X7651421Y794273D3*
X6152525Y1664432D3*
X2726991Y1750594D3*
X5910996Y2917280D3*
X6727454Y3216476D3*
X5298273Y3140306D3*
X2812608Y1937037D3*
X7839157Y2669249D3*
X668312Y2519391D3*
X4747487Y3256130D3*
X6694547Y2120173D3*
X5293920Y3094577D3*
X7773556Y2425295D3*
X7212987Y1745724D3*
X7526576Y1510470D3*
X4513878Y569223D3*
X3245025Y656028D3*
X6059988Y2036327D3*
X1230541Y3376588D3*
X2858257Y2086934D3*
X3624535Y3315028D3*
X6550769Y669327D3*
X7149143Y1811755D3*
X6676461Y2920378D3*
X5030329Y1800635D3*
X6612665Y1854109D3*
X6148841Y1804699D3*
X4920940Y3162881D3*
X1557395Y1654000D3*
X3394112Y1211979D3*
X6707848Y2157728D3*
X2266615Y597486D3*
X2997517Y648343D3*
X7555757Y1447983D3*
X7590423Y1100093D3*
X738042Y1687682D3*
X6213110Y2121806D3*
X4708361Y1546736D3*
X3791230Y3250253D3*
X4963654Y547336D3*
X5216696Y682862D3*
X5319499Y2118272D3*
X1986761Y1056332D3*
X7053106Y3269823D3*
X780318Y1557793D3*
X1445160Y596899D3*
X3058458Y1191677D3*
X2767915Y1521424D3*
X1952780Y886071D3*
X1625584Y1489643D3*
X3298063Y3345058D3*
X2330508Y3188703D3*
X5314992Y1975537D3*
X1755343Y2075314D3*
X741399Y1983059D3*
X7279340Y1153675D3*
X818062Y2847129D3*
X4276315Y1914874D3*
X3304218Y1550268D3*
X7813667Y2011213D3*
X2259676Y3132398D3*
X2520549Y3349744D3*
X654677Y2375852D3*
X7598970Y1672879D3*
X4829529Y1905453D3*
X1432765Y3400711D3*
X6945647Y3346102D3*
X4847398Y2999327D3*
X2504495Y1710975D3*
X6707615Y1395244D3*
X6439178Y869459D3*
X772262Y1515346D3*
X3970180Y740050D3*
X764916Y1397589D3*
X6096566Y784465D3*
X7450903Y1033516D3*
X8046846Y1200487D3*
X2813580Y3138159D3*
X1875677Y3159867D3*
X1516444Y1723654D3*
X8060652Y1460522D3*
X6444287Y3003133D3*
X3403182Y1720804D3*
X4993358Y3160504D3*
X5906396Y1585542D3*
X4337159Y1853298D3*
X6907853Y3175382D3*
X6518207Y1336409D3*
X6698323Y1205206D3*
X8071699Y526230D3*
X7171627Y2000654D3*
X1077802Y1522832D3*
X3770996Y782203D3*
X2297812Y2885907D3*
X2033461Y2995088D3*
X6222290Y1463273D3*
X1168810Y2565839D3*
X2598568Y2894289D3*
X609395Y2643101D3*
X6231047Y654492D3*
X8079507Y2417811D3*
X5622888Y765377D3*
X2386614Y1703657D3*
X5392651Y1846982D3*
X2382438Y773526D3*
X4505988Y1841154D3*
X1474879Y1235808D3*
X7633383Y2209572D3*
X8104538Y984862D3*
X1439327Y1975230D3*
X3754059Y3228546D3*
X7304794Y3323316D3*
X4156778Y1731886D3*
X5221933Y636471D3*
X3728248Y730698D3*
X3925699Y1960198D3*
X6234677Y1730701D3*
X1596936Y3316404D3*
X7164092Y2996625D3*
X7640823Y924706D3*
X2927014Y2087567D3*
X4879196Y1601281D3*
X4973934Y2101073D3*
X3683063Y1908585D3*
X6966844Y679681D3*
X2061304Y520273D3*
X2412694Y3324942D3*
X1040719Y2765958D3*
X2055236Y1466157D3*
X3746824Y2067255D3*
X6612576Y3379592D3*
X7129438Y3221951D3*
X7612764Y556867D3*
X4313215Y3051903D3*
X6786110Y1966861D3*
X3617135Y2069344D3*
X1334252Y679388D3*
X6335276Y3239119D3*
X7075623Y1852634D3*
X2714308Y3061895D3*
X1061749Y641587D3*
X2973056Y1928887D3*
X4589657Y1811281D3*
X3530155Y1219488D3*
X2733538Y856698D3*
X2860735Y717576D3*
X2234409Y918636D3*
X7632597Y3419469D3*
X6073343Y1726827D3*
X6599269Y2953469D3*
X1726362Y724114D3*
X6835215Y1556207D3*
X7851462Y1597383D3*
X4686835Y649664D3*
X2334924Y2123251D3*
X4907420Y2015428D3*
X699778Y2046461D3*
X1796912Y2102734D3*
X8054256Y568467D3*
X850283Y1247639D3*
X6614235Y3091213D3*
X7795020Y3145000D3*
X7417353Y3384526D3*
X5023521Y1161455D3*
X973757Y2067133D3*
X3480974Y845614D3*
X6090182Y3120732D3*
X2390386Y783587D3*
X5002709Y3275387D3*
X4217780Y2938849D3*
X5876196Y1836958D3*
X7807110Y3219583D3*
X2843478Y1627697D3*
X2980507Y1866858D3*
X1221564Y3389686D3*
X4895680Y1726929D3*
X7390652Y2842012D3*
X808238Y3218181D3*
X7726262Y1298908D3*
X7950247Y2901672D3*
X4368265Y1770315D3*
X7275028Y1927669D3*
X4451635Y1760631D3*
X7667432Y1525946D3*
X1532602Y2001134D3*
X2156938Y1463970D3*
X3790399Y558761D3*
X8032507Y3164157D3*
X6473537Y3216606D3*
X8038874Y2663579D3*
X6822807Y1314302D3*
X1387542Y835865D3*
X4440768Y2860937D3*
X1028642Y1879672D3*
X5888818Y609541D3*
X2557730Y837535D3*
X5599720Y1961833D3*
X1478425Y3110199D3*
X3753008Y682497D3*
X6354680Y1615941D3*
X1409339Y1941778D3*
X4163411Y1881483D3*
X7140366Y1211627D3*
X6854941Y2065991D3*
X3287009Y696257D3*
X4477324Y1743870D3*
X6378123Y2100974D3*
X7474373Y1521702D3*
X7716356Y2888387D3*
X8075253Y779185D3*
X1354207Y2877942D3*
X5395370Y642604D3*
X3223241Y1715841D3*
X7304881Y3317066D3*
X924488Y3282659D3*
X2129478Y2916232D3*
X1883361Y1354543D3*
X3206054Y3347673D3*
X2836442Y3368001D3*
X3412545Y1216911D3*
X3858936Y2047896D3*
X2307290Y1893706D3*
X5683575Y3276486D3*
X6501257Y2820731D3*
X7649412Y994497D3*
X1401693Y1474848D3*
X7698224Y2826358D3*
X5000324Y1724753D3*
X5939613Y2890966D3*
X7719877Y1323475D3*
X6839241Y3187091D3*
X627970Y3123543D3*
X3311248Y2030453D3*
X7528529Y2045072D3*
X7834912Y2220588D3*
X2356419Y2040483D3*
X5210068Y564694D3*
X821415Y2785156D3*
X6811156Y1729705D3*
X2391340Y3075017D3*
X3646276Y637269D3*
X7675252Y1385192D3*
X4996509Y1900085D3*
X3747823Y2002367D3*
X6557720Y2929302D3*
X4206711Y1850778D3*
X3795623Y876294D3*
X7708675Y2984806D3*
X6307609Y1974940D3*
X6042071Y1685274D3*
X2004003Y1253490D3*
X5146475Y2872387D3*
X6192835Y1684996D3*
X6978756Y2946840D3*
X4656207Y546112D3*
X6467932Y2132070D3*
X5326366Y1556339D3*
X2948857Y670012D3*
X7029289Y2874508D3*
X7830937Y1258161D3*
X1144016Y1153169D3*
X3380731Y3232638D3*
X5928621Y3020845D3*
X7334269Y1101350D3*
X4432551Y3371885D3*
X3058837Y2030844D3*
X5971249Y3406520D3*
X4272840Y832907D3*
X5680778Y1984948D3*
X6287626Y2874362D3*
X4343231Y624071D3*
X2748829Y1985083D3*
X6453530Y1729919D3*
X711331Y2827206D3*
X6868285Y601525D3*
X6543619Y1318898D3*
X2609496Y1503114D3*
X817782Y2960655D3*
X4009505Y1867793D3*
X6883735Y1110804D3*
X6635797Y1430934D3*
X7332018Y739669D3*
X4227583Y2140260D3*
X4991636Y3040365D3*
X7890445Y728392D3*
X2832664Y1211831D3*
X5722400Y796370D3*
X3146969Y2087076D3*
X3237552Y3338294D3*
X4913169Y3417098D3*
X1259963Y1700581D3*
X6792534Y2905214D3*
X1425399Y1705282D3*
X636630Y753533D3*
X2526525Y3035711D3*
X6863500Y902832D3*
X683201Y1549791D3*
X1732416Y1445958D3*
X7761627Y2886272D3*
X6322530Y1152092D3*
X1523340Y1850329D3*
X5795927Y1535220D3*
X7101302Y3351524D3*
X6136129Y1836143D3*
X4354407Y1558245D3*
X7848152Y1828071D3*
X735117Y920253D3*
X1873970Y1900475D3*
X7024388Y2860576D3*
X4672790Y3383908D3*
X7164434Y1147091D3*
X1272571Y1266076D3*
X7717774Y2373185D3*
X1009417Y1578081D3*
X1095319Y699625D3*
X627711Y1912133D3*
X4876769Y1700461D3*
X4626404Y3153626D3*
X648492Y2739499D3*
X5343080Y789423D3*
X5563329Y3378308D3*
X740563Y1509734D3*
X7857524Y2037135D3*
X1358455Y2866045D3*
X3930592Y1839193D3*
X1514126Y3271135D3*
X6887997Y2878231D3*
X3064825Y2834780D3*
X7249097Y3226526D3*
X4338694Y1939437D3*
X1261521Y1427647D3*
X1773165Y2113114D3*
X2532245Y540865D3*
X7544643Y2027597D3*
X6986253Y2043501D3*
X2575404Y3158224D3*
X1342895Y846346D3*
X3387585Y603364D3*
X7744470Y900087D3*
X3547049Y1652457D3*
X6526451Y2159504D3*
X6965448Y1139621D3*
X7017566Y2157636D3*
X2122369Y1354777D3*
X8016765Y1364446D3*
X1265978Y1391383D3*
X4789698Y2853331D3*
X7061052Y1355807D3*
X7084894Y1720534D3*
X6010676Y3383997D3*
X3468115Y3090249D3*
X4527339Y1623709D3*
X2651375Y3282105D3*
X3565874Y1708483D3*
X1417453Y3066633D3*
X5693476Y3389760D3*
X2588325Y3100167D3*
X5713623Y1793703D3*
X6860542Y759491D3*
X1796121Y1658493D3*
X2901152Y3033982D3*
X5759196Y1933133D3*
X4814720Y2874264D3*
X7187820Y1132882D3*
X3110060Y1588011D3*
X2961529Y1827451D3*
X6441354Y919377D3*
X1622260Y2822623D3*
X8060184Y982408D3*
X3235395Y796037D3*
X889412Y3208827D3*
X5738094Y547685D3*
X3376730Y735226D3*
X906542Y3192077D3*
X1223602Y3042408D3*
X4088299Y2849772D3*
X4900319Y1806285D3*
X7301436Y1663581D3*
X4545478Y1928941D3*
X1262832Y3139092D3*
X1934627Y1144420D3*
X2836403Y521192D3*
X1347808Y1673755D3*
X2822911Y1856093D3*
X1077823Y1352930D3*
X6431903Y678354D3*
X6543583Y1794970D3*
X6948404Y2911579D3*
X685831Y2862270D3*
X5982357Y2933094D3*
X7796018Y1027669D3*
X1038427Y2867937D3*
X8016176Y2015458D3*
X6531860Y1006273D3*
X4243467Y3217262D3*
X2808343Y1739610D3*
X7169227Y1321815D3*
X2105592Y1241888D3*
X2540923Y703942D3*
X3424507Y3363776D3*
X6437752Y524087D3*
X4829996Y795962D3*
X4184766Y725455D3*
X4136702Y1674241D3*
X7925957Y2824990D3*
X7495987Y1282593D3*
X5336579Y1753276D3*
X7842902Y1934846D3*
X3547243Y799451D3*
X6998602Y3408483D3*
X636189Y1654163D3*
X5124898Y1739121D3*
X7655388Y1964046D3*
X1839504Y1551816D3*
X7791026Y2402378D3*
X1654566Y1743440D3*
X6691119Y1996504D3*
X2609285Y3158865D3*
X7964328Y3118944D3*
X3194463Y683812D3*
X6872251Y2050709D3*
X3394045Y2153307D3*
X3188808Y629030D3*
X7178328Y2954760D3*
X666045Y1885678D3*
X7032962Y3239474D3*
X7059797Y1696448D3*
X4714081Y756337D3*
X6470478Y3032774D3*
X7791885Y852676D3*
X5502711Y1802592D3*
X2745020Y1195014D3*
X1416178Y3092913D3*
X1450772Y646202D3*
X964399Y2436648D3*
X5092398Y3300538D3*
X3550535Y3040980D3*
X1233823Y3034289D3*
X4945522Y1175566D3*
X4919105Y1834146D3*
X910311Y724441D3*
X6371278Y1692938D3*
X7577315Y530455D3*
X2602749Y703484D3*
X6279612Y589593D3*
X6967033Y1357274D3*
X2604369Y658236D3*
X7688812Y2029575D3*
X4196825Y1606409D3*
X885218Y524709D3*
X819631Y1858265D3*
X5106374Y1533155D3*
X5547304Y1155762D3*
X980176Y1049112D3*
X6327260Y1205038D3*
X4636335Y3215965D3*
X3609184Y3301186D3*
X5743978Y561881D3*
X4889971Y3099944D3*
X5500102Y3342396D3*
X2438986Y2905609D3*
X6427478Y1898667D3*
X593726Y2288738D3*
X7229369Y2107133D3*
X6546046Y3326528D3*
X979911Y568846D3*
X2933949Y1844822D3*
X967328Y1537125D3*
X6816726Y1210488D3*
X6897785Y716080D3*
X3746159Y2159089D3*
X6210201Y1177352D3*
X7955850Y2780840D3*
X3070377Y1168295D3*
X3713882Y892244D3*
X1515079Y562954D3*
X607726Y2671592D3*
X5091886Y1812529D3*
X1583198Y2795699D3*
X7351232Y1213433D3*
X1617115Y3148648D3*
X685307Y3128276D3*
X3568459Y3147572D3*
X1112760Y2819856D3*
X3373676Y3280068D3*
X6307147Y579503D3*
X3983454Y690404D3*
X6219320Y3319031D3*
X1920856Y612335D3*
X2321970Y3144005D3*
X7423672Y1510021D3*
X7557350Y1997245D3*
X1691514Y1299480D3*
X3630631Y3212039D3*
X3387714Y1704361D3*
X7659899Y3328957D3*
X7920942Y1485033D3*
X3443408Y1538828D3*
X6433757Y2954778D3*
X6608644Y3177689D3*
X3980555Y3040259D3*
X1453881Y2033835D3*
X1193676Y544377D3*
X7466526Y1815000D3*
X7528756Y1074222D3*
X3507012Y1635054D3*
X7567860Y1822113D3*
X599631Y2633903D3*
X3629213Y1164657D3*
X5398451Y2983159D3*
X3685709Y1667871D3*
X5649605Y2859875D3*
X1173131Y648193D3*
X7870370Y1568008D3*
X1455810Y1042035D3*
X5328043Y2121243D3*
X7195164Y1038717D3*
X6613807Y3325037D3*
X5181988Y1175487D3*
X3086332Y810404D3*
X1336604Y1410163D3*
X2217957Y1520013D3*
X984686Y739512D3*
X6121197Y2121686D3*
X614999Y2186427D3*
X7735157Y1038703D3*
X7007241Y3327571D3*
X7762546Y2116228D3*
X6956070Y2866908D3*
X5634705Y1833699D3*
X7939965Y1284585D3*
X3103407Y2924157D3*
X774219Y1000672D3*
X4807663Y1161080D3*
X7844759Y2839724D3*
X6360287Y3109688D3*
X2149201Y3107501D3*
X8074000Y1578630D3*
X3865059Y1749331D3*
X1143579Y3361651D3*
X5221199Y1845944D3*
X7949274Y1062316D3*
X4614202Y1800260D3*
X1724927Y539819D3*
X7246759Y2913350D3*
X4345597Y3011860D3*
X5719942Y1146825D3*
X808650Y3365932D3*
X3511311Y2910115D3*
X5260391Y2027969D3*
X4178466Y2985126D3*
X3517865Y3215283D3*
X1187215Y985434D3*
X930150Y1432818D3*
X1818925Y554920D3*
X3034806Y1186222D3*
X3026959Y1760760D3*
X1029322Y538455D3*
X674054Y1583177D3*
X7969752Y1869151D3*
X4854314Y3215934D3*
X4921333Y2144936D3*
X812936Y620724D3*
X7794157Y2570853D3*
X2119579Y904724D3*
X5508697Y3309573D3*
X7011604Y1681033D3*
X4080045Y1982308D3*
X2555726Y735495D3*
X2396077Y642026D3*
X6397692Y521734D3*
X5309563Y1919751D3*
X3476657Y1802136D3*
X7817602Y680854D3*
X3366453Y1593102D3*
X4719816Y3055978D3*
X2233037Y1633618D3*
X7642285Y915446D3*
X4566727Y1878896D3*
X1215853Y2258825D3*
X4315856Y2837168D3*
X5717743Y2831136D3*
X696647Y3226525D3*
X2596375Y3039037D3*
X7500521Y2089257D3*
X838757Y1110894D3*
X2589856Y898001D3*
X2850138Y1822474D3*
X832163Y2688846D3*
X969119Y1908262D3*
X7412675Y3005009D3*
X3610458Y1817234D3*
X6130356Y1542887D3*
X4525484Y3095333D3*
X6441106Y1274514D3*
X3957097Y601545D3*
X2741189Y520438D3*
X2668629Y620886D3*
X7850109Y534075D3*
X5912360Y1552247D3*
X6572451Y741887D3*
X1439096Y1822991D3*
X6134656Y1695959D3*
X1360870Y1858144D3*
X3939668Y1996709D3*
X1413627Y1328623D3*
X1317104Y2884997D3*
X1986749Y1698832D3*
X7798306Y1850944D3*
X8025127Y1367064D3*
X1606514Y1591085D3*
M02*
